M48
METRIC,LZ,000.000
;FILE_FORMAT=3:3
;TYPE=PLATED
;Layer: PTH_Through
;EasyEDA v6.5.5, 2022-06-26 01:00:07
;2c515557f0e44504be437badec322791,a4ea12fd96744f7d9b8618c9b4952ea7,10
;Gerber Generator version 0.2
;Holesize 1 = 0.305 mm
T01C0.305
;Holesize 2 = 0.762 mm
T02C0.762
;Holesize 3 = 1.101 mm
T03C1.101
;Holesize 4 = 1.200 mm
T04C1.200
;Holesize 5 = 1.401 mm
T05C1.401
;Holesize 6 = 1.600 mm
T06C1.600
;Holesize 7 = 1.800 mm
T07C1.800
%
G05
G90
T01
X026035Y055118
X016891Y047625
X007874Y054610
X017272Y063881
X018542Y071374
X109093Y069977
X108712Y064262
X116713Y057404
X098806Y057658
X108077Y049784
X072517Y017780
X057404Y017907
X097663Y046101
X067566Y046865
X059309Y074307
X027686Y037465
X090170Y033655
X044704Y011938
X071628Y029718
T02
X028956Y075438
X031496Y077978
X028956Y080518
X090170Y075438
X092710Y077978
X090170Y080518
T03
X118186Y050201
X118186Y054701
X111684Y050201
X111684Y054701
X109550Y043216
X109550Y047716
X103048Y043216
X103048Y047716
X022428Y040803
X022428Y045303
X015926Y040803
X015926Y045303
X013157Y047915
X013157Y052415
X006655Y047915
X006655Y052415
X031572Y048804
X031572Y053304
X025070Y048804
X025070Y053304
X022301Y057059
X022301Y061559
X015799Y057059
X015799Y061559
X110185Y057440
X110185Y061940
X103683Y057440
X103683Y061940
X100279Y050709
X100279Y055209
X093777Y050709
X093777Y055209
T04
X037499Y018032
X037499Y020572
X037499Y023112
X031309Y029302
X028769Y029302
X026229Y029302
X108365Y018286
X108365Y020826
X108365Y023366
X102175Y029556
X099635Y029556
X097095Y029556
X016982Y079121
X012482Y079121
X057150Y084836
X057150Y082296
X057150Y079756
X057150Y077216
X057150Y074676
X057150Y072136
X057150Y069596
X057150Y067056
X057150Y064516
X057150Y061976
X057150Y059436
X057150Y056896
X057150Y054356
X057150Y051816
X057150Y049276
X057150Y046736
X057150Y044196
X057150Y041656
X057150Y039116
X057150Y036576
X072390Y084709
X072390Y082169
X072390Y079629
X072390Y077089
X072390Y074549
X072390Y072009
X072390Y069469
X072390Y066929
X072390Y064389
X072390Y061849
X072390Y059309
X072390Y056769
X072390Y054229
X072390Y051689
X072390Y049149
X072390Y046609
X072390Y044069
X072390Y041529
X072390Y038989
X072390Y036449
X112105Y078867
X107605Y078867
T05
X011133Y076581
X018331Y076581
X106256Y076327
X113454Y076327
T06
X025500Y014822
X032000Y014822
X025500Y010322
X032000Y010322
X096366Y015076
X102866Y015076
X096366Y010576
X102866Y010576
T07
X022445Y025572
X022445Y015572
X035095Y015572
X035095Y025572
X093311Y025826
X093311Y015826
X105961Y015826
X105961Y025826
M30
