G04 Layer: TopPasteMaskLayer*
G04 EasyEDA v6.5.5, 2022-06-26 01:00:07*
G04 2c515557f0e44504be437badec322791,a4ea12fd96744f7d9b8618c9b4952ea7,10*
G04 Gerber Generator version 0.2*
G04 Scale: 100 percent, Rotated: No, Reflected: No *
G04 Dimensions in millimeters *
G04 leading zeros omitted , absolute positions ,4 integer and 5 decimal *
%FSLAX45Y45*%
%MOMM*%

%ADD13R,1.7400X1.4000*%

%LPD*%
G36*
X3957218Y1238808D02*
G01*
X3952189Y1233779D01*
X3952189Y1153820D01*
X3957218Y1148791D01*
X4037177Y1148791D01*
X4042206Y1153820D01*
X4042206Y1176578D01*
X4005224Y1176578D01*
X4005224Y1209598D01*
X4042206Y1209598D01*
X4042206Y1233779D01*
X4037177Y1238808D01*
G37*
G36*
X4117187Y1238808D02*
G01*
X4112209Y1233779D01*
X4112209Y1209598D01*
X4150207Y1209598D01*
X4150207Y1176578D01*
X4112209Y1176578D01*
X4112209Y1153820D01*
X4117187Y1148791D01*
X4196181Y1148791D01*
X4201210Y1153820D01*
X4201210Y1233779D01*
X4196181Y1238808D01*
G37*
G36*
X5856122Y2013508D02*
G01*
X5851093Y2008479D01*
X5851093Y1985721D01*
X5888075Y1985721D01*
X5888075Y1952701D01*
X5851093Y1952701D01*
X5851093Y1928520D01*
X5856122Y1923491D01*
X5936081Y1923491D01*
X5941110Y1928520D01*
X5941110Y2008479D01*
X5936081Y2013508D01*
G37*
G36*
X5697118Y2013508D02*
G01*
X5692089Y2008479D01*
X5692089Y1928520D01*
X5697118Y1923491D01*
X5776112Y1923491D01*
X5781090Y1928520D01*
X5781090Y1952701D01*
X5743092Y1952701D01*
X5743092Y1985721D01*
X5781090Y1985721D01*
X5781090Y2008479D01*
X5776112Y2013508D01*
G37*
G36*
X7367422Y1988108D02*
G01*
X7362393Y1983079D01*
X7362393Y1960321D01*
X7399375Y1960321D01*
X7399375Y1927301D01*
X7362393Y1927301D01*
X7362393Y1903120D01*
X7367422Y1898091D01*
X7447381Y1898091D01*
X7452410Y1903120D01*
X7452410Y1983079D01*
X7447381Y1988108D01*
G37*
G36*
X7208418Y1988108D02*
G01*
X7203389Y1983079D01*
X7203389Y1903120D01*
X7208418Y1898091D01*
X7287412Y1898091D01*
X7292390Y1903120D01*
X7292390Y1927301D01*
X7254392Y1927301D01*
X7254392Y1960321D01*
X7292390Y1960321D01*
X7292390Y1983079D01*
X7287412Y1988108D01*
G37*
G36*
X10802518Y1264208D02*
G01*
X10797489Y1259179D01*
X10797489Y1179220D01*
X10802518Y1174191D01*
X10882477Y1174191D01*
X10887506Y1179220D01*
X10887506Y1201978D01*
X10850524Y1201978D01*
X10850524Y1234998D01*
X10887506Y1234998D01*
X10887506Y1259179D01*
X10882477Y1264208D01*
G37*
G36*
X10962487Y1264208D02*
G01*
X10957509Y1259179D01*
X10957509Y1234998D01*
X10995507Y1234998D01*
X10995507Y1201978D01*
X10957509Y1201978D01*
X10957509Y1179220D01*
X10962487Y1174191D01*
X11041481Y1174191D01*
X11046510Y1179220D01*
X11046510Y1259179D01*
X11041481Y1264208D01*
G37*
G36*
X11628018Y5912408D02*
G01*
X11622989Y5907379D01*
X11622989Y5827420D01*
X11628018Y5822391D01*
X11707977Y5822391D01*
X11713006Y5827420D01*
X11713006Y5850178D01*
X11676024Y5850178D01*
X11676024Y5883198D01*
X11713006Y5883198D01*
X11713006Y5907379D01*
X11707977Y5912408D01*
G37*
G36*
X11787987Y5912408D02*
G01*
X11783009Y5907379D01*
X11783009Y5883198D01*
X11821007Y5883198D01*
X11821007Y5850178D01*
X11783009Y5850178D01*
X11783009Y5827420D01*
X11787987Y5822391D01*
X11866981Y5822391D01*
X11872010Y5827420D01*
X11872010Y5907379D01*
X11866981Y5912408D01*
G37*
G36*
X10764418Y5175808D02*
G01*
X10759389Y5170779D01*
X10759389Y5090820D01*
X10764418Y5085791D01*
X10844377Y5085791D01*
X10849406Y5090820D01*
X10849406Y5113578D01*
X10812424Y5113578D01*
X10812424Y5146598D01*
X10849406Y5146598D01*
X10849406Y5170779D01*
X10844377Y5175808D01*
G37*
G36*
X10924387Y5175808D02*
G01*
X10919409Y5170779D01*
X10919409Y5146598D01*
X10957407Y5146598D01*
X10957407Y5113578D01*
X10919409Y5113578D01*
X10919409Y5090820D01*
X10924387Y5085791D01*
X11003381Y5085791D01*
X11008410Y5090820D01*
X11008410Y5170779D01*
X11003381Y5175808D01*
G37*
G36*
X1544218Y4972608D02*
G01*
X1539189Y4967579D01*
X1539189Y4887620D01*
X1544218Y4882591D01*
X1624177Y4882591D01*
X1629206Y4887620D01*
X1629206Y4910378D01*
X1592224Y4910378D01*
X1592224Y4943398D01*
X1629206Y4943398D01*
X1629206Y4967579D01*
X1624177Y4972608D01*
G37*
G36*
X1704187Y4972608D02*
G01*
X1699209Y4967579D01*
X1699209Y4943398D01*
X1737207Y4943398D01*
X1737207Y4910378D01*
X1699209Y4910378D01*
X1699209Y4887620D01*
X1704187Y4882591D01*
X1783181Y4882591D01*
X1788210Y4887620D01*
X1788210Y4967579D01*
X1783181Y4972608D01*
G37*
G36*
X629818Y5734608D02*
G01*
X624789Y5729579D01*
X624789Y5649620D01*
X629818Y5644591D01*
X709777Y5644591D01*
X714806Y5649620D01*
X714806Y5672378D01*
X677824Y5672378D01*
X677824Y5705398D01*
X714806Y5705398D01*
X714806Y5729579D01*
X709777Y5734608D01*
G37*
G36*
X789787Y5734608D02*
G01*
X784809Y5729579D01*
X784809Y5705398D01*
X822807Y5705398D01*
X822807Y5672378D01*
X784809Y5672378D01*
X784809Y5649620D01*
X789787Y5644591D01*
X868781Y5644591D01*
X873810Y5649620D01*
X873810Y5729579D01*
X868781Y5734608D01*
G37*
G36*
X1658518Y7322108D02*
G01*
X1653489Y7317079D01*
X1653489Y7237120D01*
X1658518Y7232091D01*
X1738477Y7232091D01*
X1743506Y7237120D01*
X1743506Y7259878D01*
X1706524Y7259878D01*
X1706524Y7292898D01*
X1743506Y7292898D01*
X1743506Y7317079D01*
X1738477Y7322108D01*
G37*
G36*
X1818487Y7322108D02*
G01*
X1813509Y7317079D01*
X1813509Y7292898D01*
X1851507Y7292898D01*
X1851507Y7259878D01*
X1813509Y7259878D01*
X1813509Y7237120D01*
X1818487Y7232091D01*
X1897481Y7232091D01*
X1902510Y7237120D01*
X1902510Y7317079D01*
X1897481Y7322108D01*
G37*
G36*
X2471318Y5734608D02*
G01*
X2466289Y5729579D01*
X2466289Y5649620D01*
X2471318Y5644591D01*
X2551277Y5644591D01*
X2556306Y5649620D01*
X2556306Y5672378D01*
X2519324Y5672378D01*
X2519324Y5705398D01*
X2556306Y5705398D01*
X2556306Y5729579D01*
X2551277Y5734608D01*
G37*
G36*
X2631287Y5734608D02*
G01*
X2626309Y5729579D01*
X2626309Y5705398D01*
X2664307Y5705398D01*
X2664307Y5672378D01*
X2626309Y5672378D01*
X2626309Y5649620D01*
X2631287Y5644591D01*
X2710281Y5644591D01*
X2715310Y5649620D01*
X2715310Y5729579D01*
X2710281Y5734608D01*
G37*
G36*
X10872622Y7182408D02*
G01*
X10867593Y7177379D01*
X10867593Y7154621D01*
X10904575Y7154621D01*
X10904575Y7121601D01*
X10867593Y7121601D01*
X10867593Y7097420D01*
X10872622Y7092391D01*
X10952581Y7092391D01*
X10957610Y7097420D01*
X10957610Y7177379D01*
X10952581Y7182408D01*
G37*
G36*
X10713618Y7182408D02*
G01*
X10708589Y7177379D01*
X10708589Y7097420D01*
X10713618Y7092391D01*
X10792612Y7092391D01*
X10797590Y7097420D01*
X10797590Y7121601D01*
X10759592Y7121601D01*
X10759592Y7154621D01*
X10797590Y7154621D01*
X10797590Y7177379D01*
X10792612Y7182408D01*
G37*
G36*
X1531518Y6610908D02*
G01*
X1526489Y6605879D01*
X1526489Y6525920D01*
X1531518Y6520891D01*
X1611477Y6520891D01*
X1616506Y6525920D01*
X1616506Y6548678D01*
X1579524Y6548678D01*
X1579524Y6581698D01*
X1616506Y6581698D01*
X1616506Y6605879D01*
X1611477Y6610908D01*
G37*
G36*
X1691487Y6610908D02*
G01*
X1686509Y6605879D01*
X1686509Y6581698D01*
X1724507Y6581698D01*
X1724507Y6548678D01*
X1686509Y6548678D01*
X1686509Y6525920D01*
X1691487Y6520891D01*
X1770481Y6520891D01*
X1775510Y6525920D01*
X1775510Y6605879D01*
X1770481Y6610908D01*
G37*
G36*
X10827918Y6610908D02*
G01*
X10822889Y6605879D01*
X10822889Y6525920D01*
X10827918Y6520891D01*
X10907877Y6520891D01*
X10912906Y6525920D01*
X10912906Y6548678D01*
X10875924Y6548678D01*
X10875924Y6581698D01*
X10912906Y6581698D01*
X10912906Y6605879D01*
X10907877Y6610908D01*
G37*
G36*
X10987887Y6610908D02*
G01*
X10982909Y6605879D01*
X10982909Y6581698D01*
X11020907Y6581698D01*
X11020907Y6548678D01*
X10982909Y6548678D01*
X10982909Y6525920D01*
X10987887Y6520891D01*
X11066881Y6520891D01*
X11071910Y6525920D01*
X11071910Y6605879D01*
X11066881Y6610908D01*
G37*
G36*
X9837318Y6001308D02*
G01*
X9832289Y5996279D01*
X9832289Y5916320D01*
X9837318Y5911291D01*
X9917277Y5911291D01*
X9922306Y5916320D01*
X9922306Y5939078D01*
X9885324Y5939078D01*
X9885324Y5972098D01*
X9922306Y5972098D01*
X9922306Y5996279D01*
X9917277Y6001308D01*
G37*
G36*
X9997287Y6001308D02*
G01*
X9992309Y5996279D01*
X9992309Y5972098D01*
X10030307Y5972098D01*
X10030307Y5939078D01*
X9992309Y5939078D01*
X9992309Y5916320D01*
X9997287Y5911291D01*
X10076281Y5911291D01*
X10081310Y5916320D01*
X10081310Y5996279D01*
X10076281Y6001308D01*
G37*
D13*
G01*
X5157495Y2476500D03*
G36*
X5804499Y2406500D02*
G01*
X5804499Y2546499D01*
X5978499Y2546499D01*
X5978499Y2406500D01*
G37*
G01*
X6681495Y2413000D03*
G36*
X7328499Y2343000D02*
G01*
X7328499Y2482999D01*
X7502499Y2482999D01*
X7502499Y2343000D01*
G37*
M02*
