G04 Layer: TopSilkscreenLayer*
G04 EasyEDA v6.5.5, 2022-06-26 01:00:07*
G04 2c515557f0e44504be437badec322791,a4ea12fd96744f7d9b8618c9b4952ea7,10*
G04 Gerber Generator version 0.2*
G04 Scale: 100 percent, Rotated: No, Reflected: No *
G04 Dimensions in millimeters *
G04 leading zeros omitted , absolute positions ,4 integer and 5 decimal *
%FSLAX45Y45*%
%MOMM*%

%ADD20C,0.2540*%
%ADD21C,0.1524*%
%ADD22C,0.1520*%
%ADD23C,0.2032*%
%ADD24C,0.1000*%

%LPD*%
D23*
X7429500Y8546084D02*
G01*
X7429500Y8402828D01*
X7429500Y8546084D02*
G01*
X7477252Y8546084D01*
X7497572Y8539226D01*
X7511288Y8525510D01*
X7518145Y8512047D01*
X7525004Y8491474D01*
X7525004Y8457437D01*
X7518145Y8436863D01*
X7511288Y8423402D01*
X7497572Y8409686D01*
X7477252Y8402828D01*
X7429500Y8402828D01*
X7569961Y8518905D02*
G01*
X7583677Y8525510D01*
X7603997Y8546084D01*
X7603997Y8402828D01*
X7655813Y8512047D02*
G01*
X7655813Y8518905D01*
X7662672Y8532368D01*
X7669529Y8539226D01*
X7683245Y8546084D01*
X7710424Y8546084D01*
X7724140Y8539226D01*
X7730743Y8532368D01*
X7737602Y8518905D01*
X7737602Y8505189D01*
X7730743Y8491474D01*
X7717281Y8471154D01*
X7648956Y8402828D01*
X7744459Y8402828D01*
X7442200Y8266684D02*
G01*
X7442200Y8123428D01*
X7442200Y8266684D02*
G01*
X7489952Y8266684D01*
X7510272Y8259826D01*
X7523988Y8246110D01*
X7530845Y8232647D01*
X7537704Y8212073D01*
X7537704Y8178037D01*
X7530845Y8157463D01*
X7523988Y8144002D01*
X7510272Y8130286D01*
X7489952Y8123428D01*
X7442200Y8123428D01*
X7582661Y8239505D02*
G01*
X7596377Y8246110D01*
X7616697Y8266684D01*
X7616697Y8123428D01*
X7661656Y8239505D02*
G01*
X7675372Y8246110D01*
X7695945Y8266684D01*
X7695945Y8123428D01*
X7442200Y7517384D02*
G01*
X7442200Y7374128D01*
X7442200Y7517384D02*
G01*
X7489952Y7517384D01*
X7510272Y7510526D01*
X7523988Y7496810D01*
X7530845Y7483347D01*
X7537704Y7462773D01*
X7537704Y7428737D01*
X7530845Y7408163D01*
X7523988Y7394702D01*
X7510272Y7380986D01*
X7489952Y7374128D01*
X7442200Y7374128D01*
X7616697Y7517384D02*
G01*
X7596377Y7510526D01*
X7589520Y7496810D01*
X7589520Y7483347D01*
X7596377Y7469631D01*
X7609840Y7462773D01*
X7637272Y7455915D01*
X7657591Y7449058D01*
X7671308Y7435595D01*
X7678165Y7421879D01*
X7678165Y7401560D01*
X7671308Y7387844D01*
X7664450Y7380986D01*
X7644129Y7374128D01*
X7616697Y7374128D01*
X7596377Y7380986D01*
X7589520Y7387844D01*
X7582661Y7401560D01*
X7582661Y7421879D01*
X7589520Y7435595D01*
X7602981Y7449058D01*
X7623556Y7455915D01*
X7650734Y7462773D01*
X7664450Y7469631D01*
X7671308Y7483347D01*
X7671308Y7496810D01*
X7664450Y7510526D01*
X7644129Y7517384D01*
X7616697Y7517384D01*
X7442200Y7771384D02*
G01*
X7442200Y7628128D01*
X7442200Y7771384D02*
G01*
X7489952Y7771384D01*
X7510272Y7764526D01*
X7523988Y7750810D01*
X7530845Y7737347D01*
X7537704Y7716773D01*
X7537704Y7682737D01*
X7530845Y7662163D01*
X7523988Y7648702D01*
X7510272Y7634986D01*
X7489952Y7628128D01*
X7442200Y7628128D01*
X7671308Y7723631D02*
G01*
X7664450Y7703058D01*
X7650734Y7689595D01*
X7630413Y7682737D01*
X7623556Y7682737D01*
X7602981Y7689595D01*
X7589520Y7703058D01*
X7582661Y7723631D01*
X7582661Y7730489D01*
X7589520Y7750810D01*
X7602981Y7764526D01*
X7623556Y7771384D01*
X7630413Y7771384D01*
X7650734Y7764526D01*
X7664450Y7750810D01*
X7671308Y7723631D01*
X7671308Y7689595D01*
X7664450Y7655560D01*
X7650734Y7634986D01*
X7630413Y7628128D01*
X7616697Y7628128D01*
X7596377Y7634986D01*
X7589520Y7648702D01*
X7442200Y7022084D02*
G01*
X7442200Y6878828D01*
X7442200Y7022084D02*
G01*
X7489952Y7022084D01*
X7510272Y7015226D01*
X7523988Y7001510D01*
X7530845Y6988047D01*
X7537704Y6967473D01*
X7537704Y6933437D01*
X7530845Y6912863D01*
X7523988Y6899402D01*
X7510272Y6885686D01*
X7489952Y6878828D01*
X7442200Y6878828D01*
X7664450Y7001510D02*
G01*
X7657591Y7015226D01*
X7637272Y7022084D01*
X7623556Y7022084D01*
X7602981Y7015226D01*
X7589520Y6994905D01*
X7582661Y6960615D01*
X7582661Y6926579D01*
X7589520Y6899402D01*
X7602981Y6885686D01*
X7623556Y6878828D01*
X7630413Y6878828D01*
X7650734Y6885686D01*
X7664450Y6899402D01*
X7671308Y6919721D01*
X7671308Y6926579D01*
X7664450Y6947154D01*
X7650734Y6960615D01*
X7630413Y6967473D01*
X7623556Y6967473D01*
X7602981Y6960615D01*
X7589520Y6947154D01*
X7582661Y6926579D01*
X7442200Y7276084D02*
G01*
X7442200Y7132828D01*
X7442200Y7276084D02*
G01*
X7489952Y7276084D01*
X7510272Y7269226D01*
X7523988Y7255510D01*
X7530845Y7242047D01*
X7537704Y7221473D01*
X7537704Y7187437D01*
X7530845Y7166863D01*
X7523988Y7153402D01*
X7510272Y7139686D01*
X7489952Y7132828D01*
X7442200Y7132828D01*
X7678165Y7276084D02*
G01*
X7609840Y7132828D01*
X7582661Y7276084D02*
G01*
X7678165Y7276084D01*
X7442200Y5510784D02*
G01*
X7442200Y5367528D01*
X7442200Y5510784D02*
G01*
X7503668Y5510784D01*
X7523988Y5503926D01*
X7530845Y5497068D01*
X7537704Y5483605D01*
X7537704Y5469889D01*
X7530845Y5456173D01*
X7523988Y5449315D01*
X7503668Y5442457D01*
X7442200Y5442457D01*
X7489952Y5442457D02*
G01*
X7537704Y5367528D01*
X7582661Y5510784D02*
G01*
X7582661Y5367528D01*
X7582661Y5510784D02*
G01*
X7671308Y5510784D01*
X7582661Y5442457D02*
G01*
X7637272Y5442457D01*
X7582661Y5367528D02*
G01*
X7671308Y5367528D01*
X7811770Y5490210D02*
G01*
X7798054Y5503926D01*
X7777734Y5510784D01*
X7750302Y5510784D01*
X7729981Y5503926D01*
X7716265Y5490210D01*
X7716265Y5476747D01*
X7723124Y5463031D01*
X7729981Y5456173D01*
X7743443Y5449315D01*
X7784591Y5435854D01*
X7798054Y5428995D01*
X7804911Y5422137D01*
X7811770Y5408421D01*
X7811770Y5388102D01*
X7798054Y5374386D01*
X7777734Y5367528D01*
X7750302Y5367528D01*
X7729981Y5374386D01*
X7716265Y5388102D01*
X7856727Y5510784D02*
G01*
X7856727Y5367528D01*
X7856727Y5510784D02*
G01*
X7945374Y5510784D01*
X7856727Y5442457D02*
G01*
X7911338Y5442457D01*
X7856727Y5367528D02*
G01*
X7945374Y5367528D01*
X8038084Y5510784D02*
G01*
X8038084Y5367528D01*
X7990331Y5510784D02*
G01*
X8085836Y5510784D01*
X7531861Y5730747D02*
G01*
X7525004Y5744210D01*
X7511288Y5757926D01*
X7497572Y5764784D01*
X7470393Y5764784D01*
X7456677Y5757926D01*
X7443215Y5744210D01*
X7436358Y5730747D01*
X7429500Y5710173D01*
X7429500Y5676137D01*
X7436358Y5655563D01*
X7443215Y5642102D01*
X7456677Y5628386D01*
X7470393Y5621528D01*
X7497572Y5621528D01*
X7511288Y5628386D01*
X7525004Y5642102D01*
X7531861Y5655563D01*
X7531861Y5676137D01*
X7497572Y5676137D02*
G01*
X7531861Y5676137D01*
X7576820Y5764784D02*
G01*
X7576820Y5621528D01*
X7576820Y5764784D02*
G01*
X7672324Y5621528D01*
X7672324Y5764784D02*
G01*
X7672324Y5621528D01*
X7717281Y5764784D02*
G01*
X7717281Y5621528D01*
X7717281Y5764784D02*
G01*
X7765034Y5764784D01*
X7785354Y5757926D01*
X7799070Y5744210D01*
X7805927Y5730747D01*
X7812786Y5710173D01*
X7812786Y5676137D01*
X7805927Y5655563D01*
X7799070Y5642102D01*
X7785354Y5628386D01*
X7765034Y5621528D01*
X7717281Y5621528D01*
X7442200Y5993384D02*
G01*
X7442200Y5850128D01*
X7442200Y5993384D02*
G01*
X7489952Y5993384D01*
X7510272Y5986526D01*
X7523988Y5972810D01*
X7530845Y5959347D01*
X7537704Y5938773D01*
X7537704Y5904737D01*
X7530845Y5884163D01*
X7523988Y5870702D01*
X7510272Y5856986D01*
X7489952Y5850128D01*
X7442200Y5850128D01*
X7589520Y5959347D02*
G01*
X7589520Y5966205D01*
X7596377Y5979668D01*
X7602981Y5986526D01*
X7616697Y5993384D01*
X7644129Y5993384D01*
X7657591Y5986526D01*
X7664450Y5979668D01*
X7671308Y5966205D01*
X7671308Y5952489D01*
X7664450Y5938773D01*
X7650734Y5918454D01*
X7582661Y5850128D01*
X7678165Y5850128D01*
X7442200Y6260084D02*
G01*
X7442200Y6116828D01*
X7442200Y6260084D02*
G01*
X7489952Y6260084D01*
X7510272Y6253226D01*
X7523988Y6239510D01*
X7530845Y6226047D01*
X7537704Y6205473D01*
X7537704Y6171437D01*
X7530845Y6150863D01*
X7523988Y6137402D01*
X7510272Y6123686D01*
X7489952Y6116828D01*
X7442200Y6116828D01*
X7596377Y6260084D02*
G01*
X7671308Y6260084D01*
X7630413Y6205473D01*
X7650734Y6205473D01*
X7664450Y6198615D01*
X7671308Y6191757D01*
X7678165Y6171437D01*
X7678165Y6157721D01*
X7671308Y6137402D01*
X7657591Y6123686D01*
X7637272Y6116828D01*
X7616697Y6116828D01*
X7596377Y6123686D01*
X7589520Y6130544D01*
X7582661Y6144260D01*
X7442200Y6514084D02*
G01*
X7442200Y6370828D01*
X7442200Y6514084D02*
G01*
X7489952Y6514084D01*
X7510272Y6507226D01*
X7523988Y6493510D01*
X7530845Y6480047D01*
X7537704Y6459473D01*
X7537704Y6425437D01*
X7530845Y6404863D01*
X7523988Y6391402D01*
X7510272Y6377686D01*
X7489952Y6370828D01*
X7442200Y6370828D01*
X7650734Y6514084D02*
G01*
X7582661Y6418579D01*
X7685024Y6418579D01*
X7650734Y6514084D02*
G01*
X7650734Y6370828D01*
X7442200Y6768084D02*
G01*
X7442200Y6624828D01*
X7442200Y6768084D02*
G01*
X7489952Y6768084D01*
X7510272Y6761226D01*
X7523988Y6747510D01*
X7530845Y6734047D01*
X7537704Y6713473D01*
X7537704Y6679437D01*
X7530845Y6658863D01*
X7523988Y6645402D01*
X7510272Y6631686D01*
X7489952Y6624828D01*
X7442200Y6624828D01*
X7664450Y6768084D02*
G01*
X7596377Y6768084D01*
X7589520Y6706615D01*
X7596377Y6713473D01*
X7616697Y6720331D01*
X7637272Y6720331D01*
X7657591Y6713473D01*
X7671308Y6699758D01*
X7678165Y6679437D01*
X7678165Y6665721D01*
X7671308Y6645402D01*
X7657591Y6631686D01*
X7637272Y6624828D01*
X7616697Y6624828D01*
X7596377Y6631686D01*
X7589520Y6638544D01*
X7582661Y6652260D01*
X7442200Y4215384D02*
G01*
X7442200Y4072128D01*
X7442200Y4215384D02*
G01*
X7537704Y4072128D01*
X7537704Y4215384D02*
G01*
X7537704Y4072128D01*
X7685024Y4181347D02*
G01*
X7678165Y4194810D01*
X7664450Y4208526D01*
X7650734Y4215384D01*
X7623556Y4215384D01*
X7609840Y4208526D01*
X7596377Y4194810D01*
X7589520Y4181347D01*
X7582661Y4160773D01*
X7582661Y4126737D01*
X7589520Y4106163D01*
X7596377Y4092702D01*
X7609840Y4078986D01*
X7623556Y4072128D01*
X7650734Y4072128D01*
X7664450Y4078986D01*
X7678165Y4092702D01*
X7685024Y4106163D01*
X7442200Y8038084D02*
G01*
X7442200Y7894828D01*
X7442200Y8038084D02*
G01*
X7489952Y8038084D01*
X7510272Y8031226D01*
X7523988Y8017510D01*
X7530845Y8004047D01*
X7537704Y7983473D01*
X7537704Y7949437D01*
X7530845Y7928863D01*
X7523988Y7915402D01*
X7510272Y7901686D01*
X7489952Y7894828D01*
X7442200Y7894828D01*
X7582661Y8010905D02*
G01*
X7596377Y8017510D01*
X7616697Y8038084D01*
X7616697Y7894828D01*
X7702550Y8038084D02*
G01*
X7682229Y8031226D01*
X7668513Y8010905D01*
X7661656Y7976615D01*
X7661656Y7956295D01*
X7668513Y7922260D01*
X7682229Y7901686D01*
X7702550Y7894828D01*
X7716265Y7894828D01*
X7736840Y7901686D01*
X7750302Y7922260D01*
X7757159Y7956295D01*
X7757159Y7976615D01*
X7750302Y8010905D01*
X7736840Y8031226D01*
X7716265Y8038084D01*
X7702550Y8038084D01*
X7429500Y4469384D02*
G01*
X7429500Y4326128D01*
X7429500Y4469384D02*
G01*
X7477252Y4469384D01*
X7497572Y4462526D01*
X7511288Y4448810D01*
X7518145Y4435347D01*
X7525004Y4414773D01*
X7525004Y4380737D01*
X7518145Y4360163D01*
X7511288Y4346702D01*
X7497572Y4332986D01*
X7477252Y4326128D01*
X7429500Y4326128D01*
X7569961Y4442205D02*
G01*
X7583677Y4448810D01*
X7603997Y4469384D01*
X7603997Y4326128D01*
X7730743Y4448810D02*
G01*
X7724140Y4462526D01*
X7703565Y4469384D01*
X7689850Y4469384D01*
X7669529Y4462526D01*
X7655813Y4442205D01*
X7648956Y4407915D01*
X7648956Y4373879D01*
X7655813Y4346702D01*
X7669529Y4332986D01*
X7689850Y4326128D01*
X7696708Y4326128D01*
X7717281Y4332986D01*
X7730743Y4346702D01*
X7737602Y4367021D01*
X7737602Y4373879D01*
X7730743Y4394454D01*
X7717281Y4407915D01*
X7696708Y4414773D01*
X7689850Y4414773D01*
X7669529Y4407915D01*
X7655813Y4394454D01*
X7648956Y4373879D01*
X7442200Y4723384D02*
G01*
X7442200Y4580128D01*
X7442200Y4723384D02*
G01*
X7489952Y4723384D01*
X7510272Y4716526D01*
X7523988Y4702810D01*
X7530845Y4689347D01*
X7537704Y4668773D01*
X7537704Y4634737D01*
X7530845Y4614163D01*
X7523988Y4600702D01*
X7510272Y4586986D01*
X7489952Y4580128D01*
X7442200Y4580128D01*
X7582661Y4696205D02*
G01*
X7596377Y4702810D01*
X7616697Y4723384D01*
X7616697Y4580128D01*
X7757159Y4723384D02*
G01*
X7689088Y4580128D01*
X7661656Y4723384D02*
G01*
X7757159Y4723384D01*
X7442200Y4990084D02*
G01*
X7442200Y4846828D01*
X7442200Y4990084D02*
G01*
X7489952Y4990084D01*
X7510272Y4983226D01*
X7523988Y4969510D01*
X7530845Y4956047D01*
X7537704Y4935473D01*
X7537704Y4901437D01*
X7530845Y4880863D01*
X7523988Y4867402D01*
X7510272Y4853686D01*
X7489952Y4846828D01*
X7442200Y4846828D01*
X7582661Y4962905D02*
G01*
X7596377Y4969510D01*
X7616697Y4990084D01*
X7616697Y4846828D01*
X7889493Y5017262D02*
G01*
X7766811Y4799076D01*
X8087106Y4990084D02*
G01*
X8087106Y4846828D01*
X8039354Y4990084D02*
G01*
X8134858Y4990084D01*
X8179815Y4990084D02*
G01*
X8275320Y4846828D01*
X8275320Y4990084D02*
G01*
X8179815Y4846828D01*
X7442200Y5269484D02*
G01*
X7442200Y5126228D01*
X7442200Y5269484D02*
G01*
X7489952Y5269484D01*
X7510272Y5262626D01*
X7523988Y5248910D01*
X7530845Y5235447D01*
X7537704Y5214873D01*
X7537704Y5180837D01*
X7530845Y5160263D01*
X7523988Y5146802D01*
X7510272Y5133086D01*
X7489952Y5126228D01*
X7442200Y5126228D01*
X7623556Y5269484D02*
G01*
X7602981Y5262626D01*
X7589520Y5242305D01*
X7582661Y5208015D01*
X7582661Y5187695D01*
X7589520Y5153660D01*
X7602981Y5133086D01*
X7623556Y5126228D01*
X7637272Y5126228D01*
X7657591Y5133086D01*
X7671308Y5153660D01*
X7678165Y5187695D01*
X7678165Y5208015D01*
X7671308Y5242305D01*
X7657591Y5262626D01*
X7637272Y5269484D01*
X7623556Y5269484D01*
X7950961Y5296662D02*
G01*
X7828025Y5078476D01*
X8100822Y5269484D02*
G01*
X8100822Y5126228D01*
X8100822Y5269484D02*
G01*
X8162290Y5269484D01*
X8182609Y5262626D01*
X8189468Y5255768D01*
X8196325Y5242305D01*
X8196325Y5228589D01*
X8189468Y5214873D01*
X8182609Y5208015D01*
X8162290Y5201157D01*
X8100822Y5201157D01*
X8148574Y5201157D02*
G01*
X8196325Y5126228D01*
X8241284Y5269484D02*
G01*
X8336788Y5126228D01*
X8336788Y5269484D02*
G01*
X8241284Y5126228D01*
X7429500Y3707384D02*
G01*
X7429500Y3564128D01*
X7429500Y3707384D02*
G01*
X7525004Y3564128D01*
X7525004Y3707384D02*
G01*
X7525004Y3564128D01*
X7672324Y3673347D02*
G01*
X7665465Y3686810D01*
X7651750Y3700526D01*
X7638034Y3707384D01*
X7610856Y3707384D01*
X7597140Y3700526D01*
X7583677Y3686810D01*
X7576820Y3673347D01*
X7569961Y3652773D01*
X7569961Y3618737D01*
X7576820Y3598163D01*
X7583677Y3584702D01*
X7597140Y3570986D01*
X7610856Y3564128D01*
X7638034Y3564128D01*
X7651750Y3570986D01*
X7665465Y3584702D01*
X7672324Y3598163D01*
X7442200Y3961384D02*
G01*
X7442200Y3818128D01*
X7442200Y3961384D02*
G01*
X7537704Y3818128D01*
X7537704Y3961384D02*
G01*
X7537704Y3818128D01*
X7685024Y3927347D02*
G01*
X7678165Y3940810D01*
X7664450Y3954526D01*
X7650734Y3961384D01*
X7623556Y3961384D01*
X7609840Y3954526D01*
X7596377Y3940810D01*
X7589520Y3927347D01*
X7582661Y3906773D01*
X7582661Y3872737D01*
X7589520Y3852163D01*
X7596377Y3838702D01*
X7609840Y3824986D01*
X7623556Y3818128D01*
X7650734Y3818128D01*
X7664450Y3824986D01*
X7678165Y3838702D01*
X7685024Y3852163D01*
X4876800Y3948684D02*
G01*
X4876800Y3805428D01*
X4876800Y3948684D02*
G01*
X4972304Y3805428D01*
X4972304Y3948684D02*
G01*
X4972304Y3805428D01*
X5119624Y3914647D02*
G01*
X5112765Y3928110D01*
X5099050Y3941826D01*
X5085334Y3948684D01*
X5058156Y3948684D01*
X5044440Y3941826D01*
X5030977Y3928110D01*
X5024120Y3914647D01*
X5017261Y3894073D01*
X5017261Y3860037D01*
X5024120Y3839463D01*
X5030977Y3826002D01*
X5044440Y3812286D01*
X5058156Y3805428D01*
X5085334Y3805428D01*
X5099050Y3812286D01*
X5112765Y3826002D01*
X5119624Y3839463D01*
X4864100Y3694684D02*
G01*
X4864100Y3551428D01*
X4864100Y3694684D02*
G01*
X4959604Y3551428D01*
X4959604Y3694684D02*
G01*
X4959604Y3551428D01*
X5106924Y3660647D02*
G01*
X5100065Y3674110D01*
X5086350Y3687826D01*
X5072634Y3694684D01*
X5045456Y3694684D01*
X5031740Y3687826D01*
X5018277Y3674110D01*
X5011420Y3660647D01*
X5004561Y3640073D01*
X5004561Y3606037D01*
X5011420Y3585463D01*
X5018277Y3572002D01*
X5031740Y3558286D01*
X5045456Y3551428D01*
X5072634Y3551428D01*
X5086350Y3558286D01*
X5100065Y3572002D01*
X5106924Y3585463D01*
X4876800Y4202684D02*
G01*
X4876800Y4059428D01*
X4876800Y4202684D02*
G01*
X4972304Y4059428D01*
X4972304Y4202684D02*
G01*
X4972304Y4059428D01*
X5119624Y4168647D02*
G01*
X5112765Y4182110D01*
X5099050Y4195826D01*
X5085334Y4202684D01*
X5058156Y4202684D01*
X5044440Y4195826D01*
X5030977Y4182110D01*
X5024120Y4168647D01*
X5017261Y4148073D01*
X5017261Y4114037D01*
X5024120Y4093463D01*
X5030977Y4080002D01*
X5044440Y4066286D01*
X5058156Y4059428D01*
X5085334Y4059428D01*
X5099050Y4066286D01*
X5112765Y4080002D01*
X5119624Y4093463D01*
X4864100Y8558784D02*
G01*
X4864100Y8415528D01*
X4864100Y8558784D02*
G01*
X4911852Y8558784D01*
X4932172Y8551926D01*
X4945888Y8538210D01*
X4952745Y8524747D01*
X4959604Y8504174D01*
X4959604Y8470137D01*
X4952745Y8449563D01*
X4945888Y8436102D01*
X4932172Y8422386D01*
X4911852Y8415528D01*
X4864100Y8415528D01*
X5004561Y8531605D02*
G01*
X5018277Y8538210D01*
X5038597Y8558784D01*
X5038597Y8415528D01*
X5097272Y8558784D02*
G01*
X5172202Y8558784D01*
X5131308Y8504174D01*
X5151881Y8504174D01*
X5165343Y8497315D01*
X5172202Y8490458D01*
X5179059Y8470137D01*
X5179059Y8456421D01*
X5172202Y8436102D01*
X5158740Y8422386D01*
X5138165Y8415528D01*
X5117845Y8415528D01*
X5097272Y8422386D01*
X5090413Y8429244D01*
X5083556Y8442960D01*
X4865115Y8292084D02*
G01*
X4940045Y8292084D01*
X4899152Y8237473D01*
X4919472Y8237473D01*
X4933188Y8230615D01*
X4940045Y8223758D01*
X4946904Y8203437D01*
X4946904Y8189721D01*
X4940045Y8169402D01*
X4926329Y8155686D01*
X4906009Y8148828D01*
X4885436Y8148828D01*
X4865115Y8155686D01*
X4858258Y8162544D01*
X4851400Y8176260D01*
X4991861Y8292084D02*
G01*
X5046472Y8148828D01*
X5100827Y8292084D02*
G01*
X5046472Y8148828D01*
X5159502Y8292084D02*
G01*
X5234686Y8292084D01*
X5193791Y8237473D01*
X5214111Y8237473D01*
X5227827Y8230615D01*
X5234686Y8223758D01*
X5241290Y8203437D01*
X5241290Y8189721D01*
X5234686Y8169402D01*
X5220970Y8155686D01*
X5200395Y8148828D01*
X5180075Y8148828D01*
X5159502Y8155686D01*
X5152643Y8162544D01*
X5146040Y8176260D01*
X4893309Y8038084D02*
G01*
X4838700Y7894828D01*
X4893309Y8038084D02*
G01*
X4947665Y7894828D01*
X4859274Y7942579D02*
G01*
X4927345Y7942579D01*
X4992877Y8038084D02*
G01*
X4992877Y7894828D01*
X4992877Y8038084D02*
G01*
X5054091Y8038084D01*
X5074665Y8031226D01*
X5081524Y8024368D01*
X5088127Y8010905D01*
X5088127Y7997189D01*
X5081524Y7983473D01*
X5074665Y7976615D01*
X5054091Y7969758D01*
X4992877Y7969758D01*
X5040629Y7969758D02*
G01*
X5088127Y7894828D01*
X5133340Y8038084D02*
G01*
X5133340Y7894828D01*
X5133340Y8038084D02*
G01*
X5221986Y8038084D01*
X5133340Y7969758D02*
G01*
X5187695Y7969758D01*
X5133340Y7894828D02*
G01*
X5221986Y7894828D01*
X5266943Y8038084D02*
G01*
X5266943Y7894828D01*
X5266943Y8038084D02*
G01*
X5355590Y8038084D01*
X5266943Y7969758D02*
G01*
X5321300Y7969758D01*
X4906009Y7809484D02*
G01*
X4851400Y7666228D01*
X4906009Y7809484D02*
G01*
X4960365Y7666228D01*
X4871974Y7713979D02*
G01*
X4940045Y7713979D01*
X5046472Y7809484D02*
G01*
X5025897Y7802626D01*
X5012181Y7782305D01*
X5005577Y7748015D01*
X5005577Y7727695D01*
X5012181Y7693660D01*
X5025897Y7673086D01*
X5046472Y7666228D01*
X5059934Y7666228D01*
X5080508Y7673086D01*
X5094224Y7693660D01*
X5100827Y7727695D01*
X5100827Y7748015D01*
X5094224Y7782305D01*
X5080508Y7802626D01*
X5059934Y7809484D01*
X5046472Y7809484D01*
X4906009Y7555484D02*
G01*
X4851400Y7412228D01*
X4906009Y7555484D02*
G01*
X4960365Y7412228D01*
X4871974Y7459979D02*
G01*
X4940045Y7459979D01*
X5005577Y7528305D02*
G01*
X5019040Y7534910D01*
X5039613Y7555484D01*
X5039613Y7412228D01*
X4918709Y7301484D02*
G01*
X4864100Y7158228D01*
X4918709Y7301484D02*
G01*
X4973065Y7158228D01*
X4884674Y7205979D02*
G01*
X4952745Y7205979D01*
X5024881Y7267447D02*
G01*
X5024881Y7274305D01*
X5031740Y7287768D01*
X5038597Y7294626D01*
X5052313Y7301484D01*
X5079491Y7301484D01*
X5093208Y7294626D01*
X5100065Y7287768D01*
X5106924Y7274305D01*
X5106924Y7260589D01*
X5100065Y7246873D01*
X5086350Y7226554D01*
X5018277Y7158228D01*
X5113527Y7158228D01*
X4906009Y7047484D02*
G01*
X4851400Y6904228D01*
X4906009Y7047484D02*
G01*
X4960365Y6904228D01*
X4871974Y6951979D02*
G01*
X4940045Y6951979D01*
X5019040Y7047484D02*
G01*
X5094224Y7047484D01*
X5053329Y6992873D01*
X5073650Y6992873D01*
X5087365Y6986015D01*
X5094224Y6979158D01*
X5100827Y6958837D01*
X5100827Y6945121D01*
X5094224Y6924802D01*
X5080508Y6911086D01*
X5059934Y6904228D01*
X5039613Y6904228D01*
X5019040Y6911086D01*
X5012181Y6917944D01*
X5005577Y6931660D01*
X4906009Y6793484D02*
G01*
X4851400Y6650228D01*
X4906009Y6793484D02*
G01*
X4960365Y6650228D01*
X4871974Y6697979D02*
G01*
X4940045Y6697979D01*
X5073650Y6793484D02*
G01*
X5005577Y6697979D01*
X5107686Y6697979D01*
X5073650Y6793484D02*
G01*
X5073650Y6650228D01*
X4906009Y6526784D02*
G01*
X4851400Y6383528D01*
X4906009Y6526784D02*
G01*
X4960365Y6383528D01*
X4871974Y6431279D02*
G01*
X4940045Y6431279D01*
X5087365Y6526784D02*
G01*
X5019040Y6526784D01*
X5012181Y6465315D01*
X5019040Y6472173D01*
X5039613Y6479031D01*
X5059934Y6479031D01*
X5080508Y6472173D01*
X5094224Y6458457D01*
X5100827Y6438137D01*
X5100827Y6424421D01*
X5094224Y6404102D01*
X5080508Y6390386D01*
X5059934Y6383528D01*
X5039613Y6383528D01*
X5019040Y6390386D01*
X5012181Y6397244D01*
X5005577Y6410960D01*
X4851400Y6285484D02*
G01*
X4851400Y6142228D01*
X4851400Y6285484D02*
G01*
X4946904Y6142228D01*
X4946904Y6285484D02*
G01*
X4946904Y6142228D01*
X5094224Y6251447D02*
G01*
X5087365Y6264910D01*
X5073650Y6278626D01*
X5059934Y6285484D01*
X5032756Y6285484D01*
X5019040Y6278626D01*
X5005577Y6264910D01*
X4998720Y6251447D01*
X4991861Y6230873D01*
X4991861Y6196837D01*
X4998720Y6176263D01*
X5005577Y6162802D01*
X5019040Y6149086D01*
X5032756Y6142228D01*
X5059934Y6142228D01*
X5073650Y6149086D01*
X5087365Y6162802D01*
X5094224Y6176263D01*
X4851400Y6018784D02*
G01*
X4851400Y5875528D01*
X4851400Y6018784D02*
G01*
X4946904Y5875528D01*
X4946904Y6018784D02*
G01*
X4946904Y5875528D01*
X5094224Y5984747D02*
G01*
X5087365Y5998210D01*
X5073650Y6011926D01*
X5059934Y6018784D01*
X5032756Y6018784D01*
X5019040Y6011926D01*
X5005577Y5998210D01*
X4998720Y5984747D01*
X4991861Y5964173D01*
X4991861Y5930137D01*
X4998720Y5909563D01*
X5005577Y5896102D01*
X5019040Y5882386D01*
X5032756Y5875528D01*
X5059934Y5875528D01*
X5073650Y5882386D01*
X5087365Y5896102D01*
X5094224Y5909563D01*
X4933188Y5764784D02*
G01*
X4865115Y5764784D01*
X4858258Y5703315D01*
X4865115Y5710173D01*
X4885436Y5717031D01*
X4906009Y5717031D01*
X4926329Y5710173D01*
X4940045Y5696457D01*
X4946904Y5676137D01*
X4946904Y5662421D01*
X4940045Y5642102D01*
X4926329Y5628386D01*
X4906009Y5621528D01*
X4885436Y5621528D01*
X4865115Y5628386D01*
X4858258Y5635244D01*
X4851400Y5648960D01*
X4991861Y5764784D02*
G01*
X5046472Y5621528D01*
X5100827Y5764784D02*
G01*
X5046472Y5621528D01*
X4851400Y5523484D02*
G01*
X4851400Y5380228D01*
X4851400Y5523484D02*
G01*
X4912868Y5523484D01*
X4933188Y5516626D01*
X4940045Y5509768D01*
X4946904Y5496305D01*
X4946904Y5482589D01*
X4940045Y5468873D01*
X4933188Y5462015D01*
X4912868Y5455157D01*
X4851400Y5455157D01*
X4899152Y5455157D02*
G01*
X4946904Y5380228D01*
X4991861Y5523484D02*
G01*
X4991861Y5380228D01*
X4991861Y5523484D02*
G01*
X5080508Y5523484D01*
X4991861Y5455157D02*
G01*
X5046472Y5455157D01*
X4991861Y5380228D02*
G01*
X5080508Y5380228D01*
X5220970Y5502910D02*
G01*
X5207254Y5516626D01*
X5186934Y5523484D01*
X5159502Y5523484D01*
X5139181Y5516626D01*
X5125465Y5502910D01*
X5125465Y5489447D01*
X5132324Y5475731D01*
X5139181Y5468873D01*
X5152643Y5462015D01*
X5193791Y5448554D01*
X5207254Y5441695D01*
X5214111Y5434837D01*
X5220970Y5421121D01*
X5220970Y5400802D01*
X5207254Y5387086D01*
X5186934Y5380228D01*
X5159502Y5380228D01*
X5139181Y5387086D01*
X5125465Y5400802D01*
X5265927Y5523484D02*
G01*
X5265927Y5380228D01*
X5265927Y5523484D02*
G01*
X5354574Y5523484D01*
X5265927Y5455157D02*
G01*
X5320538Y5455157D01*
X5265927Y5380228D02*
G01*
X5354574Y5380228D01*
X5447284Y5523484D02*
G01*
X5447284Y5380228D01*
X5399531Y5523484D02*
G01*
X5495036Y5523484D01*
X4953761Y5248147D02*
G01*
X4946904Y5261610D01*
X4933188Y5275326D01*
X4919472Y5282184D01*
X4892293Y5282184D01*
X4878577Y5275326D01*
X4865115Y5261610D01*
X4858258Y5248147D01*
X4851400Y5227573D01*
X4851400Y5193537D01*
X4858258Y5172963D01*
X4865115Y5159502D01*
X4878577Y5145786D01*
X4892293Y5138928D01*
X4919472Y5138928D01*
X4933188Y5145786D01*
X4946904Y5159502D01*
X4953761Y5172963D01*
X4953761Y5193537D01*
X4919472Y5193537D02*
G01*
X4953761Y5193537D01*
X4998720Y5282184D02*
G01*
X4998720Y5138928D01*
X4998720Y5282184D02*
G01*
X5094224Y5138928D01*
X5094224Y5282184D02*
G01*
X5094224Y5138928D01*
X5139181Y5282184D02*
G01*
X5139181Y5138928D01*
X5139181Y5282184D02*
G01*
X5186934Y5282184D01*
X5207254Y5275326D01*
X5220970Y5261610D01*
X5227827Y5248147D01*
X5234686Y5227573D01*
X5234686Y5193537D01*
X5227827Y5172963D01*
X5220970Y5159502D01*
X5207254Y5145786D01*
X5186934Y5138928D01*
X5139181Y5138928D01*
X4864100Y5015484D02*
G01*
X4918709Y4872228D01*
X4973065Y5015484D02*
G01*
X4918709Y4872228D01*
X5018277Y5015484D02*
G01*
X5018277Y4872228D01*
X5063236Y5015484D02*
G01*
X5063236Y4872228D01*
X5063236Y5015484D02*
G01*
X5158740Y4872228D01*
X5158740Y5015484D02*
G01*
X5158740Y4872228D01*
X4851400Y4748784D02*
G01*
X4851400Y4605528D01*
X4851400Y4748784D02*
G01*
X4899152Y4748784D01*
X4919472Y4741926D01*
X4933188Y4728210D01*
X4940045Y4714747D01*
X4946904Y4694173D01*
X4946904Y4660137D01*
X4940045Y4639563D01*
X4933188Y4626102D01*
X4919472Y4612386D01*
X4899152Y4605528D01*
X4851400Y4605528D01*
X4991861Y4721605D02*
G01*
X5005577Y4728210D01*
X5025897Y4748784D01*
X5025897Y4605528D01*
X5139181Y4748784D02*
G01*
X5070856Y4653279D01*
X5173218Y4653279D01*
X5139181Y4748784D02*
G01*
X5139181Y4605528D01*
X4864100Y4482084D02*
G01*
X4864100Y4338828D01*
X4864100Y4482084D02*
G01*
X4911852Y4482084D01*
X4932172Y4475226D01*
X4945888Y4461510D01*
X4952745Y4448047D01*
X4959604Y4427473D01*
X4959604Y4393437D01*
X4952745Y4372863D01*
X4945888Y4359402D01*
X4932172Y4345686D01*
X4911852Y4338828D01*
X4864100Y4338828D01*
X5004561Y4454905D02*
G01*
X5018277Y4461510D01*
X5038597Y4482084D01*
X5038597Y4338828D01*
X5165343Y4482084D02*
G01*
X5097272Y4482084D01*
X5090413Y4420615D01*
X5097272Y4427473D01*
X5117845Y4434331D01*
X5138165Y4434331D01*
X5158740Y4427473D01*
X5172202Y4413757D01*
X5179059Y4393437D01*
X5179059Y4379721D01*
X5172202Y4359402D01*
X5158740Y4345686D01*
X5138165Y4338828D01*
X5117845Y4338828D01*
X5097272Y4345686D01*
X5090413Y4352544D01*
X5083556Y4366260D01*
X5744209Y3288284D02*
G01*
X5689600Y3145028D01*
X5744209Y3288284D02*
G01*
X5798565Y3145028D01*
X5710174Y3192779D02*
G01*
X5778245Y3192779D01*
X5843777Y3240531D02*
G01*
X5843777Y3145028D01*
X5843777Y3199637D02*
G01*
X5850381Y3219957D01*
X5864097Y3233673D01*
X5877813Y3240531D01*
X5898134Y3240531D01*
X6025134Y3288284D02*
G01*
X6025134Y3145028D01*
X6025134Y3219957D02*
G01*
X6011418Y3233673D01*
X5997702Y3240531D01*
X5977381Y3240531D01*
X5963665Y3233673D01*
X5949950Y3219957D01*
X5943345Y3199637D01*
X5943345Y3185921D01*
X5949950Y3165602D01*
X5963665Y3151886D01*
X5977381Y3145028D01*
X5997702Y3145028D01*
X6011418Y3151886D01*
X6025134Y3165602D01*
X6070091Y3240531D02*
G01*
X6070091Y3172460D01*
X6076950Y3151886D01*
X6090411Y3145028D01*
X6110986Y3145028D01*
X6124702Y3151886D01*
X6145022Y3172460D01*
X6145022Y3240531D02*
G01*
X6145022Y3145028D01*
X6189979Y3288284D02*
G01*
X6196838Y3281426D01*
X6203695Y3288284D01*
X6196838Y3295142D01*
X6189979Y3288284D01*
X6196838Y3240531D02*
G01*
X6196838Y3145028D01*
X6248654Y3240531D02*
G01*
X6248654Y3145028D01*
X6248654Y3213354D02*
G01*
X6269227Y3233673D01*
X6282690Y3240531D01*
X6303263Y3240531D01*
X6316979Y3233673D01*
X6323584Y3213354D01*
X6323584Y3145028D01*
X6402831Y3240531D02*
G01*
X6389115Y3233673D01*
X6375400Y3219957D01*
X6368795Y3199637D01*
X6368795Y3185921D01*
X6375400Y3165602D01*
X6389115Y3151886D01*
X6402831Y3145028D01*
X6423152Y3145028D01*
X6436868Y3151886D01*
X6450584Y3165602D01*
X6457441Y3185921D01*
X6457441Y3199637D01*
X6450584Y3219957D01*
X6436868Y3233673D01*
X6423152Y3240531D01*
X6402831Y3240531D01*
X6607302Y3288284D02*
G01*
X6607302Y3145028D01*
X6607302Y3288284D02*
G01*
X6661911Y3145028D01*
X6716522Y3288284D02*
G01*
X6661911Y3145028D01*
X6716522Y3288284D02*
G01*
X6716522Y3145028D01*
X6761479Y3288284D02*
G01*
X6768338Y3281426D01*
X6774941Y3288284D01*
X6768338Y3295142D01*
X6761479Y3288284D01*
X6768338Y3240531D02*
G01*
X6768338Y3145028D01*
X6901941Y3219957D02*
G01*
X6888225Y3233673D01*
X6874509Y3240531D01*
X6854190Y3240531D01*
X6840474Y3233673D01*
X6826758Y3219957D01*
X6820154Y3199637D01*
X6820154Y3185921D01*
X6826758Y3165602D01*
X6840474Y3151886D01*
X6854190Y3145028D01*
X6874509Y3145028D01*
X6888225Y3151886D01*
X6901941Y3165602D01*
X6946900Y3240531D02*
G01*
X6946900Y3145028D01*
X6946900Y3199637D02*
G01*
X6953758Y3219957D01*
X6967220Y3233673D01*
X6980936Y3240531D01*
X7001509Y3240531D01*
X7080504Y3240531D02*
G01*
X7066788Y3233673D01*
X7053325Y3219957D01*
X7046468Y3199637D01*
X7046468Y3185921D01*
X7053325Y3165602D01*
X7066788Y3151886D01*
X7080504Y3145028D01*
X7101077Y3145028D01*
X7114540Y3151886D01*
X7128256Y3165602D01*
X7135113Y3185921D01*
X7135113Y3199637D01*
X7128256Y3219957D01*
X7114540Y3233673D01*
X7101077Y3240531D01*
X7080504Y3240531D01*
D21*
X2616200Y3214115D02*
G01*
X2616200Y3105150D01*
X2616200Y3105150D02*
G01*
X2678429Y3105150D01*
X2712720Y3068573D02*
G01*
X2806445Y3068573D01*
X2913379Y3198621D02*
G01*
X2902965Y3209036D01*
X2887472Y3214115D01*
X2866643Y3214115D01*
X2851150Y3209036D01*
X2840736Y3198621D01*
X2840736Y3188207D01*
X2845815Y3177794D01*
X2851150Y3172460D01*
X2861309Y3167379D01*
X2892552Y3156965D01*
X2902965Y3151886D01*
X2908300Y3146552D01*
X2913379Y3136137D01*
X2913379Y3120644D01*
X2902965Y3110229D01*
X2887472Y3105150D01*
X2866643Y3105150D01*
X2851150Y3110229D01*
X2840736Y3120644D01*
X2983991Y3214115D02*
G01*
X2983991Y3105150D01*
X2947670Y3214115D02*
G01*
X3020313Y3214115D01*
X3054604Y3214115D02*
G01*
X3054604Y3105150D01*
X3166872Y3188207D02*
G01*
X3161791Y3198621D01*
X3151377Y3209036D01*
X3140963Y3214115D01*
X3120136Y3214115D01*
X3109722Y3209036D01*
X3099308Y3198621D01*
X3094227Y3188207D01*
X3088893Y3172460D01*
X3088893Y3146552D01*
X3094227Y3131057D01*
X3099308Y3120644D01*
X3109722Y3110229D01*
X3120136Y3105150D01*
X3140963Y3105150D01*
X3151377Y3110229D01*
X3161791Y3120644D01*
X3166872Y3131057D01*
X3201161Y3214115D02*
G01*
X3201161Y3105150D01*
X3274059Y3214115D02*
G01*
X3201161Y3141471D01*
X3227070Y3167379D02*
G01*
X3274059Y3105150D01*
D24*
X3476952Y2188006D02*
G01*
X3572456Y2224582D01*
X3476952Y2260904D02*
G01*
X3572456Y2224582D01*
X3476952Y2290876D02*
G01*
X3572456Y2290876D01*
X3476952Y2290876D02*
G01*
X3476952Y2331775D01*
X3481524Y2345489D01*
X3486096Y2349804D01*
X3494986Y2354376D01*
X3504130Y2354376D01*
X3513274Y2349804D01*
X3517846Y2345489D01*
X3522418Y2331775D01*
X3522418Y2290876D01*
X3522418Y2322626D02*
G01*
X3572456Y2354376D01*
X3494986Y2384348D02*
G01*
X3490668Y2393492D01*
X3476952Y2407208D01*
X3572456Y2407208D01*
X2416949Y2747205D02*
G01*
X2453271Y2651701D01*
X2489593Y2747205D02*
G01*
X2453271Y2651701D01*
X2519565Y2747205D02*
G01*
X2519565Y2651701D01*
X2519565Y2747205D02*
G01*
X2560459Y2747205D01*
X2574175Y2742633D01*
X2578747Y2738061D01*
X2583319Y2728917D01*
X2583319Y2719773D01*
X2578747Y2710883D01*
X2574175Y2706311D01*
X2560459Y2701742D01*
X2519565Y2701742D01*
X2551315Y2701742D02*
G01*
X2583319Y2651701D01*
X2617863Y2724348D02*
G01*
X2617863Y2728917D01*
X2622435Y2738061D01*
X2626753Y2742633D01*
X2635897Y2747205D01*
X2654185Y2747205D01*
X2663329Y2742633D01*
X2667901Y2738061D01*
X2672219Y2728917D01*
X2672219Y2719773D01*
X2667901Y2710883D01*
X2658757Y2697167D01*
X2613291Y2651701D01*
X2676791Y2651701D01*
D21*
X9690100Y3252215D02*
G01*
X9690100Y3143250D01*
X9690100Y3252215D02*
G01*
X9736836Y3252215D01*
X9752329Y3247136D01*
X9757663Y3241802D01*
X9762743Y3231387D01*
X9762743Y3220973D01*
X9757663Y3210560D01*
X9752329Y3205479D01*
X9736836Y3200400D01*
X9690100Y3200400D01*
X9726422Y3200400D02*
G01*
X9762743Y3143250D01*
X9797034Y3106673D02*
G01*
X9890759Y3106673D01*
X9997693Y3236721D02*
G01*
X9987279Y3247136D01*
X9971786Y3252215D01*
X9950958Y3252215D01*
X9935209Y3247136D01*
X9925050Y3236721D01*
X9925050Y3226307D01*
X9930129Y3215894D01*
X9935209Y3210560D01*
X9945624Y3205479D01*
X9976865Y3195065D01*
X9987279Y3189986D01*
X9992359Y3184652D01*
X9997693Y3174237D01*
X9997693Y3158744D01*
X9987279Y3148329D01*
X9971786Y3143250D01*
X9950958Y3143250D01*
X9935209Y3148329D01*
X9925050Y3158744D01*
X10068306Y3252215D02*
G01*
X10068306Y3143250D01*
X10031984Y3252215D02*
G01*
X10104627Y3252215D01*
X10138918Y3252215D02*
G01*
X10138918Y3143250D01*
X10251186Y3226307D02*
G01*
X10246106Y3236721D01*
X10235691Y3247136D01*
X10225277Y3252215D01*
X10204450Y3252215D01*
X10194036Y3247136D01*
X10183622Y3236721D01*
X10178541Y3226307D01*
X10173208Y3210560D01*
X10173208Y3184652D01*
X10178541Y3169157D01*
X10183622Y3158744D01*
X10194036Y3148329D01*
X10204450Y3143250D01*
X10225277Y3143250D01*
X10235691Y3148329D01*
X10246106Y3158744D01*
X10251186Y3169157D01*
X10285475Y3252215D02*
G01*
X10285475Y3143250D01*
X10358120Y3252215D02*
G01*
X10285475Y3179571D01*
X10311384Y3205479D02*
G01*
X10358120Y3143250D01*
D24*
X10563552Y2213406D02*
G01*
X10659056Y2249982D01*
X10563552Y2286304D02*
G01*
X10659056Y2249982D01*
X10563552Y2316276D02*
G01*
X10659056Y2316276D01*
X10563552Y2316276D02*
G01*
X10563552Y2357175D01*
X10568124Y2370889D01*
X10572696Y2375204D01*
X10581586Y2379776D01*
X10590730Y2379776D01*
X10599874Y2375204D01*
X10604446Y2370889D01*
X10609018Y2357175D01*
X10609018Y2316276D01*
X10609018Y2348026D02*
G01*
X10659056Y2379776D01*
X10581586Y2409748D02*
G01*
X10577268Y2418892D01*
X10563552Y2432608D01*
X10659056Y2432608D01*
X9503549Y2772605D02*
G01*
X9539871Y2677101D01*
X9576193Y2772605D02*
G01*
X9539871Y2677101D01*
X9606165Y2772605D02*
G01*
X9606165Y2677101D01*
X9606165Y2772605D02*
G01*
X9647059Y2772605D01*
X9660775Y2768033D01*
X9665347Y2763461D01*
X9669919Y2754317D01*
X9669919Y2745173D01*
X9665347Y2736283D01*
X9660775Y2731711D01*
X9647059Y2727142D01*
X9606165Y2727142D01*
X9637915Y2727142D02*
G01*
X9669919Y2677101D01*
X9704463Y2749748D02*
G01*
X9704463Y2754317D01*
X9709035Y2763461D01*
X9713353Y2768033D01*
X9722497Y2772605D01*
X9740785Y2772605D01*
X9749929Y2768033D01*
X9754501Y2763461D01*
X9758819Y2754317D01*
X9758819Y2745173D01*
X9754501Y2736283D01*
X9745357Y2722567D01*
X9699891Y2677101D01*
X9763391Y2677101D01*
D21*
X2959100Y8306815D02*
G01*
X2959100Y8197850D01*
X2959100Y8197850D02*
G01*
X3021329Y8197850D01*
X3060954Y8280908D02*
G01*
X3060954Y8285987D01*
X3066034Y8296402D01*
X3071368Y8301736D01*
X3081781Y8306815D01*
X3102609Y8306815D01*
X3112770Y8301736D01*
X3118104Y8296402D01*
X3123184Y8285987D01*
X3123184Y8275573D01*
X3118104Y8265160D01*
X3107690Y8249665D01*
X3055620Y8197850D01*
X3128518Y8197850D01*
X9029700Y8294115D02*
G01*
X9029700Y8185150D01*
X9029700Y8294115D02*
G01*
X9076436Y8294115D01*
X9091929Y8289036D01*
X9097263Y8283702D01*
X9102343Y8273287D01*
X9102343Y8262873D01*
X9097263Y8252460D01*
X9091929Y8247379D01*
X9076436Y8242300D01*
X9029700Y8242300D01*
X9066022Y8242300D02*
G01*
X9102343Y8185150D01*
X9141968Y8268208D02*
G01*
X9141968Y8273287D01*
X9147047Y8283702D01*
X9152381Y8289036D01*
X9162795Y8294115D01*
X9183370Y8294115D01*
X9193784Y8289036D01*
X9199118Y8283702D01*
X9204197Y8273287D01*
X9204197Y8262873D01*
X9199118Y8252460D01*
X9188704Y8236965D01*
X9136634Y8185150D01*
X9209531Y8185150D01*
X1473200Y7417815D02*
G01*
X1473200Y7308850D01*
X1473200Y7308850D02*
G01*
X1535429Y7308850D01*
X3886200Y1512315D02*
G01*
X3886200Y1403350D01*
X3886200Y1403350D02*
G01*
X3948429Y1403350D01*
X3993134Y1512315D02*
G01*
X4050284Y1512315D01*
X4019295Y1470660D01*
X4034790Y1470660D01*
X4045204Y1465579D01*
X4050284Y1460500D01*
X4055618Y1444752D01*
X4055618Y1434337D01*
X4050284Y1418844D01*
X4039870Y1408429D01*
X4024375Y1403350D01*
X4008881Y1403350D01*
X3993134Y1408429D01*
X3988054Y1413510D01*
X3982720Y1423923D01*
X4089908Y1366773D02*
G01*
X4183379Y1366773D01*
X4217670Y1512315D02*
G01*
X4217670Y1403350D01*
X4217670Y1512315D02*
G01*
X4264406Y1512315D01*
X4279900Y1507236D01*
X4285234Y1501902D01*
X4290313Y1491487D01*
X4290313Y1481073D01*
X4285234Y1470660D01*
X4279900Y1465579D01*
X4264406Y1460500D01*
X4217670Y1460500D01*
X4253991Y1460500D02*
G01*
X4290313Y1403350D01*
X4324604Y1512315D02*
G01*
X4324604Y1403350D01*
X4324604Y1512315D02*
G01*
X4392168Y1512315D01*
X4324604Y1460500D02*
G01*
X4366259Y1460500D01*
X4324604Y1403350D02*
G01*
X4392168Y1403350D01*
X4499356Y1496821D02*
G01*
X4488941Y1507236D01*
X4473193Y1512315D01*
X4452620Y1512315D01*
X4436872Y1507236D01*
X4426458Y1496821D01*
X4426458Y1486407D01*
X4431791Y1475994D01*
X4436872Y1470660D01*
X4447286Y1465579D01*
X4478527Y1455165D01*
X4488941Y1450086D01*
X4494022Y1444752D01*
X4499356Y1434337D01*
X4499356Y1418844D01*
X4488941Y1408429D01*
X4473193Y1403350D01*
X4452620Y1403350D01*
X4436872Y1408429D01*
X4426458Y1418844D01*
X5638800Y8827515D02*
G01*
X5638800Y8718550D01*
X5638800Y8827515D02*
G01*
X5685536Y8827515D01*
X5701029Y8822436D01*
X5706363Y8817102D01*
X5711443Y8806687D01*
X5711443Y8791194D01*
X5706363Y8780779D01*
X5701029Y8775700D01*
X5685536Y8770365D01*
X5638800Y8770365D01*
X5745734Y8806687D02*
G01*
X5756147Y8812021D01*
X5771895Y8827515D01*
X5771895Y8718550D01*
X7150100Y8814815D02*
G01*
X7150100Y8705850D01*
X7150100Y8814815D02*
G01*
X7196836Y8814815D01*
X7212329Y8809736D01*
X7217663Y8804402D01*
X7222743Y8793987D01*
X7222743Y8778494D01*
X7217663Y8768079D01*
X7212329Y8763000D01*
X7196836Y8757665D01*
X7150100Y8757665D01*
X7262368Y8788908D02*
G01*
X7262368Y8793987D01*
X7267447Y8804402D01*
X7272781Y8809736D01*
X7283195Y8814815D01*
X7303770Y8814815D01*
X7314184Y8809736D01*
X7319518Y8804402D01*
X7324597Y8793987D01*
X7324597Y8783574D01*
X7319518Y8773160D01*
X7309104Y8757665D01*
X7257034Y8705850D01*
X7329931Y8705850D01*
X10960100Y7405115D02*
G01*
X10960100Y7296150D01*
X10960100Y7405115D02*
G01*
X11006836Y7405115D01*
X11022329Y7400036D01*
X11027663Y7394702D01*
X11032743Y7384287D01*
X11032743Y7373873D01*
X11027663Y7363460D01*
X11022329Y7358379D01*
X11006836Y7353300D01*
X10960100Y7353300D01*
X10996422Y7353300D02*
G01*
X11032743Y7296150D01*
X5368543Y2817621D02*
G01*
X5358129Y2828036D01*
X5342636Y2833115D01*
X5321808Y2833115D01*
X5306313Y2828036D01*
X5295900Y2817621D01*
X5295900Y2807207D01*
X5300979Y2796794D01*
X5306313Y2791460D01*
X5316727Y2786379D01*
X5347970Y2775965D01*
X5358129Y2770886D01*
X5363463Y2765552D01*
X5368543Y2755137D01*
X5368543Y2739644D01*
X5358129Y2729229D01*
X5342636Y2724150D01*
X5321808Y2724150D01*
X5306313Y2729229D01*
X5295900Y2739644D01*
X5402834Y2833115D02*
G01*
X5402834Y2724150D01*
X5402834Y2833115D02*
G01*
X5470397Y2833115D01*
X5402834Y2781300D02*
G01*
X5444490Y2781300D01*
X5402834Y2724150D02*
G01*
X5470397Y2724150D01*
X5504688Y2833115D02*
G01*
X5504688Y2724150D01*
X5504688Y2724150D02*
G01*
X5567172Y2724150D01*
X5601461Y2833115D02*
G01*
X5601461Y2724150D01*
X5601461Y2833115D02*
G01*
X5669025Y2833115D01*
X5601461Y2781300D02*
G01*
X5642863Y2781300D01*
X5601461Y2724150D02*
G01*
X5669025Y2724150D01*
X5781040Y2807207D02*
G01*
X5775959Y2817621D01*
X5765545Y2828036D01*
X5755131Y2833115D01*
X5734304Y2833115D01*
X5723890Y2828036D01*
X5713729Y2817621D01*
X5708395Y2807207D01*
X5703315Y2791460D01*
X5703315Y2765552D01*
X5708395Y2750057D01*
X5713729Y2739644D01*
X5723890Y2729229D01*
X5734304Y2724150D01*
X5755131Y2724150D01*
X5765545Y2729229D01*
X5775959Y2739644D01*
X5781040Y2750057D01*
X5851906Y2833115D02*
G01*
X5851906Y2724150D01*
X5815329Y2833115D02*
G01*
X5888227Y2833115D01*
X6854443Y2728721D02*
G01*
X6844029Y2739136D01*
X6828536Y2744215D01*
X6807708Y2744215D01*
X6792213Y2739136D01*
X6781800Y2728721D01*
X6781800Y2718307D01*
X6786879Y2707894D01*
X6792213Y2702560D01*
X6802627Y2697479D01*
X6833870Y2687065D01*
X6844029Y2681986D01*
X6849363Y2676652D01*
X6854443Y2666237D01*
X6854443Y2650744D01*
X6844029Y2640329D01*
X6828536Y2635250D01*
X6807708Y2635250D01*
X6792213Y2640329D01*
X6781800Y2650744D01*
X6925309Y2744215D02*
G01*
X6925309Y2635250D01*
X6888734Y2744215D02*
G01*
X6961631Y2744215D01*
X7037324Y2744215D02*
G01*
X6995922Y2635250D01*
X7037324Y2744215D02*
G01*
X7078979Y2635250D01*
X7011415Y2671571D02*
G01*
X7063486Y2671571D01*
X7113270Y2744215D02*
G01*
X7113270Y2635250D01*
X7113270Y2744215D02*
G01*
X7160006Y2744215D01*
X7175500Y2739136D01*
X7180834Y2733802D01*
X7185913Y2723387D01*
X7185913Y2712973D01*
X7180834Y2702560D01*
X7175500Y2697479D01*
X7160006Y2692400D01*
X7113270Y2692400D01*
X7149591Y2692400D02*
G01*
X7185913Y2635250D01*
X7256779Y2744215D02*
G01*
X7256779Y2635250D01*
X7220204Y2744215D02*
G01*
X7293102Y2744215D01*
X5457621Y2182621D02*
G01*
X5447207Y2193036D01*
X5431459Y2198115D01*
X5410885Y2198115D01*
X5395137Y2193036D01*
X5384723Y2182621D01*
X5384723Y2172207D01*
X5390057Y2161794D01*
X5395137Y2156460D01*
X5405551Y2151379D01*
X5436793Y2140965D01*
X5447207Y2135886D01*
X5452287Y2130552D01*
X5457621Y2120137D01*
X5457621Y2104644D01*
X5447207Y2094229D01*
X5431459Y2089150D01*
X5410885Y2089150D01*
X5395137Y2094229D01*
X5384723Y2104644D01*
X5491911Y2198115D02*
G01*
X5491911Y2089150D01*
X5491911Y2198115D02*
G01*
X5559475Y2198115D01*
X5491911Y2146300D02*
G01*
X5533313Y2146300D01*
X5491911Y2089150D02*
G01*
X5559475Y2089150D01*
X5593765Y2198115D02*
G01*
X5593765Y2089150D01*
X5593765Y2089150D02*
G01*
X5655995Y2089150D01*
X5690285Y2198115D02*
G01*
X5690285Y2089150D01*
X5690285Y2198115D02*
G01*
X5757849Y2198115D01*
X5690285Y2146300D02*
G01*
X5731941Y2146300D01*
X5690285Y2089150D02*
G01*
X5757849Y2089150D01*
X5870117Y2172207D02*
G01*
X5864783Y2182621D01*
X5854369Y2193036D01*
X5843955Y2198115D01*
X5823381Y2198115D01*
X5812967Y2193036D01*
X5802553Y2182621D01*
X5797219Y2172207D01*
X5792139Y2156460D01*
X5792139Y2130552D01*
X5797219Y2115057D01*
X5802553Y2104644D01*
X5812967Y2094229D01*
X5823381Y2089150D01*
X5843955Y2089150D01*
X5854369Y2094229D01*
X5864783Y2104644D01*
X5870117Y2115057D01*
X5940729Y2198115D02*
G01*
X5940729Y2089150D01*
X5904407Y2198115D02*
G01*
X5977051Y2198115D01*
X6011341Y2052573D02*
G01*
X6104813Y2052573D01*
X6139103Y2198115D02*
G01*
X6139103Y2089150D01*
X6139103Y2198115D02*
G01*
X6185839Y2198115D01*
X6201587Y2193036D01*
X6206667Y2187702D01*
X6212001Y2177287D01*
X6212001Y2166873D01*
X6206667Y2156460D01*
X6201587Y2151379D01*
X6185839Y2146300D01*
X6139103Y2146300D01*
X6175425Y2146300D02*
G01*
X6212001Y2089150D01*
X6246291Y2198115D02*
G01*
X6246291Y2089150D01*
X6246291Y2198115D02*
G01*
X6313855Y2198115D01*
X6246291Y2146300D02*
G01*
X6287693Y2146300D01*
X6246291Y2089150D02*
G01*
X6313855Y2089150D01*
X6420789Y2182621D02*
G01*
X6410375Y2193036D01*
X6394881Y2198115D01*
X6374053Y2198115D01*
X6358305Y2193036D01*
X6348145Y2182621D01*
X6348145Y2172207D01*
X6353225Y2161794D01*
X6358305Y2156460D01*
X6368719Y2151379D01*
X6399961Y2140965D01*
X6410375Y2135886D01*
X6415455Y2130552D01*
X6420789Y2120137D01*
X6420789Y2104644D01*
X6410375Y2094229D01*
X6394881Y2089150D01*
X6374053Y2089150D01*
X6358305Y2094229D01*
X6348145Y2104644D01*
X6956221Y2169921D02*
G01*
X6945807Y2180336D01*
X6930059Y2185415D01*
X6909485Y2185415D01*
X6893737Y2180336D01*
X6883323Y2169921D01*
X6883323Y2159507D01*
X6888657Y2149094D01*
X6893737Y2143760D01*
X6904151Y2138679D01*
X6935393Y2128265D01*
X6945807Y2123186D01*
X6950887Y2117852D01*
X6956221Y2107437D01*
X6956221Y2091944D01*
X6945807Y2081529D01*
X6930059Y2076450D01*
X6909485Y2076450D01*
X6893737Y2081529D01*
X6883323Y2091944D01*
X7026833Y2185415D02*
G01*
X7026833Y2076450D01*
X6990511Y2185415D02*
G01*
X7063155Y2185415D01*
X7139101Y2185415D02*
G01*
X7097445Y2076450D01*
X7139101Y2185415D02*
G01*
X7180503Y2076450D01*
X7112939Y2112771D02*
G01*
X7165009Y2112771D01*
X7214793Y2185415D02*
G01*
X7214793Y2076450D01*
X7214793Y2185415D02*
G01*
X7261529Y2185415D01*
X7277277Y2180336D01*
X7282357Y2175002D01*
X7287691Y2164587D01*
X7287691Y2154173D01*
X7282357Y2143760D01*
X7277277Y2138679D01*
X7261529Y2133600D01*
X7214793Y2133600D01*
X7251115Y2133600D02*
G01*
X7287691Y2076450D01*
X7358303Y2185415D02*
G01*
X7358303Y2076450D01*
X7321981Y2185415D02*
G01*
X7394625Y2185415D01*
X7428915Y2039873D02*
G01*
X7522387Y2039873D01*
X7556677Y2185415D02*
G01*
X7556677Y2076450D01*
X7556677Y2185415D02*
G01*
X7603413Y2185415D01*
X7619161Y2180336D01*
X7624241Y2175002D01*
X7629575Y2164587D01*
X7629575Y2154173D01*
X7624241Y2143760D01*
X7619161Y2138679D01*
X7603413Y2133600D01*
X7556677Y2133600D01*
X7592999Y2133600D02*
G01*
X7629575Y2076450D01*
X7663865Y2185415D02*
G01*
X7663865Y2076450D01*
X7663865Y2185415D02*
G01*
X7731175Y2185415D01*
X7663865Y2133600D02*
G01*
X7705267Y2133600D01*
X7663865Y2076450D02*
G01*
X7731175Y2076450D01*
X7838363Y2169921D02*
G01*
X7827949Y2180336D01*
X7812455Y2185415D01*
X7791627Y2185415D01*
X7775879Y2180336D01*
X7765465Y2169921D01*
X7765465Y2159507D01*
X7770799Y2149094D01*
X7775879Y2143760D01*
X7786293Y2138679D01*
X7817535Y2128265D01*
X7827949Y2123186D01*
X7833029Y2117852D01*
X7838363Y2107437D01*
X7838363Y2091944D01*
X7827949Y2081529D01*
X7812455Y2076450D01*
X7791627Y2076450D01*
X7775879Y2081529D01*
X7765465Y2091944D01*
X10706100Y1486915D02*
G01*
X10706100Y1377950D01*
X10706100Y1486915D02*
G01*
X10752836Y1486915D01*
X10768329Y1481836D01*
X10773663Y1476502D01*
X10778743Y1466087D01*
X10778743Y1455673D01*
X10773663Y1445260D01*
X10768329Y1440179D01*
X10752836Y1435100D01*
X10706100Y1435100D01*
X10742422Y1435100D02*
G01*
X10778743Y1377950D01*
X10823447Y1486915D02*
G01*
X10880597Y1486915D01*
X10849609Y1445260D01*
X10865104Y1445260D01*
X10875518Y1440179D01*
X10880597Y1435100D01*
X10885931Y1419352D01*
X10885931Y1408937D01*
X10880597Y1393444D01*
X10870184Y1383029D01*
X10854690Y1377950D01*
X10839195Y1377950D01*
X10823447Y1383029D01*
X10818368Y1388110D01*
X10813034Y1398523D01*
X10920222Y1341373D02*
G01*
X11013693Y1341373D01*
X11047984Y1486915D02*
G01*
X11047984Y1377950D01*
X11047984Y1486915D02*
G01*
X11094720Y1486915D01*
X11110213Y1481836D01*
X11115547Y1476502D01*
X11120627Y1466087D01*
X11120627Y1455673D01*
X11115547Y1445260D01*
X11110213Y1440179D01*
X11094720Y1435100D01*
X11047984Y1435100D01*
X11084306Y1435100D02*
G01*
X11120627Y1377950D01*
X11154918Y1486915D02*
G01*
X11154918Y1377950D01*
X11154918Y1486915D02*
G01*
X11222481Y1486915D01*
X11154918Y1435100D02*
G01*
X11196574Y1435100D01*
X11154918Y1377950D02*
G01*
X11222481Y1377950D01*
X11329670Y1471421D02*
G01*
X11319256Y1481836D01*
X11303508Y1486915D01*
X11282679Y1486915D01*
X11267186Y1481836D01*
X11256772Y1471421D01*
X11256772Y1461007D01*
X11262106Y1450594D01*
X11267186Y1445260D01*
X11277600Y1440179D01*
X11308841Y1429765D01*
X11319256Y1424686D01*
X11324336Y1419352D01*
X11329670Y1408937D01*
X11329670Y1393444D01*
X11319256Y1383029D01*
X11303508Y1377950D01*
X11282679Y1377950D01*
X11267186Y1383029D01*
X11256772Y1393444D01*
X11471656Y5754115D02*
G01*
X11430000Y5645150D01*
X11471656Y5754115D02*
G01*
X11513058Y5645150D01*
X11445493Y5681471D02*
G01*
X11497563Y5681471D01*
X10591800Y5042915D02*
G01*
X10591800Y4933950D01*
X10591800Y5042915D02*
G01*
X10638536Y5042915D01*
X10654029Y5037836D01*
X10659363Y5032502D01*
X10664443Y5022087D01*
X10664443Y5011673D01*
X10659363Y5001260D01*
X10654029Y4996179D01*
X10638536Y4991100D01*
X10591800Y4991100D02*
G01*
X10638536Y4991100D01*
X10654029Y4985765D01*
X10659363Y4980686D01*
X10664443Y4970271D01*
X10664443Y4954523D01*
X10659363Y4944110D01*
X10654029Y4939029D01*
X10638536Y4933950D01*
X10591800Y4933950D01*
X1739900Y4827015D02*
G01*
X1739900Y4718050D01*
X1739900Y4827015D02*
G01*
X1776222Y4827015D01*
X1791970Y4821936D01*
X1802129Y4811521D01*
X1807463Y4801107D01*
X1812543Y4785360D01*
X1812543Y4759452D01*
X1807463Y4743957D01*
X1802129Y4733544D01*
X1791970Y4723129D01*
X1776222Y4718050D01*
X1739900Y4718050D01*
X1878075Y4827015D02*
G01*
X1867661Y4821936D01*
X1857247Y4811521D01*
X1852168Y4801107D01*
X1846834Y4785360D01*
X1846834Y4759452D01*
X1852168Y4743957D01*
X1857247Y4733544D01*
X1867661Y4723129D01*
X1878075Y4718050D01*
X1898904Y4718050D01*
X1909318Y4723129D01*
X1919731Y4733544D01*
X1924811Y4743957D01*
X1930145Y4759452D01*
X1930145Y4785360D01*
X1924811Y4801107D01*
X1919731Y4811521D01*
X1909318Y4821936D01*
X1898904Y4827015D01*
X1878075Y4827015D01*
X1964436Y4827015D02*
G01*
X1990343Y4718050D01*
X2016252Y4827015D02*
G01*
X1990343Y4718050D01*
X2016252Y4827015D02*
G01*
X2042159Y4718050D01*
X2068322Y4827015D02*
G01*
X2042159Y4718050D01*
X2102611Y4827015D02*
G01*
X2102611Y4718050D01*
X2102611Y4827015D02*
G01*
X2175256Y4718050D01*
X2175256Y4827015D02*
G01*
X2175256Y4718050D01*
X838200Y5525515D02*
G01*
X838200Y5416550D01*
X838200Y5416550D02*
G01*
X900429Y5416550D01*
X934720Y5525515D02*
G01*
X934720Y5416550D01*
X934720Y5525515D02*
G01*
X1002284Y5525515D01*
X934720Y5473700D02*
G01*
X976375Y5473700D01*
X934720Y5416550D02*
G01*
X1002284Y5416550D01*
X1036574Y5525515D02*
G01*
X1036574Y5416550D01*
X1036574Y5525515D02*
G01*
X1104138Y5525515D01*
X1036574Y5473700D02*
G01*
X1078229Y5473700D01*
X1174750Y5525515D02*
G01*
X1174750Y5416550D01*
X1138427Y5525515D02*
G01*
X1211325Y5525515D01*
X2692400Y5576315D02*
G01*
X2692400Y5467350D01*
X2692400Y5576315D02*
G01*
X2739136Y5576315D01*
X2754629Y5571236D01*
X2759963Y5565902D01*
X2765043Y5555487D01*
X2765043Y5545073D01*
X2759963Y5534660D01*
X2754629Y5529579D01*
X2739136Y5524500D01*
X2692400Y5524500D01*
X2728722Y5524500D02*
G01*
X2765043Y5467350D01*
X2799334Y5576315D02*
G01*
X2799334Y5467350D01*
X2911602Y5550407D02*
G01*
X2906522Y5560821D01*
X2896108Y5571236D01*
X2885693Y5576315D01*
X2864865Y5576315D01*
X2854452Y5571236D01*
X2844038Y5560821D01*
X2838958Y5550407D01*
X2833624Y5534660D01*
X2833624Y5508752D01*
X2838958Y5493257D01*
X2844038Y5482844D01*
X2854452Y5472429D01*
X2864865Y5467350D01*
X2885693Y5467350D01*
X2896108Y5472429D01*
X2906522Y5482844D01*
X2911602Y5493257D01*
X2911602Y5508752D01*
X2885693Y5508752D02*
G01*
X2911602Y5508752D01*
X2945891Y5576315D02*
G01*
X2945891Y5467350D01*
X3018790Y5576315D02*
G01*
X3018790Y5467350D01*
X2945891Y5524500D02*
G01*
X3018790Y5524500D01*
X3089402Y5576315D02*
G01*
X3089402Y5467350D01*
X3053079Y5576315D02*
G01*
X3125724Y5576315D01*
X1854200Y6452615D02*
G01*
X1854200Y6374637D01*
X1859279Y6359144D01*
X1869693Y6348729D01*
X1885441Y6343650D01*
X1895856Y6343650D01*
X1911350Y6348729D01*
X1921763Y6359144D01*
X1926843Y6374637D01*
X1926843Y6452615D01*
X1961134Y6452615D02*
G01*
X1961134Y6343650D01*
X1961134Y6452615D02*
G01*
X2007870Y6452615D01*
X2023618Y6447536D01*
X2028697Y6442202D01*
X2034031Y6431787D01*
X2034031Y6416294D01*
X2028697Y6405879D01*
X2023618Y6400800D01*
X2007870Y6395465D01*
X1961134Y6395465D01*
X10668000Y6427215D02*
G01*
X10740643Y6318250D01*
X10740643Y6427215D02*
G01*
X10668000Y6318250D01*
X9690100Y5779515D02*
G01*
X9731756Y5727700D01*
X9731756Y5670550D01*
X9773158Y5779515D02*
G01*
X9731756Y5727700D01*
X11598579Y6109715D02*
G01*
X11556923Y6000750D01*
X11598579Y6109715D02*
G01*
X11640235Y6000750D01*
X11572671Y6037071D02*
G01*
X11624487Y6037071D01*
X11674525Y5964173D02*
G01*
X11767997Y5964173D01*
X11802287Y6109715D02*
G01*
X11802287Y6000750D01*
X11802287Y6109715D02*
G01*
X11849023Y6109715D01*
X11864517Y6104636D01*
X11869851Y6099302D01*
X11874931Y6088887D01*
X11874931Y6078473D01*
X11869851Y6068060D01*
X11864517Y6062979D01*
X11849023Y6057900D01*
X11802287Y6057900D01*
X11838609Y6057900D02*
G01*
X11874931Y6000750D01*
X11909221Y6109715D02*
G01*
X11909221Y6000750D01*
X11909221Y6109715D02*
G01*
X11976785Y6109715D01*
X11909221Y6057900D02*
G01*
X11950877Y6057900D01*
X11909221Y6000750D02*
G01*
X11976785Y6000750D01*
X12083719Y6094221D02*
G01*
X12073305Y6104636D01*
X12057811Y6109715D01*
X12036983Y6109715D01*
X12021489Y6104636D01*
X12011075Y6094221D01*
X12011075Y6083807D01*
X12016155Y6073394D01*
X12021489Y6068060D01*
X12031903Y6062979D01*
X12063145Y6052565D01*
X12073305Y6047486D01*
X12078639Y6042152D01*
X12083719Y6031737D01*
X12083719Y6016244D01*
X12073305Y6005829D01*
X12057811Y6000750D01*
X12036983Y6000750D01*
X12021489Y6005829D01*
X12011075Y6016244D01*
X10541000Y5373115D02*
G01*
X10541000Y5264150D01*
X10541000Y5373115D02*
G01*
X10587736Y5373115D01*
X10603229Y5368036D01*
X10608563Y5362702D01*
X10613643Y5352287D01*
X10613643Y5341873D01*
X10608563Y5331460D01*
X10603229Y5326379D01*
X10587736Y5321300D01*
X10541000Y5321300D02*
G01*
X10587736Y5321300D01*
X10603229Y5315965D01*
X10608563Y5310886D01*
X10613643Y5300471D01*
X10613643Y5284723D01*
X10608563Y5274310D01*
X10603229Y5269229D01*
X10587736Y5264150D01*
X10541000Y5264150D01*
X10647934Y5227573D02*
G01*
X10741659Y5227573D01*
X10775950Y5373115D02*
G01*
X10775950Y5264150D01*
X10775950Y5373115D02*
G01*
X10822686Y5373115D01*
X10838179Y5368036D01*
X10843259Y5362702D01*
X10848593Y5352287D01*
X10848593Y5341873D01*
X10843259Y5331460D01*
X10838179Y5326379D01*
X10822686Y5321300D01*
X10775950Y5321300D01*
X10812272Y5321300D02*
G01*
X10848593Y5264150D01*
X10882884Y5373115D02*
G01*
X10882884Y5264150D01*
X10882884Y5373115D02*
G01*
X10950447Y5373115D01*
X10882884Y5321300D02*
G01*
X10924540Y5321300D01*
X10882884Y5264150D02*
G01*
X10950447Y5264150D01*
X11057381Y5357621D02*
G01*
X11046968Y5368036D01*
X11031474Y5373115D01*
X11010645Y5373115D01*
X10995152Y5368036D01*
X10984738Y5357621D01*
X10984738Y5347207D01*
X10989818Y5336794D01*
X10995152Y5331460D01*
X11005565Y5326379D01*
X11036554Y5315965D01*
X11046968Y5310886D01*
X11052302Y5305552D01*
X11057381Y5295137D01*
X11057381Y5279644D01*
X11046968Y5269229D01*
X11031474Y5264150D01*
X11010645Y5264150D01*
X10995152Y5269229D01*
X10984738Y5279644D01*
X1397000Y5131815D02*
G01*
X1397000Y5022850D01*
X1397000Y5131815D02*
G01*
X1433322Y5131815D01*
X1449070Y5126736D01*
X1459229Y5116321D01*
X1464563Y5105907D01*
X1469643Y5090160D01*
X1469643Y5064252D01*
X1464563Y5048757D01*
X1459229Y5038344D01*
X1449070Y5027929D01*
X1433322Y5022850D01*
X1397000Y5022850D01*
X1535175Y5131815D02*
G01*
X1524761Y5126736D01*
X1514347Y5116321D01*
X1509268Y5105907D01*
X1503934Y5090160D01*
X1503934Y5064252D01*
X1509268Y5048757D01*
X1514347Y5038344D01*
X1524761Y5027929D01*
X1535175Y5022850D01*
X1556004Y5022850D01*
X1566418Y5027929D01*
X1576831Y5038344D01*
X1581911Y5048757D01*
X1587245Y5064252D01*
X1587245Y5090160D01*
X1581911Y5105907D01*
X1576831Y5116321D01*
X1566418Y5126736D01*
X1556004Y5131815D01*
X1535175Y5131815D01*
X1621536Y5131815D02*
G01*
X1647443Y5022850D01*
X1673352Y5131815D02*
G01*
X1647443Y5022850D01*
X1673352Y5131815D02*
G01*
X1699259Y5022850D01*
X1725422Y5131815D02*
G01*
X1699259Y5022850D01*
X1759711Y5131815D02*
G01*
X1759711Y5022850D01*
X1759711Y5131815D02*
G01*
X1832356Y5022850D01*
X1832356Y5131815D02*
G01*
X1832356Y5022850D01*
X1866645Y4986273D02*
G01*
X1960118Y4986273D01*
X1994408Y5131815D02*
G01*
X1994408Y5022850D01*
X1994408Y5131815D02*
G01*
X2041143Y5131815D01*
X2056891Y5126736D01*
X2061972Y5121402D01*
X2067306Y5110987D01*
X2067306Y5100573D01*
X2061972Y5090160D01*
X2056891Y5085079D01*
X2041143Y5080000D01*
X1994408Y5080000D01*
X2030729Y5080000D02*
G01*
X2067306Y5022850D01*
X2101595Y5131815D02*
G01*
X2101595Y5022850D01*
X2101595Y5131815D02*
G01*
X2169159Y5131815D01*
X2101595Y5080000D02*
G01*
X2142997Y5080000D01*
X2101595Y5022850D02*
G01*
X2169159Y5022850D01*
X2276093Y5116321D02*
G01*
X2265679Y5126736D01*
X2250186Y5131815D01*
X2229358Y5131815D01*
X2213609Y5126736D01*
X2203450Y5116321D01*
X2203450Y5105907D01*
X2208529Y5095494D01*
X2213609Y5090160D01*
X2224024Y5085079D01*
X2255265Y5074665D01*
X2265679Y5069586D01*
X2270759Y5064252D01*
X2276093Y5053837D01*
X2276093Y5038344D01*
X2265679Y5027929D01*
X2250186Y5022850D01*
X2229358Y5022850D01*
X2213609Y5027929D01*
X2203450Y5038344D01*
X609523Y5919215D02*
G01*
X609523Y5810250D01*
X609523Y5810250D02*
G01*
X672007Y5810250D01*
X706297Y5919215D02*
G01*
X706297Y5810250D01*
X706297Y5919215D02*
G01*
X773861Y5919215D01*
X706297Y5867400D02*
G01*
X747699Y5867400D01*
X706297Y5810250D02*
G01*
X773861Y5810250D01*
X808151Y5919215D02*
G01*
X808151Y5810250D01*
X808151Y5919215D02*
G01*
X875715Y5919215D01*
X808151Y5867400D02*
G01*
X849553Y5867400D01*
X946327Y5919215D02*
G01*
X946327Y5810250D01*
X910005Y5919215D02*
G01*
X982649Y5919215D01*
X1016939Y5773673D02*
G01*
X1110411Y5773673D01*
X1144701Y5919215D02*
G01*
X1144701Y5810250D01*
X1144701Y5919215D02*
G01*
X1191437Y5919215D01*
X1207185Y5914136D01*
X1212265Y5908802D01*
X1217345Y5898387D01*
X1217345Y5887973D01*
X1212265Y5877560D01*
X1207185Y5872479D01*
X1191437Y5867400D01*
X1144701Y5867400D01*
X1181023Y5867400D02*
G01*
X1217345Y5810250D01*
X1251635Y5919215D02*
G01*
X1251635Y5810250D01*
X1251635Y5919215D02*
G01*
X1319199Y5919215D01*
X1251635Y5867400D02*
G01*
X1293291Y5867400D01*
X1251635Y5810250D02*
G01*
X1319199Y5810250D01*
X1426387Y5903721D02*
G01*
X1415973Y5914136D01*
X1400225Y5919215D01*
X1379651Y5919215D01*
X1363903Y5914136D01*
X1353489Y5903721D01*
X1353489Y5893307D01*
X1358823Y5882894D01*
X1363903Y5877560D01*
X1374317Y5872479D01*
X1405559Y5862065D01*
X1415973Y5856986D01*
X1421053Y5851652D01*
X1426387Y5841237D01*
X1426387Y5825744D01*
X1415973Y5815329D01*
X1400225Y5810250D01*
X1379651Y5810250D01*
X1363903Y5815329D01*
X1353489Y5825744D01*
X1993900Y7379715D02*
G01*
X1993900Y7270750D01*
X1993900Y7270750D02*
G01*
X2056129Y7270750D01*
X2090420Y7234173D02*
G01*
X2184145Y7234173D01*
X2218436Y7379715D02*
G01*
X2218436Y7270750D01*
X2218436Y7379715D02*
G01*
X2265172Y7379715D01*
X2280665Y7374636D01*
X2286000Y7369302D01*
X2291079Y7358887D01*
X2291079Y7348473D01*
X2286000Y7338060D01*
X2280665Y7332979D01*
X2265172Y7327900D01*
X2218436Y7327900D01*
X2254758Y7327900D02*
G01*
X2291079Y7270750D01*
X2325370Y7379715D02*
G01*
X2325370Y7270750D01*
X2325370Y7379715D02*
G01*
X2392934Y7379715D01*
X2325370Y7327900D02*
G01*
X2367025Y7327900D01*
X2325370Y7270750D02*
G01*
X2392934Y7270750D01*
X2499868Y7364221D02*
G01*
X2489454Y7374636D01*
X2473959Y7379715D01*
X2453131Y7379715D01*
X2437638Y7374636D01*
X2427224Y7364221D01*
X2427224Y7353808D01*
X2432304Y7343394D01*
X2437638Y7338060D01*
X2448052Y7332979D01*
X2479040Y7322565D01*
X2489454Y7317486D01*
X2494788Y7312152D01*
X2499868Y7301737D01*
X2499868Y7286244D01*
X2489454Y7275829D01*
X2473959Y7270750D01*
X2453131Y7270750D01*
X2437638Y7275829D01*
X2427224Y7286244D01*
X2362200Y5944615D02*
G01*
X2362200Y5835650D01*
X2362200Y5944615D02*
G01*
X2408936Y5944615D01*
X2424429Y5939536D01*
X2429763Y5934202D01*
X2434843Y5923787D01*
X2434843Y5913373D01*
X2429763Y5902960D01*
X2424429Y5897879D01*
X2408936Y5892800D01*
X2362200Y5892800D01*
X2398522Y5892800D02*
G01*
X2434843Y5835650D01*
X2469134Y5944615D02*
G01*
X2469134Y5835650D01*
X2581402Y5918707D02*
G01*
X2576322Y5929121D01*
X2565908Y5939536D01*
X2555493Y5944615D01*
X2534665Y5944615D01*
X2524252Y5939536D01*
X2513838Y5929121D01*
X2508758Y5918707D01*
X2503424Y5902960D01*
X2503424Y5877052D01*
X2508758Y5861557D01*
X2513838Y5851144D01*
X2524252Y5840729D01*
X2534665Y5835650D01*
X2555493Y5835650D01*
X2565908Y5840729D01*
X2576322Y5851144D01*
X2581402Y5861557D01*
X2581402Y5877052D01*
X2555493Y5877052D02*
G01*
X2581402Y5877052D01*
X2615691Y5944615D02*
G01*
X2615691Y5835650D01*
X2688590Y5944615D02*
G01*
X2688590Y5835650D01*
X2615691Y5892800D02*
G01*
X2688590Y5892800D01*
X2759202Y5944615D02*
G01*
X2759202Y5835650D01*
X2722879Y5944615D02*
G01*
X2795524Y5944615D01*
X2829813Y5799073D02*
G01*
X2923286Y5799073D01*
X2957575Y5944615D02*
G01*
X2957575Y5835650D01*
X2957575Y5944615D02*
G01*
X3004311Y5944615D01*
X3020059Y5939536D01*
X3025140Y5934202D01*
X3030220Y5923787D01*
X3030220Y5913373D01*
X3025140Y5902960D01*
X3020059Y5897879D01*
X3004311Y5892800D01*
X2957575Y5892800D01*
X2993897Y5892800D02*
G01*
X3030220Y5835650D01*
X3064509Y5944615D02*
G01*
X3064509Y5835650D01*
X3064509Y5944615D02*
G01*
X3132074Y5944615D01*
X3064509Y5892800D02*
G01*
X3106165Y5892800D01*
X3064509Y5835650D02*
G01*
X3132074Y5835650D01*
X3239261Y5929121D02*
G01*
X3228847Y5939536D01*
X3213100Y5944615D01*
X3192525Y5944615D01*
X3176777Y5939536D01*
X3166363Y5929121D01*
X3166363Y5918707D01*
X3171697Y5908294D01*
X3176777Y5902960D01*
X3187191Y5897879D01*
X3218434Y5887465D01*
X3228847Y5882386D01*
X3233927Y5877052D01*
X3239261Y5866637D01*
X3239261Y5851144D01*
X3228847Y5840729D01*
X3213100Y5835650D01*
X3192525Y5835650D01*
X3176777Y5840729D01*
X3166363Y5851144D01*
X11010823Y7201915D02*
G01*
X11010823Y7092950D01*
X11010823Y7201915D02*
G01*
X11057559Y7201915D01*
X11073307Y7196836D01*
X11078387Y7191502D01*
X11083721Y7181087D01*
X11083721Y7170673D01*
X11078387Y7160260D01*
X11073307Y7155179D01*
X11057559Y7150100D01*
X11010823Y7150100D01*
X11047145Y7150100D02*
G01*
X11083721Y7092950D01*
X11118011Y7056373D02*
G01*
X11211483Y7056373D01*
X11245773Y7201915D02*
G01*
X11245773Y7092950D01*
X11245773Y7201915D02*
G01*
X11292509Y7201915D01*
X11308003Y7196836D01*
X11313337Y7191502D01*
X11318417Y7181087D01*
X11318417Y7170673D01*
X11313337Y7160260D01*
X11308003Y7155179D01*
X11292509Y7150100D01*
X11245773Y7150100D01*
X11282095Y7150100D02*
G01*
X11318417Y7092950D01*
X11352707Y7201915D02*
G01*
X11352707Y7092950D01*
X11352707Y7201915D02*
G01*
X11420271Y7201915D01*
X11352707Y7150100D02*
G01*
X11394363Y7150100D01*
X11352707Y7092950D02*
G01*
X11420271Y7092950D01*
X11527205Y7186421D02*
G01*
X11517045Y7196836D01*
X11501297Y7201915D01*
X11480469Y7201915D01*
X11464975Y7196836D01*
X11454561Y7186421D01*
X11454561Y7176008D01*
X11459895Y7165594D01*
X11464975Y7160260D01*
X11475389Y7155179D01*
X11506631Y7144765D01*
X11517045Y7139686D01*
X11522125Y7134352D01*
X11527205Y7123937D01*
X11527205Y7108444D01*
X11517045Y7098029D01*
X11501297Y7092950D01*
X11480469Y7092950D01*
X11464975Y7098029D01*
X11454561Y7108444D01*
X1422323Y6820915D02*
G01*
X1422323Y6742937D01*
X1427657Y6727444D01*
X1438071Y6717029D01*
X1453565Y6711950D01*
X1463979Y6711950D01*
X1479473Y6717029D01*
X1489887Y6727444D01*
X1495221Y6742937D01*
X1495221Y6820915D01*
X1529511Y6820915D02*
G01*
X1529511Y6711950D01*
X1529511Y6820915D02*
G01*
X1576247Y6820915D01*
X1591741Y6815836D01*
X1597075Y6810502D01*
X1602155Y6800087D01*
X1602155Y6784594D01*
X1597075Y6774179D01*
X1591741Y6769100D01*
X1576247Y6763765D01*
X1529511Y6763765D01*
X1636445Y6675373D02*
G01*
X1729917Y6675373D01*
X1764207Y6820915D02*
G01*
X1764207Y6711950D01*
X1764207Y6820915D02*
G01*
X1810943Y6820915D01*
X1826691Y6815836D01*
X1831771Y6810502D01*
X1837105Y6800087D01*
X1837105Y6789673D01*
X1831771Y6779260D01*
X1826691Y6774179D01*
X1810943Y6769100D01*
X1764207Y6769100D01*
X1800529Y6769100D02*
G01*
X1837105Y6711950D01*
X1871395Y6820915D02*
G01*
X1871395Y6711950D01*
X1871395Y6820915D02*
G01*
X1938705Y6820915D01*
X1871395Y6769100D02*
G01*
X1912797Y6769100D01*
X1871395Y6711950D02*
G01*
X1938705Y6711950D01*
X2045893Y6805421D02*
G01*
X2035479Y6815836D01*
X2019985Y6820915D01*
X1999157Y6820915D01*
X1983409Y6815836D01*
X1972995Y6805421D01*
X1972995Y6795008D01*
X1978329Y6784594D01*
X1983409Y6779260D01*
X1993823Y6774179D01*
X2025065Y6763765D01*
X2035479Y6758686D01*
X2040559Y6753352D01*
X2045893Y6742937D01*
X2045893Y6727444D01*
X2035479Y6717029D01*
X2019985Y6711950D01*
X1999157Y6711950D01*
X1983409Y6717029D01*
X1972995Y6727444D01*
X10718723Y6833615D02*
G01*
X10791621Y6724650D01*
X10791621Y6833615D02*
G01*
X10718723Y6724650D01*
X10825911Y6688073D02*
G01*
X10919383Y6688073D01*
X10953673Y6833615D02*
G01*
X10953673Y6724650D01*
X10953673Y6833615D02*
G01*
X11000409Y6833615D01*
X11015903Y6828536D01*
X11021237Y6823202D01*
X11026317Y6812787D01*
X11026317Y6802373D01*
X11021237Y6791960D01*
X11015903Y6786879D01*
X11000409Y6781800D01*
X10953673Y6781800D01*
X10989995Y6781800D02*
G01*
X11026317Y6724650D01*
X11060607Y6833615D02*
G01*
X11060607Y6724650D01*
X11060607Y6833615D02*
G01*
X11128171Y6833615D01*
X11060607Y6781800D02*
G01*
X11102263Y6781800D01*
X11060607Y6724650D02*
G01*
X11128171Y6724650D01*
X11235105Y6818121D02*
G01*
X11224945Y6828536D01*
X11209197Y6833615D01*
X11188369Y6833615D01*
X11172875Y6828536D01*
X11162461Y6818121D01*
X11162461Y6807708D01*
X11167795Y6797294D01*
X11172875Y6791960D01*
X11183289Y6786879D01*
X11214531Y6776465D01*
X11224945Y6771386D01*
X11230025Y6766052D01*
X11235105Y6755637D01*
X11235105Y6740144D01*
X11224945Y6729729D01*
X11209197Y6724650D01*
X11188369Y6724650D01*
X11172875Y6729729D01*
X11162461Y6740144D01*
X9690100Y6211315D02*
G01*
X9731756Y6159500D01*
X9731756Y6102350D01*
X9773158Y6211315D02*
G01*
X9731756Y6159500D01*
X9807447Y6065773D02*
G01*
X9900920Y6065773D01*
X9935209Y6211315D02*
G01*
X9935209Y6102350D01*
X9935209Y6211315D02*
G01*
X9982200Y6211315D01*
X9997693Y6206236D01*
X10002774Y6200902D01*
X10008108Y6190487D01*
X10008108Y6180073D01*
X10002774Y6169660D01*
X9997693Y6164579D01*
X9982200Y6159500D01*
X9935209Y6159500D01*
X9971786Y6159500D02*
G01*
X10008108Y6102350D01*
X10042397Y6211315D02*
G01*
X10042397Y6102350D01*
X10042397Y6211315D02*
G01*
X10109961Y6211315D01*
X10042397Y6159500D02*
G01*
X10083800Y6159500D01*
X10042397Y6102350D02*
G01*
X10109961Y6102350D01*
X10216895Y6195821D02*
G01*
X10206481Y6206236D01*
X10190988Y6211315D01*
X10170159Y6211315D01*
X10154665Y6206236D01*
X10144252Y6195821D01*
X10144252Y6185407D01*
X10149331Y6174994D01*
X10154665Y6169660D01*
X10165079Y6164579D01*
X10196068Y6154165D01*
X10206481Y6149086D01*
X10211815Y6143752D01*
X10216895Y6133337D01*
X10216895Y6117844D01*
X10206481Y6107429D01*
X10190988Y6102350D01*
X10170159Y6102350D01*
X10154665Y6107429D01*
X10144252Y6117844D01*
D20*
X2666580Y923023D02*
G01*
X3083425Y923023D01*
X3845001Y1742119D02*
G01*
X3845001Y1612206D01*
X3845001Y1996119D02*
G01*
X3845001Y1864293D01*
X3845001Y2250119D02*
G01*
X3845001Y2118293D01*
X3845001Y2487203D02*
G01*
X3845001Y2372293D01*
X3845001Y2487203D02*
G01*
X3639944Y2487203D01*
X3195396Y3023024D02*
G01*
X3331949Y3023024D01*
X2941396Y3023024D02*
G01*
X3066486Y3023024D01*
X2687396Y3023024D02*
G01*
X2812486Y3023024D01*
X2456952Y3023024D02*
G01*
X2558486Y3023024D01*
X3331949Y2713024D02*
G01*
X3331949Y3023024D01*
X3304999Y1109685D02*
G01*
X3304999Y1393022D01*
X2445001Y1109687D02*
G01*
X2445001Y1393022D01*
X2114999Y2447208D02*
G01*
X2114999Y1677202D01*
X2114999Y1677202D01*
X3845001Y1612206D02*
G01*
X3646957Y1612206D01*
X2456952Y2713024D02*
G01*
X2456952Y3023024D01*
X2214999Y2702356D02*
G01*
X2214999Y2713024D01*
X2214999Y1702358D02*
G01*
X2214999Y2412055D01*
X2447622Y1393022D02*
G01*
X2214999Y1393022D01*
X2214999Y1412057D01*
X3097626Y1393022D02*
G01*
X2652372Y1393022D01*
X3535001Y1411317D02*
G01*
X3535001Y1393022D01*
X3302375Y1393022D01*
X3535001Y2411315D02*
G01*
X3535001Y1703097D01*
X2214999Y2713024D02*
G01*
X3535001Y2713024D01*
X3535001Y2703095D01*
X2526952Y2157209D02*
G01*
X3226953Y2157209D01*
X2526939Y1957133D02*
G01*
X3226953Y1957207D01*
X2751955Y2157209D02*
G01*
X2751955Y2282205D01*
X3001954Y2282205D01*
X3001954Y2157209D01*
X3001693Y1957448D02*
G01*
X3001693Y1832447D01*
X2751693Y1832447D01*
X2751693Y1957448D01*
X2706951Y1237208D02*
G01*
X3036948Y1237208D01*
X3036948Y1117208D01*
X2706951Y1117208D01*
X2706951Y1237208D01*
X2776877Y1337114D02*
G01*
X2776877Y1047302D01*
X2977027Y1047302D01*
X2977027Y1337114D01*
X2966869Y1337114D01*
X9753180Y948423D02*
G01*
X10170025Y948423D01*
X10931601Y1767519D02*
G01*
X10931601Y1637606D01*
X10931601Y2021519D02*
G01*
X10931601Y1889693D01*
X10931601Y2275519D02*
G01*
X10931601Y2143693D01*
X10931601Y2512603D02*
G01*
X10931601Y2397693D01*
X10931601Y2512603D02*
G01*
X10726544Y2512603D01*
X10281996Y3048424D02*
G01*
X10418549Y3048424D01*
X10027996Y3048424D02*
G01*
X10153086Y3048424D01*
X9773996Y3048424D02*
G01*
X9899086Y3048424D01*
X9543552Y3048424D02*
G01*
X9645086Y3048424D01*
X10418549Y2738424D02*
G01*
X10418549Y3048424D01*
X10391599Y1135085D02*
G01*
X10391599Y1418422D01*
X9531601Y1135087D02*
G01*
X9531601Y1418422D01*
X9201599Y2472608D02*
G01*
X9201599Y1702602D01*
X9201599Y1702602D01*
X10931601Y1637606D02*
G01*
X10733557Y1637606D01*
X9543552Y2738424D02*
G01*
X9543552Y3048424D01*
X9301599Y2727756D02*
G01*
X9301599Y2738424D01*
X9301599Y1727758D02*
G01*
X9301599Y2437455D01*
X9534222Y1418422D02*
G01*
X9301599Y1418422D01*
X9301599Y1437457D01*
X10184226Y1418422D02*
G01*
X9738972Y1418422D01*
X10621601Y1436717D02*
G01*
X10621601Y1418422D01*
X10388975Y1418422D01*
X10621601Y2436715D02*
G01*
X10621601Y1728497D01*
X9301599Y2738424D02*
G01*
X10621601Y2738424D01*
X10621601Y2728495D01*
X9613552Y2182609D02*
G01*
X10313553Y2182609D01*
X9613539Y1982533D02*
G01*
X10313553Y1982607D01*
X9838555Y2182609D02*
G01*
X9838555Y2307605D01*
X10088554Y2307605D01*
X10088554Y2182609D01*
X10088293Y1982848D02*
G01*
X10088293Y1857847D01*
X9838293Y1857847D01*
X9838293Y1982848D01*
X9793551Y1262608D02*
G01*
X10123548Y1262608D01*
X10123548Y1142608D01*
X9793551Y1142608D01*
X9793551Y1262608D01*
X9863477Y1362514D02*
G01*
X9863477Y1072702D01*
X10063627Y1072702D01*
X10063627Y1362514D01*
X10053469Y1362514D01*
X2782600Y8142798D02*
G01*
X3262599Y8142798D01*
X3262599Y8142798D01*
X3232599Y8112798D01*
X3232599Y8097799D01*
X3232599Y8097799D01*
X3232599Y7497800D01*
X3232599Y7497800D01*
X3232599Y7482801D01*
X3262599Y7452801D01*
X3262599Y7452801D01*
X2782600Y7452801D01*
X2782600Y7452801D01*
X2782600Y8142798D01*
X8904000Y8142798D02*
G01*
X9383999Y8142798D01*
X9383999Y8142798D01*
X9353999Y8112798D01*
X9353999Y8097799D01*
X9353999Y8097799D01*
X9353999Y7497800D01*
X9353999Y7497800D01*
X9353999Y7482801D01*
X9383999Y7452801D01*
X9383999Y7452801D01*
X8904000Y7452801D01*
X8904000Y7452801D01*
X8904000Y8142798D01*
X1823186Y7512100D02*
G01*
X1123188Y7512100D01*
X1823186Y8167090D02*
G01*
X1123188Y8167090D01*
X1823186Y7512100D02*
G01*
X1823186Y8167090D01*
X1123188Y7512100D02*
G01*
X1123188Y8167090D01*
X1323187Y8167090D02*
G01*
X1323187Y8342096D01*
X1623186Y8167090D02*
G01*
X1623186Y8342096D01*
X1623186Y8342096D02*
G01*
X1323187Y8342096D01*
D21*
X4034078Y1259860D02*
G01*
X3938191Y1259860D01*
X3938191Y1127739D01*
X4034078Y1127739D01*
X4119321Y1259860D02*
G01*
X4215208Y1259860D01*
X4215208Y1127739D01*
X4119321Y1127739D01*
D20*
X5839998Y7890596D02*
G01*
X5839998Y3505603D01*
X5589998Y3505603D01*
X5589998Y8635593D01*
X5839998Y8635593D01*
X5839998Y7885595D01*
X7363998Y7877896D02*
G01*
X7363998Y3492903D01*
X7113998Y3492903D01*
X7113998Y8622893D01*
X7363998Y8622893D01*
X7363998Y7872895D01*
X11335486Y7486700D02*
G01*
X10635488Y7486700D01*
X11335486Y8141690D02*
G01*
X10635488Y8141690D01*
X11335486Y7486700D02*
G01*
X11335486Y8141690D01*
X10635488Y7486700D02*
G01*
X10635488Y8141690D01*
X10835487Y8141690D02*
G01*
X10835487Y8316696D01*
X11135486Y8141690D02*
G01*
X11135486Y8316696D01*
X11135486Y8316696D02*
G01*
X10835487Y8316696D01*
D22*
X5216880Y2564513D02*
G01*
X5216880Y2659120D01*
X5216880Y2293879D02*
G01*
X5216880Y2388486D01*
D21*
X5216880Y2659120D02*
G01*
X5832119Y2659120D01*
X5832119Y2659120D02*
G01*
X5832119Y2566819D01*
X5216880Y2293879D02*
G01*
X5832119Y2293879D01*
X5832119Y2293879D02*
G01*
X5832119Y2386180D01*
D20*
X5638800Y2387600D02*
G01*
X5397500Y2387600D01*
X5397500Y2565400D01*
X5638800Y2565400D01*
X5638800Y2387600D01*
D22*
X6740880Y2501013D02*
G01*
X6740880Y2595620D01*
X6740880Y2230379D02*
G01*
X6740880Y2324986D01*
D21*
X6740880Y2595620D02*
G01*
X7356119Y2595620D01*
X7356119Y2595620D02*
G01*
X7356119Y2503319D01*
X6740880Y2230379D02*
G01*
X7356119Y2230379D01*
X7356119Y2230379D02*
G01*
X7356119Y2322680D01*
D20*
X7162800Y2324100D02*
G01*
X6921500Y2324100D01*
X6921500Y2501900D01*
X7162800Y2501900D01*
X7162800Y2324100D01*
D21*
X5859221Y1902439D02*
G01*
X5955108Y1902439D01*
X5955108Y2034560D01*
X5859221Y2034560D01*
X5773978Y1902439D02*
G01*
X5678091Y1902439D01*
X5678091Y2034560D01*
X5773978Y2034560D01*
X7370521Y1877039D02*
G01*
X7466408Y1877039D01*
X7466408Y2009160D01*
X7370521Y2009160D01*
X7285278Y1877039D02*
G01*
X7189391Y1877039D01*
X7189391Y2009160D01*
X7285278Y2009160D01*
X10879378Y1285260D02*
G01*
X10783491Y1285260D01*
X10783491Y1153139D01*
X10879378Y1153139D01*
X10964621Y1285260D02*
G01*
X11060508Y1285260D01*
X11060508Y1153139D01*
X10964621Y1153139D01*
D20*
X11744078Y5555106D02*
G01*
X11242921Y5555106D01*
X11183493Y5358046D02*
G01*
X11183493Y5132153D01*
X11242921Y4935093D02*
G01*
X11744078Y4935093D01*
X11803506Y5132153D02*
G01*
X11803506Y5358046D01*
X10880478Y4856606D02*
G01*
X10379321Y4856606D01*
X10319893Y4659546D02*
G01*
X10319893Y4433653D01*
X10379321Y4236593D02*
G01*
X10880478Y4236593D01*
X10939906Y4433653D02*
G01*
X10939906Y4659546D01*
X2168278Y4615306D02*
G01*
X1667121Y4615306D01*
X1607693Y4418246D02*
G01*
X1607693Y4192353D01*
X1667121Y3995293D02*
G01*
X2168278Y3995293D01*
X2227706Y4192353D02*
G01*
X2227706Y4418246D01*
X1241178Y5326506D02*
G01*
X740021Y5326506D01*
X680593Y5129446D02*
G01*
X680593Y4903553D01*
X740021Y4706493D02*
G01*
X1241178Y4706493D01*
X1300606Y4903553D02*
G01*
X1300606Y5129446D01*
X3082678Y5415406D02*
G01*
X2581521Y5415406D01*
X2522093Y5218346D02*
G01*
X2522093Y4992453D01*
X2581521Y4795393D02*
G01*
X3082678Y4795393D01*
X3142106Y4992453D02*
G01*
X3142106Y5218346D01*
X2155578Y6240906D02*
G01*
X1654421Y6240906D01*
X1594993Y6043846D02*
G01*
X1594993Y5817953D01*
X1654421Y5620893D02*
G01*
X2155578Y5620893D01*
X2215006Y5817953D02*
G01*
X2215006Y6043846D01*
X10943978Y6279006D02*
G01*
X10442821Y6279006D01*
X10383393Y6081946D02*
G01*
X10383393Y5856053D01*
X10442821Y5658993D02*
G01*
X10943978Y5658993D01*
X11003406Y5856053D02*
G01*
X11003406Y6081946D01*
X9953378Y5605906D02*
G01*
X9452221Y5605906D01*
X9392793Y5408846D02*
G01*
X9392793Y5182953D01*
X9452221Y4985893D02*
G01*
X9953378Y4985893D01*
X10012806Y5182953D02*
G01*
X10012806Y5408846D01*
D21*
X11704878Y5933460D02*
G01*
X11608991Y5933460D01*
X11608991Y5801339D01*
X11704878Y5801339D01*
X11790121Y5933460D02*
G01*
X11886008Y5933460D01*
X11886008Y5801339D01*
X11790121Y5801339D01*
X10841278Y5196860D02*
G01*
X10745391Y5196860D01*
X10745391Y5064739D01*
X10841278Y5064739D01*
X10926521Y5196860D02*
G01*
X11022408Y5196860D01*
X11022408Y5064739D01*
X10926521Y5064739D01*
X1621078Y4993660D02*
G01*
X1525191Y4993660D01*
X1525191Y4861539D01*
X1621078Y4861539D01*
X1706321Y4993660D02*
G01*
X1802208Y4993660D01*
X1802208Y4861539D01*
X1706321Y4861539D01*
X706678Y5755660D02*
G01*
X610791Y5755660D01*
X610791Y5623539D01*
X706678Y5623539D01*
X791921Y5755660D02*
G01*
X887808Y5755660D01*
X887808Y5623539D01*
X791921Y5623539D01*
X1735378Y7343160D02*
G01*
X1639491Y7343160D01*
X1639491Y7211039D01*
X1735378Y7211039D01*
X1820621Y7343160D02*
G01*
X1916508Y7343160D01*
X1916508Y7211039D01*
X1820621Y7211039D01*
X2548178Y5755660D02*
G01*
X2452291Y5755660D01*
X2452291Y5623539D01*
X2548178Y5623539D01*
X2633421Y5755660D02*
G01*
X2729308Y5755660D01*
X2729308Y5623539D01*
X2633421Y5623539D01*
X10875721Y7071339D02*
G01*
X10971608Y7071339D01*
X10971608Y7203460D01*
X10875721Y7203460D01*
X10790478Y7071339D02*
G01*
X10694591Y7071339D01*
X10694591Y7203460D01*
X10790478Y7203460D01*
X1608378Y6631960D02*
G01*
X1512491Y6631960D01*
X1512491Y6499839D01*
X1608378Y6499839D01*
X1693621Y6631960D02*
G01*
X1789508Y6631960D01*
X1789508Y6499839D01*
X1693621Y6499839D01*
X10904778Y6631960D02*
G01*
X10808891Y6631960D01*
X10808891Y6499839D01*
X10904778Y6499839D01*
X10990021Y6631960D02*
G01*
X11085908Y6631960D01*
X11085908Y6499839D01*
X10990021Y6499839D01*
X9914178Y6022360D02*
G01*
X9818291Y6022360D01*
X9818291Y5890239D01*
X9914178Y5890239D01*
X9999421Y6022360D02*
G01*
X10095308Y6022360D01*
X10095308Y5890239D01*
X9999421Y5890239D01*
D20*
G75*
G01*
X3338469Y1658229D02*
G03*
X2444051Y1627279I-461550J398975D01*
G75*
G01*
X2682019Y1479042D02*
G03*
X3073811Y1479718I194900J578159D01*
G75*
G01*
X10425069Y1683629D02*
G03*
X9530651Y1652679I-461550J398975D01*
G75*
G01*
X9768619Y1504442D02*
G03*
X10160411Y1505118I194900J578159D01*
G75*
G01
X3240507Y2057044D02*
G03X3240507Y2057044I-363372J0D01*
G75*
G01
X2974569Y2057197D02*
G03X2974569Y2057197I-97638J0D01*
G75*
G01
X10327107Y2082444D02*
G03X10327107Y2082444I-363372J0D01*
G75*
G01
X10061169Y2082597D02*
G03X10061169Y2082597I-97638J0D01*
G75*
G01
X11607800Y5245100D02*
G03X11607800Y5245100I-114300J0D01*
G75*
G01
X11643614Y5245100D02*
G03X11643614Y5245100I-150114J0D01*
G75*
G01
X11345697Y5067300D02*
G03X11345697Y5067300I-29997J0D01*
G75*
G01
X11345697Y5422900D02*
G03X11345697Y5422900I-29997J0D01*
G75*
G01
X11701297Y5067300D02*
G03X11701297Y5067300I-29997J0D01*
G75*
G01
X11701297Y5397500D02*
G03X11701297Y5397500I-29997J0D01*
G75*
G01
X10744200Y4546600D02*
G03X10744200Y4546600I-114300J0D01*
G75*
G01
X10780014Y4546600D02*
G03X10780014Y4546600I-150114J0D01*
G75*
G01
X10482097Y4368800D02*
G03X10482097Y4368800I-29997J0D01*
G75*
G01
X10482097Y4724400D02*
G03X10482097Y4724400I-29997J0D01*
G75*
G01
X10837697Y4368800D02*
G03X10837697Y4368800I-29997J0D01*
G75*
G01
X10837697Y4699000D02*
G03X10837697Y4699000I-29997J0D01*
G75*
G01
X2032000Y4305300D02*
G03X2032000Y4305300I-114300J0D01*
G75*
G01
X2067814Y4305300D02*
G03X2067814Y4305300I-150114J0D01*
G75*
G01
X1769897Y4127500D02*
G03X1769897Y4127500I-29997J0D01*
G75*
G01
X1769897Y4483100D02*
G03X1769897Y4483100I-29997J0D01*
G75*
G01
X2125497Y4127500D02*
G03X2125497Y4127500I-29997J0D01*
G75*
G01
X2125497Y4457700D02*
G03X2125497Y4457700I-29997J0D01*
G75*
G01
X1104900Y5016500D02*
G03X1104900Y5016500I-114300J0D01*
G75*
G01
X1140714Y5016500D02*
G03X1140714Y5016500I-150114J0D01*
G75*
G01
X842797Y4838700D02*
G03X842797Y4838700I-29997J0D01*
G75*
G01
X842797Y5194300D02*
G03X842797Y5194300I-29997J0D01*
G75*
G01
X1198397Y4838700D02*
G03X1198397Y4838700I-29997J0D01*
G75*
G01
X1198397Y5168900D02*
G03X1198397Y5168900I-29997J0D01*
G75*
G01
X2946400Y5105400D02*
G03X2946400Y5105400I-114300J0D01*
G75*
G01
X2982214Y5105400D02*
G03X2982214Y5105400I-150114J0D01*
G75*
G01
X2684297Y4927600D02*
G03X2684297Y4927600I-29997J0D01*
G75*
G01
X2684297Y5283200D02*
G03X2684297Y5283200I-29997J0D01*
G75*
G01
X3039897Y4927600D02*
G03X3039897Y4927600I-29997J0D01*
G75*
G01
X3039897Y5257800D02*
G03X3039897Y5257800I-29997J0D01*
G75*
G01
X2019300Y5930900D02*
G03X2019300Y5930900I-114300J0D01*
G75*
G01
X2055114Y5930900D02*
G03X2055114Y5930900I-150114J0D01*
G75*
G01
X1757197Y5753100D02*
G03X1757197Y5753100I-29997J0D01*
G75*
G01
X1757197Y6108700D02*
G03X1757197Y6108700I-29997J0D01*
G75*
G01
X2112797Y5753100D02*
G03X2112797Y5753100I-29997J0D01*
G75*
G01
X2112797Y6083300D02*
G03X2112797Y6083300I-29997J0D01*
G75*
G01
X10807700Y5969000D02*
G03X10807700Y5969000I-114300J0D01*
G75*
G01
X10843514Y5969000D02*
G03X10843514Y5969000I-150114J0D01*
G75*
G01
X10545597Y5791200D02*
G03X10545597Y5791200I-29997J0D01*
G75*
G01
X10545597Y6146800D02*
G03X10545597Y6146800I-29997J0D01*
G75*
G01
X10901197Y5791200D02*
G03X10901197Y5791200I-29997J0D01*
G75*
G01
X10901197Y6121400D02*
G03X10901197Y6121400I-29997J0D01*
G75*
G01
X9817100Y5295900D02*
G03X9817100Y5295900I-114300J0D01*
G75*
G01
X9852914Y5295900D02*
G03X9852914Y5295900I-150114J0D01*
G75*
G01
X9554997Y5118100D02*
G03X9554997Y5118100I-29997J0D01*
G75*
G01
X9554997Y5473700D02*
G03X9554997Y5473700I-29997J0D01*
G75*
G01
X9910597Y5118100D02*
G03X9910597Y5118100I-29997J0D01*
G75*
G01
X9910597Y5448300D02*
G03X9910597Y5448300I-29997J0D01*
M02*
