G04 Layer: BottomSolderMaskLayer*
G04 EasyEDA v6.5.5, 2022-06-26 01:00:07*
G04 2c515557f0e44504be437badec322791,a4ea12fd96744f7d9b8618c9b4952ea7,10*
G04 Gerber Generator version 0.2*
G04 Scale: 100 percent, Rotated: No, Reflected: No *
G04 Dimensions in millimeters *
G04 leading zeros omitted , absolute positions ,4 integer and 5 decimal *
%FSLAX45Y45*%
%MOMM*%

%ADD25C,1.9016*%
%ADD26C,2.6016*%
%ADD27C,2.3016*%
%ADD28C,1.5016*%
%ADD29C,2.1016*%

%LPD*%
D25*
G01*
X3749954Y1803196D03*
G01*
X3749954Y2057196D03*
G01*
X3749954Y2311196D03*
G01*
X3130956Y2930194D03*
G01*
X2876956Y2930194D03*
G01*
X2622956Y2930194D03*
D26*
G01*
X2244470Y2557195D03*
G01*
X2244470Y1557197D03*
G01*
X3509467Y1557197D03*
G01*
X3509467Y2557195D03*
D27*
G01*
X2550007Y1482191D03*
G01*
X3200018Y1482191D03*
G01*
X2550007Y1032205D03*
G01*
X3200018Y1032205D03*
D25*
G01*
X10836554Y1828596D03*
G01*
X10836554Y2082596D03*
G01*
X10836554Y2336596D03*
G01*
X10217556Y2955594D03*
G01*
X9963556Y2955594D03*
G01*
X9709556Y2955594D03*
D26*
G01*
X9331070Y2582595D03*
G01*
X9331070Y1582597D03*
G01*
X10596067Y1582597D03*
G01*
X10596067Y2582595D03*
D27*
G01*
X9636607Y1507591D03*
G01*
X10286618Y1507591D03*
G01*
X9636607Y1057605D03*
G01*
X10286618Y1057605D03*
D28*
G01*
X2895600Y7543800D03*
G01*
X3149600Y7797800D03*
G01*
X2895600Y8051800D03*
G01*
X9017000Y7543800D03*
G01*
X9271000Y7797800D03*
G01*
X9017000Y8051800D03*
D25*
G01*
X1698243Y7912100D03*
G01*
X1248156Y7912100D03*
D29*
G01*
X1113281Y7658100D03*
G01*
X1833118Y7658100D03*
G36*
X5620004Y8388604D02*
G01*
X5620004Y8578595D01*
X5809995Y8578595D01*
X5809995Y8388604D01*
G37*
D25*
G01*
X5715000Y8229600D03*
G01*
X5715000Y7975600D03*
G01*
X5715000Y7721600D03*
G01*
X5715000Y7467600D03*
G01*
X5715000Y7213600D03*
G01*
X5715000Y6959600D03*
G01*
X5715000Y6705600D03*
G01*
X5715000Y6451600D03*
G01*
X5715000Y6197600D03*
G01*
X5715000Y5943600D03*
G01*
X5715000Y5689600D03*
G01*
X5715000Y5435600D03*
G01*
X5715000Y5181600D03*
G01*
X5715000Y4927600D03*
G01*
X5715000Y4673600D03*
G01*
X5715000Y4419600D03*
G01*
X5715000Y4165600D03*
G01*
X5715000Y3911600D03*
G01*
X5715000Y3657600D03*
G36*
X7144004Y8375904D02*
G01*
X7144004Y8565895D01*
X7333995Y8565895D01*
X7333995Y8375904D01*
G37*
G01*
X7239000Y8216900D03*
G01*
X7239000Y7962900D03*
G01*
X7239000Y7708900D03*
G01*
X7239000Y7454900D03*
G01*
X7239000Y7200900D03*
G01*
X7239000Y6946900D03*
G01*
X7239000Y6692900D03*
G01*
X7239000Y6438900D03*
G01*
X7239000Y6184900D03*
G01*
X7239000Y5930900D03*
G01*
X7239000Y5676900D03*
G01*
X7239000Y5422900D03*
G01*
X7239000Y5168900D03*
G01*
X7239000Y4914900D03*
G01*
X7239000Y4660900D03*
G01*
X7239000Y4406900D03*
G01*
X7239000Y4152900D03*
G01*
X7239000Y3898900D03*
G01*
X7239000Y3644900D03*
G01*
X11210543Y7886700D03*
G01*
X10760456Y7886700D03*
D29*
G01*
X10625581Y7632700D03*
G01*
X11345418Y7632700D03*
D25*
G01*
X11818620Y5020055D03*
G01*
X11818620Y5470144D03*
G01*
X11168379Y5020055D03*
G01*
X11168379Y5470144D03*
G01*
X10955020Y4321555D03*
G01*
X10955020Y4771644D03*
G01*
X10304779Y4321555D03*
G01*
X10304779Y4771644D03*
G01*
X2242820Y4080255D03*
G01*
X2242820Y4530344D03*
G01*
X1592579Y4080255D03*
G01*
X1592579Y4530344D03*
G01*
X1315720Y4791455D03*
G01*
X1315720Y5241544D03*
G01*
X665479Y4791455D03*
G01*
X665479Y5241544D03*
G01*
X3157220Y4880355D03*
G01*
X3157220Y5330444D03*
G01*
X2506979Y4880355D03*
G01*
X2506979Y5330444D03*
G01*
X2230120Y5705855D03*
G01*
X2230120Y6155944D03*
G01*
X1579879Y5705855D03*
G01*
X1579879Y6155944D03*
G01*
X11018520Y5743955D03*
G01*
X11018520Y6194044D03*
G01*
X10368279Y5743955D03*
G01*
X10368279Y6194044D03*
G01*
X10027920Y5070855D03*
G01*
X10027920Y5520944D03*
G01*
X9377679Y5070855D03*
G01*
X9377679Y5520944D03*
M02*
