G04 Layer: BottomLayer*
G04 EasyEDA v6.5.5, 2022-06-26 01:00:07*
G04 2c515557f0e44504be437badec322791,a4ea12fd96744f7d9b8618c9b4952ea7,10*
G04 Gerber Generator version 0.2*
G04 Scale: 100 percent, Rotated: No, Reflected: No *
G04 Dimensions in millimeters *
G04 leading zeros omitted , absolute positions ,4 integer and 5 decimal *
%FSLAX45Y45*%
%MOMM*%

%ADD10C,0.3000*%
%ADD11C,0.6150*%
%ADD14C,1.8000*%
%ADD15C,2.5000*%
%ADD16C,2.2000*%
%ADD17C,1.4000*%
%ADD18C,2.0000*%
%ADD19R,1.8000X1.8000*%

%LPD*%
G36*
X36068Y25908D02*
G01*
X32156Y26670D01*
X28905Y28905D01*
X26670Y32156D01*
X25908Y36068D01*
X25908Y8853932D01*
X26670Y8857843D01*
X28905Y8861094D01*
X32156Y8863330D01*
X36068Y8864092D01*
X12663932Y8864092D01*
X12667843Y8863330D01*
X12671094Y8861094D01*
X12673330Y8857843D01*
X12674092Y8853932D01*
X12674092Y36068D01*
X12673330Y32156D01*
X12671094Y28905D01*
X12667843Y26670D01*
X12663932Y25908D01*
G37*

%LPC*%
G36*
X2542082Y896569D02*
G01*
X2557881Y896569D01*
X2573578Y898398D01*
X2588971Y902004D01*
X2603804Y907440D01*
X2617927Y914501D01*
X2631135Y923188D01*
X2643276Y933348D01*
X2654096Y944880D01*
X2663545Y957529D01*
X2671419Y971245D01*
X2677668Y985723D01*
X2682240Y1000861D01*
X2684983Y1016406D01*
X2685897Y1032205D01*
X2684983Y1048003D01*
X2682240Y1063548D01*
X2677668Y1078687D01*
X2671419Y1093216D01*
X2663545Y1106881D01*
X2654096Y1119581D01*
X2643276Y1131062D01*
X2631135Y1141222D01*
X2617927Y1149908D01*
X2603804Y1156970D01*
X2588971Y1162405D01*
X2573578Y1166012D01*
X2557881Y1167892D01*
X2542082Y1167892D01*
X2526385Y1166012D01*
X2511044Y1162405D01*
X2496159Y1156970D01*
X2482037Y1149908D01*
X2468829Y1141222D01*
X2456738Y1131062D01*
X2445918Y1119581D01*
X2436469Y1106881D01*
X2428544Y1093216D01*
X2422296Y1078687D01*
X2417775Y1063548D01*
X2415032Y1048003D01*
X2414117Y1032205D01*
X2415032Y1016406D01*
X2417775Y1000861D01*
X2422296Y985723D01*
X2428544Y971245D01*
X2436469Y957529D01*
X2445918Y944880D01*
X2456738Y933348D01*
X2468829Y923188D01*
X2482037Y914501D01*
X2496159Y907440D01*
X2511044Y902004D01*
X2526385Y898398D01*
G37*
G36*
X3261360Y911199D02*
G01*
X3267964Y914552D01*
X3281172Y923188D01*
X3293262Y933348D01*
X3304082Y944880D01*
X3313531Y957529D01*
X3321253Y970838D01*
X3261360Y970838D01*
G37*
G36*
X3138627Y911199D02*
G01*
X3138627Y970838D01*
X3078784Y970838D01*
X3086455Y957529D01*
X3095904Y944880D01*
X3106724Y933348D01*
X3118866Y923188D01*
X3132074Y914552D01*
G37*
G36*
X9628682Y921969D02*
G01*
X9644481Y921969D01*
X9660178Y923798D01*
X9675571Y927404D01*
X9690404Y932840D01*
X9704527Y939901D01*
X9717735Y948588D01*
X9729876Y958748D01*
X9740696Y970280D01*
X9750145Y982929D01*
X9758019Y996645D01*
X9764268Y1011123D01*
X9768840Y1026261D01*
X9771583Y1041806D01*
X9772497Y1057605D01*
X9771583Y1073404D01*
X9768840Y1088948D01*
X9764268Y1104087D01*
X9758019Y1118616D01*
X9750145Y1132281D01*
X9740696Y1144981D01*
X9729876Y1156462D01*
X9717735Y1166622D01*
X9704527Y1175308D01*
X9690404Y1182370D01*
X9675571Y1187805D01*
X9660178Y1191412D01*
X9644481Y1193292D01*
X9628682Y1193292D01*
X9612985Y1191412D01*
X9597644Y1187805D01*
X9582759Y1182370D01*
X9568637Y1175308D01*
X9555429Y1166622D01*
X9543338Y1156462D01*
X9532518Y1144981D01*
X9523069Y1132281D01*
X9515144Y1118616D01*
X9508896Y1104087D01*
X9504375Y1088948D01*
X9501632Y1073404D01*
X9500717Y1057605D01*
X9501632Y1041806D01*
X9504375Y1026261D01*
X9508896Y1011123D01*
X9515144Y996645D01*
X9523069Y982929D01*
X9532518Y970280D01*
X9543338Y958748D01*
X9555429Y948588D01*
X9568637Y939901D01*
X9582759Y932840D01*
X9597644Y927404D01*
X9612985Y923798D01*
G37*
G36*
X10225227Y936599D02*
G01*
X10225227Y996238D01*
X10165384Y996238D01*
X10173055Y982929D01*
X10182504Y970280D01*
X10193324Y958748D01*
X10205466Y948588D01*
X10218674Y939952D01*
G37*
G36*
X10347960Y936599D02*
G01*
X10354564Y939952D01*
X10367772Y948588D01*
X10379862Y958748D01*
X10390682Y970280D01*
X10400131Y982929D01*
X10407853Y996238D01*
X10347960Y996238D01*
G37*
G36*
X3261360Y1093571D02*
G01*
X3321253Y1093571D01*
X3313531Y1106881D01*
X3304082Y1119581D01*
X3293262Y1131062D01*
X3281172Y1141222D01*
X3267964Y1149908D01*
X3261360Y1153210D01*
G37*
G36*
X3078784Y1093571D02*
G01*
X3138627Y1093571D01*
X3138627Y1153210D01*
X3132074Y1149908D01*
X3118866Y1141222D01*
X3106724Y1131062D01*
X3095904Y1119581D01*
X3086455Y1106881D01*
G37*
G36*
X10165384Y1118971D02*
G01*
X10225227Y1118971D01*
X10225227Y1178610D01*
X10218674Y1175308D01*
X10205466Y1166622D01*
X10193324Y1156462D01*
X10182504Y1144981D01*
X10173055Y1132281D01*
G37*
G36*
X10347960Y1118971D02*
G01*
X10407853Y1118971D01*
X10400131Y1132281D01*
X10390682Y1144981D01*
X10379862Y1156462D01*
X10367772Y1166622D01*
X10354564Y1175308D01*
X10347960Y1178610D01*
G37*
G36*
X4472787Y1137208D02*
G01*
X4482338Y1138428D01*
X4491532Y1141272D01*
X4500067Y1145590D01*
X4507280Y1150924D01*
X4510125Y1152398D01*
X4513326Y1152906D01*
X6337300Y1152906D01*
X6345783Y1153718D01*
X6353454Y1156055D01*
X6360515Y1159814D01*
X6367068Y1165250D01*
X6594449Y1392631D01*
X6599885Y1399184D01*
X6603644Y1406245D01*
X6605981Y1413916D01*
X6606794Y1422400D01*
X6606794Y4474667D01*
X6607606Y4478528D01*
X6609791Y4481830D01*
X6755282Y4627321D01*
X6757974Y4629251D01*
X6761175Y4630216D01*
X6768541Y4631131D01*
X6777736Y4633976D01*
X6786270Y4638294D01*
X6788200Y4639716D01*
X6792264Y4641494D01*
X6796684Y4641392D01*
X6800697Y4639360D01*
X6803440Y4635855D01*
X6804406Y4631537D01*
X6804406Y3289808D01*
X6805218Y3281324D01*
X6807555Y3273653D01*
X6811314Y3266592D01*
X6816750Y3260039D01*
X7103414Y2973324D01*
X7105243Y2970834D01*
X7106259Y2967888D01*
X7107986Y2957525D01*
X7111187Y2948482D01*
X7115911Y2940100D01*
X7121906Y2932633D01*
X7129119Y2926283D01*
X7137298Y2921254D01*
X7146239Y2917647D01*
X7155586Y2915615D01*
X7165187Y2915208D01*
X7174738Y2916428D01*
X7183932Y2919272D01*
X7192467Y2923590D01*
X7200188Y2929280D01*
X7206843Y2936240D01*
X7212228Y2944164D01*
X7212990Y2945892D01*
X7215276Y2949092D01*
X7218578Y2951175D01*
X7222388Y2951886D01*
X7226198Y2951073D01*
X7229449Y2948889D01*
X7959039Y2219350D01*
X7965592Y2213914D01*
X7972653Y2210155D01*
X7980324Y2207818D01*
X7988808Y2207006D01*
X10610088Y2207006D01*
X10613796Y2206294D01*
X10616946Y2204313D01*
X10719257Y2110943D01*
X10721390Y2108250D01*
X10722457Y2104948D01*
X10722406Y2101545D01*
X10721543Y2097125D01*
X10720628Y2082596D01*
X10721543Y2068068D01*
X10724286Y2053793D01*
X10728807Y2039924D01*
X10735005Y2026767D01*
X10742777Y2014474D01*
X10752074Y2003298D01*
X10762691Y1993290D01*
X10774426Y1984756D01*
X10787176Y1977745D01*
X10800740Y1972411D01*
X10814812Y1968754D01*
X10829239Y1966925D01*
X10843818Y1966925D01*
X10858246Y1968754D01*
X10872368Y1972411D01*
X10885881Y1977745D01*
X10898632Y1984756D01*
X10910417Y1993290D01*
X10921034Y2003298D01*
X10930280Y2014474D01*
X10938103Y2026767D01*
X10944301Y2039924D01*
X10948771Y2053793D01*
X10951514Y2068068D01*
X10952429Y2082596D01*
X10951514Y2097125D01*
X10948771Y2111451D01*
X10944301Y2125268D01*
X10938103Y2138426D01*
X10930280Y2150719D01*
X10921034Y2161946D01*
X10910417Y2171903D01*
X10898632Y2180437D01*
X10885881Y2187448D01*
X10872368Y2192832D01*
X10858246Y2196439D01*
X10843818Y2198268D01*
X10829239Y2198268D01*
X10814812Y2196439D01*
X10800740Y2192832D01*
X10787176Y2187448D01*
X10774578Y2180539D01*
X10770616Y2179320D01*
X10766450Y2179828D01*
X10762843Y2181961D01*
X10657840Y2277770D01*
X10651032Y2282850D01*
X10643819Y2286304D01*
X10635945Y2288336D01*
X10629493Y2288794D01*
X8009432Y2288794D01*
X8005572Y2289556D01*
X8002270Y2291791D01*
X6990791Y3303270D01*
X6988606Y3306572D01*
X6987794Y3310432D01*
X6987794Y3420364D01*
X6988657Y3424428D01*
X6991045Y3427780D01*
X6994550Y3429965D01*
X6998614Y3430524D01*
X7002627Y3429406D01*
X7005828Y3426815D01*
X7007250Y3425139D01*
X7298639Y3133750D01*
X7305192Y3128314D01*
X7312253Y3124555D01*
X7319924Y3122218D01*
X7328408Y3121406D01*
X9694367Y3121406D01*
X9698228Y3120593D01*
X9701530Y3118408D01*
X9757918Y3062020D01*
X9760102Y3058718D01*
X9760915Y3054858D01*
X9760915Y3006953D01*
X9808768Y3006953D01*
X9812680Y3006191D01*
X9815982Y3003956D01*
X9845395Y2974543D01*
X9847732Y2970936D01*
X9848342Y2966720D01*
X9847630Y2955594D01*
X9848545Y2941066D01*
X9851288Y2926791D01*
X9855809Y2912922D01*
X9862007Y2899765D01*
X9869779Y2887472D01*
X9879076Y2876296D01*
X9889693Y2866288D01*
X9901428Y2857754D01*
X9914178Y2850743D01*
X9927742Y2845409D01*
X9941814Y2841752D01*
X9956241Y2839923D01*
X9970820Y2839923D01*
X9985248Y2841752D01*
X9999370Y2845409D01*
X10012883Y2850743D01*
X10025634Y2857754D01*
X10037419Y2866288D01*
X10048036Y2876296D01*
X10057282Y2887472D01*
X10065105Y2899765D01*
X10071303Y2912922D01*
X10075773Y2926791D01*
X10078516Y2941066D01*
X10079431Y2955594D01*
X10078516Y2970123D01*
X10075773Y2984449D01*
X10071303Y2998266D01*
X10065105Y3011424D01*
X10057282Y3023717D01*
X10048036Y3034944D01*
X10037419Y3044901D01*
X10025634Y3053435D01*
X10012883Y3060446D01*
X9999370Y3065830D01*
X9985248Y3069437D01*
X9970820Y3071266D01*
X9956241Y3071266D01*
X9941814Y3069437D01*
X9927742Y3065830D01*
X9914178Y3060446D01*
X9901428Y3053435D01*
X9897313Y3050438D01*
X9894112Y3048914D01*
X9890556Y3048558D01*
X9887102Y3049422D01*
X9884156Y3051505D01*
X9744760Y3190849D01*
X9738207Y3196285D01*
X9731146Y3200044D01*
X9723475Y3202381D01*
X9714992Y3203194D01*
X7349032Y3203194D01*
X7345172Y3203956D01*
X7341870Y3206191D01*
X7079691Y3468370D01*
X7077506Y3471672D01*
X7076694Y3475532D01*
X7076694Y5892292D01*
X7075881Y5900775D01*
X7073544Y5908446D01*
X7069785Y5915507D01*
X7064349Y5922060D01*
X5825236Y7161225D01*
X5823051Y7164476D01*
X5822289Y7168286D01*
X5823000Y7172147D01*
X5825236Y7177786D01*
X5828842Y7191908D01*
X5830671Y7206335D01*
X5830671Y7220864D01*
X5828842Y7235291D01*
X5825236Y7249414D01*
X5819851Y7262926D01*
X5812840Y7275677D01*
X5804306Y7287463D01*
X5794349Y7298080D01*
X5783122Y7307376D01*
X5770829Y7315149D01*
X5757672Y7321346D01*
X5743803Y7325868D01*
X5729528Y7328560D01*
X5715000Y7329474D01*
X5700471Y7328560D01*
X5686196Y7325868D01*
X5672328Y7321346D01*
X5659170Y7315149D01*
X5646877Y7307376D01*
X5635650Y7298080D01*
X5625693Y7287463D01*
X5617159Y7275677D01*
X5610148Y7262926D01*
X5604764Y7249414D01*
X5601157Y7235291D01*
X5599328Y7220864D01*
X5599328Y7206335D01*
X5601157Y7191908D01*
X5604764Y7177786D01*
X5610148Y7164273D01*
X5617159Y7151522D01*
X5625693Y7139736D01*
X5635650Y7129119D01*
X5646877Y7119823D01*
X5659170Y7112050D01*
X5672328Y7105853D01*
X5686196Y7101331D01*
X5700471Y7098639D01*
X5715000Y7097725D01*
X5729528Y7098639D01*
X5743803Y7101331D01*
X5757214Y7105700D01*
X5760872Y7106208D01*
X5764479Y7105294D01*
X5767527Y7103211D01*
X6991908Y5878830D01*
X6994144Y5875528D01*
X6994906Y5871667D01*
X6994906Y5761736D01*
X6994042Y5757672D01*
X6991654Y5754319D01*
X6988149Y5752134D01*
X6984085Y5751576D01*
X6980072Y5752693D01*
X6976872Y5755284D01*
X6975449Y5756960D01*
X5825236Y6907225D01*
X5823051Y6910476D01*
X5822289Y6914286D01*
X5823000Y6918147D01*
X5825236Y6923786D01*
X5828842Y6937908D01*
X5830671Y6952335D01*
X5830671Y6966864D01*
X5828842Y6981291D01*
X5825236Y6995414D01*
X5819851Y7008926D01*
X5812840Y7021677D01*
X5804306Y7033463D01*
X5794349Y7044080D01*
X5783122Y7053376D01*
X5770829Y7061149D01*
X5757672Y7067346D01*
X5743803Y7071868D01*
X5729528Y7074560D01*
X5715000Y7075474D01*
X5700471Y7074560D01*
X5686196Y7071868D01*
X5672328Y7067346D01*
X5659170Y7061149D01*
X5646877Y7053376D01*
X5635650Y7044080D01*
X5625693Y7033463D01*
X5617159Y7021677D01*
X5610148Y7008926D01*
X5604764Y6995414D01*
X5601157Y6981291D01*
X5599328Y6966864D01*
X5599328Y6952335D01*
X5601157Y6937908D01*
X5604764Y6923786D01*
X5610148Y6910273D01*
X5617159Y6897522D01*
X5625693Y6885736D01*
X5635650Y6875119D01*
X5646877Y6865823D01*
X5659170Y6858050D01*
X5672328Y6851853D01*
X5686196Y6847331D01*
X5700471Y6844639D01*
X5715000Y6843725D01*
X5729528Y6844639D01*
X5743803Y6847331D01*
X5757214Y6851700D01*
X5760872Y6852208D01*
X5764479Y6851294D01*
X5767527Y6849211D01*
X6903008Y5713730D01*
X6905244Y5710428D01*
X6906006Y5706567D01*
X6906006Y5441035D01*
X6905040Y5436768D01*
X6902399Y5433263D01*
X6898487Y5431231D01*
X6894118Y5431028D01*
X6890054Y5432653D01*
X6887057Y5435854D01*
X6885736Y5440070D01*
X6885381Y5443575D01*
X6883044Y5451246D01*
X6879285Y5458307D01*
X6873849Y5464860D01*
X6620560Y5718149D01*
X6614007Y5723585D01*
X6606946Y5727344D01*
X6599275Y5729681D01*
X6590792Y5730494D01*
X5830112Y5730494D01*
X5826150Y5731306D01*
X5822848Y5733542D01*
X5820664Y5736945D01*
X5819851Y5738926D01*
X5812840Y5751677D01*
X5804306Y5763463D01*
X5794349Y5774080D01*
X5783122Y5783376D01*
X5770829Y5791149D01*
X5757672Y5797346D01*
X5743803Y5801868D01*
X5729528Y5804560D01*
X5715000Y5805474D01*
X5700471Y5804560D01*
X5686196Y5801868D01*
X5672328Y5797346D01*
X5659170Y5791149D01*
X5646877Y5783376D01*
X5635650Y5774080D01*
X5625693Y5763463D01*
X5617159Y5751677D01*
X5610148Y5738926D01*
X5604764Y5725414D01*
X5601157Y5711291D01*
X5599328Y5696864D01*
X5599328Y5682335D01*
X5601157Y5667908D01*
X5604764Y5653786D01*
X5610148Y5640273D01*
X5617159Y5627522D01*
X5625693Y5615736D01*
X5629148Y5612028D01*
X5631230Y5608777D01*
X5631942Y5604916D01*
X5631129Y5601106D01*
X5628944Y5597906D01*
X3665067Y3634028D01*
X3661765Y3631793D01*
X3657854Y3631031D01*
X3653993Y3631793D01*
X3650691Y3634028D01*
X3648506Y3637279D01*
X3647694Y3641191D01*
X3647694Y5338267D01*
X3648506Y5342128D01*
X3650691Y5345430D01*
X5662472Y7357211D01*
X5665520Y7359294D01*
X5669127Y7360208D01*
X5672785Y7359700D01*
X5686196Y7355331D01*
X5700471Y7352639D01*
X5715000Y7351725D01*
X5729528Y7352639D01*
X5743803Y7355331D01*
X5757672Y7359853D01*
X5770829Y7366050D01*
X5783122Y7373823D01*
X5794349Y7383119D01*
X5804306Y7393736D01*
X5812840Y7405522D01*
X5819851Y7418273D01*
X5825236Y7431786D01*
X5828842Y7445908D01*
X5830671Y7460335D01*
X5830671Y7474864D01*
X5828842Y7489291D01*
X5825236Y7503414D01*
X5819851Y7516926D01*
X5812840Y7529677D01*
X5804306Y7541463D01*
X5794349Y7552080D01*
X5783122Y7561376D01*
X5770829Y7569149D01*
X5757672Y7575346D01*
X5743803Y7579868D01*
X5729528Y7582560D01*
X5715000Y7583474D01*
X5700471Y7582560D01*
X5686196Y7579868D01*
X5672328Y7575346D01*
X5659170Y7569149D01*
X5646877Y7561376D01*
X5635650Y7552080D01*
X5625693Y7541463D01*
X5617159Y7529677D01*
X5610148Y7516926D01*
X5604764Y7503414D01*
X5601157Y7489291D01*
X5599328Y7474864D01*
X5599328Y7460335D01*
X5601157Y7445908D01*
X5604764Y7431786D01*
X5606999Y7426147D01*
X5607710Y7422286D01*
X5606948Y7418476D01*
X5604764Y7415225D01*
X3578250Y5388660D01*
X3572814Y5382107D01*
X3569055Y5375046D01*
X3566718Y5367375D01*
X3565906Y5358892D01*
X3565906Y3653332D01*
X3565144Y3649472D01*
X3562908Y3646170D01*
X2968650Y3051860D01*
X2963214Y3045307D01*
X2959455Y3038246D01*
X2957372Y3031388D01*
X2955594Y3027984D01*
X2952648Y3025495D01*
X2948990Y3024276D01*
X2945180Y3024479D01*
X2941675Y3026105D01*
X2939034Y3028035D01*
X2926283Y3035046D01*
X2924302Y3035858D01*
X2920898Y3038043D01*
X2918663Y3041345D01*
X2917850Y3045307D01*
X2917850Y3262223D01*
X2918663Y3266084D01*
X2920847Y3269386D01*
X3381349Y3729939D01*
X3386785Y3736492D01*
X3390544Y3743553D01*
X3392881Y3751224D01*
X3393694Y3759708D01*
X3393694Y5338267D01*
X3394506Y5342128D01*
X3396691Y5345430D01*
X5662472Y7611211D01*
X5665520Y7613294D01*
X5669127Y7614208D01*
X5672785Y7613700D01*
X5686196Y7609331D01*
X5700471Y7606639D01*
X5715000Y7605725D01*
X5729528Y7606639D01*
X5743803Y7609331D01*
X5757672Y7613853D01*
X5770829Y7620050D01*
X5783122Y7627823D01*
X5794349Y7637119D01*
X5804306Y7647736D01*
X5812840Y7659522D01*
X5819851Y7672273D01*
X5825236Y7685786D01*
X5828842Y7699908D01*
X5830671Y7714335D01*
X5830671Y7728864D01*
X5828842Y7743291D01*
X5825236Y7757414D01*
X5819851Y7770926D01*
X5812840Y7783677D01*
X5804306Y7795463D01*
X5794349Y7806080D01*
X5783122Y7815376D01*
X5770829Y7823149D01*
X5757672Y7829346D01*
X5743803Y7833868D01*
X5729528Y7836560D01*
X5715000Y7837474D01*
X5700471Y7836560D01*
X5686196Y7833868D01*
X5672328Y7829346D01*
X5659170Y7823149D01*
X5646877Y7815376D01*
X5635650Y7806080D01*
X5625693Y7795463D01*
X5617159Y7783677D01*
X5610148Y7770926D01*
X5604764Y7757414D01*
X5601157Y7743291D01*
X5599328Y7728864D01*
X5599328Y7714335D01*
X5601157Y7699908D01*
X5604764Y7685786D01*
X5606999Y7680147D01*
X5607710Y7676286D01*
X5606948Y7672476D01*
X5604764Y7669225D01*
X3324250Y5388660D01*
X3318814Y5382107D01*
X3315055Y5375046D01*
X3312718Y5367375D01*
X3311906Y5358892D01*
X3311906Y3780332D01*
X3311144Y3776472D01*
X3308908Y3773170D01*
X2848406Y3312617D01*
X2842971Y3306064D01*
X2839212Y3299002D01*
X2836875Y3291332D01*
X2836062Y3282848D01*
X2836062Y3045307D01*
X2835249Y3041396D01*
X2833014Y3038043D01*
X2829610Y3035858D01*
X2827578Y3035046D01*
X2814828Y3028035D01*
X2803093Y3019501D01*
X2792476Y3009544D01*
X2783179Y2998317D01*
X2775407Y2986024D01*
X2769209Y2972866D01*
X2764688Y2959049D01*
X2761945Y2944723D01*
X2761030Y2930194D01*
X2761945Y2915666D01*
X2764688Y2901391D01*
X2769209Y2887522D01*
X2775407Y2874365D01*
X2783179Y2862072D01*
X2792476Y2850896D01*
X2803093Y2840888D01*
X2814828Y2832354D01*
X2827578Y2825343D01*
X2841142Y2820009D01*
X2855214Y2816352D01*
X2869641Y2814523D01*
X2884220Y2814523D01*
X2898648Y2816352D01*
X2912770Y2820009D01*
X2926283Y2825343D01*
X2939034Y2832354D01*
X2940151Y2833166D01*
X2944215Y2834944D01*
X2948635Y2834792D01*
X2952597Y2832760D01*
X2955340Y2829255D01*
X2956306Y2824937D01*
X2956306Y2578608D01*
X2957118Y2570124D01*
X2959455Y2562453D01*
X2963214Y2555392D01*
X2968650Y2548839D01*
X3486861Y2030628D01*
X3493414Y2025192D01*
X3500475Y2021433D01*
X3508146Y2019096D01*
X3516629Y2018284D01*
X3633978Y2018284D01*
X3637737Y2017572D01*
X3640937Y2015540D01*
X3643172Y2012442D01*
X3648405Y2001367D01*
X3656177Y1989074D01*
X3665474Y1977898D01*
X3676091Y1967890D01*
X3687826Y1959356D01*
X3700576Y1952345D01*
X3714140Y1947011D01*
X3728212Y1943354D01*
X3742639Y1941525D01*
X3757218Y1941525D01*
X3771646Y1943354D01*
X3785768Y1947011D01*
X3799281Y1952345D01*
X3812032Y1959356D01*
X3823817Y1967890D01*
X3834434Y1977898D01*
X3843680Y1989074D01*
X3851503Y2001367D01*
X3857701Y2014524D01*
X3862171Y2028393D01*
X3864914Y2042668D01*
X3865829Y2057196D01*
X3864914Y2071725D01*
X3862171Y2086051D01*
X3857701Y2099868D01*
X3851503Y2113026D01*
X3843680Y2125319D01*
X3834434Y2136546D01*
X3823817Y2146503D01*
X3812032Y2155037D01*
X3799281Y2162048D01*
X3785768Y2167432D01*
X3771646Y2171039D01*
X3757218Y2172868D01*
X3742639Y2172868D01*
X3728212Y2171039D01*
X3714140Y2167432D01*
X3700576Y2162048D01*
X3687826Y2155037D01*
X3676091Y2146503D01*
X3665474Y2136546D01*
X3656177Y2125319D01*
X3648405Y2113026D01*
X3645052Y2105914D01*
X3642817Y2102815D01*
X3639565Y2100783D01*
X3635857Y2100072D01*
X3537254Y2100072D01*
X3533394Y2100834D01*
X3530092Y2103069D01*
X3041091Y2592070D01*
X3038906Y2595372D01*
X3038094Y2599232D01*
X3038094Y2835249D01*
X3038856Y2839059D01*
X3040989Y2842361D01*
X3044240Y2844546D01*
X3048050Y2845409D01*
X3051911Y2844749D01*
X3055213Y2842666D01*
X3057093Y2840888D01*
X3068828Y2832354D01*
X3081578Y2825343D01*
X3095142Y2820009D01*
X3109214Y2816352D01*
X3123641Y2814523D01*
X3138220Y2814523D01*
X3152648Y2816352D01*
X3166770Y2820009D01*
X3180283Y2825343D01*
X3193034Y2832354D01*
X3204819Y2840888D01*
X3215436Y2850896D01*
X3224682Y2862072D01*
X3232505Y2874365D01*
X3238703Y2887522D01*
X3243173Y2901391D01*
X3245916Y2915666D01*
X3246831Y2930194D01*
X3245916Y2944723D01*
X3243173Y2959049D01*
X3238703Y2972866D01*
X3232505Y2986024D01*
X3224682Y2998317D01*
X3215436Y3009544D01*
X3204819Y3019501D01*
X3192068Y3028645D01*
X3189173Y3031896D01*
X3187903Y3036062D01*
X3188512Y3040430D01*
X3190849Y3044088D01*
X5582005Y5435244D01*
X5585815Y5437632D01*
X5590286Y5438140D01*
X5594553Y5436717D01*
X5597753Y5433517D01*
X5599277Y5429300D01*
X5601157Y5413857D01*
X5604764Y5399786D01*
X5610148Y5386273D01*
X5617159Y5373522D01*
X5625693Y5361736D01*
X5635650Y5351119D01*
X5646877Y5341823D01*
X5659170Y5334050D01*
X5672328Y5327853D01*
X5686196Y5323332D01*
X5700471Y5320639D01*
X5715000Y5319725D01*
X5729528Y5320639D01*
X5743803Y5323332D01*
X5757672Y5327853D01*
X5770829Y5334050D01*
X5783122Y5341823D01*
X5794349Y5351119D01*
X5804306Y5361736D01*
X5812840Y5373522D01*
X5819851Y5386273D01*
X5825236Y5399786D01*
X5828842Y5413908D01*
X5830671Y5428335D01*
X5830671Y5442864D01*
X5828842Y5457291D01*
X5825236Y5471414D01*
X5819851Y5484926D01*
X5812840Y5497677D01*
X5804306Y5509463D01*
X5794349Y5520080D01*
X5783122Y5529376D01*
X5770829Y5537149D01*
X5757672Y5543346D01*
X5743803Y5547868D01*
X5729528Y5550560D01*
X5721705Y5551068D01*
X5717946Y5552033D01*
X5714847Y5554319D01*
X5712815Y5557621D01*
X5712155Y5561431D01*
X5712968Y5565190D01*
X5715152Y5568391D01*
X5718098Y5571388D01*
X5721096Y5573420D01*
X5724652Y5574334D01*
X5729528Y5574639D01*
X5743803Y5577332D01*
X5757672Y5581853D01*
X5770829Y5588050D01*
X5783122Y5595823D01*
X5794349Y5605119D01*
X5804306Y5615736D01*
X5812840Y5627522D01*
X5819851Y5640273D01*
X5820664Y5642254D01*
X5822848Y5645658D01*
X5826150Y5647893D01*
X5830112Y5648706D01*
X6570167Y5648706D01*
X6574028Y5647893D01*
X6577330Y5645708D01*
X6801408Y5421630D01*
X6803644Y5418328D01*
X6804406Y5414467D01*
X6804406Y4741468D01*
X6803440Y4737150D01*
X6800697Y4733645D01*
X6796684Y4731613D01*
X6792264Y4731512D01*
X6788200Y4733290D01*
X6786270Y4734712D01*
X6777736Y4739030D01*
X6768541Y4741875D01*
X6758990Y4743094D01*
X6749389Y4742688D01*
X6740042Y4740656D01*
X6731101Y4737049D01*
X6722922Y4732020D01*
X6715709Y4725670D01*
X6709714Y4718202D01*
X6704990Y4709820D01*
X6701790Y4700778D01*
X6700062Y4690414D01*
X6699046Y4687468D01*
X6697218Y4684979D01*
X6537350Y4525060D01*
X6531914Y4518507D01*
X6528155Y4511446D01*
X6525818Y4503775D01*
X6525006Y4495292D01*
X6525006Y1443024D01*
X6524244Y1439164D01*
X6522008Y1435862D01*
X6323838Y1237691D01*
X6320536Y1235456D01*
X6316675Y1234694D01*
X4513326Y1234694D01*
X4510125Y1235202D01*
X4507280Y1236675D01*
X4500067Y1242009D01*
X4491532Y1246327D01*
X4482338Y1249172D01*
X4472787Y1250391D01*
X4463186Y1249984D01*
X4453839Y1247952D01*
X4444898Y1244346D01*
X4436719Y1239316D01*
X4429506Y1232966D01*
X4423511Y1225499D01*
X4418787Y1217117D01*
X4415586Y1208074D01*
X4413961Y1198626D01*
X4413961Y1188974D01*
X4415586Y1179525D01*
X4418787Y1170482D01*
X4423511Y1162100D01*
X4429506Y1154633D01*
X4436719Y1148283D01*
X4444898Y1143254D01*
X4453839Y1139647D01*
X4463186Y1137615D01*
G37*
G36*
X2542082Y1346555D02*
G01*
X2557881Y1346555D01*
X2573578Y1348384D01*
X2588971Y1352042D01*
X2603804Y1357426D01*
X2617927Y1364538D01*
X2631135Y1373225D01*
X2643276Y1383334D01*
X2654096Y1394866D01*
X2663545Y1407515D01*
X2671419Y1421231D01*
X2677668Y1435709D01*
X2682240Y1450848D01*
X2684983Y1466443D01*
X2685897Y1482191D01*
X2684983Y1497990D01*
X2682240Y1513535D01*
X2677668Y1528673D01*
X2671419Y1543202D01*
X2663545Y1556867D01*
X2654096Y1569567D01*
X2643276Y1581048D01*
X2631135Y1591208D01*
X2617927Y1599895D01*
X2603804Y1606956D01*
X2588971Y1612392D01*
X2573578Y1616049D01*
X2557881Y1617878D01*
X2542082Y1617878D01*
X2526385Y1616049D01*
X2511044Y1612392D01*
X2496159Y1606956D01*
X2482037Y1599895D01*
X2468829Y1591208D01*
X2456738Y1581048D01*
X2445918Y1569567D01*
X2436469Y1556867D01*
X2428544Y1543202D01*
X2422296Y1528673D01*
X2417775Y1513535D01*
X2415032Y1497990D01*
X2414117Y1482191D01*
X2415032Y1466443D01*
X2417775Y1450848D01*
X2422296Y1435709D01*
X2428544Y1421231D01*
X2436469Y1407515D01*
X2445918Y1394866D01*
X2456738Y1383334D01*
X2468829Y1373225D01*
X2482037Y1364538D01*
X2496159Y1357426D01*
X2511044Y1352042D01*
X2526385Y1348384D01*
G37*
G36*
X3192119Y1346555D02*
G01*
X3207918Y1346555D01*
X3223615Y1348384D01*
X3238957Y1352042D01*
X3253841Y1357426D01*
X3267964Y1364538D01*
X3281172Y1373225D01*
X3293262Y1383334D01*
X3304082Y1394866D01*
X3313531Y1407515D01*
X3321456Y1421231D01*
X3327704Y1435709D01*
X3332226Y1450848D01*
X3334969Y1466443D01*
X3335883Y1482191D01*
X3334969Y1497990D01*
X3332226Y1513535D01*
X3327704Y1528673D01*
X3321456Y1543202D01*
X3313531Y1556867D01*
X3304082Y1569567D01*
X3293262Y1581048D01*
X3281172Y1591208D01*
X3267964Y1599895D01*
X3253841Y1606956D01*
X3238957Y1612392D01*
X3223615Y1616049D01*
X3207918Y1617878D01*
X3192119Y1617878D01*
X3176422Y1616049D01*
X3161030Y1612392D01*
X3146196Y1606956D01*
X3132074Y1599895D01*
X3118866Y1591208D01*
X3106724Y1581048D01*
X3095904Y1569567D01*
X3086455Y1556867D01*
X3078581Y1543202D01*
X3072282Y1528673D01*
X3067761Y1513535D01*
X3065018Y1497990D01*
X3064103Y1482191D01*
X3065018Y1466443D01*
X3067761Y1450848D01*
X3072282Y1435709D01*
X3078581Y1421231D01*
X3086455Y1407515D01*
X3095904Y1394866D01*
X3106724Y1383334D01*
X3118866Y1373225D01*
X3132074Y1364538D01*
X3146196Y1357426D01*
X3161030Y1352042D01*
X3176422Y1348384D01*
G37*
G36*
X9628682Y1371955D02*
G01*
X9644481Y1371955D01*
X9660178Y1373784D01*
X9675571Y1377442D01*
X9690404Y1382826D01*
X9704527Y1389938D01*
X9717735Y1398625D01*
X9729876Y1408734D01*
X9740696Y1420266D01*
X9750145Y1432915D01*
X9758019Y1446631D01*
X9764268Y1461109D01*
X9768840Y1476248D01*
X9771583Y1491843D01*
X9772497Y1507591D01*
X9771583Y1523390D01*
X9768840Y1538935D01*
X9764268Y1554073D01*
X9758019Y1568602D01*
X9750145Y1582267D01*
X9740696Y1594967D01*
X9729876Y1606448D01*
X9717735Y1616608D01*
X9704527Y1625295D01*
X9690404Y1632356D01*
X9675571Y1637792D01*
X9660178Y1641449D01*
X9644481Y1643278D01*
X9628682Y1643278D01*
X9612985Y1641449D01*
X9597644Y1637792D01*
X9582759Y1632356D01*
X9568637Y1625295D01*
X9555429Y1616608D01*
X9543338Y1606448D01*
X9532518Y1594967D01*
X9523069Y1582267D01*
X9515144Y1568602D01*
X9508896Y1554073D01*
X9504375Y1538935D01*
X9501632Y1523390D01*
X9500717Y1507591D01*
X9501632Y1491843D01*
X9504375Y1476248D01*
X9508896Y1461109D01*
X9515144Y1446631D01*
X9523069Y1432915D01*
X9532518Y1420266D01*
X9543338Y1408734D01*
X9555429Y1398625D01*
X9568637Y1389938D01*
X9582759Y1382826D01*
X9597644Y1377442D01*
X9612985Y1373784D01*
G37*
G36*
X10278719Y1371955D02*
G01*
X10294518Y1371955D01*
X10310215Y1373784D01*
X10325557Y1377442D01*
X10340441Y1382826D01*
X10354564Y1389938D01*
X10367772Y1398625D01*
X10379862Y1408734D01*
X10390682Y1420266D01*
X10400131Y1432915D01*
X10408056Y1446631D01*
X10414304Y1461109D01*
X10418826Y1476248D01*
X10421569Y1491843D01*
X10422483Y1507591D01*
X10421569Y1523390D01*
X10418826Y1538935D01*
X10414304Y1554073D01*
X10408056Y1568602D01*
X10400131Y1582267D01*
X10390682Y1594967D01*
X10379862Y1606448D01*
X10367772Y1616608D01*
X10354564Y1625295D01*
X10340441Y1632356D01*
X10325557Y1637792D01*
X10310215Y1641449D01*
X10294518Y1643278D01*
X10278719Y1643278D01*
X10263022Y1641449D01*
X10247630Y1637792D01*
X10232796Y1632356D01*
X10218674Y1625295D01*
X10205466Y1616608D01*
X10193324Y1606448D01*
X10182504Y1594967D01*
X10173055Y1582267D01*
X10165181Y1568602D01*
X10158882Y1554073D01*
X10154361Y1538935D01*
X10151618Y1523390D01*
X10150703Y1507591D01*
X10151618Y1491843D01*
X10154361Y1476248D01*
X10158882Y1461109D01*
X10165181Y1446631D01*
X10173055Y1432915D01*
X10182504Y1420266D01*
X10193324Y1408734D01*
X10205466Y1398625D01*
X10218674Y1389938D01*
X10232796Y1382826D01*
X10247630Y1377442D01*
X10263022Y1373784D01*
G37*
G36*
X2244445Y1406296D02*
G01*
X2261362Y1407261D01*
X2278024Y1410106D01*
X2294280Y1414780D01*
X2309926Y1421282D01*
X2324760Y1429461D01*
X2338527Y1439214D01*
X2351176Y1450492D01*
X2362403Y1463141D01*
X2372207Y1476908D01*
X2380386Y1491742D01*
X2386888Y1507388D01*
X2391562Y1523644D01*
X2394407Y1540306D01*
X2395372Y1557223D01*
X2394407Y1574088D01*
X2391562Y1590802D01*
X2386888Y1607058D01*
X2380386Y1622653D01*
X2372207Y1637487D01*
X2362403Y1651304D01*
X2351176Y1663903D01*
X2338527Y1675180D01*
X2324760Y1684985D01*
X2309926Y1693164D01*
X2294280Y1699615D01*
X2278024Y1704339D01*
X2261362Y1707134D01*
X2244445Y1708099D01*
X2227580Y1707134D01*
X2210866Y1704339D01*
X2194610Y1699615D01*
X2178964Y1693164D01*
X2164181Y1684985D01*
X2150364Y1675180D01*
X2137765Y1663903D01*
X2126488Y1651304D01*
X2116683Y1637487D01*
X2108504Y1622653D01*
X2102053Y1607058D01*
X2097328Y1590802D01*
X2094534Y1574088D01*
X2093569Y1557223D01*
X2094534Y1540306D01*
X2097328Y1523644D01*
X2102053Y1507388D01*
X2108504Y1491742D01*
X2116683Y1476908D01*
X2126488Y1463141D01*
X2137765Y1450492D01*
X2150364Y1439214D01*
X2164181Y1429461D01*
X2178964Y1421282D01*
X2194610Y1414780D01*
X2210866Y1410106D01*
X2227580Y1407261D01*
G37*
G36*
X3509467Y1406296D02*
G01*
X3526332Y1407261D01*
X3543046Y1410106D01*
X3559301Y1414780D01*
X3574897Y1421282D01*
X3589731Y1429461D01*
X3603548Y1439214D01*
X3616147Y1450492D01*
X3627424Y1463141D01*
X3637229Y1476908D01*
X3645408Y1491742D01*
X3651859Y1507388D01*
X3656584Y1523644D01*
X3659378Y1540306D01*
X3660343Y1557223D01*
X3659378Y1574088D01*
X3656584Y1590802D01*
X3651859Y1607058D01*
X3645408Y1622653D01*
X3637229Y1637487D01*
X3627424Y1651304D01*
X3616147Y1663903D01*
X3603548Y1675180D01*
X3589731Y1684985D01*
X3574897Y1693164D01*
X3559301Y1699615D01*
X3543046Y1704339D01*
X3526332Y1707134D01*
X3509467Y1708099D01*
X3492550Y1707134D01*
X3475888Y1704339D01*
X3459632Y1699615D01*
X3443986Y1693164D01*
X3429152Y1684985D01*
X3415385Y1675180D01*
X3402736Y1663903D01*
X3391458Y1651304D01*
X3381705Y1637487D01*
X3373526Y1622653D01*
X3367024Y1607058D01*
X3362350Y1590802D01*
X3359505Y1574088D01*
X3358540Y1557223D01*
X3359505Y1540306D01*
X3362350Y1523644D01*
X3367024Y1507388D01*
X3373526Y1491742D01*
X3381705Y1476908D01*
X3391458Y1463141D01*
X3402736Y1450492D01*
X3415385Y1439214D01*
X3429152Y1429461D01*
X3443986Y1421282D01*
X3459632Y1414780D01*
X3475888Y1410106D01*
X3492550Y1407261D01*
G37*
G36*
X9331045Y1431696D02*
G01*
X9347962Y1432661D01*
X9364624Y1435506D01*
X9380880Y1440180D01*
X9396526Y1446682D01*
X9411360Y1454861D01*
X9425127Y1464614D01*
X9437776Y1475892D01*
X9449003Y1488541D01*
X9458807Y1502308D01*
X9466986Y1517142D01*
X9473488Y1532788D01*
X9478162Y1549044D01*
X9481007Y1565706D01*
X9481972Y1582623D01*
X9481007Y1599488D01*
X9478162Y1616202D01*
X9473488Y1632457D01*
X9466986Y1648053D01*
X9458807Y1662887D01*
X9449003Y1676704D01*
X9437776Y1689303D01*
X9425127Y1700580D01*
X9411360Y1710385D01*
X9396526Y1718564D01*
X9380880Y1725015D01*
X9364624Y1729739D01*
X9347962Y1732534D01*
X9331045Y1733499D01*
X9314180Y1732534D01*
X9297466Y1729739D01*
X9281210Y1725015D01*
X9265564Y1718564D01*
X9250781Y1710385D01*
X9236964Y1700580D01*
X9224365Y1689303D01*
X9213088Y1676704D01*
X9203283Y1662887D01*
X9195104Y1648053D01*
X9188653Y1632457D01*
X9183928Y1616202D01*
X9181134Y1599488D01*
X9180169Y1582623D01*
X9181134Y1565706D01*
X9183928Y1549044D01*
X9188653Y1532788D01*
X9195104Y1517142D01*
X9203283Y1502308D01*
X9213088Y1488541D01*
X9224365Y1475892D01*
X9236964Y1464614D01*
X9250781Y1454861D01*
X9265564Y1446682D01*
X9281210Y1440180D01*
X9297466Y1435506D01*
X9314180Y1432661D01*
G37*
G36*
X10596067Y1431696D02*
G01*
X10612932Y1432661D01*
X10629646Y1435506D01*
X10645902Y1440180D01*
X10661497Y1446682D01*
X10676331Y1454861D01*
X10690148Y1464614D01*
X10702747Y1475892D01*
X10714024Y1488541D01*
X10723829Y1502308D01*
X10732008Y1517142D01*
X10738459Y1532788D01*
X10743184Y1549044D01*
X10745978Y1565706D01*
X10746943Y1582623D01*
X10745978Y1599488D01*
X10743184Y1616202D01*
X10738459Y1632457D01*
X10732008Y1648053D01*
X10723829Y1662887D01*
X10714024Y1676704D01*
X10702747Y1689303D01*
X10690148Y1700580D01*
X10676331Y1710385D01*
X10661497Y1718564D01*
X10645902Y1725015D01*
X10629646Y1729739D01*
X10612932Y1732534D01*
X10596067Y1733499D01*
X10579150Y1732534D01*
X10562488Y1729739D01*
X10546232Y1725015D01*
X10530586Y1718564D01*
X10515752Y1710385D01*
X10501985Y1700580D01*
X10489336Y1689303D01*
X10478058Y1676704D01*
X10468305Y1662887D01*
X10460126Y1648053D01*
X10453624Y1632457D01*
X10448950Y1616202D01*
X10446105Y1599488D01*
X10445140Y1582623D01*
X10446105Y1565706D01*
X10448950Y1549044D01*
X10453624Y1532788D01*
X10460126Y1517142D01*
X10468305Y1502308D01*
X10478058Y1488541D01*
X10489336Y1475892D01*
X10501985Y1464614D01*
X10515752Y1454861D01*
X10530586Y1446682D01*
X10546232Y1440180D01*
X10562488Y1435506D01*
X10579150Y1432661D01*
G37*
G36*
X3801313Y1699463D02*
G01*
X3812032Y1705356D01*
X3823817Y1713890D01*
X3834434Y1723898D01*
X3843680Y1735074D01*
X3851503Y1747367D01*
X3853586Y1751838D01*
X3801313Y1751838D01*
G37*
G36*
X3698595Y1699463D02*
G01*
X3698595Y1751838D01*
X3646271Y1751838D01*
X3648405Y1747367D01*
X3656177Y1735074D01*
X3665474Y1723898D01*
X3676091Y1713890D01*
X3687826Y1705356D01*
G37*
G36*
X10887913Y1724863D02*
G01*
X10898632Y1730756D01*
X10910417Y1739290D01*
X10921034Y1749298D01*
X10930280Y1760474D01*
X10938103Y1772767D01*
X10940186Y1777238D01*
X10887913Y1777238D01*
G37*
G36*
X10785195Y1724863D02*
G01*
X10785195Y1777238D01*
X10732871Y1777238D01*
X10735005Y1772767D01*
X10742777Y1760474D01*
X10752074Y1749298D01*
X10762691Y1739290D01*
X10774426Y1730756D01*
G37*
G36*
X3646271Y1854555D02*
G01*
X3698595Y1854555D01*
X3698595Y1906981D01*
X3687826Y1901037D01*
X3676091Y1892503D01*
X3665474Y1882546D01*
X3656177Y1871319D01*
X3648405Y1859025D01*
G37*
G36*
X3801313Y1854555D02*
G01*
X3853586Y1854555D01*
X3851503Y1859025D01*
X3843680Y1871319D01*
X3834434Y1882546D01*
X3823817Y1892503D01*
X3812032Y1901037D01*
X3801313Y1906981D01*
G37*
G36*
X10887913Y1879955D02*
G01*
X10940186Y1879955D01*
X10938103Y1884425D01*
X10930280Y1896719D01*
X10921034Y1907946D01*
X10910417Y1917903D01*
X10898632Y1926437D01*
X10887913Y1932381D01*
G37*
G36*
X10732871Y1879955D02*
G01*
X10785195Y1879955D01*
X10785195Y1932381D01*
X10774426Y1926437D01*
X10762691Y1917903D01*
X10752074Y1907946D01*
X10742777Y1896719D01*
X10735005Y1884425D01*
G37*
G36*
X3742639Y2195525D02*
G01*
X3757218Y2195525D01*
X3771646Y2197354D01*
X3785768Y2201011D01*
X3799281Y2206345D01*
X3812032Y2213356D01*
X3823817Y2221890D01*
X3834434Y2231898D01*
X3843680Y2243074D01*
X3851503Y2255367D01*
X3857701Y2268524D01*
X3862171Y2282393D01*
X3864914Y2296668D01*
X3865829Y2311196D01*
X3864914Y2325725D01*
X3862171Y2340051D01*
X3857701Y2353868D01*
X3851503Y2367026D01*
X3843680Y2379319D01*
X3834434Y2390546D01*
X3823817Y2400503D01*
X3812032Y2409037D01*
X3799281Y2416048D01*
X3785768Y2421432D01*
X3771646Y2425039D01*
X3757218Y2426868D01*
X3742639Y2426868D01*
X3728212Y2425039D01*
X3714140Y2421432D01*
X3700576Y2416048D01*
X3687826Y2409037D01*
X3676091Y2400503D01*
X3665474Y2390546D01*
X3656177Y2379319D01*
X3648405Y2367026D01*
X3642207Y2353868D01*
X3637686Y2340051D01*
X3634943Y2325725D01*
X3634028Y2311196D01*
X3634943Y2296668D01*
X3637686Y2282393D01*
X3642207Y2268524D01*
X3648405Y2255367D01*
X3656177Y2243074D01*
X3665474Y2231898D01*
X3676091Y2221890D01*
X3687826Y2213356D01*
X3700576Y2206345D01*
X3714140Y2201011D01*
X3728212Y2197354D01*
G37*
G36*
X10829239Y2220925D02*
G01*
X10843818Y2220925D01*
X10858246Y2222754D01*
X10872368Y2226411D01*
X10885881Y2231745D01*
X10898632Y2238756D01*
X10910417Y2247290D01*
X10921034Y2257298D01*
X10930280Y2268474D01*
X10938103Y2280767D01*
X10944301Y2293924D01*
X10948771Y2307793D01*
X10951514Y2322068D01*
X10952429Y2336596D01*
X10951514Y2351125D01*
X10948771Y2365451D01*
X10944301Y2379268D01*
X10938103Y2392426D01*
X10930280Y2404719D01*
X10921034Y2415946D01*
X10910417Y2425903D01*
X10898632Y2434437D01*
X10885881Y2441448D01*
X10872368Y2446832D01*
X10858246Y2450439D01*
X10843818Y2452268D01*
X10829239Y2452268D01*
X10814812Y2450439D01*
X10800740Y2446832D01*
X10787176Y2441448D01*
X10774426Y2434437D01*
X10762691Y2425903D01*
X10752074Y2415946D01*
X10742777Y2404719D01*
X10735005Y2392426D01*
X10728807Y2379268D01*
X10724286Y2365451D01*
X10721543Y2351125D01*
X10720628Y2336596D01*
X10721543Y2322068D01*
X10724286Y2307793D01*
X10728807Y2293924D01*
X10735005Y2280767D01*
X10742777Y2268474D01*
X10752074Y2257298D01*
X10762691Y2247290D01*
X10774426Y2238756D01*
X10787176Y2231745D01*
X10800740Y2226411D01*
X10814812Y2222754D01*
G37*
G36*
X3509467Y2406294D02*
G01*
X3526332Y2407259D01*
X3543046Y2410104D01*
X3559301Y2414778D01*
X3574897Y2421280D01*
X3589731Y2429459D01*
X3603548Y2439212D01*
X3616147Y2450490D01*
X3627424Y2463139D01*
X3637229Y2476906D01*
X3645408Y2491740D01*
X3651859Y2507386D01*
X3656584Y2523642D01*
X3659378Y2540304D01*
X3660343Y2557221D01*
X3659378Y2574086D01*
X3656584Y2590800D01*
X3651859Y2607056D01*
X3645408Y2622651D01*
X3637229Y2637485D01*
X3627424Y2651302D01*
X3616147Y2663901D01*
X3603548Y2675178D01*
X3589731Y2684983D01*
X3574897Y2693162D01*
X3559301Y2699613D01*
X3543046Y2704338D01*
X3526332Y2707132D01*
X3509467Y2708097D01*
X3492550Y2707132D01*
X3475888Y2704338D01*
X3459632Y2699613D01*
X3443986Y2693162D01*
X3429152Y2684983D01*
X3415385Y2675178D01*
X3402736Y2663901D01*
X3391458Y2651302D01*
X3381705Y2637485D01*
X3373526Y2622651D01*
X3367024Y2607056D01*
X3362350Y2590800D01*
X3359505Y2574086D01*
X3358540Y2557221D01*
X3359505Y2540304D01*
X3362350Y2523642D01*
X3367024Y2507386D01*
X3373526Y2491740D01*
X3381705Y2476906D01*
X3391458Y2463139D01*
X3402736Y2450490D01*
X3415385Y2439212D01*
X3429152Y2429459D01*
X3443986Y2421280D01*
X3459632Y2414778D01*
X3475888Y2410104D01*
X3492550Y2407259D01*
G37*
G36*
X2244445Y2406294D02*
G01*
X2261362Y2407259D01*
X2278024Y2410104D01*
X2294280Y2414778D01*
X2309926Y2421280D01*
X2324760Y2429459D01*
X2338527Y2439212D01*
X2351176Y2450490D01*
X2362403Y2463139D01*
X2372207Y2476906D01*
X2380386Y2491740D01*
X2386888Y2507386D01*
X2391562Y2523642D01*
X2394407Y2540304D01*
X2395372Y2557221D01*
X2394407Y2574086D01*
X2391562Y2590800D01*
X2386888Y2607056D01*
X2380386Y2622651D01*
X2372207Y2637485D01*
X2362403Y2651302D01*
X2351176Y2663901D01*
X2338527Y2675178D01*
X2324760Y2684983D01*
X2309926Y2693162D01*
X2294280Y2699613D01*
X2278024Y2704338D01*
X2261362Y2707132D01*
X2244445Y2708097D01*
X2227580Y2707132D01*
X2210866Y2704338D01*
X2194610Y2699613D01*
X2178964Y2693162D01*
X2164181Y2684983D01*
X2150364Y2675178D01*
X2137765Y2663901D01*
X2126488Y2651302D01*
X2116683Y2637485D01*
X2108504Y2622651D01*
X2102053Y2607056D01*
X2097328Y2590800D01*
X2094534Y2574086D01*
X2093569Y2557221D01*
X2094534Y2540304D01*
X2097328Y2523642D01*
X2102053Y2507386D01*
X2108504Y2491740D01*
X2116683Y2476906D01*
X2126488Y2463139D01*
X2137765Y2450490D01*
X2150364Y2439212D01*
X2164181Y2429459D01*
X2178964Y2421280D01*
X2194610Y2414778D01*
X2210866Y2410104D01*
X2227580Y2407259D01*
G37*
G36*
X9331045Y2431694D02*
G01*
X9347962Y2432659D01*
X9364624Y2435504D01*
X9380880Y2440178D01*
X9396526Y2446680D01*
X9411360Y2454859D01*
X9425127Y2464612D01*
X9437776Y2475890D01*
X9449003Y2488539D01*
X9458807Y2502306D01*
X9466986Y2517140D01*
X9473488Y2532786D01*
X9478162Y2549042D01*
X9481007Y2565704D01*
X9481972Y2582621D01*
X9481007Y2599486D01*
X9478162Y2616200D01*
X9473488Y2632456D01*
X9466986Y2648051D01*
X9458807Y2662885D01*
X9449003Y2676702D01*
X9437776Y2689301D01*
X9425127Y2700578D01*
X9411360Y2710383D01*
X9396526Y2718562D01*
X9380880Y2725013D01*
X9364624Y2729738D01*
X9347962Y2732532D01*
X9331045Y2733497D01*
X9314180Y2732532D01*
X9297466Y2729738D01*
X9281210Y2725013D01*
X9265564Y2718562D01*
X9250781Y2710383D01*
X9236964Y2700578D01*
X9224365Y2689301D01*
X9213088Y2676702D01*
X9203283Y2662885D01*
X9195104Y2648051D01*
X9188653Y2632456D01*
X9183928Y2616200D01*
X9181134Y2599486D01*
X9180169Y2582621D01*
X9181134Y2565704D01*
X9183928Y2549042D01*
X9188653Y2532786D01*
X9195104Y2517140D01*
X9203283Y2502306D01*
X9213088Y2488539D01*
X9224365Y2475890D01*
X9236964Y2464612D01*
X9250781Y2454859D01*
X9265564Y2446680D01*
X9281210Y2440178D01*
X9297466Y2435504D01*
X9314180Y2432659D01*
G37*
G36*
X10596067Y2431694D02*
G01*
X10612932Y2432659D01*
X10629646Y2435504D01*
X10645902Y2440178D01*
X10661497Y2446680D01*
X10676331Y2454859D01*
X10690148Y2464612D01*
X10702747Y2475890D01*
X10714024Y2488539D01*
X10723829Y2502306D01*
X10732008Y2517140D01*
X10738459Y2532786D01*
X10743184Y2549042D01*
X10745978Y2565704D01*
X10746943Y2582621D01*
X10745978Y2599486D01*
X10743184Y2616200D01*
X10738459Y2632456D01*
X10732008Y2648051D01*
X10723829Y2662885D01*
X10714024Y2676702D01*
X10702747Y2689301D01*
X10690148Y2700578D01*
X10676331Y2710383D01*
X10661497Y2718562D01*
X10645902Y2725013D01*
X10629646Y2729738D01*
X10612932Y2732532D01*
X10596067Y2733497D01*
X10579150Y2732532D01*
X10562488Y2729738D01*
X10546232Y2725013D01*
X10530586Y2718562D01*
X10515752Y2710383D01*
X10501985Y2700578D01*
X10489336Y2689301D01*
X10478058Y2676702D01*
X10468305Y2662885D01*
X10460126Y2648051D01*
X10453624Y2632456D01*
X10448950Y2616200D01*
X10446105Y2599486D01*
X10445140Y2582621D01*
X10446105Y2565704D01*
X10448950Y2549042D01*
X10453624Y2532786D01*
X10460126Y2517140D01*
X10468305Y2502306D01*
X10478058Y2488539D01*
X10489336Y2475890D01*
X10501985Y2464612D01*
X10515752Y2454859D01*
X10530586Y2446680D01*
X10546232Y2440178D01*
X10562488Y2435504D01*
X10579150Y2432659D01*
G37*
G36*
X2674315Y2826461D02*
G01*
X2685034Y2832354D01*
X2696819Y2840888D01*
X2707436Y2850896D01*
X2716682Y2862072D01*
X2724505Y2874365D01*
X2726588Y2878836D01*
X2674315Y2878836D01*
G37*
G36*
X2571597Y2826461D02*
G01*
X2571597Y2878836D01*
X2519273Y2878836D01*
X2521407Y2874365D01*
X2529179Y2862072D01*
X2538476Y2850896D01*
X2549093Y2840888D01*
X2560828Y2832354D01*
G37*
G36*
X10210241Y2839923D02*
G01*
X10224820Y2839923D01*
X10239248Y2841752D01*
X10253370Y2845409D01*
X10266883Y2850743D01*
X10279634Y2857754D01*
X10291419Y2866288D01*
X10302036Y2876296D01*
X10311282Y2887472D01*
X10319105Y2899765D01*
X10325303Y2912922D01*
X10329773Y2926791D01*
X10332516Y2941066D01*
X10333431Y2955594D01*
X10332516Y2970123D01*
X10329773Y2984449D01*
X10325303Y2998266D01*
X10319105Y3011424D01*
X10311282Y3023717D01*
X10302036Y3034944D01*
X10291419Y3044901D01*
X10279634Y3053435D01*
X10266883Y3060446D01*
X10253370Y3065830D01*
X10239248Y3069437D01*
X10224820Y3071266D01*
X10210241Y3071266D01*
X10195814Y3069437D01*
X10181742Y3065830D01*
X10168178Y3060446D01*
X10155428Y3053435D01*
X10143693Y3044901D01*
X10133076Y3034944D01*
X10123779Y3023717D01*
X10116007Y3011424D01*
X10109809Y2998266D01*
X10105288Y2984449D01*
X10102545Y2970123D01*
X10101630Y2955594D01*
X10102545Y2941066D01*
X10105288Y2926791D01*
X10109809Y2912922D01*
X10116007Y2899765D01*
X10123779Y2887472D01*
X10133076Y2876296D01*
X10143693Y2866288D01*
X10155428Y2857754D01*
X10168178Y2850743D01*
X10181742Y2845409D01*
X10195814Y2841752D01*
G37*
G36*
X9760915Y2851861D02*
G01*
X9771634Y2857754D01*
X9783419Y2866288D01*
X9794036Y2876296D01*
X9803282Y2887472D01*
X9811105Y2899765D01*
X9813188Y2904236D01*
X9760915Y2904236D01*
G37*
G36*
X9658197Y2851861D02*
G01*
X9658197Y2904236D01*
X9605873Y2904236D01*
X9608007Y2899765D01*
X9615779Y2887472D01*
X9625076Y2876296D01*
X9635693Y2866288D01*
X9647428Y2857754D01*
G37*
G36*
X2674315Y2981553D02*
G01*
X2726588Y2981553D01*
X2724505Y2986024D01*
X2716682Y2998317D01*
X2707436Y3009544D01*
X2696819Y3019501D01*
X2685034Y3028035D01*
X2674315Y3033979D01*
G37*
G36*
X2519273Y2981553D02*
G01*
X2571597Y2981553D01*
X2571597Y3033979D01*
X2560828Y3028035D01*
X2549093Y3019501D01*
X2538476Y3009544D01*
X2529179Y2998317D01*
X2521407Y2986024D01*
G37*
G36*
X9605873Y3006953D02*
G01*
X9658197Y3006953D01*
X9658197Y3059379D01*
X9647428Y3053435D01*
X9635693Y3044901D01*
X9625076Y3034944D01*
X9615779Y3023717D01*
X9608007Y3011424D01*
G37*
G36*
X9019387Y3308908D02*
G01*
X9028938Y3310128D01*
X9038132Y3312972D01*
X9046667Y3317290D01*
X9054388Y3322980D01*
X9061043Y3329940D01*
X9066428Y3337864D01*
X9070390Y3346653D01*
X9072829Y3355949D01*
X9073642Y3365500D01*
X9072829Y3375050D01*
X9070390Y3384346D01*
X9066428Y3393135D01*
X9058656Y3404666D01*
X9057894Y3408426D01*
X9057894Y7451090D01*
X9058554Y7454696D01*
X9060484Y7457846D01*
X9063380Y7460081D01*
X9066834Y7461859D01*
X9077502Y7469428D01*
X9087053Y7478369D01*
X9095333Y7488529D01*
X9102140Y7499705D01*
X9107373Y7511694D01*
X9110878Y7524292D01*
X9112656Y7537246D01*
X9112656Y7550353D01*
X9110878Y7563307D01*
X9107373Y7575905D01*
X9102140Y7587894D01*
X9095333Y7599070D01*
X9087053Y7609230D01*
X9077502Y7618171D01*
X9066834Y7625740D01*
X9055201Y7631734D01*
X9042857Y7636103D01*
X9030055Y7638796D01*
X9017000Y7639659D01*
X9003944Y7638796D01*
X8991142Y7636103D01*
X8978798Y7631734D01*
X8967165Y7625740D01*
X8956497Y7618171D01*
X8946946Y7609230D01*
X8938666Y7599070D01*
X8931859Y7587894D01*
X8926677Y7575905D01*
X8923121Y7563307D01*
X8921343Y7550353D01*
X8921343Y7537246D01*
X8923121Y7524292D01*
X8926677Y7511694D01*
X8931859Y7499705D01*
X8938666Y7488529D01*
X8946946Y7478369D01*
X8956497Y7469428D01*
X8967165Y7461859D01*
X8970619Y7460081D01*
X8973515Y7457846D01*
X8975445Y7454696D01*
X8976106Y7451090D01*
X8976106Y3408222D01*
X8975496Y3404870D01*
X8973820Y3401822D01*
X8970111Y3397199D01*
X8965387Y3388817D01*
X8962186Y3379774D01*
X8960561Y3370326D01*
X8960561Y3360674D01*
X8962186Y3351225D01*
X8965387Y3342182D01*
X8970111Y3333800D01*
X8976106Y3326333D01*
X8983319Y3319983D01*
X8991498Y3314954D01*
X9000439Y3311347D01*
X9009786Y3309315D01*
G37*
G36*
X7239000Y3529025D02*
G01*
X7253528Y3529939D01*
X7267803Y3532632D01*
X7281672Y3537153D01*
X7294829Y3543350D01*
X7307122Y3551123D01*
X7318349Y3560419D01*
X7328306Y3571036D01*
X7336840Y3582822D01*
X7343851Y3595573D01*
X7349236Y3609086D01*
X7352842Y3623208D01*
X7354671Y3637635D01*
X7354671Y3652164D01*
X7352842Y3666591D01*
X7349236Y3680714D01*
X7343851Y3694226D01*
X7336840Y3706977D01*
X7328306Y3718763D01*
X7318349Y3729380D01*
X7307122Y3738676D01*
X7294829Y3746449D01*
X7281672Y3752646D01*
X7267803Y3757168D01*
X7253528Y3759860D01*
X7239000Y3760774D01*
X7224471Y3759860D01*
X7210196Y3757168D01*
X7196328Y3752646D01*
X7183170Y3746449D01*
X7170877Y3738676D01*
X7159650Y3729380D01*
X7149693Y3718763D01*
X7141159Y3706977D01*
X7134148Y3694226D01*
X7128764Y3680714D01*
X7125157Y3666591D01*
X7123328Y3652164D01*
X7123328Y3637635D01*
X7125157Y3623208D01*
X7128764Y3609086D01*
X7134148Y3595573D01*
X7141159Y3582822D01*
X7149693Y3571036D01*
X7159650Y3560419D01*
X7170877Y3551123D01*
X7183170Y3543350D01*
X7196328Y3537153D01*
X7210196Y3532632D01*
X7224471Y3529939D01*
G37*
G36*
X5715000Y3541725D02*
G01*
X5729528Y3542639D01*
X5743803Y3545332D01*
X5757672Y3549853D01*
X5770829Y3556050D01*
X5783122Y3563823D01*
X5794349Y3573119D01*
X5804306Y3583736D01*
X5812840Y3595522D01*
X5819851Y3608273D01*
X5825236Y3621786D01*
X5828842Y3635908D01*
X5830671Y3650335D01*
X5830671Y3664864D01*
X5828842Y3679291D01*
X5825236Y3693414D01*
X5819851Y3706926D01*
X5812840Y3719677D01*
X5804306Y3731463D01*
X5794349Y3742080D01*
X5783122Y3751376D01*
X5770829Y3759149D01*
X5757672Y3765346D01*
X5743803Y3769868D01*
X5729528Y3772560D01*
X5715000Y3773474D01*
X5700471Y3772560D01*
X5686196Y3769868D01*
X5672328Y3765346D01*
X5659170Y3759149D01*
X5646877Y3751376D01*
X5635650Y3742080D01*
X5625693Y3731463D01*
X5617159Y3719677D01*
X5610148Y3706926D01*
X5604764Y3693414D01*
X5601157Y3679291D01*
X5599328Y3664864D01*
X5599328Y3650335D01*
X5601157Y3635908D01*
X5604764Y3621786D01*
X5610148Y3608273D01*
X5617159Y3595522D01*
X5625693Y3583736D01*
X5635650Y3573119D01*
X5646877Y3563823D01*
X5659170Y3556050D01*
X5672328Y3549853D01*
X5686196Y3545332D01*
X5700471Y3542639D01*
G37*
G36*
X2770987Y3689908D02*
G01*
X2780538Y3691128D01*
X2789732Y3693972D01*
X2798267Y3698290D01*
X2805988Y3703980D01*
X2812643Y3710940D01*
X2818028Y3718864D01*
X2821990Y3727653D01*
X2824429Y3736949D01*
X2825242Y3746500D01*
X2824429Y3756050D01*
X2821990Y3765346D01*
X2818028Y3774135D01*
X2810256Y3785666D01*
X2809494Y3789426D01*
X2809494Y4177792D01*
X2808681Y4186275D01*
X2806344Y4193946D01*
X2802585Y4201007D01*
X2797149Y4207560D01*
X2274011Y4730750D01*
X2271776Y4734052D01*
X2271014Y4737912D01*
X2271014Y5590743D01*
X2271826Y5594705D01*
X2274062Y5598007D01*
X2277465Y5600192D01*
X2279446Y5601004D01*
X2292197Y5608015D01*
X2303983Y5616549D01*
X2314600Y5626506D01*
X2323896Y5637733D01*
X2331669Y5650026D01*
X2337866Y5663184D01*
X2342388Y5677052D01*
X2345080Y5691327D01*
X2345994Y5705856D01*
X2345080Y5720384D01*
X2342388Y5734659D01*
X2337866Y5748528D01*
X2331669Y5761685D01*
X2323896Y5773978D01*
X2314600Y5785205D01*
X2303983Y5795162D01*
X2292197Y5803696D01*
X2279446Y5810707D01*
X2265934Y5816092D01*
X2251811Y5819698D01*
X2237384Y5821527D01*
X2222855Y5821527D01*
X2208428Y5819698D01*
X2194306Y5816092D01*
X2180793Y5810707D01*
X2168042Y5803696D01*
X2156256Y5795162D01*
X2145639Y5785205D01*
X2136343Y5773978D01*
X2128570Y5761685D01*
X2122373Y5748528D01*
X2117852Y5734659D01*
X2115159Y5720384D01*
X2114245Y5705856D01*
X2115159Y5691327D01*
X2117852Y5677052D01*
X2122373Y5663184D01*
X2128570Y5650026D01*
X2136343Y5637733D01*
X2145639Y5626506D01*
X2156256Y5616549D01*
X2168042Y5608015D01*
X2180793Y5601004D01*
X2182774Y5600192D01*
X2186178Y5598007D01*
X2188413Y5594705D01*
X2189226Y5590743D01*
X2189226Y4717288D01*
X2190038Y4708804D01*
X2192375Y4701133D01*
X2196134Y4694072D01*
X2201519Y4687519D01*
X2227529Y4661509D01*
X2229916Y4657699D01*
X2230475Y4653229D01*
X2229002Y4649012D01*
X2225852Y4645761D01*
X2221128Y4644186D01*
X2207006Y4640580D01*
X2193493Y4635195D01*
X2180742Y4628184D01*
X2168956Y4619650D01*
X2158339Y4609693D01*
X2149043Y4598466D01*
X2141270Y4586173D01*
X2135073Y4573016D01*
X2130552Y4559147D01*
X2127859Y4544872D01*
X2126945Y4530344D01*
X2127859Y4515815D01*
X2130552Y4501540D01*
X2135073Y4487672D01*
X2141270Y4474514D01*
X2149043Y4462221D01*
X2158339Y4450994D01*
X2168956Y4441037D01*
X2180742Y4432503D01*
X2193493Y4425492D01*
X2207006Y4420108D01*
X2221128Y4416501D01*
X2235555Y4414672D01*
X2250084Y4414672D01*
X2264511Y4416501D01*
X2278634Y4420108D01*
X2292146Y4425492D01*
X2304897Y4432503D01*
X2316683Y4441037D01*
X2327300Y4450994D01*
X2336596Y4462221D01*
X2344369Y4474514D01*
X2350566Y4487672D01*
X2355088Y4501540D01*
X2356662Y4509922D01*
X2358390Y4513935D01*
X2361641Y4516882D01*
X2365806Y4518152D01*
X2370175Y4517542D01*
X2373833Y4515205D01*
X2724708Y4164329D01*
X2726944Y4161028D01*
X2727706Y4157167D01*
X2727706Y3789222D01*
X2727096Y3785870D01*
X2725420Y3782822D01*
X2721711Y3778199D01*
X2716987Y3769817D01*
X2713786Y3760774D01*
X2712161Y3751326D01*
X2712161Y3741674D01*
X2713786Y3732225D01*
X2716987Y3723182D01*
X2721711Y3714800D01*
X2727706Y3707333D01*
X2734919Y3700983D01*
X2743098Y3695954D01*
X2752039Y3692347D01*
X2761386Y3690315D01*
G37*
G36*
X7239000Y3783025D02*
G01*
X7253528Y3783939D01*
X7267803Y3786632D01*
X7281672Y3791153D01*
X7294829Y3797350D01*
X7307122Y3805123D01*
X7318349Y3814419D01*
X7328306Y3825036D01*
X7336840Y3836822D01*
X7343851Y3849573D01*
X7349236Y3863086D01*
X7352842Y3877208D01*
X7354671Y3891635D01*
X7354671Y3906164D01*
X7352842Y3920591D01*
X7349236Y3934714D01*
X7343851Y3948226D01*
X7336840Y3960977D01*
X7328306Y3972763D01*
X7318349Y3983380D01*
X7307122Y3992676D01*
X7294829Y4000449D01*
X7281672Y4006646D01*
X7267803Y4011168D01*
X7253528Y4013860D01*
X7239000Y4014774D01*
X7224471Y4013860D01*
X7210196Y4011168D01*
X7196328Y4006646D01*
X7183170Y4000449D01*
X7170877Y3992676D01*
X7159650Y3983380D01*
X7149693Y3972763D01*
X7141159Y3960977D01*
X7134148Y3948226D01*
X7128764Y3934714D01*
X7125157Y3920591D01*
X7123328Y3906164D01*
X7123328Y3891635D01*
X7125157Y3877208D01*
X7128764Y3863086D01*
X7134148Y3849573D01*
X7141159Y3836822D01*
X7149693Y3825036D01*
X7159650Y3814419D01*
X7170877Y3805123D01*
X7183170Y3797350D01*
X7196328Y3791153D01*
X7210196Y3786632D01*
X7224471Y3783939D01*
G37*
G36*
X5715000Y3795725D02*
G01*
X5729528Y3796639D01*
X5743803Y3799332D01*
X5757672Y3803853D01*
X5770829Y3810050D01*
X5783122Y3817823D01*
X5794349Y3827119D01*
X5804306Y3837736D01*
X5812840Y3849522D01*
X5819851Y3862273D01*
X5825236Y3875786D01*
X5828842Y3889908D01*
X5830671Y3904335D01*
X5830671Y3918864D01*
X5828842Y3933291D01*
X5825236Y3947414D01*
X5819851Y3960926D01*
X5812840Y3973677D01*
X5804306Y3985463D01*
X5794349Y3996080D01*
X5783122Y4005376D01*
X5770829Y4013149D01*
X5757672Y4019346D01*
X5743803Y4023868D01*
X5729528Y4026560D01*
X5715000Y4027474D01*
X5700471Y4026560D01*
X5686196Y4023868D01*
X5672328Y4019346D01*
X5659170Y4013149D01*
X5646877Y4005376D01*
X5635650Y3996080D01*
X5625693Y3985463D01*
X5617159Y3973677D01*
X5610148Y3960926D01*
X5604764Y3947414D01*
X5601157Y3933291D01*
X5599328Y3918864D01*
X5599328Y3904335D01*
X5601157Y3889908D01*
X5604764Y3875786D01*
X5610148Y3862273D01*
X5617159Y3849522D01*
X5625693Y3837736D01*
X5635650Y3827119D01*
X5646877Y3817823D01*
X5659170Y3810050D01*
X5672328Y3803853D01*
X5686196Y3799332D01*
X5700471Y3796639D01*
G37*
G36*
X1585315Y3964584D02*
G01*
X1599844Y3964584D01*
X1614271Y3966413D01*
X1628394Y3970020D01*
X1641906Y3975404D01*
X1654657Y3982415D01*
X1666443Y3990949D01*
X1677060Y4000906D01*
X1686356Y4012133D01*
X1694129Y4024426D01*
X1700326Y4037584D01*
X1704848Y4051452D01*
X1707540Y4065727D01*
X1708454Y4080256D01*
X1707540Y4094784D01*
X1704848Y4109059D01*
X1700326Y4122928D01*
X1694129Y4136085D01*
X1686356Y4148378D01*
X1677060Y4159605D01*
X1666443Y4169562D01*
X1654657Y4178096D01*
X1641906Y4185107D01*
X1628394Y4190492D01*
X1614271Y4194098D01*
X1599844Y4195927D01*
X1585315Y4195927D01*
X1570888Y4194098D01*
X1556766Y4190492D01*
X1543253Y4185107D01*
X1530502Y4178096D01*
X1518716Y4169562D01*
X1508099Y4159605D01*
X1498803Y4148378D01*
X1491030Y4136085D01*
X1484833Y4122928D01*
X1480312Y4109059D01*
X1477619Y4094784D01*
X1476705Y4080256D01*
X1477619Y4065727D01*
X1480312Y4051452D01*
X1484833Y4037584D01*
X1491030Y4024426D01*
X1498803Y4012133D01*
X1508099Y4000906D01*
X1518716Y3990949D01*
X1530502Y3982415D01*
X1543253Y3975404D01*
X1556766Y3970020D01*
X1570888Y3966413D01*
G37*
G36*
X2235555Y3964584D02*
G01*
X2250084Y3964584D01*
X2264511Y3966413D01*
X2278634Y3970020D01*
X2292146Y3975404D01*
X2304897Y3982415D01*
X2316683Y3990949D01*
X2327300Y4000906D01*
X2336596Y4012133D01*
X2344369Y4024426D01*
X2350566Y4037584D01*
X2355088Y4051452D01*
X2357780Y4065727D01*
X2358694Y4080256D01*
X2357780Y4094784D01*
X2355088Y4109059D01*
X2350566Y4122928D01*
X2344369Y4136085D01*
X2336596Y4148378D01*
X2327300Y4159605D01*
X2316683Y4169562D01*
X2304897Y4178096D01*
X2292146Y4185107D01*
X2278634Y4190492D01*
X2264511Y4194098D01*
X2250084Y4195927D01*
X2235555Y4195927D01*
X2221128Y4194098D01*
X2207006Y4190492D01*
X2193493Y4185107D01*
X2180742Y4178096D01*
X2168956Y4169562D01*
X2158339Y4159605D01*
X2149043Y4148378D01*
X2141270Y4136085D01*
X2135073Y4122928D01*
X2130552Y4109059D01*
X2127859Y4094784D01*
X2126945Y4080256D01*
X2127859Y4065727D01*
X2130552Y4051452D01*
X2135073Y4037584D01*
X2141270Y4024426D01*
X2149043Y4012133D01*
X2158339Y4000906D01*
X2168956Y3990949D01*
X2180742Y3982415D01*
X2193493Y3975404D01*
X2207006Y3970020D01*
X2221128Y3966413D01*
G37*
G36*
X7239000Y4037025D02*
G01*
X7253528Y4037939D01*
X7267803Y4040632D01*
X7281672Y4045153D01*
X7294829Y4051350D01*
X7307122Y4059123D01*
X7318349Y4068419D01*
X7328306Y4079036D01*
X7336840Y4090822D01*
X7343851Y4103573D01*
X7349236Y4117086D01*
X7352842Y4131208D01*
X7354671Y4145635D01*
X7354671Y4160164D01*
X7352842Y4174591D01*
X7349236Y4188714D01*
X7343851Y4202226D01*
X7336840Y4214977D01*
X7328306Y4226763D01*
X7318349Y4237380D01*
X7307122Y4246676D01*
X7294829Y4254449D01*
X7281672Y4260646D01*
X7267803Y4265168D01*
X7253528Y4267860D01*
X7239000Y4268774D01*
X7224471Y4267860D01*
X7210196Y4265168D01*
X7196328Y4260646D01*
X7183170Y4254449D01*
X7170877Y4246676D01*
X7159650Y4237380D01*
X7149693Y4226763D01*
X7141159Y4214977D01*
X7134148Y4202226D01*
X7128764Y4188714D01*
X7125157Y4174591D01*
X7123328Y4160164D01*
X7123328Y4145635D01*
X7125157Y4131208D01*
X7128764Y4117086D01*
X7134148Y4103573D01*
X7141159Y4090822D01*
X7149693Y4079036D01*
X7159650Y4068419D01*
X7170877Y4059123D01*
X7183170Y4051350D01*
X7196328Y4045153D01*
X7210196Y4040632D01*
X7224471Y4037939D01*
G37*
G36*
X5715000Y4049725D02*
G01*
X5729528Y4050639D01*
X5743803Y4053332D01*
X5757672Y4057853D01*
X5770829Y4064050D01*
X5783122Y4071823D01*
X5794349Y4081119D01*
X5804306Y4091736D01*
X5812840Y4103522D01*
X5819851Y4116273D01*
X5825236Y4129786D01*
X5828842Y4143908D01*
X5830671Y4158335D01*
X5830671Y4172864D01*
X5828842Y4187291D01*
X5825236Y4201414D01*
X5819851Y4214926D01*
X5812840Y4227677D01*
X5804306Y4239463D01*
X5794349Y4250080D01*
X5783122Y4259376D01*
X5770829Y4267149D01*
X5757672Y4273346D01*
X5743803Y4277868D01*
X5729528Y4280560D01*
X5715000Y4281474D01*
X5700471Y4280560D01*
X5686196Y4277868D01*
X5672328Y4273346D01*
X5659170Y4267149D01*
X5646877Y4259376D01*
X5635650Y4250080D01*
X5625693Y4239463D01*
X5617159Y4227677D01*
X5610148Y4214926D01*
X5604764Y4201414D01*
X5601157Y4187291D01*
X5599328Y4172864D01*
X5599328Y4158335D01*
X5601157Y4143908D01*
X5604764Y4129786D01*
X5610148Y4116273D01*
X5617159Y4103522D01*
X5625693Y4091736D01*
X5635650Y4081119D01*
X5646877Y4071823D01*
X5659170Y4064050D01*
X5672328Y4057853D01*
X5686196Y4053332D01*
X5700471Y4050639D01*
G37*
G36*
X10297515Y4205884D02*
G01*
X10312044Y4205884D01*
X10326471Y4207713D01*
X10340594Y4211320D01*
X10354106Y4216704D01*
X10366857Y4223715D01*
X10378643Y4232249D01*
X10389260Y4242206D01*
X10398556Y4253433D01*
X10406329Y4265726D01*
X10412526Y4278884D01*
X10417048Y4292752D01*
X10419740Y4307027D01*
X10420654Y4321556D01*
X10419740Y4336084D01*
X10417048Y4350359D01*
X10412526Y4364228D01*
X10406329Y4377385D01*
X10398556Y4389678D01*
X10389260Y4400905D01*
X10378643Y4410862D01*
X10366857Y4419396D01*
X10354106Y4426407D01*
X10340594Y4431792D01*
X10326471Y4435398D01*
X10312044Y4437227D01*
X10297515Y4437227D01*
X10283088Y4435398D01*
X10268966Y4431792D01*
X10255453Y4426407D01*
X10242702Y4419396D01*
X10230916Y4410862D01*
X10220299Y4400905D01*
X10211003Y4389678D01*
X10203230Y4377385D01*
X10197033Y4364228D01*
X10192512Y4350359D01*
X10189819Y4336084D01*
X10188905Y4321556D01*
X10189819Y4307027D01*
X10192512Y4292752D01*
X10197033Y4278884D01*
X10203230Y4265726D01*
X10211003Y4253433D01*
X10220299Y4242206D01*
X10230916Y4232249D01*
X10242702Y4223715D01*
X10255453Y4216704D01*
X10268966Y4211320D01*
X10283088Y4207713D01*
G37*
G36*
X10947755Y4205884D02*
G01*
X10962284Y4205884D01*
X10976711Y4207713D01*
X10990834Y4211320D01*
X11004346Y4216704D01*
X11017097Y4223715D01*
X11028883Y4232249D01*
X11039500Y4242206D01*
X11048796Y4253433D01*
X11056569Y4265726D01*
X11062766Y4278884D01*
X11067288Y4292752D01*
X11069980Y4307027D01*
X11070894Y4321556D01*
X11069980Y4336084D01*
X11067288Y4350359D01*
X11062766Y4364228D01*
X11056569Y4377385D01*
X11048796Y4389678D01*
X11039500Y4400905D01*
X11028883Y4410862D01*
X11017097Y4419396D01*
X11004346Y4426407D01*
X10990834Y4431792D01*
X10976711Y4435398D01*
X10962284Y4437227D01*
X10947755Y4437227D01*
X10933328Y4435398D01*
X10919206Y4431792D01*
X10905693Y4426407D01*
X10892942Y4419396D01*
X10881156Y4410862D01*
X10870539Y4400905D01*
X10861243Y4389678D01*
X10853470Y4377385D01*
X10847273Y4364228D01*
X10842752Y4350359D01*
X10840059Y4336084D01*
X10839145Y4321556D01*
X10840059Y4307027D01*
X10842752Y4292752D01*
X10847273Y4278884D01*
X10853470Y4265726D01*
X10861243Y4253433D01*
X10870539Y4242206D01*
X10881156Y4232249D01*
X10892942Y4223715D01*
X10905693Y4216704D01*
X10919206Y4211320D01*
X10933328Y4207713D01*
G37*
G36*
X7239000Y4291025D02*
G01*
X7253528Y4291939D01*
X7267803Y4294632D01*
X7281672Y4299153D01*
X7294829Y4305350D01*
X7307122Y4313123D01*
X7318349Y4322419D01*
X7328306Y4333036D01*
X7336840Y4344822D01*
X7343851Y4357573D01*
X7349236Y4371086D01*
X7352842Y4385208D01*
X7354671Y4399635D01*
X7354671Y4414164D01*
X7352842Y4428591D01*
X7349236Y4442714D01*
X7343851Y4456226D01*
X7336840Y4468977D01*
X7328306Y4480763D01*
X7318349Y4491380D01*
X7307122Y4500676D01*
X7294829Y4508449D01*
X7281672Y4514646D01*
X7267803Y4519168D01*
X7253528Y4521860D01*
X7239000Y4522774D01*
X7224471Y4521860D01*
X7210196Y4519168D01*
X7196328Y4514646D01*
X7183170Y4508449D01*
X7170877Y4500676D01*
X7159650Y4491380D01*
X7149693Y4480763D01*
X7141159Y4468977D01*
X7134148Y4456226D01*
X7128764Y4442714D01*
X7125157Y4428591D01*
X7123328Y4414164D01*
X7123328Y4399635D01*
X7125157Y4385208D01*
X7128764Y4371086D01*
X7134148Y4357573D01*
X7141159Y4344822D01*
X7149693Y4333036D01*
X7159650Y4322419D01*
X7170877Y4313123D01*
X7183170Y4305350D01*
X7196328Y4299153D01*
X7210196Y4294632D01*
X7224471Y4291939D01*
G37*
G36*
X5715000Y4303725D02*
G01*
X5729528Y4304639D01*
X5743803Y4307332D01*
X5757672Y4311853D01*
X5770829Y4318050D01*
X5783122Y4325823D01*
X5794349Y4335119D01*
X5804306Y4345736D01*
X5812840Y4357522D01*
X5819851Y4370273D01*
X5825236Y4383786D01*
X5828842Y4397908D01*
X5830671Y4412335D01*
X5830671Y4426864D01*
X5828842Y4441291D01*
X5825236Y4455414D01*
X5819851Y4468926D01*
X5812840Y4481677D01*
X5804306Y4493463D01*
X5794349Y4504080D01*
X5783122Y4513376D01*
X5770829Y4521149D01*
X5757672Y4527346D01*
X5743803Y4531868D01*
X5729528Y4534560D01*
X5715000Y4535474D01*
X5700471Y4534560D01*
X5686196Y4531868D01*
X5672328Y4527346D01*
X5659170Y4521149D01*
X5646877Y4513376D01*
X5635650Y4504080D01*
X5625693Y4493463D01*
X5617159Y4481677D01*
X5610148Y4468926D01*
X5604764Y4455414D01*
X5601157Y4441291D01*
X5599328Y4426864D01*
X5599328Y4412335D01*
X5601157Y4397908D01*
X5604764Y4383786D01*
X5610148Y4370273D01*
X5617159Y4357522D01*
X5625693Y4345736D01*
X5635650Y4335119D01*
X5646877Y4325823D01*
X5659170Y4318050D01*
X5672328Y4311853D01*
X5686196Y4307332D01*
X5700471Y4304639D01*
G37*
G36*
X1585315Y4414672D02*
G01*
X1599844Y4414672D01*
X1614271Y4416501D01*
X1628394Y4420108D01*
X1641906Y4425492D01*
X1654657Y4432503D01*
X1666443Y4441037D01*
X1677060Y4450994D01*
X1686356Y4462221D01*
X1694129Y4474514D01*
X1700326Y4487672D01*
X1704848Y4501540D01*
X1707540Y4515815D01*
X1708454Y4530344D01*
X1707540Y4544872D01*
X1704848Y4559147D01*
X1700326Y4573016D01*
X1694129Y4586173D01*
X1686356Y4598466D01*
X1677060Y4609693D01*
X1666443Y4619650D01*
X1654657Y4628184D01*
X1641906Y4635195D01*
X1628394Y4640580D01*
X1614271Y4644186D01*
X1599844Y4646015D01*
X1585315Y4646015D01*
X1570888Y4644186D01*
X1556766Y4640580D01*
X1543253Y4635195D01*
X1530502Y4628184D01*
X1518716Y4619650D01*
X1508099Y4609693D01*
X1498803Y4598466D01*
X1491030Y4586173D01*
X1484833Y4573016D01*
X1480312Y4559147D01*
X1477619Y4544872D01*
X1476705Y4530344D01*
X1477619Y4515815D01*
X1480312Y4501540D01*
X1484833Y4487672D01*
X1491030Y4474514D01*
X1498803Y4462221D01*
X1508099Y4450994D01*
X1518716Y4441037D01*
X1530502Y4432503D01*
X1543253Y4425492D01*
X1556766Y4420108D01*
X1570888Y4416501D01*
G37*
G36*
X7239000Y4545025D02*
G01*
X7253528Y4545939D01*
X7267803Y4548632D01*
X7281672Y4553153D01*
X7294829Y4559350D01*
X7307122Y4567123D01*
X7318349Y4576419D01*
X7328306Y4587036D01*
X7336840Y4598822D01*
X7343851Y4611573D01*
X7349236Y4625086D01*
X7352842Y4639208D01*
X7354671Y4653635D01*
X7354671Y4668164D01*
X7352842Y4682591D01*
X7349236Y4696714D01*
X7343851Y4710226D01*
X7336840Y4722977D01*
X7328306Y4734763D01*
X7318349Y4745380D01*
X7307122Y4754676D01*
X7294829Y4762449D01*
X7281672Y4768646D01*
X7267803Y4773168D01*
X7253528Y4775860D01*
X7239000Y4776774D01*
X7224471Y4775860D01*
X7210196Y4773168D01*
X7196328Y4768646D01*
X7183170Y4762449D01*
X7170877Y4754676D01*
X7159650Y4745380D01*
X7149693Y4734763D01*
X7141159Y4722977D01*
X7134148Y4710226D01*
X7128764Y4696714D01*
X7125157Y4682591D01*
X7123328Y4668164D01*
X7123328Y4653635D01*
X7125157Y4639208D01*
X7128764Y4625086D01*
X7134148Y4611573D01*
X7141159Y4598822D01*
X7149693Y4587036D01*
X7159650Y4576419D01*
X7170877Y4567123D01*
X7183170Y4559350D01*
X7196328Y4553153D01*
X7210196Y4548632D01*
X7224471Y4545939D01*
G37*
G36*
X9768687Y4553508D02*
G01*
X9778238Y4554728D01*
X9787432Y4557572D01*
X9795967Y4561890D01*
X9803688Y4567580D01*
X9810343Y4574540D01*
X9815728Y4582464D01*
X9819690Y4591253D01*
X9822129Y4600549D01*
X9822484Y4605070D01*
X9823399Y4608474D01*
X9825431Y4611370D01*
X10396829Y5182819D01*
X10402265Y5189372D01*
X10406024Y5196433D01*
X10408361Y5204104D01*
X10409174Y5212588D01*
X10409174Y5628843D01*
X10409986Y5632805D01*
X10412222Y5636107D01*
X10415625Y5638292D01*
X10417606Y5639104D01*
X10430357Y5646115D01*
X10442143Y5654649D01*
X10452760Y5664606D01*
X10462056Y5675833D01*
X10469829Y5688126D01*
X10476026Y5701284D01*
X10480548Y5715152D01*
X10483240Y5729427D01*
X10484154Y5743956D01*
X10483240Y5758484D01*
X10480548Y5772759D01*
X10476026Y5786628D01*
X10469829Y5799785D01*
X10462056Y5812078D01*
X10452760Y5823305D01*
X10442143Y5833262D01*
X10430357Y5841796D01*
X10417606Y5848807D01*
X10404094Y5854192D01*
X10389971Y5857798D01*
X10375544Y5859627D01*
X10361015Y5859627D01*
X10346588Y5857798D01*
X10332466Y5854192D01*
X10318953Y5848807D01*
X10306202Y5841796D01*
X10294416Y5833262D01*
X10283799Y5823305D01*
X10274503Y5812078D01*
X10266730Y5799785D01*
X10260533Y5786628D01*
X10256012Y5772759D01*
X10253319Y5758484D01*
X10252405Y5743956D01*
X10253319Y5729427D01*
X10256012Y5715152D01*
X10260533Y5701284D01*
X10266730Y5688126D01*
X10274503Y5675833D01*
X10283799Y5664606D01*
X10294416Y5654649D01*
X10306202Y5646115D01*
X10318953Y5639104D01*
X10320934Y5638292D01*
X10324338Y5636107D01*
X10326573Y5632805D01*
X10327386Y5628843D01*
X10327386Y5233212D01*
X10326624Y5229352D01*
X10324388Y5226050D01*
X10161117Y5062778D01*
X10157714Y5060543D01*
X10153700Y5059781D01*
X10149738Y5060696D01*
X10146436Y5063083D01*
X10144353Y5066538D01*
X10143794Y5070856D01*
X10142880Y5085384D01*
X10140188Y5099659D01*
X10135666Y5113528D01*
X10129469Y5126685D01*
X10121696Y5138978D01*
X10112400Y5150205D01*
X10101783Y5160162D01*
X10089997Y5168696D01*
X10077246Y5175707D01*
X10063734Y5181092D01*
X10049611Y5184698D01*
X10035184Y5186527D01*
X10020655Y5186527D01*
X10006228Y5184698D01*
X9992106Y5181092D01*
X9978593Y5175707D01*
X9965842Y5168696D01*
X9954056Y5160162D01*
X9943439Y5150205D01*
X9934143Y5138978D01*
X9926370Y5126685D01*
X9920173Y5113528D01*
X9915652Y5099659D01*
X9912959Y5085384D01*
X9912045Y5070856D01*
X9912959Y5056327D01*
X9915652Y5042052D01*
X9920173Y5028184D01*
X9926370Y5015026D01*
X9934143Y5002733D01*
X9943439Y4991506D01*
X9954056Y4981549D01*
X9965842Y4973015D01*
X9978593Y4966004D01*
X9992106Y4960620D01*
X10006228Y4957013D01*
X10020655Y4955184D01*
X10029037Y4955184D01*
X10032898Y4954422D01*
X10036200Y4952238D01*
X10038384Y4948936D01*
X10039197Y4945024D01*
X10038384Y4941163D01*
X10036200Y4937861D01*
X9767671Y4669282D01*
X9764572Y4667199D01*
X9759086Y4666284D01*
X9749739Y4664252D01*
X9740798Y4660646D01*
X9732619Y4655616D01*
X9725406Y4649266D01*
X9719411Y4641799D01*
X9714687Y4633417D01*
X9711486Y4624374D01*
X9709861Y4614926D01*
X9709861Y4605274D01*
X9711486Y4595825D01*
X9714687Y4586782D01*
X9719411Y4578400D01*
X9725406Y4570933D01*
X9732619Y4564583D01*
X9740798Y4559554D01*
X9749739Y4555947D01*
X9759086Y4553915D01*
G37*
G36*
X5715000Y4557725D02*
G01*
X5729528Y4558639D01*
X5743803Y4561332D01*
X5757672Y4565853D01*
X5770829Y4572050D01*
X5783122Y4579823D01*
X5794349Y4589119D01*
X5804306Y4599736D01*
X5812840Y4611522D01*
X5819851Y4624273D01*
X5825236Y4637786D01*
X5828842Y4651908D01*
X5830671Y4666335D01*
X5830671Y4680864D01*
X5828842Y4695291D01*
X5825236Y4709414D01*
X5819851Y4722926D01*
X5812840Y4735677D01*
X5804306Y4747463D01*
X5794349Y4758080D01*
X5783122Y4767376D01*
X5770829Y4775149D01*
X5757672Y4781346D01*
X5743803Y4785868D01*
X5729528Y4788560D01*
X5715000Y4789474D01*
X5700471Y4788560D01*
X5686196Y4785868D01*
X5672328Y4781346D01*
X5659170Y4775149D01*
X5646877Y4767376D01*
X5635650Y4758080D01*
X5625693Y4747463D01*
X5617159Y4735677D01*
X5610148Y4722926D01*
X5604764Y4709414D01*
X5601157Y4695291D01*
X5599328Y4680864D01*
X5599328Y4666335D01*
X5601157Y4651908D01*
X5604764Y4637786D01*
X5610148Y4624273D01*
X5617159Y4611522D01*
X5625693Y4599736D01*
X5635650Y4589119D01*
X5646877Y4579823D01*
X5659170Y4572050D01*
X5672328Y4565853D01*
X5686196Y4561332D01*
X5700471Y4558639D01*
G37*
G36*
X10297515Y4655972D02*
G01*
X10312044Y4655972D01*
X10326471Y4657801D01*
X10340594Y4661408D01*
X10354106Y4666792D01*
X10366857Y4673803D01*
X10378643Y4682337D01*
X10389260Y4692294D01*
X10398556Y4703521D01*
X10406329Y4715814D01*
X10412526Y4728972D01*
X10417048Y4742840D01*
X10419740Y4757115D01*
X10420654Y4771644D01*
X10419740Y4786172D01*
X10417048Y4800447D01*
X10412526Y4814316D01*
X10406329Y4827473D01*
X10398556Y4839766D01*
X10389260Y4850993D01*
X10378643Y4860950D01*
X10366857Y4869484D01*
X10354106Y4876495D01*
X10340594Y4881880D01*
X10326471Y4885486D01*
X10312044Y4887315D01*
X10297515Y4887315D01*
X10283088Y4885486D01*
X10268966Y4881880D01*
X10255453Y4876495D01*
X10242702Y4869484D01*
X10230916Y4860950D01*
X10220299Y4850993D01*
X10211003Y4839766D01*
X10203230Y4827473D01*
X10197033Y4814316D01*
X10192512Y4800447D01*
X10189819Y4786172D01*
X10188905Y4771644D01*
X10189819Y4757115D01*
X10192512Y4742840D01*
X10197033Y4728972D01*
X10203230Y4715814D01*
X10211003Y4703521D01*
X10220299Y4692294D01*
X10230916Y4682337D01*
X10242702Y4673803D01*
X10255453Y4666792D01*
X10268966Y4661408D01*
X10283088Y4657801D01*
G37*
G36*
X10947755Y4655972D02*
G01*
X10962284Y4655972D01*
X10976711Y4657801D01*
X10990834Y4661408D01*
X11004346Y4666792D01*
X11017097Y4673803D01*
X11028883Y4682337D01*
X11039500Y4692294D01*
X11048796Y4703521D01*
X11056569Y4715814D01*
X11062766Y4728972D01*
X11067288Y4742840D01*
X11069980Y4757115D01*
X11070894Y4771644D01*
X11069980Y4786172D01*
X11067288Y4800447D01*
X11062766Y4814316D01*
X11056569Y4827473D01*
X11048796Y4839766D01*
X11039500Y4850993D01*
X11028883Y4860950D01*
X11017097Y4869484D01*
X11004346Y4876495D01*
X10990834Y4881880D01*
X10976711Y4885486D01*
X10962284Y4887315D01*
X10947755Y4887315D01*
X10933328Y4885486D01*
X10919206Y4881880D01*
X10905693Y4876495D01*
X10892942Y4869484D01*
X10881156Y4860950D01*
X10870539Y4850993D01*
X10861243Y4839766D01*
X10853470Y4827473D01*
X10847273Y4814316D01*
X10842752Y4800447D01*
X10840059Y4786172D01*
X10839145Y4771644D01*
X10840059Y4757115D01*
X10842752Y4742840D01*
X10847273Y4728972D01*
X10853470Y4715814D01*
X10861243Y4703521D01*
X10870539Y4692294D01*
X10881156Y4682337D01*
X10892942Y4673803D01*
X10905693Y4666792D01*
X10919206Y4661408D01*
X10933328Y4657801D01*
G37*
G36*
X658215Y4675784D02*
G01*
X672744Y4675784D01*
X687171Y4677613D01*
X701294Y4681220D01*
X714806Y4686604D01*
X727557Y4693615D01*
X739343Y4702149D01*
X749960Y4712106D01*
X759256Y4723333D01*
X767029Y4735626D01*
X773226Y4748784D01*
X777748Y4762652D01*
X780440Y4776927D01*
X781354Y4791456D01*
X780440Y4805984D01*
X777748Y4820259D01*
X773226Y4834128D01*
X767029Y4847285D01*
X759256Y4859578D01*
X749960Y4870805D01*
X739343Y4880762D01*
X727557Y4889296D01*
X714806Y4896307D01*
X701294Y4901692D01*
X687171Y4905298D01*
X672744Y4907127D01*
X658215Y4907127D01*
X643788Y4905298D01*
X629666Y4901692D01*
X616153Y4896307D01*
X603402Y4889296D01*
X591616Y4880762D01*
X580999Y4870805D01*
X571703Y4859578D01*
X563930Y4847285D01*
X557733Y4834128D01*
X553212Y4820259D01*
X550519Y4805984D01*
X549605Y4791456D01*
X550519Y4776927D01*
X553212Y4762652D01*
X557733Y4748784D01*
X563930Y4735626D01*
X571703Y4723333D01*
X580999Y4712106D01*
X591616Y4702149D01*
X603402Y4693615D01*
X616153Y4686604D01*
X629666Y4681220D01*
X643788Y4677613D01*
G37*
G36*
X1308455Y4675784D02*
G01*
X1322984Y4675784D01*
X1337411Y4677613D01*
X1351534Y4681220D01*
X1365046Y4686604D01*
X1377797Y4693615D01*
X1389583Y4702149D01*
X1400200Y4712106D01*
X1409496Y4723333D01*
X1417269Y4735626D01*
X1423466Y4748784D01*
X1427988Y4762652D01*
X1430680Y4776927D01*
X1431594Y4791456D01*
X1430680Y4805984D01*
X1427988Y4820259D01*
X1423466Y4834128D01*
X1417269Y4847285D01*
X1409496Y4859578D01*
X1400200Y4870805D01*
X1389583Y4880762D01*
X1377797Y4889296D01*
X1365046Y4896307D01*
X1351534Y4901692D01*
X1337411Y4905298D01*
X1322984Y4907127D01*
X1308455Y4907127D01*
X1294028Y4905298D01*
X1279906Y4901692D01*
X1266393Y4896307D01*
X1253642Y4889296D01*
X1241856Y4880762D01*
X1231239Y4870805D01*
X1221943Y4859578D01*
X1214170Y4847285D01*
X1207973Y4834128D01*
X1203452Y4820259D01*
X1200759Y4805984D01*
X1199845Y4791456D01*
X1200759Y4776927D01*
X1203452Y4762652D01*
X1207973Y4748784D01*
X1214170Y4735626D01*
X1221943Y4723333D01*
X1231239Y4712106D01*
X1241856Y4702149D01*
X1253642Y4693615D01*
X1266393Y4686604D01*
X1279906Y4681220D01*
X1294028Y4677613D01*
G37*
G36*
X2499715Y4764684D02*
G01*
X2514244Y4764684D01*
X2528671Y4766513D01*
X2542794Y4770120D01*
X2556306Y4775504D01*
X2569057Y4782515D01*
X2580843Y4791049D01*
X2591460Y4801006D01*
X2600756Y4812233D01*
X2608529Y4824526D01*
X2614726Y4837684D01*
X2619248Y4851552D01*
X2621940Y4865827D01*
X2622854Y4880356D01*
X2621940Y4894884D01*
X2619248Y4909159D01*
X2614726Y4923028D01*
X2608529Y4936185D01*
X2600756Y4948478D01*
X2591460Y4959705D01*
X2580843Y4969662D01*
X2569057Y4978196D01*
X2556306Y4985207D01*
X2542794Y4990592D01*
X2528671Y4994198D01*
X2514244Y4996027D01*
X2499715Y4996027D01*
X2485288Y4994198D01*
X2471166Y4990592D01*
X2457653Y4985207D01*
X2444902Y4978196D01*
X2433116Y4969662D01*
X2422499Y4959705D01*
X2413203Y4948478D01*
X2405430Y4936185D01*
X2399233Y4923028D01*
X2394712Y4909159D01*
X2392019Y4894884D01*
X2391105Y4880356D01*
X2392019Y4865827D01*
X2394712Y4851552D01*
X2399233Y4837684D01*
X2405430Y4824526D01*
X2413203Y4812233D01*
X2422499Y4801006D01*
X2433116Y4791049D01*
X2444902Y4782515D01*
X2457653Y4775504D01*
X2471166Y4770120D01*
X2485288Y4766513D01*
G37*
G36*
X3149955Y4764684D02*
G01*
X3164484Y4764684D01*
X3178911Y4766513D01*
X3193034Y4770120D01*
X3206546Y4775504D01*
X3219297Y4782515D01*
X3231083Y4791049D01*
X3241700Y4801006D01*
X3250996Y4812233D01*
X3258769Y4824526D01*
X3264966Y4837684D01*
X3269488Y4851552D01*
X3272180Y4865827D01*
X3273094Y4880356D01*
X3272180Y4894884D01*
X3269488Y4909159D01*
X3264966Y4923028D01*
X3258769Y4936185D01*
X3250996Y4948478D01*
X3241700Y4959705D01*
X3231083Y4969662D01*
X3219297Y4978196D01*
X3206546Y4985207D01*
X3193034Y4990592D01*
X3178911Y4994198D01*
X3164484Y4996027D01*
X3149955Y4996027D01*
X3135528Y4994198D01*
X3121406Y4990592D01*
X3107893Y4985207D01*
X3095142Y4978196D01*
X3083356Y4969662D01*
X3072739Y4959705D01*
X3063443Y4948478D01*
X3055670Y4936185D01*
X3049473Y4923028D01*
X3044952Y4909159D01*
X3042259Y4894884D01*
X3041345Y4880356D01*
X3042259Y4865827D01*
X3044952Y4851552D01*
X3049473Y4837684D01*
X3055670Y4824526D01*
X3063443Y4812233D01*
X3072739Y4801006D01*
X3083356Y4791049D01*
X3095142Y4782515D01*
X3107893Y4775504D01*
X3121406Y4770120D01*
X3135528Y4766513D01*
G37*
G36*
X7239000Y4799025D02*
G01*
X7253528Y4799939D01*
X7267803Y4802632D01*
X7281672Y4807153D01*
X7294829Y4813350D01*
X7307122Y4821123D01*
X7318349Y4830419D01*
X7328306Y4841036D01*
X7336840Y4852822D01*
X7343851Y4865573D01*
X7349236Y4879086D01*
X7352842Y4893208D01*
X7354671Y4907635D01*
X7354671Y4922164D01*
X7352842Y4936591D01*
X7349236Y4950714D01*
X7343851Y4964226D01*
X7336840Y4976977D01*
X7328306Y4988763D01*
X7318349Y4999380D01*
X7307122Y5008676D01*
X7294829Y5016449D01*
X7281672Y5022646D01*
X7267803Y5027168D01*
X7253528Y5029860D01*
X7239000Y5030774D01*
X7224471Y5029860D01*
X7210196Y5027168D01*
X7196328Y5022646D01*
X7183170Y5016449D01*
X7170877Y5008676D01*
X7159650Y4999380D01*
X7149693Y4988763D01*
X7141159Y4976977D01*
X7134148Y4964226D01*
X7128764Y4950714D01*
X7125157Y4936591D01*
X7123328Y4922164D01*
X7123328Y4907635D01*
X7125157Y4893208D01*
X7128764Y4879086D01*
X7134148Y4865573D01*
X7141159Y4852822D01*
X7149693Y4841036D01*
X7159650Y4830419D01*
X7170877Y4821123D01*
X7183170Y4813350D01*
X7196328Y4807153D01*
X7210196Y4802632D01*
X7224471Y4799939D01*
G37*
G36*
X5715000Y4811725D02*
G01*
X5729528Y4812639D01*
X5743803Y4815332D01*
X5757672Y4819853D01*
X5770829Y4826050D01*
X5783122Y4833823D01*
X5794349Y4843119D01*
X5804306Y4853736D01*
X5812840Y4865522D01*
X5819851Y4878273D01*
X5825236Y4891786D01*
X5828842Y4905908D01*
X5830671Y4920335D01*
X5830671Y4934864D01*
X5828842Y4949291D01*
X5825236Y4963414D01*
X5819851Y4976926D01*
X5812840Y4989677D01*
X5804306Y5001463D01*
X5794349Y5012080D01*
X5783122Y5021376D01*
X5770829Y5029149D01*
X5757672Y5035346D01*
X5743803Y5039868D01*
X5729528Y5042560D01*
X5715000Y5043474D01*
X5700471Y5042560D01*
X5686196Y5039868D01*
X5672328Y5035346D01*
X5659170Y5029149D01*
X5646877Y5021376D01*
X5635650Y5012080D01*
X5625693Y5001463D01*
X5617159Y4989677D01*
X5610148Y4976926D01*
X5604764Y4963414D01*
X5601157Y4949291D01*
X5599328Y4934864D01*
X5599328Y4920335D01*
X5601157Y4905908D01*
X5604764Y4891786D01*
X5610148Y4878273D01*
X5617159Y4865522D01*
X5625693Y4853736D01*
X5635650Y4843119D01*
X5646877Y4833823D01*
X5659170Y4826050D01*
X5672328Y4819853D01*
X5686196Y4815332D01*
X5700471Y4812639D01*
G37*
G36*
X11161115Y4904384D02*
G01*
X11175644Y4904384D01*
X11190071Y4906213D01*
X11204194Y4909820D01*
X11217706Y4915204D01*
X11230457Y4922215D01*
X11242243Y4930749D01*
X11252860Y4940706D01*
X11262156Y4951933D01*
X11269929Y4964226D01*
X11276126Y4977384D01*
X11280648Y4991252D01*
X11283340Y5005527D01*
X11284254Y5020056D01*
X11283340Y5034584D01*
X11280648Y5048859D01*
X11276126Y5062728D01*
X11269929Y5075885D01*
X11262156Y5088178D01*
X11252860Y5099405D01*
X11242243Y5109362D01*
X11230457Y5117896D01*
X11217706Y5124907D01*
X11204194Y5130292D01*
X11190071Y5133898D01*
X11175644Y5135727D01*
X11161115Y5135727D01*
X11146688Y5133898D01*
X11132566Y5130292D01*
X11119053Y5124907D01*
X11106302Y5117896D01*
X11094516Y5109362D01*
X11083899Y5099405D01*
X11074603Y5088178D01*
X11066830Y5075885D01*
X11060633Y5062728D01*
X11056112Y5048859D01*
X11053419Y5034584D01*
X11052505Y5020056D01*
X11053419Y5005527D01*
X11056112Y4991252D01*
X11060633Y4977384D01*
X11066830Y4964226D01*
X11074603Y4951933D01*
X11083899Y4940706D01*
X11094516Y4930749D01*
X11106302Y4922215D01*
X11119053Y4915204D01*
X11132566Y4909820D01*
X11146688Y4906213D01*
G37*
G36*
X11811355Y4904384D02*
G01*
X11825884Y4904384D01*
X11840311Y4906213D01*
X11854434Y4909820D01*
X11867946Y4915204D01*
X11880697Y4922215D01*
X11892483Y4930749D01*
X11903100Y4940706D01*
X11912396Y4951933D01*
X11920169Y4964226D01*
X11926366Y4977384D01*
X11930888Y4991252D01*
X11933580Y5005527D01*
X11934494Y5020056D01*
X11933580Y5034584D01*
X11930888Y5048859D01*
X11926366Y5062728D01*
X11920169Y5075885D01*
X11912396Y5088178D01*
X11903100Y5099405D01*
X11892483Y5109362D01*
X11880697Y5117896D01*
X11867946Y5124907D01*
X11854434Y5130292D01*
X11840311Y5133898D01*
X11825884Y5135727D01*
X11811355Y5135727D01*
X11796928Y5133898D01*
X11782806Y5130292D01*
X11769293Y5124907D01*
X11756542Y5117896D01*
X11744756Y5109362D01*
X11734139Y5099405D01*
X11724843Y5088178D01*
X11717070Y5075885D01*
X11710873Y5062728D01*
X11706352Y5048859D01*
X11703659Y5034584D01*
X11702745Y5020056D01*
X11703659Y5005527D01*
X11706352Y4991252D01*
X11710873Y4977384D01*
X11717070Y4964226D01*
X11724843Y4951933D01*
X11734139Y4940706D01*
X11744756Y4930749D01*
X11756542Y4922215D01*
X11769293Y4915204D01*
X11782806Y4909820D01*
X11796928Y4906213D01*
G37*
G36*
X9370415Y4955184D02*
G01*
X9384944Y4955184D01*
X9399371Y4957013D01*
X9413494Y4960620D01*
X9427006Y4966004D01*
X9439757Y4973015D01*
X9451543Y4981549D01*
X9462160Y4991506D01*
X9471456Y5002733D01*
X9479229Y5015026D01*
X9485426Y5028184D01*
X9489948Y5042052D01*
X9492640Y5056327D01*
X9493554Y5070856D01*
X9492640Y5085384D01*
X9489948Y5099659D01*
X9485426Y5113528D01*
X9479229Y5126685D01*
X9471456Y5138978D01*
X9462160Y5150205D01*
X9451543Y5160162D01*
X9439757Y5168696D01*
X9427006Y5175707D01*
X9413494Y5181092D01*
X9399371Y5184698D01*
X9384944Y5186527D01*
X9370415Y5186527D01*
X9355988Y5184698D01*
X9341866Y5181092D01*
X9328353Y5175707D01*
X9315602Y5168696D01*
X9303816Y5160162D01*
X9293199Y5150205D01*
X9283903Y5138978D01*
X9276130Y5126685D01*
X9269933Y5113528D01*
X9265412Y5099659D01*
X9262719Y5085384D01*
X9261805Y5070856D01*
X9262719Y5056327D01*
X9265412Y5042052D01*
X9269933Y5028184D01*
X9276130Y5015026D01*
X9283903Y5002733D01*
X9293199Y4991506D01*
X9303816Y4981549D01*
X9315602Y4973015D01*
X9328353Y4966004D01*
X9341866Y4960620D01*
X9355988Y4957013D01*
G37*
G36*
X7239000Y5053025D02*
G01*
X7253528Y5053939D01*
X7267803Y5056632D01*
X7281672Y5061153D01*
X7294829Y5067350D01*
X7307122Y5075123D01*
X7318349Y5084419D01*
X7328306Y5095036D01*
X7336840Y5106822D01*
X7343851Y5119573D01*
X7349236Y5133086D01*
X7352842Y5147208D01*
X7354671Y5161635D01*
X7354671Y5176164D01*
X7352842Y5190591D01*
X7349236Y5204714D01*
X7343851Y5218226D01*
X7336840Y5230977D01*
X7328306Y5242763D01*
X7318349Y5253380D01*
X7307122Y5262676D01*
X7294829Y5270449D01*
X7281672Y5276646D01*
X7267803Y5281168D01*
X7253528Y5283860D01*
X7239000Y5284774D01*
X7224471Y5283860D01*
X7210196Y5281168D01*
X7196328Y5276646D01*
X7183170Y5270449D01*
X7170877Y5262676D01*
X7159650Y5253380D01*
X7149693Y5242763D01*
X7141159Y5230977D01*
X7134148Y5218226D01*
X7128764Y5204714D01*
X7125157Y5190591D01*
X7123328Y5176164D01*
X7123328Y5161635D01*
X7125157Y5147208D01*
X7128764Y5133086D01*
X7134148Y5119573D01*
X7141159Y5106822D01*
X7149693Y5095036D01*
X7159650Y5084419D01*
X7170877Y5075123D01*
X7183170Y5067350D01*
X7196328Y5061153D01*
X7210196Y5056632D01*
X7224471Y5053939D01*
G37*
G36*
X5663641Y5077917D02*
G01*
X5663641Y5130241D01*
X5611266Y5130241D01*
X5617159Y5119522D01*
X5625693Y5107736D01*
X5635650Y5097119D01*
X5646877Y5087823D01*
X5659170Y5080050D01*
G37*
G36*
X5766358Y5077917D02*
G01*
X5770829Y5080050D01*
X5783122Y5087823D01*
X5794349Y5097119D01*
X5804306Y5107736D01*
X5812840Y5119522D01*
X5818733Y5130241D01*
X5766358Y5130241D01*
G37*
G36*
X1308455Y5125872D02*
G01*
X1322984Y5125872D01*
X1337411Y5127701D01*
X1351534Y5131308D01*
X1365046Y5136692D01*
X1377797Y5143703D01*
X1389583Y5152237D01*
X1400200Y5162194D01*
X1409496Y5173421D01*
X1417269Y5185714D01*
X1423466Y5198872D01*
X1427988Y5212740D01*
X1430680Y5227015D01*
X1431594Y5241544D01*
X1430680Y5256072D01*
X1427988Y5270347D01*
X1423466Y5284216D01*
X1417269Y5297373D01*
X1409496Y5309666D01*
X1400200Y5320893D01*
X1389583Y5330850D01*
X1377797Y5339384D01*
X1365046Y5346395D01*
X1351534Y5351780D01*
X1337411Y5355386D01*
X1322984Y5357215D01*
X1308455Y5357215D01*
X1294028Y5355386D01*
X1279906Y5351780D01*
X1266393Y5346395D01*
X1253642Y5339384D01*
X1241856Y5330850D01*
X1231239Y5320893D01*
X1221943Y5309666D01*
X1214170Y5297373D01*
X1207973Y5284216D01*
X1203452Y5270347D01*
X1200759Y5256072D01*
X1199845Y5241544D01*
X1200759Y5227015D01*
X1203452Y5212740D01*
X1207973Y5198872D01*
X1214170Y5185714D01*
X1221943Y5173421D01*
X1231239Y5162194D01*
X1241856Y5152237D01*
X1253642Y5143703D01*
X1266393Y5136692D01*
X1279906Y5131308D01*
X1294028Y5127701D01*
G37*
G36*
X658215Y5125872D02*
G01*
X672744Y5125872D01*
X687171Y5127701D01*
X701294Y5131308D01*
X714806Y5136692D01*
X727557Y5143703D01*
X739343Y5152237D01*
X749960Y5162194D01*
X759256Y5173421D01*
X767029Y5185714D01*
X773226Y5198872D01*
X777748Y5212740D01*
X780440Y5227015D01*
X781354Y5241544D01*
X780440Y5256072D01*
X777748Y5270347D01*
X773226Y5284216D01*
X767029Y5297373D01*
X759256Y5309666D01*
X749960Y5320893D01*
X739343Y5330850D01*
X727557Y5339384D01*
X714806Y5346395D01*
X701294Y5351780D01*
X687171Y5355386D01*
X672744Y5357215D01*
X658215Y5357215D01*
X643788Y5355386D01*
X629666Y5351780D01*
X616153Y5346395D01*
X603402Y5339384D01*
X591616Y5330850D01*
X580999Y5320893D01*
X571703Y5309666D01*
X563930Y5297373D01*
X557733Y5284216D01*
X553212Y5270347D01*
X550519Y5256072D01*
X549605Y5241544D01*
X550519Y5227015D01*
X553212Y5212740D01*
X557733Y5198872D01*
X563930Y5185714D01*
X571703Y5173421D01*
X580999Y5162194D01*
X591616Y5152237D01*
X603402Y5143703D01*
X616153Y5136692D01*
X629666Y5131308D01*
X643788Y5127701D01*
G37*
G36*
X2499715Y5214772D02*
G01*
X2514244Y5214772D01*
X2528671Y5216601D01*
X2542794Y5220208D01*
X2556306Y5225592D01*
X2569057Y5232603D01*
X2580843Y5241137D01*
X2591460Y5251094D01*
X2600756Y5262321D01*
X2608529Y5274614D01*
X2614726Y5287772D01*
X2619248Y5301640D01*
X2621940Y5315915D01*
X2622854Y5330444D01*
X2621940Y5344972D01*
X2619248Y5359247D01*
X2614726Y5373116D01*
X2608529Y5386273D01*
X2600756Y5398566D01*
X2591460Y5409793D01*
X2580843Y5419750D01*
X2569057Y5428284D01*
X2556306Y5435295D01*
X2542794Y5440680D01*
X2528671Y5444286D01*
X2514244Y5446115D01*
X2499715Y5446115D01*
X2485288Y5444286D01*
X2471166Y5440680D01*
X2457653Y5435295D01*
X2444902Y5428284D01*
X2433116Y5419750D01*
X2422499Y5409793D01*
X2413203Y5398566D01*
X2405430Y5386273D01*
X2399233Y5373116D01*
X2394712Y5359247D01*
X2392019Y5344972D01*
X2391105Y5330444D01*
X2392019Y5315915D01*
X2394712Y5301640D01*
X2399233Y5287772D01*
X2405430Y5274614D01*
X2413203Y5262321D01*
X2422499Y5251094D01*
X2433116Y5241137D01*
X2444902Y5232603D01*
X2457653Y5225592D01*
X2471166Y5220208D01*
X2485288Y5216601D01*
G37*
G36*
X3149955Y5214772D02*
G01*
X3164484Y5214772D01*
X3178911Y5216601D01*
X3193034Y5220208D01*
X3206546Y5225592D01*
X3219297Y5232603D01*
X3231083Y5241137D01*
X3241700Y5251094D01*
X3250996Y5262321D01*
X3258769Y5274614D01*
X3264966Y5287772D01*
X3269488Y5301640D01*
X3272180Y5315915D01*
X3273094Y5330444D01*
X3272180Y5344972D01*
X3269488Y5359247D01*
X3264966Y5373116D01*
X3258769Y5386273D01*
X3250996Y5398566D01*
X3241700Y5409793D01*
X3231083Y5419750D01*
X3219297Y5428284D01*
X3206546Y5435295D01*
X3193034Y5440680D01*
X3178911Y5444286D01*
X3164484Y5446115D01*
X3149955Y5446115D01*
X3135528Y5444286D01*
X3121406Y5440680D01*
X3107893Y5435295D01*
X3095142Y5428284D01*
X3083356Y5419750D01*
X3072739Y5409793D01*
X3063443Y5398566D01*
X3055670Y5386273D01*
X3049473Y5373116D01*
X3044952Y5359247D01*
X3042259Y5344972D01*
X3041345Y5330444D01*
X3042259Y5315915D01*
X3044952Y5301640D01*
X3049473Y5287772D01*
X3055670Y5274614D01*
X3063443Y5262321D01*
X3072739Y5251094D01*
X3083356Y5241137D01*
X3095142Y5232603D01*
X3107893Y5225592D01*
X3121406Y5220208D01*
X3135528Y5216601D01*
G37*
G36*
X5766358Y5232958D02*
G01*
X5818733Y5232958D01*
X5812840Y5243677D01*
X5804306Y5255463D01*
X5794349Y5266080D01*
X5783122Y5275376D01*
X5770829Y5283149D01*
X5766358Y5285282D01*
G37*
G36*
X5611266Y5232958D02*
G01*
X5663641Y5232958D01*
X5663641Y5285282D01*
X5659170Y5283149D01*
X5646877Y5275376D01*
X5635650Y5266080D01*
X5625693Y5255463D01*
X5617159Y5243677D01*
G37*
G36*
X7239000Y5307025D02*
G01*
X7253528Y5307939D01*
X7267803Y5310632D01*
X7281672Y5315153D01*
X7294829Y5321350D01*
X7307122Y5329123D01*
X7318349Y5338419D01*
X7328306Y5349036D01*
X7336840Y5360822D01*
X7343851Y5373573D01*
X7349236Y5387086D01*
X7352842Y5401208D01*
X7354671Y5415635D01*
X7354671Y5430164D01*
X7352842Y5444591D01*
X7349236Y5458714D01*
X7343851Y5472226D01*
X7336840Y5484977D01*
X7328306Y5496763D01*
X7318349Y5507380D01*
X7307122Y5516676D01*
X7294829Y5524449D01*
X7281672Y5530646D01*
X7267803Y5535168D01*
X7253528Y5537860D01*
X7239000Y5538774D01*
X7224471Y5537860D01*
X7210196Y5535168D01*
X7196328Y5530646D01*
X7183170Y5524449D01*
X7170877Y5516676D01*
X7159650Y5507380D01*
X7149693Y5496763D01*
X7141159Y5484977D01*
X7134148Y5472226D01*
X7128764Y5458714D01*
X7125157Y5444591D01*
X7123328Y5430164D01*
X7123328Y5415635D01*
X7125157Y5401208D01*
X7128764Y5387086D01*
X7134148Y5373573D01*
X7141159Y5360822D01*
X7149693Y5349036D01*
X7159650Y5338419D01*
X7170877Y5329123D01*
X7183170Y5321350D01*
X7196328Y5315153D01*
X7210196Y5310632D01*
X7224471Y5307939D01*
G37*
G36*
X11161115Y5354472D02*
G01*
X11175644Y5354472D01*
X11190071Y5356301D01*
X11204194Y5359908D01*
X11217706Y5365292D01*
X11230457Y5372303D01*
X11242243Y5380837D01*
X11252860Y5390794D01*
X11262156Y5402021D01*
X11269929Y5414314D01*
X11276126Y5427472D01*
X11280648Y5441340D01*
X11283340Y5455615D01*
X11284254Y5470144D01*
X11283340Y5484672D01*
X11280648Y5498947D01*
X11276126Y5512816D01*
X11269929Y5525973D01*
X11262156Y5538266D01*
X11252860Y5549493D01*
X11242243Y5559450D01*
X11230457Y5567984D01*
X11217706Y5574995D01*
X11204194Y5580380D01*
X11190071Y5583986D01*
X11175644Y5585815D01*
X11161115Y5585815D01*
X11146688Y5583986D01*
X11132566Y5580380D01*
X11119053Y5574995D01*
X11106302Y5567984D01*
X11094516Y5559450D01*
X11083899Y5549493D01*
X11074603Y5538266D01*
X11066830Y5525973D01*
X11060633Y5512816D01*
X11056112Y5498947D01*
X11053419Y5484672D01*
X11052505Y5470144D01*
X11053419Y5455615D01*
X11056112Y5441340D01*
X11060633Y5427472D01*
X11066830Y5414314D01*
X11074603Y5402021D01*
X11083899Y5390794D01*
X11094516Y5380837D01*
X11106302Y5372303D01*
X11119053Y5365292D01*
X11132566Y5359908D01*
X11146688Y5356301D01*
G37*
G36*
X11811355Y5354472D02*
G01*
X11825884Y5354472D01*
X11840311Y5356301D01*
X11854434Y5359908D01*
X11867946Y5365292D01*
X11880697Y5372303D01*
X11892483Y5380837D01*
X11903100Y5390794D01*
X11912396Y5402021D01*
X11920169Y5414314D01*
X11926366Y5427472D01*
X11930888Y5441340D01*
X11933580Y5455615D01*
X11934494Y5470144D01*
X11933580Y5484672D01*
X11930888Y5498947D01*
X11926366Y5512816D01*
X11920169Y5525973D01*
X11912396Y5538266D01*
X11903100Y5549493D01*
X11892483Y5559450D01*
X11880697Y5567984D01*
X11867946Y5574995D01*
X11854434Y5580380D01*
X11840311Y5583986D01*
X11825884Y5585815D01*
X11811355Y5585815D01*
X11796928Y5583986D01*
X11782806Y5580380D01*
X11769293Y5574995D01*
X11756542Y5567984D01*
X11744756Y5559450D01*
X11734139Y5549493D01*
X11724843Y5538266D01*
X11717070Y5525973D01*
X11710873Y5512816D01*
X11706352Y5498947D01*
X11703659Y5484672D01*
X11702745Y5470144D01*
X11703659Y5455615D01*
X11706352Y5441340D01*
X11710873Y5427472D01*
X11717070Y5414314D01*
X11724843Y5402021D01*
X11734139Y5390794D01*
X11744756Y5380837D01*
X11756542Y5372303D01*
X11769293Y5365292D01*
X11782806Y5359908D01*
X11796928Y5356301D01*
G37*
G36*
X10020655Y5405272D02*
G01*
X10035184Y5405272D01*
X10049611Y5407101D01*
X10063734Y5410708D01*
X10077246Y5416092D01*
X10089997Y5423103D01*
X10101783Y5431637D01*
X10112400Y5441594D01*
X10121696Y5452821D01*
X10129469Y5465114D01*
X10135666Y5478272D01*
X10140188Y5492140D01*
X10142880Y5506415D01*
X10143794Y5520944D01*
X10142880Y5535472D01*
X10140188Y5549747D01*
X10135666Y5563616D01*
X10129469Y5576773D01*
X10121696Y5589066D01*
X10112400Y5600293D01*
X10101783Y5610250D01*
X10089997Y5618784D01*
X10077246Y5625795D01*
X10063734Y5631180D01*
X10049611Y5634786D01*
X10035184Y5636615D01*
X10020655Y5636615D01*
X10006228Y5634786D01*
X9992106Y5631180D01*
X9978593Y5625795D01*
X9965842Y5618784D01*
X9954056Y5610250D01*
X9943439Y5600293D01*
X9934143Y5589066D01*
X9926370Y5576773D01*
X9920173Y5563616D01*
X9915652Y5549747D01*
X9912959Y5535472D01*
X9912045Y5520944D01*
X9912959Y5506415D01*
X9915652Y5492140D01*
X9920173Y5478272D01*
X9926370Y5465114D01*
X9934143Y5452821D01*
X9943439Y5441594D01*
X9954056Y5431637D01*
X9965842Y5423103D01*
X9978593Y5416092D01*
X9992106Y5410708D01*
X10006228Y5407101D01*
G37*
G36*
X9370415Y5405272D02*
G01*
X9384944Y5405272D01*
X9399371Y5407101D01*
X9413494Y5410708D01*
X9427006Y5416092D01*
X9439757Y5423103D01*
X9451543Y5431637D01*
X9462160Y5441594D01*
X9471456Y5452821D01*
X9479229Y5465114D01*
X9485426Y5478272D01*
X9489948Y5492140D01*
X9492640Y5506415D01*
X9493554Y5520944D01*
X9492640Y5535472D01*
X9489948Y5549747D01*
X9485426Y5563616D01*
X9479229Y5576773D01*
X9471456Y5589066D01*
X9462160Y5600293D01*
X9451543Y5610250D01*
X9439757Y5618784D01*
X9427006Y5625795D01*
X9413494Y5631180D01*
X9399371Y5634786D01*
X9384944Y5636615D01*
X9370415Y5636615D01*
X9355988Y5634786D01*
X9341866Y5631180D01*
X9328353Y5625795D01*
X9315602Y5618784D01*
X9303816Y5610250D01*
X9293199Y5600293D01*
X9283903Y5589066D01*
X9276130Y5576773D01*
X9269933Y5563616D01*
X9265412Y5549747D01*
X9262719Y5535472D01*
X9261805Y5520944D01*
X9262719Y5506415D01*
X9265412Y5492140D01*
X9269933Y5478272D01*
X9276130Y5465114D01*
X9283903Y5452821D01*
X9293199Y5441594D01*
X9303816Y5431637D01*
X9315602Y5423103D01*
X9328353Y5416092D01*
X9341866Y5410708D01*
X9355988Y5407101D01*
G37*
G36*
X7290358Y5573217D02*
G01*
X7294829Y5575350D01*
X7307122Y5583123D01*
X7318349Y5592419D01*
X7328306Y5603036D01*
X7336840Y5614822D01*
X7342733Y5625541D01*
X7290358Y5625541D01*
G37*
G36*
X7187641Y5573217D02*
G01*
X7187641Y5625541D01*
X7135266Y5625541D01*
X7141159Y5614822D01*
X7149693Y5603036D01*
X7159650Y5592419D01*
X7170877Y5583123D01*
X7183170Y5575350D01*
G37*
G36*
X1572615Y5590184D02*
G01*
X1587144Y5590184D01*
X1601571Y5592013D01*
X1615694Y5595620D01*
X1629206Y5601004D01*
X1641957Y5608015D01*
X1653743Y5616549D01*
X1664360Y5626506D01*
X1673656Y5637733D01*
X1681429Y5650026D01*
X1687626Y5663184D01*
X1692148Y5677052D01*
X1694840Y5691327D01*
X1695754Y5705856D01*
X1694840Y5720384D01*
X1692148Y5734659D01*
X1687626Y5748528D01*
X1681429Y5761685D01*
X1673656Y5773978D01*
X1664360Y5785205D01*
X1653743Y5795162D01*
X1641957Y5803696D01*
X1629206Y5810707D01*
X1615694Y5816092D01*
X1601571Y5819698D01*
X1587144Y5821527D01*
X1572615Y5821527D01*
X1558188Y5819698D01*
X1544066Y5816092D01*
X1530553Y5810707D01*
X1517802Y5803696D01*
X1506016Y5795162D01*
X1495399Y5785205D01*
X1486103Y5773978D01*
X1478330Y5761685D01*
X1472133Y5748528D01*
X1467612Y5734659D01*
X1464919Y5720384D01*
X1464005Y5705856D01*
X1464919Y5691327D01*
X1467612Y5677052D01*
X1472133Y5663184D01*
X1478330Y5650026D01*
X1486103Y5637733D01*
X1495399Y5626506D01*
X1506016Y5616549D01*
X1517802Y5608015D01*
X1530553Y5601004D01*
X1544066Y5595620D01*
X1558188Y5592013D01*
G37*
G36*
X11011255Y5628284D02*
G01*
X11025784Y5628284D01*
X11040211Y5630113D01*
X11054334Y5633720D01*
X11067846Y5639104D01*
X11080597Y5646115D01*
X11092383Y5654649D01*
X11103000Y5664606D01*
X11112296Y5675833D01*
X11120069Y5688126D01*
X11126266Y5701284D01*
X11130788Y5715152D01*
X11133480Y5729427D01*
X11134394Y5743956D01*
X11133480Y5758484D01*
X11130788Y5772759D01*
X11126266Y5786628D01*
X11120069Y5799785D01*
X11112296Y5812078D01*
X11103000Y5823305D01*
X11092383Y5833262D01*
X11080597Y5841796D01*
X11067846Y5848807D01*
X11054334Y5854192D01*
X11040211Y5857798D01*
X11025784Y5859627D01*
X11011255Y5859627D01*
X10996828Y5857798D01*
X10982706Y5854192D01*
X10969193Y5848807D01*
X10956442Y5841796D01*
X10944656Y5833262D01*
X10934039Y5823305D01*
X10924743Y5812078D01*
X10916970Y5799785D01*
X10910773Y5786628D01*
X10906252Y5772759D01*
X10903559Y5758484D01*
X10902645Y5743956D01*
X10903559Y5729427D01*
X10906252Y5715152D01*
X10910773Y5701284D01*
X10916970Y5688126D01*
X10924743Y5675833D01*
X10934039Y5664606D01*
X10944656Y5654649D01*
X10956442Y5646115D01*
X10969193Y5639104D01*
X10982706Y5633720D01*
X10996828Y5630113D01*
G37*
G36*
X7290358Y5728258D02*
G01*
X7342733Y5728258D01*
X7336840Y5738977D01*
X7328306Y5750763D01*
X7318349Y5761380D01*
X7307122Y5770676D01*
X7294829Y5778449D01*
X7290358Y5780582D01*
G37*
G36*
X7135266Y5728258D02*
G01*
X7187641Y5728258D01*
X7187641Y5780582D01*
X7183170Y5778449D01*
X7170877Y5770676D01*
X7159650Y5761380D01*
X7149693Y5750763D01*
X7141159Y5738977D01*
G37*
G36*
X7239000Y5815025D02*
G01*
X7253528Y5815939D01*
X7267803Y5818632D01*
X7281672Y5823153D01*
X7294829Y5829350D01*
X7307122Y5837123D01*
X7318349Y5846419D01*
X7328306Y5857036D01*
X7336840Y5868822D01*
X7343851Y5881573D01*
X7349236Y5895086D01*
X7352842Y5909208D01*
X7354671Y5923635D01*
X7354671Y5938164D01*
X7352842Y5952591D01*
X7349236Y5966714D01*
X7343851Y5980226D01*
X7336840Y5992977D01*
X7328306Y6004763D01*
X7318349Y6015380D01*
X7307122Y6024676D01*
X7294829Y6032449D01*
X7281672Y6038646D01*
X7267803Y6043168D01*
X7253528Y6045860D01*
X7239000Y6046774D01*
X7224471Y6045860D01*
X7210196Y6043168D01*
X7196328Y6038646D01*
X7183170Y6032449D01*
X7170877Y6024676D01*
X7159650Y6015380D01*
X7149693Y6004763D01*
X7141159Y5992977D01*
X7134148Y5980226D01*
X7128764Y5966714D01*
X7125157Y5952591D01*
X7123328Y5938164D01*
X7123328Y5923635D01*
X7125157Y5909208D01*
X7128764Y5895086D01*
X7134148Y5881573D01*
X7141159Y5868822D01*
X7149693Y5857036D01*
X7159650Y5846419D01*
X7170877Y5837123D01*
X7183170Y5829350D01*
X7196328Y5823153D01*
X7210196Y5818632D01*
X7224471Y5815939D01*
G37*
G36*
X5715000Y5827725D02*
G01*
X5729528Y5828639D01*
X5743803Y5831332D01*
X5757672Y5835853D01*
X5770829Y5842050D01*
X5783122Y5849823D01*
X5794349Y5859119D01*
X5804306Y5869736D01*
X5812840Y5881522D01*
X5819851Y5894273D01*
X5825236Y5907786D01*
X5828842Y5921908D01*
X5830671Y5936335D01*
X5830671Y5950864D01*
X5828842Y5965291D01*
X5825236Y5979414D01*
X5819851Y5992926D01*
X5812840Y6005677D01*
X5804306Y6017463D01*
X5794349Y6028080D01*
X5783122Y6037376D01*
X5770829Y6045149D01*
X5757672Y6051346D01*
X5743803Y6055868D01*
X5729528Y6058560D01*
X5715000Y6059474D01*
X5700471Y6058560D01*
X5686196Y6055868D01*
X5672328Y6051346D01*
X5659170Y6045149D01*
X5646877Y6037376D01*
X5635650Y6028080D01*
X5625693Y6017463D01*
X5617159Y6005677D01*
X5610148Y5992926D01*
X5604764Y5979414D01*
X5601157Y5965291D01*
X5599328Y5950864D01*
X5599328Y5936335D01*
X5601157Y5921908D01*
X5604764Y5907786D01*
X5610148Y5894273D01*
X5617159Y5881522D01*
X5625693Y5869736D01*
X5635650Y5859119D01*
X5646877Y5849823D01*
X5659170Y5842050D01*
X5672328Y5835853D01*
X5686196Y5831332D01*
X5700471Y5828639D01*
G37*
G36*
X2222855Y6040272D02*
G01*
X2237384Y6040272D01*
X2251811Y6042101D01*
X2265934Y6045708D01*
X2279446Y6051092D01*
X2292197Y6058103D01*
X2303983Y6066637D01*
X2314600Y6076594D01*
X2323896Y6087821D01*
X2331669Y6100114D01*
X2337866Y6113272D01*
X2342388Y6127140D01*
X2345080Y6141415D01*
X2345994Y6155944D01*
X2345080Y6170472D01*
X2342388Y6184747D01*
X2337866Y6198616D01*
X2331669Y6211773D01*
X2323896Y6224066D01*
X2314600Y6235293D01*
X2303983Y6245250D01*
X2292197Y6253784D01*
X2279446Y6260795D01*
X2265934Y6266180D01*
X2251811Y6269786D01*
X2237384Y6271615D01*
X2222855Y6271615D01*
X2208428Y6269786D01*
X2194306Y6266180D01*
X2180793Y6260795D01*
X2168042Y6253784D01*
X2156256Y6245250D01*
X2145639Y6235293D01*
X2136343Y6224066D01*
X2128570Y6211773D01*
X2122373Y6198616D01*
X2117852Y6184747D01*
X2115159Y6170472D01*
X2114245Y6155944D01*
X2115159Y6141415D01*
X2117852Y6127140D01*
X2122373Y6113272D01*
X2128570Y6100114D01*
X2136343Y6087821D01*
X2145639Y6076594D01*
X2156256Y6066637D01*
X2168042Y6058103D01*
X2180793Y6051092D01*
X2194306Y6045708D01*
X2208428Y6042101D01*
G37*
G36*
X1572615Y6040272D02*
G01*
X1587144Y6040272D01*
X1601571Y6042101D01*
X1615694Y6045708D01*
X1629206Y6051092D01*
X1641957Y6058103D01*
X1653743Y6066637D01*
X1664360Y6076594D01*
X1673656Y6087821D01*
X1681429Y6100114D01*
X1687626Y6113272D01*
X1692148Y6127140D01*
X1694840Y6141415D01*
X1695754Y6155944D01*
X1694840Y6170472D01*
X1692148Y6184747D01*
X1687626Y6198616D01*
X1681429Y6211773D01*
X1673656Y6224066D01*
X1664360Y6235293D01*
X1653743Y6245250D01*
X1641957Y6253784D01*
X1629206Y6260795D01*
X1615694Y6266180D01*
X1601571Y6269786D01*
X1587144Y6271615D01*
X1572615Y6271615D01*
X1558188Y6269786D01*
X1544066Y6266180D01*
X1530553Y6260795D01*
X1517802Y6253784D01*
X1506016Y6245250D01*
X1495399Y6235293D01*
X1486103Y6224066D01*
X1478330Y6211773D01*
X1472133Y6198616D01*
X1467612Y6184747D01*
X1464919Y6170472D01*
X1464005Y6155944D01*
X1464919Y6141415D01*
X1467612Y6127140D01*
X1472133Y6113272D01*
X1478330Y6100114D01*
X1486103Y6087821D01*
X1495399Y6076594D01*
X1506016Y6066637D01*
X1517802Y6058103D01*
X1530553Y6051092D01*
X1544066Y6045708D01*
X1558188Y6042101D01*
G37*
G36*
X7239000Y6069025D02*
G01*
X7253528Y6069939D01*
X7267803Y6072632D01*
X7281672Y6077153D01*
X7294829Y6083350D01*
X7307122Y6091123D01*
X7318349Y6100419D01*
X7328306Y6111036D01*
X7336840Y6122822D01*
X7343851Y6135573D01*
X7349236Y6149086D01*
X7352842Y6163208D01*
X7354671Y6177635D01*
X7354671Y6192164D01*
X7352842Y6206591D01*
X7349236Y6220714D01*
X7343851Y6234226D01*
X7336840Y6246977D01*
X7328306Y6258763D01*
X7318349Y6269380D01*
X7307122Y6278676D01*
X7294829Y6286449D01*
X7281672Y6292646D01*
X7267803Y6297168D01*
X7253528Y6299860D01*
X7239000Y6300774D01*
X7224471Y6299860D01*
X7210196Y6297168D01*
X7196328Y6292646D01*
X7183170Y6286449D01*
X7170877Y6278676D01*
X7159650Y6269380D01*
X7149693Y6258763D01*
X7141159Y6246977D01*
X7134148Y6234226D01*
X7128764Y6220714D01*
X7125157Y6206591D01*
X7123328Y6192164D01*
X7123328Y6177635D01*
X7125157Y6163208D01*
X7128764Y6149086D01*
X7134148Y6135573D01*
X7141159Y6122822D01*
X7149693Y6111036D01*
X7159650Y6100419D01*
X7170877Y6091123D01*
X7183170Y6083350D01*
X7196328Y6077153D01*
X7210196Y6072632D01*
X7224471Y6069939D01*
G37*
G36*
X11011255Y6078372D02*
G01*
X11025784Y6078372D01*
X11040211Y6080201D01*
X11054334Y6083808D01*
X11067846Y6089192D01*
X11080597Y6096203D01*
X11092383Y6104737D01*
X11103000Y6114694D01*
X11112296Y6125921D01*
X11120069Y6138214D01*
X11126266Y6151372D01*
X11130788Y6165240D01*
X11133480Y6179515D01*
X11134394Y6194044D01*
X11133480Y6208572D01*
X11130788Y6222847D01*
X11126266Y6236716D01*
X11120069Y6249873D01*
X11112296Y6262166D01*
X11103000Y6273393D01*
X11092383Y6283350D01*
X11080597Y6291884D01*
X11067846Y6298895D01*
X11054334Y6304280D01*
X11040211Y6307886D01*
X11025784Y6309715D01*
X11011255Y6309715D01*
X10996828Y6307886D01*
X10982706Y6304280D01*
X10969193Y6298895D01*
X10956442Y6291884D01*
X10944656Y6283350D01*
X10934039Y6273393D01*
X10924743Y6262166D01*
X10916970Y6249873D01*
X10910773Y6236716D01*
X10906252Y6222847D01*
X10903559Y6208572D01*
X10902645Y6194044D01*
X10903559Y6179515D01*
X10906252Y6165240D01*
X10910773Y6151372D01*
X10916970Y6138214D01*
X10924743Y6125921D01*
X10934039Y6114694D01*
X10944656Y6104737D01*
X10956442Y6096203D01*
X10969193Y6089192D01*
X10982706Y6083808D01*
X10996828Y6080201D01*
G37*
G36*
X10361015Y6078372D02*
G01*
X10375544Y6078372D01*
X10389971Y6080201D01*
X10404094Y6083808D01*
X10417606Y6089192D01*
X10430357Y6096203D01*
X10442143Y6104737D01*
X10452760Y6114694D01*
X10462056Y6125921D01*
X10469829Y6138214D01*
X10476026Y6151372D01*
X10480548Y6165240D01*
X10483240Y6179515D01*
X10484154Y6194044D01*
X10483240Y6208572D01*
X10480548Y6222847D01*
X10476026Y6236716D01*
X10469829Y6249873D01*
X10462056Y6262166D01*
X10452760Y6273393D01*
X10442143Y6283350D01*
X10430357Y6291884D01*
X10417606Y6298895D01*
X10404094Y6304280D01*
X10389971Y6307886D01*
X10375544Y6309715D01*
X10361015Y6309715D01*
X10346588Y6307886D01*
X10332466Y6304280D01*
X10318953Y6298895D01*
X10306202Y6291884D01*
X10294416Y6283350D01*
X10283799Y6273393D01*
X10274503Y6262166D01*
X10266730Y6249873D01*
X10260533Y6236716D01*
X10256012Y6222847D01*
X10253319Y6208572D01*
X10252405Y6194044D01*
X10253319Y6179515D01*
X10256012Y6165240D01*
X10260533Y6151372D01*
X10266730Y6138214D01*
X10274503Y6125921D01*
X10283799Y6114694D01*
X10294416Y6104737D01*
X10306202Y6096203D01*
X10318953Y6089192D01*
X10332466Y6083808D01*
X10346588Y6080201D01*
G37*
G36*
X5715000Y6081725D02*
G01*
X5729528Y6082639D01*
X5743803Y6085332D01*
X5757672Y6089853D01*
X5770829Y6096050D01*
X5783122Y6103823D01*
X5794349Y6113119D01*
X5804306Y6123736D01*
X5812840Y6135522D01*
X5819851Y6148273D01*
X5825236Y6161786D01*
X5828842Y6175908D01*
X5830671Y6190335D01*
X5830671Y6204864D01*
X5828842Y6219291D01*
X5825236Y6233414D01*
X5819851Y6246926D01*
X5812840Y6259677D01*
X5804306Y6271463D01*
X5794349Y6282080D01*
X5783122Y6291376D01*
X5770829Y6299149D01*
X5757672Y6305346D01*
X5743803Y6309868D01*
X5729528Y6312560D01*
X5715000Y6313474D01*
X5700471Y6312560D01*
X5686196Y6309868D01*
X5672328Y6305346D01*
X5659170Y6299149D01*
X5646877Y6291376D01*
X5635650Y6282080D01*
X5625693Y6271463D01*
X5617159Y6259677D01*
X5610148Y6246926D01*
X5604764Y6233414D01*
X5601157Y6219291D01*
X5599328Y6204864D01*
X5599328Y6190335D01*
X5601157Y6175908D01*
X5604764Y6161786D01*
X5610148Y6148273D01*
X5617159Y6135522D01*
X5625693Y6123736D01*
X5635650Y6113119D01*
X5646877Y6103823D01*
X5659170Y6096050D01*
X5672328Y6089853D01*
X5686196Y6085332D01*
X5700471Y6082639D01*
G37*
G36*
X7239000Y6323025D02*
G01*
X7253528Y6323939D01*
X7267803Y6326632D01*
X7281672Y6331153D01*
X7294829Y6337350D01*
X7307122Y6345123D01*
X7318349Y6354419D01*
X7328306Y6365036D01*
X7336840Y6376822D01*
X7343851Y6389573D01*
X7349236Y6403086D01*
X7352842Y6417208D01*
X7354671Y6431635D01*
X7354671Y6446164D01*
X7352842Y6460591D01*
X7349236Y6474714D01*
X7343851Y6488226D01*
X7336840Y6500977D01*
X7328306Y6512763D01*
X7318349Y6523380D01*
X7307122Y6532676D01*
X7294829Y6540449D01*
X7281672Y6546646D01*
X7267803Y6551168D01*
X7253528Y6553860D01*
X7239000Y6554774D01*
X7224471Y6553860D01*
X7210196Y6551168D01*
X7196328Y6546646D01*
X7183170Y6540449D01*
X7170877Y6532676D01*
X7159650Y6523380D01*
X7149693Y6512763D01*
X7141159Y6500977D01*
X7134148Y6488226D01*
X7128764Y6474714D01*
X7125157Y6460591D01*
X7123328Y6446164D01*
X7123328Y6431635D01*
X7125157Y6417208D01*
X7128764Y6403086D01*
X7134148Y6389573D01*
X7141159Y6376822D01*
X7149693Y6365036D01*
X7159650Y6354419D01*
X7170877Y6345123D01*
X7183170Y6337350D01*
X7196328Y6331153D01*
X7210196Y6326632D01*
X7224471Y6323939D01*
G37*
G36*
X5715000Y6335725D02*
G01*
X5729528Y6336639D01*
X5743803Y6339332D01*
X5757672Y6343853D01*
X5770829Y6350050D01*
X5783122Y6357823D01*
X5794349Y6367119D01*
X5804306Y6377736D01*
X5812840Y6389522D01*
X5819851Y6402273D01*
X5825236Y6415786D01*
X5828842Y6429908D01*
X5830671Y6444335D01*
X5830671Y6458864D01*
X5828842Y6473291D01*
X5825236Y6487414D01*
X5819851Y6500926D01*
X5812840Y6513677D01*
X5804306Y6525463D01*
X5794349Y6536080D01*
X5783122Y6545376D01*
X5770829Y6553149D01*
X5757672Y6559346D01*
X5743803Y6563868D01*
X5729528Y6566560D01*
X5715000Y6567474D01*
X5700471Y6566560D01*
X5686196Y6563868D01*
X5672328Y6559346D01*
X5659170Y6553149D01*
X5646877Y6545376D01*
X5635650Y6536080D01*
X5625693Y6525463D01*
X5617159Y6513677D01*
X5610148Y6500926D01*
X5604764Y6487414D01*
X5601157Y6473291D01*
X5599328Y6458864D01*
X5599328Y6444335D01*
X5601157Y6429908D01*
X5604764Y6415786D01*
X5610148Y6402273D01*
X5617159Y6389522D01*
X5625693Y6377736D01*
X5635650Y6367119D01*
X5646877Y6357823D01*
X5659170Y6350050D01*
X5672328Y6343853D01*
X5686196Y6339332D01*
X5700471Y6336639D01*
G37*
G36*
X7239000Y6577025D02*
G01*
X7253528Y6577939D01*
X7267803Y6580631D01*
X7281672Y6585153D01*
X7294829Y6591350D01*
X7307122Y6599123D01*
X7318349Y6608419D01*
X7328306Y6619036D01*
X7336840Y6630822D01*
X7343851Y6643573D01*
X7349236Y6657086D01*
X7352842Y6671208D01*
X7354671Y6685635D01*
X7354671Y6700164D01*
X7352842Y6714591D01*
X7349236Y6728714D01*
X7343851Y6742226D01*
X7336840Y6754977D01*
X7328306Y6766763D01*
X7318349Y6777380D01*
X7307122Y6786676D01*
X7294829Y6794449D01*
X7281672Y6800646D01*
X7267803Y6805168D01*
X7253528Y6807860D01*
X7239000Y6808774D01*
X7224471Y6807860D01*
X7210196Y6805168D01*
X7196328Y6800646D01*
X7183170Y6794449D01*
X7170877Y6786676D01*
X7159650Y6777380D01*
X7149693Y6766763D01*
X7141159Y6754977D01*
X7134148Y6742226D01*
X7128764Y6728714D01*
X7125157Y6714591D01*
X7123328Y6700164D01*
X7123328Y6685635D01*
X7125157Y6671208D01*
X7128764Y6657086D01*
X7134148Y6643573D01*
X7141159Y6630822D01*
X7149693Y6619036D01*
X7159650Y6608419D01*
X7170877Y6599123D01*
X7183170Y6591350D01*
X7196328Y6585153D01*
X7210196Y6580631D01*
X7224471Y6577939D01*
G37*
G36*
X5715000Y6589725D02*
G01*
X5729528Y6590639D01*
X5743803Y6593331D01*
X5757672Y6597853D01*
X5770829Y6604050D01*
X5783122Y6611823D01*
X5794349Y6621119D01*
X5804306Y6631736D01*
X5812840Y6643522D01*
X5819851Y6656273D01*
X5825236Y6669786D01*
X5828842Y6683908D01*
X5830671Y6698335D01*
X5830671Y6712864D01*
X5828842Y6727291D01*
X5825236Y6741414D01*
X5819851Y6754926D01*
X5812840Y6767677D01*
X5804306Y6779463D01*
X5794349Y6790080D01*
X5783122Y6799376D01*
X5770829Y6807149D01*
X5757672Y6813346D01*
X5743803Y6817868D01*
X5729528Y6820560D01*
X5715000Y6821474D01*
X5700471Y6820560D01*
X5686196Y6817868D01*
X5672328Y6813346D01*
X5659170Y6807149D01*
X5646877Y6799376D01*
X5635650Y6790080D01*
X5625693Y6779463D01*
X5617159Y6767677D01*
X5610148Y6754926D01*
X5604764Y6741414D01*
X5601157Y6727291D01*
X5599328Y6712864D01*
X5599328Y6698335D01*
X5601157Y6683908D01*
X5604764Y6669786D01*
X5610148Y6656273D01*
X5617159Y6643522D01*
X5625693Y6631736D01*
X5635650Y6621119D01*
X5646877Y6611823D01*
X5659170Y6604050D01*
X5672328Y6597853D01*
X5686196Y6593331D01*
X5700471Y6590639D01*
G37*
G36*
X7239000Y6831025D02*
G01*
X7253528Y6831939D01*
X7267803Y6834631D01*
X7281672Y6839153D01*
X7294829Y6845350D01*
X7307122Y6853123D01*
X7318349Y6862419D01*
X7328306Y6873036D01*
X7336840Y6884822D01*
X7343851Y6897573D01*
X7349236Y6911086D01*
X7352842Y6925208D01*
X7354671Y6939635D01*
X7354671Y6954164D01*
X7352842Y6968591D01*
X7349236Y6982714D01*
X7343851Y6996226D01*
X7336840Y7008977D01*
X7328306Y7020763D01*
X7318349Y7031380D01*
X7307122Y7040676D01*
X7294829Y7048449D01*
X7281672Y7054646D01*
X7267803Y7059168D01*
X7253528Y7061860D01*
X7239000Y7062774D01*
X7224471Y7061860D01*
X7210196Y7059168D01*
X7196328Y7054646D01*
X7183170Y7048449D01*
X7170877Y7040676D01*
X7159650Y7031380D01*
X7149693Y7020763D01*
X7141159Y7008977D01*
X7134148Y6996226D01*
X7128764Y6982714D01*
X7125157Y6968591D01*
X7123328Y6954164D01*
X7123328Y6939635D01*
X7125157Y6925208D01*
X7128764Y6911086D01*
X7134148Y6897573D01*
X7141159Y6884822D01*
X7149693Y6873036D01*
X7159650Y6862419D01*
X7170877Y6853123D01*
X7183170Y6845350D01*
X7196328Y6839153D01*
X7210196Y6834631D01*
X7224471Y6831939D01*
G37*
G36*
X7239000Y7085025D02*
G01*
X7253528Y7085939D01*
X7267803Y7088631D01*
X7281672Y7093153D01*
X7294829Y7099350D01*
X7307122Y7107123D01*
X7318349Y7116419D01*
X7328306Y7127036D01*
X7336840Y7138822D01*
X7343851Y7151573D01*
X7349236Y7165086D01*
X7352842Y7179208D01*
X7354671Y7193635D01*
X7354671Y7208164D01*
X7352842Y7222591D01*
X7349236Y7236714D01*
X7343851Y7250226D01*
X7336840Y7262977D01*
X7328306Y7274763D01*
X7318349Y7285380D01*
X7307122Y7294676D01*
X7294829Y7302449D01*
X7281672Y7308646D01*
X7267803Y7313168D01*
X7253528Y7315860D01*
X7239000Y7316774D01*
X7224471Y7315860D01*
X7210196Y7313168D01*
X7196328Y7308646D01*
X7183170Y7302449D01*
X7170877Y7294676D01*
X7159650Y7285380D01*
X7149693Y7274763D01*
X7141159Y7262977D01*
X7134148Y7250226D01*
X7128764Y7236714D01*
X7125157Y7222591D01*
X7123328Y7208164D01*
X7123328Y7193635D01*
X7125157Y7179208D01*
X7128764Y7165086D01*
X7134148Y7151573D01*
X7141159Y7138822D01*
X7149693Y7127036D01*
X7159650Y7116419D01*
X7170877Y7107123D01*
X7183170Y7099350D01*
X7196328Y7093153D01*
X7210196Y7088631D01*
X7224471Y7085939D01*
G37*
G36*
X7239000Y7339025D02*
G01*
X7253528Y7339939D01*
X7267803Y7342631D01*
X7281672Y7347153D01*
X7294829Y7353350D01*
X7307122Y7361123D01*
X7318349Y7370419D01*
X7328306Y7381036D01*
X7336840Y7392822D01*
X7343851Y7405573D01*
X7349236Y7419086D01*
X7352842Y7433208D01*
X7354671Y7447635D01*
X7354671Y7462164D01*
X7352842Y7476591D01*
X7349236Y7490714D01*
X7343851Y7504226D01*
X7336840Y7516977D01*
X7328306Y7528763D01*
X7318349Y7539380D01*
X7307122Y7548676D01*
X7294829Y7556449D01*
X7281672Y7562646D01*
X7267803Y7567168D01*
X7253528Y7569860D01*
X7239000Y7570774D01*
X7224471Y7569860D01*
X7210196Y7567168D01*
X7196328Y7562646D01*
X7183170Y7556449D01*
X7170877Y7548676D01*
X7159650Y7539380D01*
X7149693Y7528763D01*
X7141159Y7516977D01*
X7134148Y7504226D01*
X7128764Y7490714D01*
X7125157Y7476591D01*
X7123328Y7462164D01*
X7123328Y7447635D01*
X7125157Y7433208D01*
X7128764Y7419086D01*
X7134148Y7405573D01*
X7141159Y7392822D01*
X7149693Y7381036D01*
X7159650Y7370419D01*
X7170877Y7361123D01*
X7183170Y7353350D01*
X7196328Y7347153D01*
X7210196Y7342631D01*
X7224471Y7339939D01*
G37*
G36*
X5933287Y7374128D02*
G01*
X5942838Y7375347D01*
X5952032Y7378192D01*
X5960567Y7382509D01*
X5968288Y7388199D01*
X5974943Y7395159D01*
X5980328Y7403084D01*
X5984290Y7411872D01*
X5986729Y7421168D01*
X5987542Y7430719D01*
X5986729Y7440269D01*
X5984290Y7449566D01*
X5980328Y7458354D01*
X5972556Y7469886D01*
X5971794Y7473645D01*
X5971794Y8462467D01*
X5972606Y8466328D01*
X5974791Y8469630D01*
X6148070Y8642908D01*
X6151372Y8645093D01*
X6155232Y8645906D01*
X8132267Y8645906D01*
X8136128Y8645093D01*
X8139430Y8642908D01*
X9013139Y7769250D01*
X9019692Y7763814D01*
X9026753Y7760055D01*
X9034424Y7757718D01*
X9042908Y7756906D01*
X9178188Y7756906D01*
X9181592Y7756296D01*
X9184640Y7754620D01*
X9186875Y7752029D01*
X9192666Y7742529D01*
X9200946Y7732369D01*
X9210497Y7723428D01*
X9221165Y7715859D01*
X9232798Y7709865D01*
X9245142Y7705496D01*
X9257944Y7702803D01*
X9271000Y7701940D01*
X9284055Y7702803D01*
X9296857Y7705496D01*
X9309201Y7709865D01*
X9320834Y7715859D01*
X9331502Y7723428D01*
X9341053Y7732369D01*
X9349333Y7742529D01*
X9356140Y7753705D01*
X9361373Y7765694D01*
X9364878Y7778292D01*
X9366656Y7791246D01*
X9366656Y7804353D01*
X9364878Y7817307D01*
X9361373Y7829905D01*
X9356140Y7841894D01*
X9349333Y7853070D01*
X9341053Y7863230D01*
X9331502Y7872171D01*
X9320834Y7879740D01*
X9309201Y7885734D01*
X9296857Y7890103D01*
X9284055Y7892796D01*
X9271000Y7893659D01*
X9257944Y7892796D01*
X9245142Y7890103D01*
X9232798Y7885734D01*
X9221165Y7879740D01*
X9210497Y7872171D01*
X9200946Y7863230D01*
X9192666Y7853070D01*
X9186875Y7843570D01*
X9184640Y7840980D01*
X9181592Y7839303D01*
X9178188Y7838694D01*
X9063532Y7838694D01*
X9059672Y7839456D01*
X9056370Y7841691D01*
X8182660Y8715349D01*
X8176107Y8720785D01*
X8169046Y8724544D01*
X8161375Y8726881D01*
X8152892Y8727694D01*
X6134608Y8727694D01*
X6126124Y8726881D01*
X6118453Y8724544D01*
X6111392Y8720785D01*
X6104839Y8715349D01*
X5902350Y8512860D01*
X5896914Y8506307D01*
X5893155Y8499246D01*
X5890818Y8491575D01*
X5890006Y8483092D01*
X5890006Y7473442D01*
X5889396Y7470089D01*
X5887720Y7467041D01*
X5884011Y7462418D01*
X5879287Y7454036D01*
X5876086Y7444994D01*
X5874461Y7435545D01*
X5874461Y7425893D01*
X5876086Y7416444D01*
X5879287Y7407402D01*
X5884011Y7399020D01*
X5890006Y7391552D01*
X5897219Y7385202D01*
X5905398Y7380173D01*
X5914339Y7376566D01*
X5923686Y7374534D01*
G37*
G36*
X2895600Y7447940D02*
G01*
X2908655Y7448803D01*
X2921457Y7451496D01*
X2933801Y7455865D01*
X2945434Y7461859D01*
X2956102Y7469428D01*
X2965653Y7478369D01*
X2973933Y7488529D01*
X2980740Y7499705D01*
X2985973Y7511694D01*
X2989478Y7524292D01*
X2991256Y7537246D01*
X2991256Y7550353D01*
X2989478Y7563307D01*
X2985973Y7575905D01*
X2980740Y7587894D01*
X2973933Y7599070D01*
X2965653Y7609230D01*
X2956102Y7618171D01*
X2945434Y7625740D01*
X2933801Y7631734D01*
X2921457Y7636103D01*
X2908655Y7638796D01*
X2895600Y7639659D01*
X2882544Y7638796D01*
X2869742Y7636103D01*
X2857398Y7631734D01*
X2845765Y7625740D01*
X2835097Y7618171D01*
X2825546Y7609230D01*
X2817266Y7599070D01*
X2810459Y7587894D01*
X2805277Y7575905D01*
X2801721Y7563307D01*
X2799943Y7550353D01*
X2799943Y7537246D01*
X2801721Y7524292D01*
X2805277Y7511694D01*
X2810459Y7499705D01*
X2817266Y7488529D01*
X2825546Y7478369D01*
X2835097Y7469428D01*
X2845765Y7461859D01*
X2857398Y7455865D01*
X2869742Y7451496D01*
X2882544Y7448803D01*
G37*
G36*
X10625582Y7506817D02*
G01*
X10640771Y7507731D01*
X10655706Y7510475D01*
X10670235Y7514996D01*
X10684103Y7521244D01*
X10697108Y7529118D01*
X10709046Y7538466D01*
X10719816Y7549235D01*
X10729163Y7561173D01*
X10737037Y7574178D01*
X10743285Y7588046D01*
X10747806Y7602575D01*
X10750550Y7617510D01*
X10751464Y7632700D01*
X10750550Y7647889D01*
X10747806Y7662824D01*
X10743285Y7677353D01*
X10737037Y7691221D01*
X10729163Y7704226D01*
X10719816Y7716164D01*
X10709046Y7726934D01*
X10697108Y7736281D01*
X10684103Y7744155D01*
X10670235Y7750403D01*
X10655706Y7754924D01*
X10640771Y7757668D01*
X10625582Y7758582D01*
X10610392Y7757668D01*
X10595457Y7754924D01*
X10580928Y7750403D01*
X10567060Y7744155D01*
X10554055Y7736281D01*
X10542117Y7726934D01*
X10531348Y7716164D01*
X10522000Y7704226D01*
X10514126Y7691221D01*
X10507878Y7677353D01*
X10503357Y7662824D01*
X10500614Y7647889D01*
X10499699Y7632700D01*
X10500614Y7617510D01*
X10503357Y7602575D01*
X10507878Y7588046D01*
X10514126Y7574178D01*
X10522000Y7561173D01*
X10531348Y7549235D01*
X10542117Y7538466D01*
X10554055Y7529118D01*
X10567060Y7521244D01*
X10580928Y7514996D01*
X10595457Y7510475D01*
X10610392Y7507731D01*
G37*
G36*
X11345418Y7506817D02*
G01*
X11360607Y7507731D01*
X11375542Y7510475D01*
X11390071Y7514996D01*
X11403939Y7521244D01*
X11416944Y7529118D01*
X11428882Y7538466D01*
X11439652Y7549235D01*
X11448999Y7561173D01*
X11456873Y7574178D01*
X11463121Y7588046D01*
X11467642Y7602575D01*
X11470386Y7617510D01*
X11471300Y7632700D01*
X11470386Y7647889D01*
X11467642Y7662824D01*
X11463121Y7677353D01*
X11456873Y7691221D01*
X11448999Y7704226D01*
X11439652Y7716164D01*
X11428882Y7726934D01*
X11416944Y7736281D01*
X11403939Y7744155D01*
X11390071Y7750403D01*
X11375542Y7754924D01*
X11360607Y7757668D01*
X11345418Y7758582D01*
X11330228Y7757668D01*
X11315293Y7754924D01*
X11300764Y7750403D01*
X11286896Y7744155D01*
X11273891Y7736281D01*
X11261953Y7726934D01*
X11251184Y7716164D01*
X11241836Y7704226D01*
X11233962Y7691221D01*
X11227714Y7677353D01*
X11223193Y7662824D01*
X11220450Y7647889D01*
X11219535Y7632700D01*
X11220450Y7617510D01*
X11223193Y7602575D01*
X11227714Y7588046D01*
X11233962Y7574178D01*
X11241836Y7561173D01*
X11251184Y7549235D01*
X11261953Y7538466D01*
X11273891Y7529118D01*
X11286896Y7521244D01*
X11300764Y7514996D01*
X11315293Y7510475D01*
X11330228Y7507731D01*
G37*
G36*
X1833118Y7532217D02*
G01*
X1848307Y7533131D01*
X1863242Y7535875D01*
X1877771Y7540396D01*
X1891639Y7546644D01*
X1904644Y7554518D01*
X1916582Y7563866D01*
X1927352Y7574635D01*
X1936699Y7586573D01*
X1944573Y7599578D01*
X1950821Y7613446D01*
X1955342Y7627975D01*
X1958086Y7642910D01*
X1959000Y7658100D01*
X1958086Y7673289D01*
X1955342Y7688224D01*
X1950821Y7702753D01*
X1944573Y7716621D01*
X1936699Y7729626D01*
X1927352Y7741564D01*
X1916582Y7752334D01*
X1904644Y7761681D01*
X1891639Y7769555D01*
X1877771Y7775803D01*
X1863242Y7780324D01*
X1848307Y7783068D01*
X1833118Y7783982D01*
X1817928Y7783068D01*
X1802993Y7780324D01*
X1788464Y7775803D01*
X1774596Y7769555D01*
X1761591Y7761681D01*
X1749653Y7752334D01*
X1738884Y7741564D01*
X1729536Y7729626D01*
X1721662Y7716621D01*
X1715414Y7702753D01*
X1710893Y7688224D01*
X1708150Y7673289D01*
X1707235Y7658100D01*
X1708150Y7642910D01*
X1710893Y7627975D01*
X1715414Y7613446D01*
X1721662Y7599578D01*
X1729536Y7586573D01*
X1738884Y7574635D01*
X1749653Y7563866D01*
X1761591Y7554518D01*
X1774596Y7546644D01*
X1788464Y7540396D01*
X1802993Y7535875D01*
X1817928Y7533131D01*
G37*
G36*
X1113282Y7532217D02*
G01*
X1128471Y7533131D01*
X1143406Y7535875D01*
X1157935Y7540396D01*
X1171803Y7546644D01*
X1184808Y7554518D01*
X1196746Y7563866D01*
X1207516Y7574635D01*
X1216863Y7586573D01*
X1224737Y7599578D01*
X1230985Y7613446D01*
X1235506Y7627975D01*
X1238250Y7642910D01*
X1239164Y7658100D01*
X1238250Y7673289D01*
X1235506Y7688224D01*
X1230985Y7702753D01*
X1224737Y7716621D01*
X1216863Y7729626D01*
X1207516Y7741564D01*
X1196746Y7752334D01*
X1184808Y7761681D01*
X1171803Y7769555D01*
X1157935Y7775803D01*
X1143406Y7780324D01*
X1128471Y7783068D01*
X1113282Y7783982D01*
X1098092Y7783068D01*
X1083157Y7780324D01*
X1068628Y7775803D01*
X1054760Y7769555D01*
X1041755Y7761681D01*
X1029817Y7752334D01*
X1019048Y7741564D01*
X1009700Y7729626D01*
X1001826Y7716621D01*
X995578Y7702753D01*
X991057Y7688224D01*
X988314Y7673289D01*
X987399Y7658100D01*
X988314Y7642910D01*
X991057Y7627975D01*
X995578Y7613446D01*
X1001826Y7599578D01*
X1009700Y7586573D01*
X1019048Y7574635D01*
X1029817Y7563866D01*
X1041755Y7554518D01*
X1054760Y7546644D01*
X1068628Y7540396D01*
X1083157Y7535875D01*
X1098092Y7533131D01*
G37*
G36*
X7239000Y7593025D02*
G01*
X7253528Y7593939D01*
X7267803Y7596631D01*
X7281672Y7601153D01*
X7294829Y7607350D01*
X7307122Y7615123D01*
X7318349Y7624419D01*
X7328306Y7635036D01*
X7336840Y7646822D01*
X7343851Y7659573D01*
X7349236Y7673086D01*
X7352842Y7687208D01*
X7354671Y7701635D01*
X7354671Y7716164D01*
X7352842Y7730591D01*
X7349236Y7744714D01*
X7343851Y7758226D01*
X7336840Y7770977D01*
X7328306Y7782763D01*
X7318349Y7793380D01*
X7307122Y7802676D01*
X7294829Y7810449D01*
X7281672Y7816646D01*
X7267803Y7821168D01*
X7253528Y7823860D01*
X7239000Y7824774D01*
X7224471Y7823860D01*
X7210196Y7821168D01*
X7196328Y7816646D01*
X7183170Y7810449D01*
X7170877Y7802676D01*
X7159650Y7793380D01*
X7149693Y7782763D01*
X7141159Y7770977D01*
X7134148Y7758226D01*
X7128764Y7744714D01*
X7125157Y7730591D01*
X7123328Y7716164D01*
X7123328Y7701635D01*
X7125157Y7687208D01*
X7128764Y7673086D01*
X7134148Y7659573D01*
X7141159Y7646822D01*
X7149693Y7635036D01*
X7159650Y7624419D01*
X7170877Y7615123D01*
X7183170Y7607350D01*
X7196328Y7601153D01*
X7210196Y7596631D01*
X7224471Y7593939D01*
G37*
G36*
X3149600Y7701940D02*
G01*
X3162655Y7702803D01*
X3175457Y7705496D01*
X3187801Y7709865D01*
X3199434Y7715859D01*
X3210102Y7723428D01*
X3219653Y7732369D01*
X3227933Y7742529D01*
X3234740Y7753705D01*
X3239973Y7765694D01*
X3243478Y7778292D01*
X3245256Y7791246D01*
X3245256Y7804353D01*
X3243478Y7817307D01*
X3239973Y7829905D01*
X3234740Y7841894D01*
X3227933Y7853070D01*
X3219653Y7863230D01*
X3210102Y7872171D01*
X3199434Y7879740D01*
X3187801Y7885734D01*
X3175457Y7890103D01*
X3162655Y7892796D01*
X3149600Y7893659D01*
X3136544Y7892796D01*
X3123742Y7890103D01*
X3111398Y7885734D01*
X3099765Y7879740D01*
X3089097Y7872171D01*
X3079546Y7863230D01*
X3071266Y7853070D01*
X3064459Y7841894D01*
X3059277Y7829905D01*
X3055721Y7817307D01*
X3053943Y7804353D01*
X3053943Y7791246D01*
X3055721Y7778292D01*
X3059277Y7765694D01*
X3064459Y7753705D01*
X3071266Y7742529D01*
X3079546Y7732369D01*
X3089097Y7723428D01*
X3099765Y7715859D01*
X3111398Y7709865D01*
X3123742Y7705496D01*
X3136544Y7702803D01*
G37*
G36*
X10753191Y7771028D02*
G01*
X10767720Y7771028D01*
X10782147Y7772857D01*
X10796270Y7776464D01*
X10809782Y7781848D01*
X10822533Y7788859D01*
X10834319Y7797393D01*
X10844936Y7807350D01*
X10854232Y7818577D01*
X10862005Y7830870D01*
X10868202Y7844028D01*
X10872724Y7857896D01*
X10875416Y7872171D01*
X10876330Y7886700D01*
X10875416Y7901228D01*
X10872724Y7915503D01*
X10868202Y7929372D01*
X10862005Y7942529D01*
X10854232Y7954822D01*
X10844936Y7966049D01*
X10834319Y7976006D01*
X10822533Y7984540D01*
X10809782Y7991551D01*
X10796270Y7996936D01*
X10782147Y8000542D01*
X10767720Y8002371D01*
X10753191Y8002371D01*
X10738764Y8000542D01*
X10724642Y7996936D01*
X10711129Y7991551D01*
X10698378Y7984540D01*
X10686592Y7976006D01*
X10675975Y7966049D01*
X10666679Y7954822D01*
X10658906Y7942529D01*
X10652709Y7929372D01*
X10648188Y7915503D01*
X10645495Y7901228D01*
X10644581Y7886700D01*
X10645495Y7872171D01*
X10648188Y7857896D01*
X10652709Y7844028D01*
X10658906Y7830870D01*
X10666679Y7818577D01*
X10675975Y7807350D01*
X10686592Y7797393D01*
X10698378Y7788859D01*
X10711129Y7781848D01*
X10724642Y7776464D01*
X10738764Y7772857D01*
G37*
G36*
X11203279Y7771028D02*
G01*
X11217808Y7771028D01*
X11232235Y7772857D01*
X11246358Y7776464D01*
X11259870Y7781848D01*
X11272621Y7788859D01*
X11284407Y7797393D01*
X11295024Y7807350D01*
X11304320Y7818577D01*
X11312093Y7830870D01*
X11318290Y7844028D01*
X11322812Y7857896D01*
X11325504Y7872171D01*
X11326418Y7886700D01*
X11325504Y7901228D01*
X11322812Y7915503D01*
X11318290Y7929372D01*
X11312093Y7942529D01*
X11304320Y7954822D01*
X11295024Y7966049D01*
X11284407Y7976006D01*
X11272621Y7984540D01*
X11259870Y7991551D01*
X11246358Y7996936D01*
X11232235Y8000542D01*
X11217808Y8002371D01*
X11203279Y8002371D01*
X11188852Y8000542D01*
X11174730Y7996936D01*
X11169091Y7994700D01*
X11165230Y7993989D01*
X11161420Y7994751D01*
X11158169Y7996936D01*
X10338104Y8817000D01*
X10331653Y8822283D01*
X10324592Y8826093D01*
X10316921Y8828430D01*
X10308488Y8829294D01*
X6032754Y8841638D01*
X6024270Y8840825D01*
X6016599Y8838539D01*
X6009538Y8834780D01*
X6002832Y8829294D01*
X5776010Y8602472D01*
X5772759Y8600287D01*
X5768848Y8599525D01*
X5625592Y8599525D01*
X5619242Y8598814D01*
X5613806Y8596884D01*
X5608878Y8593785D01*
X5604814Y8589721D01*
X5601716Y8584793D01*
X5599785Y8579358D01*
X5599074Y8573008D01*
X5599074Y8394192D01*
X5599785Y8387842D01*
X5601716Y8382406D01*
X5604814Y8377478D01*
X5608878Y8373414D01*
X5613806Y8370316D01*
X5619242Y8368385D01*
X5625592Y8367674D01*
X5804408Y8367674D01*
X5810758Y8368385D01*
X5816193Y8370316D01*
X5821121Y8373414D01*
X5825185Y8377478D01*
X5828284Y8382406D01*
X5830214Y8387842D01*
X5830925Y8394192D01*
X5830925Y8537448D01*
X5831687Y8541359D01*
X5833872Y8544610D01*
X6046063Y8756802D01*
X6049365Y8758986D01*
X6053277Y8759748D01*
X10287660Y8747556D01*
X10291521Y8746794D01*
X10294823Y8744559D01*
X11100155Y7939227D01*
X11102289Y7936179D01*
X11103152Y7932572D01*
X11102644Y7928914D01*
X11098276Y7915503D01*
X11095583Y7901228D01*
X11094669Y7886700D01*
X11095583Y7872171D01*
X11098276Y7857896D01*
X11102797Y7844028D01*
X11108994Y7830870D01*
X11116767Y7818577D01*
X11126063Y7807350D01*
X11136680Y7797393D01*
X11148466Y7788859D01*
X11161217Y7781848D01*
X11174730Y7776464D01*
X11188852Y7772857D01*
G37*
G36*
X1690979Y7796428D02*
G01*
X1705508Y7796428D01*
X1719935Y7798257D01*
X1734057Y7801864D01*
X1747570Y7807248D01*
X1760321Y7814259D01*
X1772107Y7822793D01*
X1782724Y7832750D01*
X1792020Y7843977D01*
X1799793Y7856270D01*
X1805990Y7869428D01*
X1810512Y7883296D01*
X1813204Y7897571D01*
X1814118Y7912100D01*
X1813204Y7926628D01*
X1810512Y7940903D01*
X1805990Y7954772D01*
X1799793Y7967929D01*
X1792020Y7980222D01*
X1782724Y7991449D01*
X1772107Y8001406D01*
X1760321Y8009940D01*
X1747570Y8016951D01*
X1734057Y8022336D01*
X1719935Y8025942D01*
X1705508Y8027771D01*
X1690979Y8027771D01*
X1676552Y8025942D01*
X1662430Y8022336D01*
X1648917Y8016951D01*
X1636166Y8009940D01*
X1624380Y8001406D01*
X1613763Y7991449D01*
X1604467Y7980222D01*
X1596694Y7967929D01*
X1590497Y7954772D01*
X1585976Y7940903D01*
X1583283Y7926628D01*
X1582369Y7912100D01*
X1583283Y7897571D01*
X1585976Y7883296D01*
X1590497Y7869428D01*
X1596694Y7856270D01*
X1604467Y7843977D01*
X1613763Y7832750D01*
X1624380Y7822793D01*
X1636166Y7814259D01*
X1648917Y7807248D01*
X1662430Y7801864D01*
X1676552Y7798257D01*
G37*
G36*
X1240891Y7796428D02*
G01*
X1255420Y7796428D01*
X1269847Y7798257D01*
X1283970Y7801864D01*
X1297482Y7807248D01*
X1310233Y7814259D01*
X1322019Y7822793D01*
X1332636Y7832750D01*
X1341932Y7843977D01*
X1349705Y7856270D01*
X1355902Y7869428D01*
X1360424Y7883296D01*
X1363116Y7897571D01*
X1364030Y7912100D01*
X1363116Y7926628D01*
X1360424Y7940903D01*
X1355902Y7954772D01*
X1349705Y7967929D01*
X1341932Y7980222D01*
X1332636Y7991449D01*
X1322019Y8001406D01*
X1310233Y8009940D01*
X1297482Y8016951D01*
X1283970Y8022336D01*
X1269847Y8025942D01*
X1255420Y8027771D01*
X1240891Y8027771D01*
X1226464Y8025942D01*
X1212342Y8022336D01*
X1198829Y8016951D01*
X1186078Y8009940D01*
X1174292Y8001406D01*
X1163675Y7991449D01*
X1154379Y7980222D01*
X1146606Y7967929D01*
X1140409Y7954772D01*
X1135888Y7940903D01*
X1133195Y7926628D01*
X1132281Y7912100D01*
X1133195Y7897571D01*
X1135888Y7883296D01*
X1140409Y7869428D01*
X1146606Y7856270D01*
X1154379Y7843977D01*
X1163675Y7832750D01*
X1174292Y7822793D01*
X1186078Y7814259D01*
X1198829Y7807248D01*
X1212342Y7801864D01*
X1226464Y7798257D01*
G37*
G36*
X7239000Y7847025D02*
G01*
X7253528Y7847939D01*
X7267803Y7850631D01*
X7281672Y7855153D01*
X7294829Y7861350D01*
X7307122Y7869123D01*
X7318349Y7878419D01*
X7328306Y7889036D01*
X7336840Y7900822D01*
X7343851Y7913573D01*
X7349236Y7927086D01*
X7352842Y7941208D01*
X7354671Y7955635D01*
X7354671Y7970164D01*
X7352842Y7984591D01*
X7349236Y7998714D01*
X7343851Y8012226D01*
X7336840Y8024977D01*
X7328306Y8036763D01*
X7318349Y8047380D01*
X7307122Y8056676D01*
X7294829Y8064449D01*
X7281672Y8070646D01*
X7267803Y8075168D01*
X7253528Y8077860D01*
X7239000Y8078774D01*
X7224471Y8077860D01*
X7210196Y8075168D01*
X7196328Y8070646D01*
X7183170Y8064449D01*
X7170877Y8056676D01*
X7159650Y8047380D01*
X7149693Y8036763D01*
X7141159Y8024977D01*
X7134148Y8012226D01*
X7128764Y7998714D01*
X7125157Y7984591D01*
X7123328Y7970164D01*
X7123328Y7955635D01*
X7125157Y7941208D01*
X7128764Y7927086D01*
X7134148Y7913573D01*
X7141159Y7900822D01*
X7149693Y7889036D01*
X7159650Y7878419D01*
X7170877Y7869123D01*
X7183170Y7861350D01*
X7196328Y7855153D01*
X7210196Y7850631D01*
X7224471Y7847939D01*
G37*
G36*
X5715000Y7859725D02*
G01*
X5729528Y7860639D01*
X5743803Y7863331D01*
X5757672Y7867853D01*
X5770829Y7874050D01*
X5783122Y7881823D01*
X5794349Y7891119D01*
X5804306Y7901736D01*
X5812840Y7913522D01*
X5819851Y7926273D01*
X5825236Y7939786D01*
X5828842Y7953908D01*
X5830671Y7968335D01*
X5830671Y7982864D01*
X5828842Y7997291D01*
X5825236Y8011414D01*
X5819851Y8024926D01*
X5812840Y8037677D01*
X5804306Y8049463D01*
X5794349Y8060080D01*
X5783122Y8069376D01*
X5770829Y8077149D01*
X5757672Y8083346D01*
X5743803Y8087868D01*
X5729528Y8090560D01*
X5715000Y8091474D01*
X5700471Y8090560D01*
X5686196Y8087868D01*
X5672328Y8083346D01*
X5659170Y8077149D01*
X5646877Y8069376D01*
X5635650Y8060080D01*
X5625693Y8049463D01*
X5617159Y8037677D01*
X5610148Y8024926D01*
X5604764Y8011414D01*
X5601157Y7997291D01*
X5599328Y7982864D01*
X5599328Y7968335D01*
X5601157Y7953908D01*
X5604764Y7939786D01*
X5610148Y7926273D01*
X5617159Y7913522D01*
X5625693Y7901736D01*
X5635650Y7891119D01*
X5646877Y7881823D01*
X5659170Y7874050D01*
X5672328Y7867853D01*
X5686196Y7863331D01*
X5700471Y7860639D01*
G37*
G36*
X2936951Y7965490D02*
G01*
X2945434Y7969859D01*
X2956102Y7977428D01*
X2965653Y7986369D01*
X2973933Y7996529D01*
X2980740Y8007705D01*
X2981909Y8010448D01*
X2936951Y8010448D01*
G37*
G36*
X9058351Y7965490D02*
G01*
X9066834Y7969859D01*
X9077502Y7977428D01*
X9087053Y7986369D01*
X9095333Y7996529D01*
X9102140Y8007705D01*
X9103309Y8010448D01*
X9058351Y8010448D01*
G37*
G36*
X8975648Y7965490D02*
G01*
X8975648Y8010448D01*
X8930690Y8010448D01*
X8931859Y8007705D01*
X8938666Y7996529D01*
X8946946Y7986369D01*
X8956497Y7977428D01*
X8967165Y7969859D01*
G37*
G36*
X2854248Y7965490D02*
G01*
X2854248Y8010448D01*
X2809290Y8010448D01*
X2810459Y8007705D01*
X2817266Y7996529D01*
X2825546Y7986369D01*
X2835097Y7977428D01*
X2845765Y7969859D01*
G37*
G36*
X8930690Y8093151D02*
G01*
X8975648Y8093151D01*
X8975648Y8138109D01*
X8967165Y8133740D01*
X8956497Y8126171D01*
X8946946Y8117230D01*
X8938666Y8107070D01*
X8931859Y8095894D01*
G37*
G36*
X2809290Y8093151D02*
G01*
X2854248Y8093151D01*
X2854248Y8138109D01*
X2845765Y8133740D01*
X2835097Y8126171D01*
X2825546Y8117230D01*
X2817266Y8107070D01*
X2810459Y8095894D01*
G37*
G36*
X9058351Y8093151D02*
G01*
X9103309Y8093151D01*
X9102140Y8095894D01*
X9095333Y8107070D01*
X9087053Y8117230D01*
X9077502Y8126171D01*
X9066834Y8133740D01*
X9058351Y8138109D01*
G37*
G36*
X2936951Y8093151D02*
G01*
X2981909Y8093151D01*
X2980740Y8095894D01*
X2973933Y8107070D01*
X2965653Y8117230D01*
X2956102Y8126171D01*
X2945434Y8133740D01*
X2936951Y8138109D01*
G37*
G36*
X7239000Y8101025D02*
G01*
X7253528Y8101939D01*
X7267803Y8104631D01*
X7281672Y8109153D01*
X7294829Y8115350D01*
X7307122Y8123123D01*
X7318349Y8132419D01*
X7328306Y8143036D01*
X7336840Y8154822D01*
X7343851Y8167573D01*
X7349236Y8181086D01*
X7352842Y8195208D01*
X7354671Y8209635D01*
X7354671Y8224164D01*
X7352842Y8238591D01*
X7349236Y8252714D01*
X7343851Y8266226D01*
X7336840Y8278977D01*
X7328306Y8290763D01*
X7318349Y8301380D01*
X7307122Y8310676D01*
X7294829Y8318449D01*
X7281672Y8324646D01*
X7267803Y8329168D01*
X7253528Y8331860D01*
X7239000Y8332774D01*
X7224471Y8331860D01*
X7210196Y8329168D01*
X7196328Y8324646D01*
X7183170Y8318449D01*
X7170877Y8310676D01*
X7159650Y8301380D01*
X7149693Y8290763D01*
X7141159Y8278977D01*
X7134148Y8266226D01*
X7128764Y8252714D01*
X7125157Y8238591D01*
X7123328Y8224164D01*
X7123328Y8209635D01*
X7125157Y8195208D01*
X7128764Y8181086D01*
X7134148Y8167573D01*
X7141159Y8154822D01*
X7149693Y8143036D01*
X7159650Y8132419D01*
X7170877Y8123123D01*
X7183170Y8115350D01*
X7196328Y8109153D01*
X7210196Y8104631D01*
X7224471Y8101939D01*
G37*
G36*
X5715000Y8113725D02*
G01*
X5729528Y8114639D01*
X5743803Y8117331D01*
X5757672Y8121853D01*
X5770829Y8128050D01*
X5783122Y8135823D01*
X5794349Y8145119D01*
X5804306Y8155736D01*
X5812840Y8167522D01*
X5819851Y8180273D01*
X5825236Y8193786D01*
X5828842Y8207908D01*
X5830671Y8222335D01*
X5830671Y8236864D01*
X5828842Y8251291D01*
X5825236Y8265414D01*
X5819851Y8278926D01*
X5812840Y8291677D01*
X5804306Y8303463D01*
X5794349Y8314080D01*
X5783122Y8323376D01*
X5770829Y8331149D01*
X5757672Y8337346D01*
X5743803Y8341868D01*
X5729528Y8344560D01*
X5715000Y8345474D01*
X5700471Y8344560D01*
X5686196Y8341868D01*
X5672328Y8337346D01*
X5659170Y8331149D01*
X5646877Y8323376D01*
X5635650Y8314080D01*
X5625693Y8303463D01*
X5617159Y8291677D01*
X5610148Y8278926D01*
X5604764Y8265414D01*
X5601157Y8251291D01*
X5599328Y8236864D01*
X5599328Y8222335D01*
X5601157Y8207908D01*
X5604764Y8193786D01*
X5610148Y8180273D01*
X5617159Y8167522D01*
X5625693Y8155736D01*
X5635650Y8145119D01*
X5646877Y8135823D01*
X5659170Y8128050D01*
X5672328Y8121853D01*
X5686196Y8117331D01*
X5700471Y8114639D01*
G37*
G36*
X7149592Y8354974D02*
G01*
X7328408Y8354974D01*
X7334758Y8355685D01*
X7340193Y8357616D01*
X7345121Y8360714D01*
X7349185Y8364778D01*
X7352284Y8369706D01*
X7354214Y8375142D01*
X7354925Y8381492D01*
X7354925Y8560308D01*
X7354214Y8566658D01*
X7352284Y8572093D01*
X7349185Y8577021D01*
X7345121Y8581085D01*
X7340193Y8584184D01*
X7334758Y8586114D01*
X7328408Y8586825D01*
X7149592Y8586825D01*
X7143242Y8586114D01*
X7137806Y8584184D01*
X7132878Y8581085D01*
X7128814Y8577021D01*
X7125716Y8572093D01*
X7123785Y8566658D01*
X7123074Y8560308D01*
X7123074Y8381492D01*
X7123785Y8375142D01*
X7125716Y8369706D01*
X7128814Y8364778D01*
X7132878Y8360714D01*
X7137806Y8357616D01*
X7143242Y8355685D01*
G37*

%LPD*%
D10*
X6756654Y4686554D02*
G01*
X6565900Y4495800D01*
X6565900Y1421892D01*
X6337808Y1193800D01*
X4470400Y1193800D01*
X5715000Y7721600D02*
G01*
X3352800Y5359400D01*
X3352800Y3759200D01*
X2876956Y3283356D01*
X2876956Y2932277D01*
X10368279Y5743955D02*
G01*
X10368279Y5212079D01*
X9766300Y4610100D01*
X11210543Y7886700D02*
G01*
X10308843Y8788400D01*
X6032139Y8800739D01*
X5715000Y8483600D01*
X2230114Y5705853D02*
G01*
X2230114Y4716785D01*
X2768600Y4178300D01*
X2768600Y3746500D01*
X5715000Y7467600D02*
G01*
X3606800Y5359400D01*
X3606800Y3632200D01*
X2997200Y3022600D01*
X2997200Y2578100D01*
X3516122Y2059178D01*
X3750056Y2059178D01*
X5715000Y6959600D02*
G01*
X6946900Y5727700D01*
X6946900Y3289300D01*
X7988300Y2247900D01*
X10629900Y2247900D01*
X10836541Y2059292D01*
X5715000Y7213600D02*
G01*
X7035800Y5892800D01*
X7035800Y3454400D01*
X7327900Y3162300D01*
X9715500Y3162300D01*
X9944100Y2933700D01*
X5715000Y5689600D02*
G01*
X6591300Y5689600D01*
X6845300Y5435600D01*
X6845300Y3289300D01*
X7162800Y2971800D01*
X5715000Y5689600D02*
G01*
X5715000Y5626100D01*
X3130956Y3042056D01*
X3130956Y2932277D01*
X5930900Y7430734D02*
G01*
X5930900Y8483600D01*
X6134100Y8686800D01*
X8153400Y8686800D01*
X9042400Y7797800D01*
X9271000Y7797800D01*
X9017000Y7543800D02*
G01*
X9017000Y3365500D01*
D14*
G01*
X3749954Y1803196D03*
G01*
X3749954Y2057196D03*
G01*
X3749954Y2311196D03*
G01*
X3130956Y2930194D03*
G01*
X2876956Y2930194D03*
G01*
X2622956Y2930194D03*
D15*
G01*
X2244470Y2557195D03*
G01*
X2244470Y1557197D03*
G01*
X3509467Y1557197D03*
G01*
X3509467Y2557195D03*
D16*
G01*
X2550007Y1482191D03*
G01*
X3200018Y1482191D03*
G01*
X2550007Y1032205D03*
G01*
X3200018Y1032205D03*
D14*
G01*
X10836554Y1828596D03*
G01*
X10836554Y2082596D03*
G01*
X10836554Y2336596D03*
G01*
X10217556Y2955594D03*
G01*
X9963556Y2955594D03*
G01*
X9709556Y2955594D03*
D15*
G01*
X9331070Y2582595D03*
G01*
X9331070Y1582597D03*
G01*
X10596067Y1582597D03*
G01*
X10596067Y2582595D03*
D16*
G01*
X9636607Y1507591D03*
G01*
X10286618Y1507591D03*
G01*
X9636607Y1057605D03*
G01*
X10286618Y1057605D03*
D17*
G01*
X2895600Y7543800D03*
G01*
X3149600Y7797800D03*
G01*
X2895600Y8051800D03*
G01*
X9017000Y7543800D03*
G01*
X9271000Y7797800D03*
G01*
X9017000Y8051800D03*
D14*
G01*
X1698243Y7912100D03*
G01*
X1248156Y7912100D03*
D18*
G01*
X1113281Y7658100D03*
G01*
X1833118Y7658100D03*
D19*
G01*
X5715000Y8483600D03*
D14*
G01*
X5715000Y8229600D03*
G01*
X5715000Y7975600D03*
G01*
X5715000Y7721600D03*
G01*
X5715000Y7467600D03*
G01*
X5715000Y7213600D03*
G01*
X5715000Y6959600D03*
G01*
X5715000Y6705600D03*
G01*
X5715000Y6451600D03*
G01*
X5715000Y6197600D03*
G01*
X5715000Y5943600D03*
G01*
X5715000Y5689600D03*
G01*
X5715000Y5435600D03*
G01*
X5715000Y5181600D03*
G01*
X5715000Y4927600D03*
G01*
X5715000Y4673600D03*
G01*
X5715000Y4419600D03*
G01*
X5715000Y4165600D03*
G01*
X5715000Y3911600D03*
G01*
X5715000Y3657600D03*
D19*
G01*
X7239000Y8470900D03*
D14*
G01*
X7239000Y8216900D03*
G01*
X7239000Y7962900D03*
G01*
X7239000Y7708900D03*
G01*
X7239000Y7454900D03*
G01*
X7239000Y7200900D03*
G01*
X7239000Y6946900D03*
G01*
X7239000Y6692900D03*
G01*
X7239000Y6438900D03*
G01*
X7239000Y6184900D03*
G01*
X7239000Y5930900D03*
G01*
X7239000Y5676900D03*
G01*
X7239000Y5422900D03*
G01*
X7239000Y5168900D03*
G01*
X7239000Y4914900D03*
G01*
X7239000Y4660900D03*
G01*
X7239000Y4406900D03*
G01*
X7239000Y4152900D03*
G01*
X7239000Y3898900D03*
G01*
X7239000Y3644900D03*
G01*
X11210543Y7886700D03*
G01*
X10760456Y7886700D03*
D18*
G01*
X10625581Y7632700D03*
G01*
X11345418Y7632700D03*
D14*
G01*
X11818620Y5020055D03*
G01*
X11818620Y5470144D03*
G01*
X11168379Y5020055D03*
G01*
X11168379Y5470144D03*
G01*
X10955020Y4321555D03*
G01*
X10955020Y4771644D03*
G01*
X10304779Y4321555D03*
G01*
X10304779Y4771644D03*
G01*
X2242820Y4080255D03*
G01*
X2242820Y4530344D03*
G01*
X1592579Y4080255D03*
G01*
X1592579Y4530344D03*
G01*
X1315720Y4791455D03*
G01*
X1315720Y5241544D03*
G01*
X665479Y4791455D03*
G01*
X665479Y5241544D03*
G01*
X3157220Y4880355D03*
G01*
X3157220Y5330444D03*
G01*
X2506979Y4880355D03*
G01*
X2506979Y5330444D03*
G01*
X2230120Y5705855D03*
G01*
X2230120Y6155944D03*
G01*
X1579879Y5705855D03*
G01*
X1579879Y6155944D03*
G01*
X11018520Y5743955D03*
G01*
X11018520Y6194044D03*
G01*
X10368279Y5743955D03*
G01*
X10368279Y6194044D03*
G01*
X10027920Y5070855D03*
G01*
X10027920Y5520944D03*
G01*
X9377679Y5070855D03*
G01*
X9377679Y5520944D03*
D11*
G01*
X2603500Y5511800D03*
G01*
X1689100Y4762500D03*
G01*
X787400Y5461000D03*
G01*
X1727200Y6388100D03*
G01*
X1854200Y7137400D03*
G01*
X10909300Y6997700D03*
G01*
X10871200Y6426200D03*
G01*
X11671300Y5740400D03*
G01*
X9880600Y5765800D03*
G01*
X10807700Y4978400D03*
G01*
X7251700Y1778000D03*
G01*
X5740400Y1790700D03*
G01*
X9766300Y4610100D03*
G01*
X6756603Y4686503D03*
G01*
X5930900Y7430719D03*
G01*
X2768600Y3746500D03*
G01*
X9017000Y3365500D03*
G01*
X4470400Y1193800D03*
G01*
X7162800Y2971800D03*
M02*
