G04 Layer: TopLayer*
G04 EasyEDA v6.5.5, 2022-06-26 01:00:07*
G04 2c515557f0e44504be437badec322791,a4ea12fd96744f7d9b8618c9b4952ea7,10*
G04 Gerber Generator version 0.2*
G04 Scale: 100 percent, Rotated: No, Reflected: No *
G04 Dimensions in millimeters *
G04 leading zeros omitted , absolute positions ,4 integer and 5 decimal *
%FSLAX45Y45*%
%MOMM*%

%ADD10C,0.3000*%
%ADD11C,0.6150*%
%ADD13R,1.7400X1.4000*%
%ADD14C,1.8000*%
%ADD15C,2.5000*%
%ADD16C,2.2000*%
%ADD17C,1.4000*%
%ADD18C,2.0000*%
%ADD19R,1.8000X1.8000*%

%LPD*%
D10*
X10997438Y1219200D02*
G01*
X11479784Y1219200D01*
X11823191Y1562607D01*
X11823191Y3133597D01*
X11502390Y3454400D01*
X9728200Y3454400D01*
X8267700Y4914900D01*
X7239000Y4914900D01*
X10286603Y1507596D02*
G01*
X10575000Y1219200D01*
X10846663Y1219200D01*
X4152031Y1193800D02*
G01*
X4470400Y1193800D01*
X3200003Y1482196D02*
G01*
X3488400Y1193800D01*
X4001363Y1193800D01*
X3149600Y7797800D02*
G01*
X3228086Y7797800D01*
X4320286Y6705600D01*
X5715000Y6705600D01*
X7415504Y2413000D02*
G01*
X7403236Y2400731D01*
X7403236Y1943100D01*
X5891509Y2476500D02*
G01*
X5891936Y2476073D01*
X5891936Y1968500D01*
X2515463Y5689600D02*
G01*
X2515463Y5338925D01*
X2506985Y5330446D01*
X1588363Y4927600D02*
G01*
X1588363Y4534560D01*
X1592579Y4530344D01*
X673963Y5689600D02*
G01*
X673963Y5250027D01*
X665479Y5241544D01*
X1575663Y6565900D02*
G01*
X1575663Y6160160D01*
X1579879Y6155944D01*
X11022736Y6565900D02*
G01*
X11022736Y6198260D01*
X11018520Y6194044D01*
X10032136Y5956300D02*
G01*
X10032136Y5525168D01*
X10027914Y5520946D01*
X10959236Y5130800D02*
G01*
X10959236Y4775860D01*
X10955020Y4771644D01*
X11822836Y5867400D02*
G01*
X11822836Y5474360D01*
X11818620Y5470144D01*
X10760456Y7886700D02*
G01*
X10757763Y7884007D01*
X10757763Y7137400D01*
X1698241Y7912100D02*
G01*
X1698241Y7281522D01*
X1702663Y7277100D01*
X2666131Y5689600D02*
G01*
X2603500Y5626968D01*
X2603500Y5511800D01*
X1739036Y4927600D02*
G01*
X1689100Y4877663D01*
X1689100Y4762500D01*
X824636Y5689600D02*
G01*
X787400Y5652363D01*
X787400Y5461000D01*
X1727200Y6527800D02*
G01*
X1727200Y6388100D01*
X1853438Y7277100D02*
G01*
X1854200Y7137400D01*
X10908431Y7137400D02*
G01*
X10909300Y7136531D01*
X10909300Y6997700D01*
X10871961Y6565900D02*
G01*
X10871200Y6426200D01*
X11672168Y5867400D02*
G01*
X11671300Y5866531D01*
X11671300Y5740400D01*
X9881468Y5956300D02*
G01*
X9880600Y5955431D01*
X9880600Y5765800D01*
X10808461Y5130800D02*
G01*
X10807700Y4978400D01*
X7252568Y1943100D02*
G01*
X7251700Y1942231D01*
X7251700Y1778000D01*
X5741161Y1968500D02*
G01*
X5740400Y1790700D01*
X1248156Y7912100D02*
G01*
X2111756Y8775700D01*
X6908800Y8775700D01*
X7213600Y8470900D01*
X7239000Y8470900D01*
X9377679Y5070855D02*
G01*
X7924800Y6523736D01*
X7924800Y7353300D01*
X7569200Y7708900D01*
X7239000Y7708900D01*
X10304779Y4321555D02*
G01*
X8115300Y6511036D01*
X8115300Y7607300D01*
X7759700Y7962900D01*
X7239000Y7962900D01*
X11168379Y5020055D02*
G01*
X11168379Y5214620D01*
X8166100Y8216900D01*
X7239000Y8216900D01*
X7239000Y7200900D02*
G01*
X6057900Y6019800D01*
X6057900Y3517900D01*
X5854700Y3314700D01*
X4722875Y3314700D01*
X3157220Y4880355D01*
X7239000Y6946900D02*
G01*
X6159500Y5867400D01*
X6159500Y3378200D01*
X5981700Y3200400D01*
X4711700Y3200400D01*
X3831843Y4080255D01*
X2242820Y4080255D01*
X7239000Y6692900D02*
G01*
X6257185Y5711085D01*
X6257185Y3310785D01*
X6032500Y3086100D01*
X4648200Y3086100D01*
X3873500Y3860800D01*
X1511300Y3860800D01*
X1435100Y3937000D01*
X1315720Y4043679D01*
X1315720Y4791455D01*
X7239000Y6184900D02*
G01*
X6489700Y5435600D01*
X6489700Y3263900D01*
X6057900Y2832100D01*
X5295900Y2832100D01*
X5157495Y2693695D01*
X5157495Y2476500D01*
X7239000Y5930900D02*
G01*
X6681495Y5373395D01*
X6681495Y2413000D01*
X7239000Y5168900D02*
G01*
X6756610Y4686510D01*
X5715000Y6451600D02*
G01*
X5930900Y6667500D01*
X5930900Y7430731D01*
X7239000Y6438900D02*
G01*
X6400800Y5600700D01*
X6400800Y3327400D01*
X6007100Y2933700D01*
X4635500Y2933700D01*
X3937000Y3632200D01*
X2882900Y3632200D01*
X2768600Y3746500D01*
X3131058Y2932176D02*
G01*
X3131058Y2685542D01*
X3505200Y2311400D01*
X3750056Y2313178D01*
X10217658Y2932176D02*
G01*
X10217658Y2660142D01*
X10566400Y2311400D01*
X10836656Y2313178D01*
X2895600Y7543800D02*
G01*
X2895600Y7505700D01*
X4711700Y5689600D01*
X5715000Y5689600D01*
X7239000Y7454900D02*
G01*
X7772400Y6921500D01*
X7772400Y6350000D01*
X9512300Y4610100D01*
X9766300Y4610100D01*
X7162800Y2971800D02*
G01*
X9023350Y2971800D01*
X9017000Y3365500D02*
G01*
X9017000Y2974342D01*
X9222742Y2768600D01*
X10033000Y2768600D01*
X10198100Y2933700D01*
G36*
X4041698Y1237000D02*
G01*
X4041698Y1150599D01*
X3961051Y1150599D01*
X3961051Y1237000D01*
G37*
G36*
X4111701Y1237000D02*
G01*
X4111701Y1150599D01*
X4192348Y1150599D01*
X4192348Y1237000D01*
G37*
D13*
G01*
X5157495Y2476500D03*
G36*
X5804499Y2406500D02*
G01*
X5804499Y2546499D01*
X5978499Y2546499D01*
X5978499Y2406500D01*
G37*
G01*
X6681495Y2413000D03*
G36*
X7328499Y2343000D02*
G01*
X7328499Y2482999D01*
X7502499Y2482999D01*
X7502499Y2343000D01*
G37*
G36*
X5851601Y1925299D02*
G01*
X5851601Y2011700D01*
X5932248Y2011700D01*
X5932248Y1925299D01*
G37*
G36*
X5781598Y1925299D02*
G01*
X5781598Y2011700D01*
X5700951Y2011700D01*
X5700951Y1925299D01*
G37*
G36*
X7362901Y1899899D02*
G01*
X7362901Y1986300D01*
X7443548Y1986300D01*
X7443548Y1899899D01*
G37*
G36*
X7292898Y1899899D02*
G01*
X7292898Y1986300D01*
X7212251Y1986300D01*
X7212251Y1899899D01*
G37*
G36*
X10886998Y1262400D02*
G01*
X10886998Y1175999D01*
X10806351Y1175999D01*
X10806351Y1262400D01*
G37*
G36*
X10957001Y1262400D02*
G01*
X10957001Y1175999D01*
X11037648Y1175999D01*
X11037648Y1262400D01*
G37*
G36*
X11712498Y5910600D02*
G01*
X11712498Y5824199D01*
X11631851Y5824199D01*
X11631851Y5910600D01*
G37*
G36*
X11782501Y5910600D02*
G01*
X11782501Y5824199D01*
X11863148Y5824199D01*
X11863148Y5910600D01*
G37*
G36*
X10848898Y5174000D02*
G01*
X10848898Y5087599D01*
X10768251Y5087599D01*
X10768251Y5174000D01*
G37*
G36*
X10918901Y5174000D02*
G01*
X10918901Y5087599D01*
X10999548Y5087599D01*
X10999548Y5174000D01*
G37*
G36*
X1628698Y4970800D02*
G01*
X1628698Y4884399D01*
X1548051Y4884399D01*
X1548051Y4970800D01*
G37*
G36*
X1698701Y4970800D02*
G01*
X1698701Y4884399D01*
X1779348Y4884399D01*
X1779348Y4970800D01*
G37*
G36*
X714298Y5732800D02*
G01*
X714298Y5646399D01*
X633651Y5646399D01*
X633651Y5732800D01*
G37*
G36*
X784301Y5732800D02*
G01*
X784301Y5646399D01*
X864948Y5646399D01*
X864948Y5732800D01*
G37*
G36*
X1742998Y7320300D02*
G01*
X1742998Y7233899D01*
X1662351Y7233899D01*
X1662351Y7320300D01*
G37*
G36*
X1813001Y7320300D02*
G01*
X1813001Y7233899D01*
X1893648Y7233899D01*
X1893648Y7320300D01*
G37*
G36*
X2555798Y5732800D02*
G01*
X2555798Y5646399D01*
X2475151Y5646399D01*
X2475151Y5732800D01*
G37*
G36*
X2625801Y5732800D02*
G01*
X2625801Y5646399D01*
X2706448Y5646399D01*
X2706448Y5732800D01*
G37*
G36*
X10868101Y7094199D02*
G01*
X10868101Y7180600D01*
X10948748Y7180600D01*
X10948748Y7094199D01*
G37*
G36*
X10798098Y7094199D02*
G01*
X10798098Y7180600D01*
X10717451Y7180600D01*
X10717451Y7094199D01*
G37*
G36*
X1615998Y6609100D02*
G01*
X1615998Y6522699D01*
X1535351Y6522699D01*
X1535351Y6609100D01*
G37*
G36*
X1686001Y6609100D02*
G01*
X1686001Y6522699D01*
X1766648Y6522699D01*
X1766648Y6609100D01*
G37*
G36*
X10912398Y6609100D02*
G01*
X10912398Y6522699D01*
X10831751Y6522699D01*
X10831751Y6609100D01*
G37*
G36*
X10982401Y6609100D02*
G01*
X10982401Y6522699D01*
X11063048Y6522699D01*
X11063048Y6609100D01*
G37*
G36*
X9921798Y5999500D02*
G01*
X9921798Y5913099D01*
X9841151Y5913099D01*
X9841151Y5999500D01*
G37*
G36*
X9991801Y5999500D02*
G01*
X9991801Y5913099D01*
X10072448Y5913099D01*
X10072448Y5999500D01*
G37*
D14*
G01*
X3749954Y1803196D03*
G01*
X3749954Y2057196D03*
G01*
X3749954Y2311196D03*
G01*
X3130956Y2930194D03*
G01*
X2876956Y2930194D03*
G01*
X2622956Y2930194D03*
D15*
G01*
X2244470Y2557195D03*
G01*
X2244470Y1557197D03*
G01*
X3509467Y1557197D03*
G01*
X3509467Y2557195D03*
D16*
G01*
X2550007Y1482191D03*
G01*
X3200018Y1482191D03*
G01*
X2550007Y1032205D03*
G01*
X3200018Y1032205D03*
D14*
G01*
X10836554Y1828596D03*
G01*
X10836554Y2082596D03*
G01*
X10836554Y2336596D03*
G01*
X10217556Y2955594D03*
G01*
X9963556Y2955594D03*
G01*
X9709556Y2955594D03*
D15*
G01*
X9331070Y2582595D03*
G01*
X9331070Y1582597D03*
G01*
X10596067Y1582597D03*
G01*
X10596067Y2582595D03*
D16*
G01*
X9636607Y1507591D03*
G01*
X10286618Y1507591D03*
G01*
X9636607Y1057605D03*
G01*
X10286618Y1057605D03*
D17*
G01*
X2895600Y7543800D03*
G01*
X3149600Y7797800D03*
G01*
X2895600Y8051800D03*
G01*
X9017000Y7543800D03*
G01*
X9271000Y7797800D03*
G01*
X9017000Y8051800D03*
D14*
G01*
X1698243Y7912100D03*
G01*
X1248156Y7912100D03*
D18*
G01*
X1113281Y7658100D03*
G01*
X1833118Y7658100D03*
D19*
G01*
X5715000Y8483600D03*
D14*
G01*
X5715000Y8229600D03*
G01*
X5715000Y7975600D03*
G01*
X5715000Y7721600D03*
G01*
X5715000Y7467600D03*
G01*
X5715000Y7213600D03*
G01*
X5715000Y6959600D03*
G01*
X5715000Y6705600D03*
G01*
X5715000Y6451600D03*
G01*
X5715000Y6197600D03*
G01*
X5715000Y5943600D03*
G01*
X5715000Y5689600D03*
G01*
X5715000Y5435600D03*
G01*
X5715000Y5181600D03*
G01*
X5715000Y4927600D03*
G01*
X5715000Y4673600D03*
G01*
X5715000Y4419600D03*
G01*
X5715000Y4165600D03*
G01*
X5715000Y3911600D03*
G01*
X5715000Y3657600D03*
D19*
G01*
X7239000Y8470900D03*
D14*
G01*
X7239000Y8216900D03*
G01*
X7239000Y7962900D03*
G01*
X7239000Y7708900D03*
G01*
X7239000Y7454900D03*
G01*
X7239000Y7200900D03*
G01*
X7239000Y6946900D03*
G01*
X7239000Y6692900D03*
G01*
X7239000Y6438900D03*
G01*
X7239000Y6184900D03*
G01*
X7239000Y5930900D03*
G01*
X7239000Y5676900D03*
G01*
X7239000Y5422900D03*
G01*
X7239000Y5168900D03*
G01*
X7239000Y4914900D03*
G01*
X7239000Y4660900D03*
G01*
X7239000Y4406900D03*
G01*
X7239000Y4152900D03*
G01*
X7239000Y3898900D03*
G01*
X7239000Y3644900D03*
G01*
X11210543Y7886700D03*
G01*
X10760456Y7886700D03*
D18*
G01*
X10625581Y7632700D03*
G01*
X11345418Y7632700D03*
D14*
G01*
X11818620Y5020055D03*
G01*
X11818620Y5470144D03*
G01*
X11168379Y5020055D03*
G01*
X11168379Y5470144D03*
G01*
X10955020Y4321555D03*
G01*
X10955020Y4771644D03*
G01*
X10304779Y4321555D03*
G01*
X10304779Y4771644D03*
G01*
X2242820Y4080255D03*
G01*
X2242820Y4530344D03*
G01*
X1592579Y4080255D03*
G01*
X1592579Y4530344D03*
G01*
X1315720Y4791455D03*
G01*
X1315720Y5241544D03*
G01*
X665479Y4791455D03*
G01*
X665479Y5241544D03*
G01*
X3157220Y4880355D03*
G01*
X3157220Y5330444D03*
G01*
X2506979Y4880355D03*
G01*
X2506979Y5330444D03*
G01*
X2230120Y5705855D03*
G01*
X2230120Y6155944D03*
G01*
X1579879Y5705855D03*
G01*
X1579879Y6155944D03*
G01*
X11018520Y5743955D03*
G01*
X11018520Y6194044D03*
G01*
X10368279Y5743955D03*
G01*
X10368279Y6194044D03*
G01*
X10027920Y5070855D03*
G01*
X10027920Y5520944D03*
G01*
X9377679Y5070855D03*
G01*
X9377679Y5520944D03*
D11*
G01*
X2603500Y5511800D03*
G01*
X1689100Y4762500D03*
G01*
X787400Y5461000D03*
G01*
X1727200Y6388100D03*
G01*
X1854200Y7137400D03*
G01*
X10909300Y6997700D03*
G01*
X10871200Y6426200D03*
G01*
X11671300Y5740400D03*
G01*
X9880600Y5765800D03*
G01*
X10807700Y4978400D03*
G01*
X7251700Y1778000D03*
G01*
X5740400Y1790700D03*
G01*
X9766300Y4610100D03*
G01*
X6756603Y4686503D03*
G01*
X5930900Y7430719D03*
G01*
X2768600Y3746500D03*
G01*
X9017000Y3365500D03*
G01*
X4470400Y1193800D03*
G01*
X7162800Y2971800D03*
M02*
