M48
METRIC,LZ,000.000
;FILE_FORMAT=3:3
;TYPE=PLATED
;Layer: PTH_Through
;EasyEDA v6.5.5, 2022-05-16 22:10:27
;b8c07eb695134d75bee5dc6a5e37684e,a4ea12fd96744f7d9b8618c9b4952ea7,10
;Gerber Generator version 0.2
;Holesize 1 = 0.305 mm
T01C0.305
;Holesize 2 = 0.889 mm
T02C0.889
;Holesize 3 = 0.915 mm
T03C0.915
;Holesize 4 = 1.016 mm
T04C1.016
;Holesize 5 = 1.051 mm
T05C1.051
;Holesize 6 = 1.100 mm
T06C1.100
;Holesize 7 = 1.101 mm
T07C1.101
;Holesize 8 = 1.397 mm
T08C1.397
;Holesize 9 = 1.550 mm
T09C1.550
%
G05
G90
T01
X052959Y034798
X032004Y019939
X033528Y014605
X034798Y013208
X036195Y012065
X037465Y010795
X034798Y044704
X021463Y007366
X021463Y005207
X-002413Y009525
X-002413Y009525
X039751Y016764
X043815Y052324
X033528Y008890
X002794Y008890
X002794Y032893
X002794Y042291
X028575Y001651
X029845Y003556
X-010414Y056388
X032004Y003937
X046482Y056896
T02
X-036322Y000257G85X-036322Y000251
X-036322Y-002283G85X-036322Y-002289
X-036322Y-004823G85X-036322Y-004829
X-023622Y007877G85X-023622Y007871
X-026162Y007877G85X-026162Y007871
X-028702Y007877G85X-028702Y007871
X052832Y-000886G85X052832Y-000892
X052832Y-003426G85X052832Y-003432
X052832Y-005966G85X052832Y-005972
X065532Y006734G85X065532Y006728
X062992Y006734G85X062992Y006728
X060452Y006734G85X060452Y006728
T03
X007620Y-015240
X020447Y-015367
T04
X-004823Y-007493G85X-004829Y-007493
X-004823Y-004953G85X-004829Y-004953
X-004823Y-002413G85X-004829Y-002413
X-004823Y000127G85X-004829Y000127
X-004823Y002667G85X-004829Y002667
X041913Y-008509G85X041907Y-008509
X041913Y-005969G85X041907Y-005969
X041913Y-003429G85X041907Y-003429
X041913Y-000889G85X041907Y-000889
X041913Y001651G85X041907Y001651
X024638Y022730G85X024638Y022736
X024638Y025270G85X024638Y025276
X024638Y027810G85X024638Y027816
X024638Y030350G85X024638Y030356
X024638Y032890G85X024638Y032896
X024638Y035430G85X024638Y035436
X024638Y040510G85X024638Y040516
X024638Y043050G85X024638Y043056
X024638Y045590G85X024638Y045596
X024638Y048130G85X024638Y048136
X024638Y050670G85X024638Y050676
X024638Y053210G85X024638Y053216
X024638Y055750G85X024638Y055756
X024638Y058290G85X024638Y058296
X009398Y058296G85X009398Y058290
X009398Y055756G85X009398Y055750
X009398Y053216G85X009398Y053210
X009398Y050676G85X009398Y050670
X009398Y048136G85X009398Y048130
X009398Y045596G85X009398Y045590
X009398Y043056G85X009398Y043050
X009398Y040516G85X009398Y040510
X009398Y037976G85X009398Y037970
X009398Y035436G85X009398Y035430
X009398Y032896G85X009398Y032890
X009398Y030356G85X009398Y030350
X009398Y027816G85X009398Y027810
X009398Y025276G85X009398Y025270
X024638Y037970G85X024638Y037976
X009525Y022736G85X009525Y022730
T05
X-028736Y056932G85X-028741Y056932
X-033235Y056932G85X-033240Y056932
X066387Y056805G85X066382Y056805
X061888Y056805G85X061883Y056805
T06
X-013661Y000889G85X-013661Y000889
X-013661Y-005461G85X-013661Y-005461
X-018161Y000889G85X-018161Y000889
X-018161Y-005461G85X-018161Y-005461
X075493Y-000254G85X075493Y-000254
X075493Y-006604G85X075493Y-006604
X070993Y-000254G85X070993Y-000254
X070993Y-006604G85X070993Y-006604
T07
X072466Y027722
X072466Y032222
X065964Y027722
X065964Y032222
X063830Y020737
X063830Y025237
X057328Y020737
X057328Y025237
X-023292Y018324
X-023292Y022824
X-029794Y018324
X-029794Y022824
X-032563Y025436
X-032563Y029936
X-039065Y025436
X-039065Y029936
X-014148Y026325
X-014148Y030825
X-020650Y026325
X-020650Y030825
X-023419Y034580
X-023419Y039080
X-029921Y034580
X-029921Y039080
X064465Y034961
X064465Y039461
X057963Y034961
X057963Y039461
X054559Y028230
X054559Y032730
X048057Y028230
X048057Y032730
T08
X-019495Y005337G85X-019495Y005331
X-032830Y005337G85X-032830Y005331
X-032830Y-009903G85X-032830Y-009909
X-019495Y-009903G85X-019495Y-009909
X069660Y004194G85X069660Y004188
X056325Y004194G85X056325Y004188
X056325Y-011046G85X056325Y-011052
X069660Y-011046G85X069660Y-011052
T09
X-027486Y054432G85X-027491Y054432
X-034485Y054432G85X-034490Y054432
X067637Y054305G85X067632Y054305
X060638Y054305G85X060633Y054305
M30
