G04 Layer: TopSolderMaskLayer*
G04 EasyEDA v6.5.5, 2022-05-16 22:10:27*
G04 b8c07eb695134d75bee5dc6a5e37684e,a4ea12fd96744f7d9b8618c9b4952ea7,10*
G04 Gerber Generator version 0.2*
G04 Scale: 100 percent, Rotated: No, Reflected: No *
G04 Dimensions in millimeters *
G04 leading zeros omitted , absolute positions ,4 integer and 5 decimal *
%FSLAX45Y45*%
%MOMM*%

%ADD26C,1.6256*%
%ADD27C,1.8796*%
%ADD28C,1.9016*%
%ADD30C,2.6416*%
%ADD32C,1.6767*%
%ADD33C,2.4267*%
%ADD34C,1.7016*%

%LPD*%
D26*
X-406400Y-749300D02*
G01*
X-558800Y-749300D01*
X-406400Y-495300D02*
G01*
X-558800Y-495300D01*
X-406400Y-241300D02*
G01*
X-558800Y-241300D01*
X-406400Y12700D02*
G01*
X-558800Y12700D01*
X-406400Y266700D02*
G01*
X-558800Y266700D01*
X4267200Y-850900D02*
G01*
X4114800Y-850900D01*
X4267200Y-596900D02*
G01*
X4114800Y-596900D01*
X4267200Y-342900D02*
G01*
X4114800Y-342900D01*
X4267200Y-88900D02*
G01*
X4114800Y-88900D01*
X4267200Y165100D02*
G01*
X4114800Y165100D01*
D27*
X-1366113Y177800D02*
G01*
X-1366113Y0D01*
X-1366113Y-457200D02*
G01*
X-1366113Y-635000D01*
X-1816100Y177800D02*
G01*
X-1816100Y0D01*
X-1816100Y-457200D02*
G01*
X-1816100Y-635000D01*
X7549286Y63500D02*
G01*
X7549286Y-114300D01*
X7549286Y-571500D02*
G01*
X7549286Y-749300D01*
X7099300Y63500D02*
G01*
X7099300Y-114300D01*
X7099300Y-571500D02*
G01*
X7099300Y-749300D01*
D28*
G01*
X7246620Y2772155D03*
G01*
X7246620Y3222244D03*
G01*
X6596379Y2772155D03*
G01*
X6596379Y3222244D03*
G01*
X6383020Y2073655D03*
G01*
X6383020Y2523744D03*
G01*
X5732779Y2073655D03*
G01*
X5732779Y2523744D03*
G01*
X-2329179Y1832355D03*
G01*
X-2329179Y2282444D03*
G01*
X-2979420Y1832355D03*
G01*
X-2979420Y2282444D03*
G01*
X-3256279Y2543555D03*
G01*
X-3256279Y2993644D03*
G01*
X-3906520Y2543555D03*
G01*
X-3906520Y2993644D03*
G01*
X-1414779Y2632455D03*
G01*
X-1414779Y3082544D03*
G01*
X-2065020Y2632455D03*
G01*
X-2065020Y3082544D03*
G01*
X-2341879Y3457955D03*
G01*
X-2341879Y3908044D03*
G01*
X-2992120Y3457955D03*
G01*
X-2992120Y3908044D03*
G01*
X6446520Y3496055D03*
G01*
X6446520Y3946144D03*
G01*
X5796279Y3496055D03*
G01*
X5796279Y3946144D03*
G01*
X5455920Y2822955D03*
G01*
X5455920Y3273044D03*
G01*
X4805679Y2822955D03*
G01*
X4805679Y3273044D03*
G36*
X889000Y-295910D02*
G01*
X889000Y-135889D01*
X1039368Y-135889D01*
X1039368Y-295910D01*
G37*
G36*
X129031Y-295910D02*
G01*
X129031Y-135889D01*
X279400Y-135889D01*
X279400Y-295910D01*
G37*
G36*
X1640331Y-334010D02*
G01*
X1640331Y-173989D01*
X1790700Y-173989D01*
X1790700Y-334010D01*
G37*
G36*
X2400300Y-334010D02*
G01*
X2400300Y-173989D01*
X2550668Y-173989D01*
X2550668Y-334010D01*
G37*
D27*
G01*
X-3632200Y25400D03*
G01*
X-3632200Y-228600D03*
G01*
X-3632200Y-482600D03*
D30*
G01*
X-1949450Y533400D03*
G01*
X-3282950Y533400D03*
G01*
X-3282950Y-990600D03*
G01*
X-1949450Y-990600D03*
D27*
G01*
X-2362200Y787400D03*
G01*
X-2616200Y787400D03*
G01*
X-2870200Y787400D03*
G01*
X5283200Y-88900D03*
G01*
X5283200Y-342900D03*
G01*
X5283200Y-596900D03*
D30*
G01*
X6965950Y419100D03*
G01*
X5632450Y419100D03*
G01*
X5632450Y-1104900D03*
G01*
X6965950Y-1104900D03*
D27*
G01*
X6553200Y673100D03*
G01*
X6299200Y673100D03*
G01*
X6045200Y673100D03*
G36*
X-935227Y5857239D02*
G01*
X-935227Y5953760D01*
X-844550Y5953760D01*
X-844550Y5857239D01*
G37*
G36*
X-1085850Y5857239D02*
G01*
X-1085850Y5953760D01*
X-995172Y5953760D01*
X-995172Y5857239D01*
G37*
G36*
X-770127Y5323839D02*
G01*
X-770127Y5420360D01*
X-679450Y5420360D01*
X-679450Y5323839D01*
G37*
G36*
X-920750Y5323839D02*
G01*
X-920750Y5420360D01*
X-830072Y5420360D01*
X-830072Y5323839D01*
G37*
G36*
X5033772Y5831839D02*
G01*
X5033772Y5928360D01*
X5124450Y5928360D01*
X5124450Y5831839D01*
G37*
G36*
X4883150Y5831839D02*
G01*
X4883150Y5928360D01*
X4973827Y5928360D01*
X4973827Y5831839D01*
G37*
G36*
X5186172Y5184139D02*
G01*
X5186172Y5280660D01*
X5276850Y5280660D01*
X5276850Y5184139D01*
G37*
G36*
X5035550Y5184139D02*
G01*
X5035550Y5280660D01*
X5126227Y5280660D01*
X5126227Y5184139D01*
G37*
G36*
X2463545Y2192020D02*
G01*
X2453640Y2192781D01*
X2443479Y2194560D01*
X2433827Y2197607D01*
X2424684Y2202179D01*
X2416047Y2207513D01*
X2408174Y2214118D01*
X2401061Y2221484D01*
X2395220Y2229865D01*
X2390140Y2238755D01*
X2386584Y2248154D01*
X2384043Y2258060D01*
X2382774Y2268220D01*
X2382774Y2278379D01*
X2384043Y2288539D01*
X2386584Y2298445D01*
X2390140Y2307844D01*
X2395220Y2316987D01*
X2401061Y2325115D01*
X2408174Y2332481D01*
X2416047Y2339086D01*
X2424684Y2344420D01*
X2433827Y2348992D01*
X2443479Y2352039D01*
X2453640Y2354071D01*
X2463545Y2354579D01*
X2616454Y2354579D01*
X2626359Y2354071D01*
X2636520Y2352039D01*
X2646172Y2348992D01*
X2655315Y2344420D01*
X2663952Y2339086D01*
X2671825Y2332481D01*
X2678938Y2325115D01*
X2684779Y2316987D01*
X2689859Y2307844D01*
X2693415Y2298445D01*
X2695956Y2288539D01*
X2697225Y2278379D01*
X2697225Y2268220D01*
X2695956Y2258060D01*
X2693415Y2248154D01*
X2689859Y2238755D01*
X2684779Y2229865D01*
X2678938Y2221484D01*
X2671825Y2214118D01*
X2663952Y2207513D01*
X2655315Y2202179D01*
X2646172Y2197607D01*
X2636520Y2194560D01*
X2626359Y2192781D01*
X2616454Y2192020D01*
G37*
G36*
X2463545Y2446020D02*
G01*
X2453640Y2446781D01*
X2443479Y2448560D01*
X2433827Y2451607D01*
X2424684Y2456179D01*
X2416047Y2461513D01*
X2408174Y2468118D01*
X2401061Y2475484D01*
X2395220Y2483865D01*
X2390140Y2492755D01*
X2386584Y2502154D01*
X2384043Y2512060D01*
X2382774Y2522220D01*
X2382774Y2532379D01*
X2384043Y2542539D01*
X2386584Y2552445D01*
X2390140Y2561844D01*
X2395220Y2570987D01*
X2401061Y2579115D01*
X2408174Y2586481D01*
X2416047Y2593086D01*
X2424684Y2598420D01*
X2433827Y2602992D01*
X2443479Y2606039D01*
X2453640Y2608071D01*
X2463545Y2608579D01*
X2616454Y2608579D01*
X2626359Y2608071D01*
X2636520Y2606039D01*
X2646172Y2602992D01*
X2655315Y2598420D01*
X2663952Y2593086D01*
X2671825Y2586481D01*
X2678938Y2579115D01*
X2684779Y2570987D01*
X2689859Y2561844D01*
X2693415Y2552445D01*
X2695956Y2542539D01*
X2697225Y2532379D01*
X2697225Y2522220D01*
X2695956Y2512060D01*
X2693415Y2502154D01*
X2689859Y2492755D01*
X2684779Y2483865D01*
X2678938Y2475484D01*
X2671825Y2468118D01*
X2663952Y2461513D01*
X2655315Y2456179D01*
X2646172Y2451607D01*
X2636520Y2448560D01*
X2626359Y2446781D01*
X2616454Y2446020D01*
G37*
G36*
X2463545Y2700020D02*
G01*
X2453640Y2700781D01*
X2443479Y2702560D01*
X2433827Y2705607D01*
X2424684Y2710179D01*
X2416047Y2715513D01*
X2408174Y2722118D01*
X2401061Y2729484D01*
X2395220Y2737865D01*
X2390140Y2746755D01*
X2386584Y2756154D01*
X2384043Y2766060D01*
X2382774Y2776220D01*
X2382774Y2786379D01*
X2384043Y2796539D01*
X2386584Y2806445D01*
X2390140Y2815844D01*
X2395220Y2824987D01*
X2401061Y2833115D01*
X2408174Y2840481D01*
X2416047Y2847086D01*
X2424684Y2852420D01*
X2433827Y2856992D01*
X2443479Y2860039D01*
X2453640Y2862071D01*
X2463545Y2862579D01*
X2616454Y2862579D01*
X2626359Y2862071D01*
X2636520Y2860039D01*
X2646172Y2856992D01*
X2655315Y2852420D01*
X2663952Y2847086D01*
X2671825Y2840481D01*
X2678938Y2833115D01*
X2684779Y2824987D01*
X2689859Y2815844D01*
X2693415Y2806445D01*
X2695956Y2796539D01*
X2697225Y2786379D01*
X2697225Y2776220D01*
X2695956Y2766060D01*
X2693415Y2756154D01*
X2689859Y2746755D01*
X2684779Y2737865D01*
X2678938Y2729484D01*
X2671825Y2722118D01*
X2663952Y2715513D01*
X2655315Y2710179D01*
X2646172Y2705607D01*
X2636520Y2702560D01*
X2626359Y2700781D01*
X2616454Y2700020D01*
G37*
G36*
X2463545Y2954020D02*
G01*
X2453640Y2954781D01*
X2443479Y2956560D01*
X2433827Y2959607D01*
X2424684Y2964179D01*
X2416047Y2969513D01*
X2408174Y2976118D01*
X2401061Y2983484D01*
X2395220Y2991865D01*
X2390140Y3000755D01*
X2386584Y3010154D01*
X2384043Y3020060D01*
X2382774Y3030220D01*
X2382774Y3040379D01*
X2384043Y3050539D01*
X2386584Y3060445D01*
X2390140Y3069844D01*
X2395220Y3078987D01*
X2401061Y3087115D01*
X2408174Y3094481D01*
X2416047Y3101086D01*
X2424684Y3106420D01*
X2433827Y3110992D01*
X2443479Y3114039D01*
X2453640Y3116071D01*
X2463545Y3116579D01*
X2616454Y3116579D01*
X2626359Y3116071D01*
X2636520Y3114039D01*
X2646172Y3110992D01*
X2655315Y3106420D01*
X2663952Y3101086D01*
X2671825Y3094481D01*
X2678938Y3087115D01*
X2684779Y3078987D01*
X2689859Y3069844D01*
X2693415Y3060445D01*
X2695956Y3050539D01*
X2697225Y3040379D01*
X2697225Y3030220D01*
X2695956Y3020060D01*
X2693415Y3010154D01*
X2689859Y3000755D01*
X2684779Y2991865D01*
X2678938Y2983484D01*
X2671825Y2976118D01*
X2663952Y2969513D01*
X2655315Y2964179D01*
X2646172Y2959607D01*
X2636520Y2956560D01*
X2626359Y2954781D01*
X2616454Y2954020D01*
G37*
G36*
X2463545Y3208020D02*
G01*
X2453640Y3208781D01*
X2443479Y3210560D01*
X2433827Y3213607D01*
X2424684Y3218179D01*
X2416047Y3223513D01*
X2408174Y3230118D01*
X2401061Y3237484D01*
X2395220Y3245865D01*
X2390140Y3254755D01*
X2386584Y3264154D01*
X2384043Y3274060D01*
X2382774Y3284220D01*
X2382774Y3294379D01*
X2384043Y3304539D01*
X2386584Y3314445D01*
X2390140Y3323844D01*
X2395220Y3332987D01*
X2401061Y3341115D01*
X2408174Y3348481D01*
X2416047Y3355086D01*
X2424684Y3360420D01*
X2433827Y3364992D01*
X2443479Y3368039D01*
X2453640Y3370071D01*
X2463545Y3370579D01*
X2616454Y3370579D01*
X2626359Y3370071D01*
X2636520Y3368039D01*
X2646172Y3364992D01*
X2655315Y3360420D01*
X2663952Y3355086D01*
X2671825Y3348481D01*
X2678938Y3341115D01*
X2684779Y3332987D01*
X2689859Y3323844D01*
X2693415Y3314445D01*
X2695956Y3304539D01*
X2697225Y3294379D01*
X2697225Y3284220D01*
X2695956Y3274060D01*
X2693415Y3264154D01*
X2689859Y3254755D01*
X2684779Y3245865D01*
X2678938Y3237484D01*
X2671825Y3230118D01*
X2663952Y3223513D01*
X2655315Y3218179D01*
X2646172Y3213607D01*
X2636520Y3210560D01*
X2626359Y3208781D01*
X2616454Y3208020D01*
G37*
G36*
X2463545Y3462020D02*
G01*
X2453640Y3462781D01*
X2443479Y3464560D01*
X2433827Y3467607D01*
X2424684Y3472179D01*
X2416047Y3477513D01*
X2408174Y3484118D01*
X2401061Y3491484D01*
X2395220Y3499865D01*
X2390140Y3508755D01*
X2386584Y3518154D01*
X2384043Y3528060D01*
X2382774Y3538220D01*
X2382774Y3548379D01*
X2384043Y3558539D01*
X2386584Y3568445D01*
X2390140Y3577844D01*
X2395220Y3586987D01*
X2401061Y3595115D01*
X2408174Y3602481D01*
X2416047Y3609086D01*
X2424684Y3614420D01*
X2433827Y3618992D01*
X2443479Y3622039D01*
X2453640Y3624071D01*
X2463545Y3624579D01*
X2616454Y3624579D01*
X2626359Y3624071D01*
X2636520Y3622039D01*
X2646172Y3618992D01*
X2655315Y3614420D01*
X2663952Y3609086D01*
X2671825Y3602481D01*
X2678938Y3595115D01*
X2684779Y3586987D01*
X2689859Y3577844D01*
X2693415Y3568445D01*
X2695956Y3558539D01*
X2697225Y3548379D01*
X2697225Y3538220D01*
X2695956Y3528060D01*
X2693415Y3518154D01*
X2689859Y3508755D01*
X2684779Y3499865D01*
X2678938Y3491484D01*
X2671825Y3484118D01*
X2663952Y3477513D01*
X2655315Y3472179D01*
X2646172Y3467607D01*
X2636520Y3464560D01*
X2626359Y3462781D01*
X2616454Y3462020D01*
G37*
G36*
X2463545Y3970020D02*
G01*
X2453640Y3970781D01*
X2443479Y3972560D01*
X2433827Y3975607D01*
X2424684Y3980179D01*
X2416047Y3985513D01*
X2408174Y3992118D01*
X2401061Y3999484D01*
X2395220Y4007865D01*
X2390140Y4016755D01*
X2386584Y4026154D01*
X2384043Y4036060D01*
X2382774Y4046220D01*
X2382774Y4056379D01*
X2384043Y4066539D01*
X2386584Y4076445D01*
X2390140Y4085844D01*
X2395220Y4094987D01*
X2401061Y4103115D01*
X2408174Y4110481D01*
X2416047Y4117086D01*
X2424684Y4122420D01*
X2433827Y4126992D01*
X2443479Y4130039D01*
X2453640Y4132071D01*
X2463545Y4132579D01*
X2616454Y4132579D01*
X2626359Y4132071D01*
X2636520Y4130039D01*
X2646172Y4126992D01*
X2655315Y4122420D01*
X2663952Y4117086D01*
X2671825Y4110481D01*
X2678938Y4103115D01*
X2684779Y4094987D01*
X2689859Y4085844D01*
X2693415Y4076445D01*
X2695956Y4066539D01*
X2697225Y4056379D01*
X2697225Y4046220D01*
X2695956Y4036060D01*
X2693415Y4026154D01*
X2689859Y4016755D01*
X2684779Y4007865D01*
X2678938Y3999484D01*
X2671825Y3992118D01*
X2663952Y3985513D01*
X2655315Y3980179D01*
X2646172Y3975607D01*
X2636520Y3972560D01*
X2626359Y3970781D01*
X2616454Y3970020D01*
G37*
G36*
X2463545Y4224020D02*
G01*
X2453640Y4224781D01*
X2443479Y4226560D01*
X2433827Y4229607D01*
X2424684Y4234179D01*
X2416047Y4239513D01*
X2408174Y4246118D01*
X2401061Y4253484D01*
X2395220Y4261865D01*
X2390140Y4270755D01*
X2386584Y4280154D01*
X2384043Y4290060D01*
X2382774Y4300220D01*
X2382774Y4310379D01*
X2384043Y4320539D01*
X2386584Y4330445D01*
X2390140Y4339844D01*
X2395220Y4348987D01*
X2401061Y4357115D01*
X2408174Y4364481D01*
X2416047Y4371086D01*
X2424684Y4376420D01*
X2433827Y4380992D01*
X2443479Y4384039D01*
X2453640Y4385818D01*
X2463545Y4386579D01*
X2616454Y4386579D01*
X2626359Y4385818D01*
X2636520Y4384039D01*
X2646172Y4380992D01*
X2655315Y4376420D01*
X2663952Y4371086D01*
X2671825Y4364481D01*
X2678938Y4357115D01*
X2684779Y4348987D01*
X2689859Y4339844D01*
X2693415Y4330445D01*
X2695956Y4320539D01*
X2697225Y4310379D01*
X2697225Y4300220D01*
X2695956Y4290060D01*
X2693415Y4280154D01*
X2689859Y4270755D01*
X2684779Y4261865D01*
X2678938Y4253484D01*
X2671825Y4246118D01*
X2663952Y4239513D01*
X2655315Y4234179D01*
X2646172Y4229607D01*
X2636520Y4226560D01*
X2626359Y4224781D01*
X2616454Y4224020D01*
G37*
G36*
X2463545Y4478020D02*
G01*
X2453640Y4478781D01*
X2443479Y4480560D01*
X2433827Y4483607D01*
X2424684Y4488179D01*
X2416047Y4493513D01*
X2408174Y4500118D01*
X2401061Y4507484D01*
X2395220Y4515865D01*
X2390140Y4524755D01*
X2386584Y4534154D01*
X2384043Y4544060D01*
X2382774Y4554220D01*
X2382774Y4564379D01*
X2384043Y4574539D01*
X2386584Y4584445D01*
X2390140Y4593844D01*
X2395220Y4602987D01*
X2401061Y4611115D01*
X2408174Y4618481D01*
X2416047Y4625086D01*
X2424684Y4630420D01*
X2433827Y4634992D01*
X2443479Y4638039D01*
X2453640Y4639818D01*
X2463545Y4640579D01*
X2616454Y4640579D01*
X2626359Y4639818D01*
X2636520Y4638039D01*
X2646172Y4634992D01*
X2655315Y4630420D01*
X2663952Y4625086D01*
X2671825Y4618481D01*
X2678938Y4611115D01*
X2684779Y4602987D01*
X2689859Y4593844D01*
X2693415Y4584445D01*
X2695956Y4574539D01*
X2697225Y4564379D01*
X2697225Y4554220D01*
X2695956Y4544060D01*
X2693415Y4534154D01*
X2689859Y4524755D01*
X2684779Y4515865D01*
X2678938Y4507484D01*
X2671825Y4500118D01*
X2663952Y4493513D01*
X2655315Y4488179D01*
X2646172Y4483607D01*
X2636520Y4480560D01*
X2626359Y4478781D01*
X2616454Y4478020D01*
G37*
G36*
X2463545Y4732020D02*
G01*
X2453640Y4732781D01*
X2443479Y4734560D01*
X2433827Y4737607D01*
X2424684Y4742179D01*
X2416047Y4747513D01*
X2408174Y4754118D01*
X2401061Y4761484D01*
X2395220Y4769865D01*
X2390140Y4778755D01*
X2386584Y4788154D01*
X2384043Y4798060D01*
X2382774Y4808220D01*
X2382774Y4818379D01*
X2384043Y4828539D01*
X2386584Y4838445D01*
X2390140Y4847844D01*
X2395220Y4856987D01*
X2401061Y4865115D01*
X2408174Y4872481D01*
X2416047Y4879086D01*
X2424684Y4884420D01*
X2433827Y4888992D01*
X2443479Y4892039D01*
X2453640Y4893818D01*
X2463545Y4894579D01*
X2616454Y4894579D01*
X2626359Y4893818D01*
X2636520Y4892039D01*
X2646172Y4888992D01*
X2655315Y4884420D01*
X2663952Y4879086D01*
X2671825Y4872481D01*
X2678938Y4865115D01*
X2684779Y4856987D01*
X2689859Y4847844D01*
X2693415Y4838445D01*
X2695956Y4828539D01*
X2697225Y4818379D01*
X2697225Y4808220D01*
X2695956Y4798060D01*
X2693415Y4788154D01*
X2689859Y4778755D01*
X2684779Y4769865D01*
X2678938Y4761484D01*
X2671825Y4754118D01*
X2663952Y4747513D01*
X2655315Y4742179D01*
X2646172Y4737607D01*
X2636520Y4734560D01*
X2626359Y4732781D01*
X2616454Y4732020D01*
G37*
G36*
X2463545Y4986020D02*
G01*
X2453640Y4986781D01*
X2443479Y4988560D01*
X2433827Y4991607D01*
X2424684Y4996179D01*
X2416047Y5001513D01*
X2408174Y5008118D01*
X2401061Y5015484D01*
X2395220Y5023865D01*
X2390140Y5032755D01*
X2386584Y5042154D01*
X2384043Y5052060D01*
X2382774Y5062220D01*
X2382774Y5072379D01*
X2384043Y5082539D01*
X2386584Y5092445D01*
X2390140Y5101844D01*
X2395220Y5110987D01*
X2401061Y5119115D01*
X2408174Y5126481D01*
X2416047Y5133086D01*
X2424684Y5138420D01*
X2433827Y5142992D01*
X2443479Y5146039D01*
X2453640Y5147818D01*
X2463545Y5148579D01*
X2616454Y5148579D01*
X2626359Y5147818D01*
X2636520Y5146039D01*
X2646172Y5142992D01*
X2655315Y5138420D01*
X2663952Y5133086D01*
X2671825Y5126481D01*
X2678938Y5119115D01*
X2684779Y5110987D01*
X2689859Y5101844D01*
X2693415Y5092445D01*
X2695956Y5082539D01*
X2697225Y5072379D01*
X2697225Y5062220D01*
X2695956Y5052060D01*
X2693415Y5042154D01*
X2689859Y5032755D01*
X2684779Y5023865D01*
X2678938Y5015484D01*
X2671825Y5008118D01*
X2663952Y5001513D01*
X2655315Y4996179D01*
X2646172Y4991607D01*
X2636520Y4988560D01*
X2626359Y4986781D01*
X2616454Y4986020D01*
G37*
G36*
X2463545Y5240020D02*
G01*
X2453640Y5240781D01*
X2443479Y5242560D01*
X2433827Y5245607D01*
X2424684Y5250179D01*
X2416047Y5255513D01*
X2408174Y5262118D01*
X2401061Y5269484D01*
X2395220Y5277865D01*
X2390140Y5286755D01*
X2386584Y5296154D01*
X2384043Y5306060D01*
X2382774Y5316220D01*
X2382774Y5326379D01*
X2384043Y5336539D01*
X2386584Y5346445D01*
X2390140Y5355844D01*
X2395220Y5364987D01*
X2401061Y5373115D01*
X2408174Y5380481D01*
X2416047Y5387086D01*
X2424684Y5392420D01*
X2433827Y5396992D01*
X2443479Y5400039D01*
X2453640Y5401818D01*
X2463545Y5402579D01*
X2616454Y5402579D01*
X2626359Y5401818D01*
X2636520Y5400039D01*
X2646172Y5396992D01*
X2655315Y5392420D01*
X2663952Y5387086D01*
X2671825Y5380481D01*
X2678938Y5373115D01*
X2684779Y5364987D01*
X2689859Y5355844D01*
X2693415Y5346445D01*
X2695956Y5336539D01*
X2697225Y5326379D01*
X2697225Y5316220D01*
X2695956Y5306060D01*
X2693415Y5296154D01*
X2689859Y5286755D01*
X2684779Y5277865D01*
X2678938Y5269484D01*
X2671825Y5262118D01*
X2663952Y5255513D01*
X2655315Y5250179D01*
X2646172Y5245607D01*
X2636520Y5242560D01*
X2626359Y5240781D01*
X2616454Y5240020D01*
G37*
G36*
X2463545Y5494020D02*
G01*
X2453640Y5494781D01*
X2443479Y5496560D01*
X2433827Y5499607D01*
X2424684Y5504179D01*
X2416047Y5509513D01*
X2408174Y5516118D01*
X2401061Y5523484D01*
X2395220Y5531865D01*
X2390140Y5540755D01*
X2386584Y5550154D01*
X2384043Y5560060D01*
X2382774Y5570220D01*
X2382774Y5580379D01*
X2384043Y5590539D01*
X2386584Y5600445D01*
X2390140Y5609844D01*
X2395220Y5618987D01*
X2401061Y5627115D01*
X2408174Y5634481D01*
X2416047Y5641086D01*
X2424684Y5646420D01*
X2433827Y5650992D01*
X2443479Y5654039D01*
X2453640Y5655818D01*
X2463545Y5656579D01*
X2616454Y5656579D01*
X2626359Y5655818D01*
X2636520Y5654039D01*
X2646172Y5650992D01*
X2655315Y5646420D01*
X2663952Y5641086D01*
X2671825Y5634481D01*
X2678938Y5627115D01*
X2684779Y5618987D01*
X2689859Y5609844D01*
X2693415Y5600445D01*
X2695956Y5590539D01*
X2697225Y5580379D01*
X2697225Y5570220D01*
X2695956Y5560060D01*
X2693415Y5550154D01*
X2689859Y5540755D01*
X2684779Y5531865D01*
X2678938Y5523484D01*
X2671825Y5516118D01*
X2663952Y5509513D01*
X2655315Y5504179D01*
X2646172Y5499607D01*
X2636520Y5496560D01*
X2626359Y5494781D01*
X2616454Y5494020D01*
G37*
G36*
X2463545Y5748020D02*
G01*
X2453640Y5748781D01*
X2443479Y5750560D01*
X2433827Y5753607D01*
X2424684Y5758179D01*
X2416047Y5763513D01*
X2408174Y5770118D01*
X2401061Y5777484D01*
X2395220Y5785865D01*
X2390140Y5794755D01*
X2386584Y5804154D01*
X2384043Y5814060D01*
X2382774Y5824220D01*
X2382774Y5834379D01*
X2384043Y5844539D01*
X2386584Y5854445D01*
X2390140Y5863844D01*
X2395220Y5872987D01*
X2401061Y5881115D01*
X2408174Y5888481D01*
X2416047Y5895086D01*
X2424684Y5900420D01*
X2433827Y5904992D01*
X2443479Y5908039D01*
X2453640Y5909818D01*
X2463545Y5910579D01*
X2616454Y5910579D01*
X2626359Y5909818D01*
X2636520Y5908039D01*
X2646172Y5904992D01*
X2655315Y5900420D01*
X2663952Y5895086D01*
X2671825Y5888481D01*
X2678938Y5881115D01*
X2684779Y5872987D01*
X2689859Y5863844D01*
X2693415Y5854445D01*
X2695956Y5844539D01*
X2697225Y5834379D01*
X2697225Y5824220D01*
X2695956Y5814060D01*
X2693415Y5804154D01*
X2689859Y5794755D01*
X2684779Y5785865D01*
X2678938Y5777484D01*
X2671825Y5770118D01*
X2663952Y5763513D01*
X2655315Y5758179D01*
X2646172Y5753607D01*
X2636520Y5750560D01*
X2626359Y5748781D01*
X2616454Y5748020D01*
G37*
G36*
X787145Y5748020D02*
G01*
X777240Y5748781D01*
X767079Y5750560D01*
X757427Y5753607D01*
X748284Y5758179D01*
X739647Y5763513D01*
X731774Y5770118D01*
X724661Y5777484D01*
X718820Y5785865D01*
X713740Y5794755D01*
X710184Y5804154D01*
X707643Y5814060D01*
X706374Y5824220D01*
X706374Y5834379D01*
X707643Y5844539D01*
X710184Y5854445D01*
X713740Y5863844D01*
X718820Y5872987D01*
X724661Y5881115D01*
X731774Y5888481D01*
X739647Y5895086D01*
X748284Y5900420D01*
X757427Y5904992D01*
X767079Y5908039D01*
X777240Y5909818D01*
X787145Y5910579D01*
X940054Y5910579D01*
X949959Y5909818D01*
X960120Y5908039D01*
X969772Y5904992D01*
X978915Y5900420D01*
X987552Y5895086D01*
X995425Y5888481D01*
X1002538Y5881115D01*
X1008379Y5872987D01*
X1013459Y5863844D01*
X1017015Y5854445D01*
X1019556Y5844539D01*
X1020825Y5834379D01*
X1020825Y5824220D01*
X1019556Y5814060D01*
X1017015Y5804154D01*
X1013459Y5794755D01*
X1008379Y5785865D01*
X1002538Y5777484D01*
X995425Y5770118D01*
X987552Y5763513D01*
X978915Y5758179D01*
X969772Y5753607D01*
X960120Y5750560D01*
X949959Y5748781D01*
X940054Y5748020D01*
G37*
G36*
X787145Y5494020D02*
G01*
X777240Y5494781D01*
X767079Y5496560D01*
X757427Y5499607D01*
X748284Y5504179D01*
X739647Y5509513D01*
X731774Y5516118D01*
X724661Y5523484D01*
X718820Y5531865D01*
X713740Y5540755D01*
X710184Y5550154D01*
X707643Y5560060D01*
X706374Y5570220D01*
X706374Y5580379D01*
X707643Y5590539D01*
X710184Y5600445D01*
X713740Y5609844D01*
X718820Y5618987D01*
X724661Y5627115D01*
X731774Y5634481D01*
X739647Y5641086D01*
X748284Y5646420D01*
X757427Y5650992D01*
X767079Y5654039D01*
X777240Y5655818D01*
X787145Y5656579D01*
X940054Y5656579D01*
X949959Y5655818D01*
X960120Y5654039D01*
X969772Y5650992D01*
X978915Y5646420D01*
X987552Y5641086D01*
X995425Y5634481D01*
X1002538Y5627115D01*
X1008379Y5618987D01*
X1013459Y5609844D01*
X1017015Y5600445D01*
X1019556Y5590539D01*
X1020825Y5580379D01*
X1020825Y5570220D01*
X1019556Y5560060D01*
X1017015Y5550154D01*
X1013459Y5540755D01*
X1008379Y5531865D01*
X1002538Y5523484D01*
X995425Y5516118D01*
X987552Y5509513D01*
X978915Y5504179D01*
X969772Y5499607D01*
X960120Y5496560D01*
X949959Y5494781D01*
X940054Y5494020D01*
G37*
G36*
X787145Y5240020D02*
G01*
X777240Y5240781D01*
X767079Y5242560D01*
X757427Y5245607D01*
X748284Y5250179D01*
X739647Y5255513D01*
X731774Y5262118D01*
X724661Y5269484D01*
X718820Y5277865D01*
X713740Y5286755D01*
X710184Y5296154D01*
X707643Y5306060D01*
X706374Y5316220D01*
X706374Y5326379D01*
X707643Y5336539D01*
X710184Y5346445D01*
X713740Y5355844D01*
X718820Y5364987D01*
X724661Y5373115D01*
X731774Y5380481D01*
X739647Y5387086D01*
X748284Y5392420D01*
X757427Y5396992D01*
X767079Y5400039D01*
X777240Y5401818D01*
X787145Y5402579D01*
X940054Y5402579D01*
X949959Y5401818D01*
X960120Y5400039D01*
X969772Y5396992D01*
X978915Y5392420D01*
X987552Y5387086D01*
X995425Y5380481D01*
X1002538Y5373115D01*
X1008379Y5364987D01*
X1013459Y5355844D01*
X1017015Y5346445D01*
X1019556Y5336539D01*
X1020825Y5326379D01*
X1020825Y5316220D01*
X1019556Y5306060D01*
X1017015Y5296154D01*
X1013459Y5286755D01*
X1008379Y5277865D01*
X1002538Y5269484D01*
X995425Y5262118D01*
X987552Y5255513D01*
X978915Y5250179D01*
X969772Y5245607D01*
X960120Y5242560D01*
X949959Y5240781D01*
X940054Y5240020D01*
G37*
G36*
X787145Y4986020D02*
G01*
X777240Y4986781D01*
X767079Y4988560D01*
X757427Y4991607D01*
X748284Y4996179D01*
X739647Y5001513D01*
X731774Y5008118D01*
X724661Y5015484D01*
X718820Y5023865D01*
X713740Y5032755D01*
X710184Y5042154D01*
X707643Y5052060D01*
X706374Y5062220D01*
X706374Y5072379D01*
X707643Y5082539D01*
X710184Y5092445D01*
X713740Y5101844D01*
X718820Y5110987D01*
X724661Y5119115D01*
X731774Y5126481D01*
X739647Y5133086D01*
X748284Y5138420D01*
X757427Y5142992D01*
X767079Y5146039D01*
X777240Y5147818D01*
X787145Y5148579D01*
X940054Y5148579D01*
X949959Y5147818D01*
X960120Y5146039D01*
X969772Y5142992D01*
X978915Y5138420D01*
X987552Y5133086D01*
X995425Y5126481D01*
X1002538Y5119115D01*
X1008379Y5110987D01*
X1013459Y5101844D01*
X1017015Y5092445D01*
X1019556Y5082539D01*
X1020825Y5072379D01*
X1020825Y5062220D01*
X1019556Y5052060D01*
X1017015Y5042154D01*
X1013459Y5032755D01*
X1008379Y5023865D01*
X1002538Y5015484D01*
X995425Y5008118D01*
X987552Y5001513D01*
X978915Y4996179D01*
X969772Y4991607D01*
X960120Y4988560D01*
X949959Y4986781D01*
X940054Y4986020D01*
G37*
G36*
X787145Y4732020D02*
G01*
X777240Y4732781D01*
X767079Y4734560D01*
X757427Y4737607D01*
X748284Y4742179D01*
X739647Y4747513D01*
X731774Y4754118D01*
X724661Y4761484D01*
X718820Y4769865D01*
X713740Y4778755D01*
X710184Y4788154D01*
X707643Y4798060D01*
X706374Y4808220D01*
X706374Y4818379D01*
X707643Y4828539D01*
X710184Y4838445D01*
X713740Y4847844D01*
X718820Y4856987D01*
X724661Y4865115D01*
X731774Y4872481D01*
X739647Y4879086D01*
X748284Y4884420D01*
X757427Y4888992D01*
X767079Y4892039D01*
X777240Y4893818D01*
X787145Y4894579D01*
X940054Y4894579D01*
X949959Y4893818D01*
X960120Y4892039D01*
X969772Y4888992D01*
X978915Y4884420D01*
X987552Y4879086D01*
X995425Y4872481D01*
X1002538Y4865115D01*
X1008379Y4856987D01*
X1013459Y4847844D01*
X1017015Y4838445D01*
X1019556Y4828539D01*
X1020825Y4818379D01*
X1020825Y4808220D01*
X1019556Y4798060D01*
X1017015Y4788154D01*
X1013459Y4778755D01*
X1008379Y4769865D01*
X1002538Y4761484D01*
X995425Y4754118D01*
X987552Y4747513D01*
X978915Y4742179D01*
X969772Y4737607D01*
X960120Y4734560D01*
X949959Y4732781D01*
X940054Y4732020D01*
G37*
G36*
X787145Y4478020D02*
G01*
X777240Y4478781D01*
X767079Y4480560D01*
X757427Y4483607D01*
X748284Y4488179D01*
X739647Y4493513D01*
X731774Y4500118D01*
X724661Y4507484D01*
X718820Y4515865D01*
X713740Y4524755D01*
X710184Y4534154D01*
X707643Y4544060D01*
X706374Y4554220D01*
X706374Y4564379D01*
X707643Y4574539D01*
X710184Y4584445D01*
X713740Y4593844D01*
X718820Y4602987D01*
X724661Y4611115D01*
X731774Y4618481D01*
X739647Y4625086D01*
X748284Y4630420D01*
X757427Y4634992D01*
X767079Y4638039D01*
X777240Y4639818D01*
X787145Y4640579D01*
X940054Y4640579D01*
X949959Y4639818D01*
X960120Y4638039D01*
X969772Y4634992D01*
X978915Y4630420D01*
X987552Y4625086D01*
X995425Y4618481D01*
X1002538Y4611115D01*
X1008379Y4602987D01*
X1013459Y4593844D01*
X1017015Y4584445D01*
X1019556Y4574539D01*
X1020825Y4564379D01*
X1020825Y4554220D01*
X1019556Y4544060D01*
X1017015Y4534154D01*
X1013459Y4524755D01*
X1008379Y4515865D01*
X1002538Y4507484D01*
X995425Y4500118D01*
X987552Y4493513D01*
X978915Y4488179D01*
X969772Y4483607D01*
X960120Y4480560D01*
X949959Y4478781D01*
X940054Y4478020D01*
G37*
G36*
X787145Y4224020D02*
G01*
X777240Y4224781D01*
X767079Y4226560D01*
X757427Y4229607D01*
X748284Y4234179D01*
X739647Y4239513D01*
X731774Y4246118D01*
X724661Y4253484D01*
X718820Y4261865D01*
X713740Y4270755D01*
X710184Y4280154D01*
X707643Y4290060D01*
X706374Y4300220D01*
X706374Y4310379D01*
X707643Y4320539D01*
X710184Y4330445D01*
X713740Y4339844D01*
X718820Y4348987D01*
X724661Y4357115D01*
X731774Y4364481D01*
X739647Y4371086D01*
X748284Y4376420D01*
X757427Y4380992D01*
X767079Y4384039D01*
X777240Y4385818D01*
X787145Y4386579D01*
X940054Y4386579D01*
X949959Y4385818D01*
X960120Y4384039D01*
X969772Y4380992D01*
X978915Y4376420D01*
X987552Y4371086D01*
X995425Y4364481D01*
X1002538Y4357115D01*
X1008379Y4348987D01*
X1013459Y4339844D01*
X1017015Y4330445D01*
X1019556Y4320539D01*
X1020825Y4310379D01*
X1020825Y4300220D01*
X1019556Y4290060D01*
X1017015Y4280154D01*
X1013459Y4270755D01*
X1008379Y4261865D01*
X1002538Y4253484D01*
X995425Y4246118D01*
X987552Y4239513D01*
X978915Y4234179D01*
X969772Y4229607D01*
X960120Y4226560D01*
X949959Y4224781D01*
X940054Y4224020D01*
G37*
G36*
X787145Y3970020D02*
G01*
X777240Y3970781D01*
X767079Y3972560D01*
X757427Y3975607D01*
X748284Y3980179D01*
X739647Y3985513D01*
X731774Y3992118D01*
X724661Y3999484D01*
X718820Y4007865D01*
X713740Y4016755D01*
X710184Y4026154D01*
X707643Y4036060D01*
X706374Y4046220D01*
X706374Y4056379D01*
X707643Y4066539D01*
X710184Y4076445D01*
X713740Y4085844D01*
X718820Y4094987D01*
X724661Y4103115D01*
X731774Y4110481D01*
X739647Y4117086D01*
X748284Y4122420D01*
X757427Y4126992D01*
X767079Y4130039D01*
X777240Y4132071D01*
X787145Y4132579D01*
X940054Y4132579D01*
X949959Y4132071D01*
X960120Y4130039D01*
X969772Y4126992D01*
X978915Y4122420D01*
X987552Y4117086D01*
X995425Y4110481D01*
X1002538Y4103115D01*
X1008379Y4094987D01*
X1013459Y4085844D01*
X1017015Y4076445D01*
X1019556Y4066539D01*
X1020825Y4056379D01*
X1020825Y4046220D01*
X1019556Y4036060D01*
X1017015Y4026154D01*
X1013459Y4016755D01*
X1008379Y4007865D01*
X1002538Y3999484D01*
X995425Y3992118D01*
X987552Y3985513D01*
X978915Y3980179D01*
X969772Y3975607D01*
X960120Y3972560D01*
X949959Y3970781D01*
X940054Y3970020D01*
G37*
G36*
X787145Y3716020D02*
G01*
X777240Y3716781D01*
X767079Y3718560D01*
X757427Y3721607D01*
X748284Y3726179D01*
X739647Y3731513D01*
X731774Y3738118D01*
X724661Y3745484D01*
X718820Y3753865D01*
X713740Y3762755D01*
X710184Y3772154D01*
X707643Y3782060D01*
X706374Y3792220D01*
X706374Y3802379D01*
X707643Y3812539D01*
X710184Y3822445D01*
X713740Y3831844D01*
X718820Y3840987D01*
X724661Y3849115D01*
X731774Y3856481D01*
X739647Y3863086D01*
X748284Y3868420D01*
X757427Y3872992D01*
X767079Y3876039D01*
X777240Y3878071D01*
X787145Y3878579D01*
X940054Y3878579D01*
X949959Y3878071D01*
X960120Y3876039D01*
X969772Y3872992D01*
X978915Y3868420D01*
X987552Y3863086D01*
X995425Y3856481D01*
X1002538Y3849115D01*
X1008379Y3840987D01*
X1013459Y3831844D01*
X1017015Y3822445D01*
X1019556Y3812539D01*
X1020825Y3802379D01*
X1020825Y3792220D01*
X1019556Y3782060D01*
X1017015Y3772154D01*
X1013459Y3762755D01*
X1008379Y3753865D01*
X1002538Y3745484D01*
X995425Y3738118D01*
X987552Y3731513D01*
X978915Y3726179D01*
X969772Y3721607D01*
X960120Y3718560D01*
X949959Y3716781D01*
X940054Y3716020D01*
G37*
G36*
X787145Y3462020D02*
G01*
X777240Y3462781D01*
X767079Y3464560D01*
X757427Y3467607D01*
X748284Y3472179D01*
X739647Y3477513D01*
X731774Y3484118D01*
X724661Y3491484D01*
X718820Y3499865D01*
X713740Y3508755D01*
X710184Y3518154D01*
X707643Y3528060D01*
X706374Y3538220D01*
X706374Y3548379D01*
X707643Y3558539D01*
X710184Y3568445D01*
X713740Y3577844D01*
X718820Y3586987D01*
X724661Y3595115D01*
X731774Y3602481D01*
X739647Y3609086D01*
X748284Y3614420D01*
X757427Y3618992D01*
X767079Y3622039D01*
X777240Y3624071D01*
X787145Y3624579D01*
X940054Y3624579D01*
X949959Y3624071D01*
X960120Y3622039D01*
X969772Y3618992D01*
X978915Y3614420D01*
X987552Y3609086D01*
X995425Y3602481D01*
X1002538Y3595115D01*
X1008379Y3586987D01*
X1013459Y3577844D01*
X1017015Y3568445D01*
X1019556Y3558539D01*
X1020825Y3548379D01*
X1020825Y3538220D01*
X1019556Y3528060D01*
X1017015Y3518154D01*
X1013459Y3508755D01*
X1008379Y3499865D01*
X1002538Y3491484D01*
X995425Y3484118D01*
X987552Y3477513D01*
X978915Y3472179D01*
X969772Y3467607D01*
X960120Y3464560D01*
X949959Y3462781D01*
X940054Y3462020D01*
G37*
G36*
X787145Y3208020D02*
G01*
X777240Y3208781D01*
X767079Y3210560D01*
X757427Y3213607D01*
X748284Y3218179D01*
X739647Y3223513D01*
X731774Y3230118D01*
X724661Y3237484D01*
X718820Y3245865D01*
X713740Y3254755D01*
X710184Y3264154D01*
X707643Y3274060D01*
X706374Y3284220D01*
X706374Y3294379D01*
X707643Y3304539D01*
X710184Y3314445D01*
X713740Y3323844D01*
X718820Y3332987D01*
X724661Y3341115D01*
X731774Y3348481D01*
X739647Y3355086D01*
X748284Y3360420D01*
X757427Y3364992D01*
X767079Y3368039D01*
X777240Y3370071D01*
X787145Y3370579D01*
X940054Y3370579D01*
X949959Y3370071D01*
X960120Y3368039D01*
X969772Y3364992D01*
X978915Y3360420D01*
X987552Y3355086D01*
X995425Y3348481D01*
X1002538Y3341115D01*
X1008379Y3332987D01*
X1013459Y3323844D01*
X1017015Y3314445D01*
X1019556Y3304539D01*
X1020825Y3294379D01*
X1020825Y3284220D01*
X1019556Y3274060D01*
X1017015Y3264154D01*
X1013459Y3254755D01*
X1008379Y3245865D01*
X1002538Y3237484D01*
X995425Y3230118D01*
X987552Y3223513D01*
X978915Y3218179D01*
X969772Y3213607D01*
X960120Y3210560D01*
X949959Y3208781D01*
X940054Y3208020D01*
G37*
G36*
X787145Y2954020D02*
G01*
X777240Y2954781D01*
X767079Y2956560D01*
X757427Y2959607D01*
X748284Y2964179D01*
X739647Y2969513D01*
X731774Y2976118D01*
X724661Y2983484D01*
X718820Y2991865D01*
X713740Y3000755D01*
X710184Y3010154D01*
X707643Y3020060D01*
X706374Y3030220D01*
X706374Y3040379D01*
X707643Y3050539D01*
X710184Y3060445D01*
X713740Y3069844D01*
X718820Y3078987D01*
X724661Y3087115D01*
X731774Y3094481D01*
X739647Y3101086D01*
X748284Y3106420D01*
X757427Y3110992D01*
X767079Y3114039D01*
X777240Y3116071D01*
X787145Y3116579D01*
X940054Y3116579D01*
X949959Y3116071D01*
X960120Y3114039D01*
X969772Y3110992D01*
X978915Y3106420D01*
X987552Y3101086D01*
X995425Y3094481D01*
X1002538Y3087115D01*
X1008379Y3078987D01*
X1013459Y3069844D01*
X1017015Y3060445D01*
X1019556Y3050539D01*
X1020825Y3040379D01*
X1020825Y3030220D01*
X1019556Y3020060D01*
X1017015Y3010154D01*
X1013459Y3000755D01*
X1008379Y2991865D01*
X1002538Y2983484D01*
X995425Y2976118D01*
X987552Y2969513D01*
X978915Y2964179D01*
X969772Y2959607D01*
X960120Y2956560D01*
X949959Y2954781D01*
X940054Y2954020D01*
G37*
G36*
X787145Y2700020D02*
G01*
X777240Y2700781D01*
X767079Y2702560D01*
X757427Y2705607D01*
X748284Y2710179D01*
X739647Y2715513D01*
X731774Y2722118D01*
X724661Y2729484D01*
X718820Y2737865D01*
X713740Y2746755D01*
X710184Y2756154D01*
X707643Y2766060D01*
X706374Y2776220D01*
X706374Y2786379D01*
X707643Y2796539D01*
X710184Y2806445D01*
X713740Y2815844D01*
X718820Y2824987D01*
X724661Y2833115D01*
X731774Y2840481D01*
X739647Y2847086D01*
X748284Y2852420D01*
X757427Y2856992D01*
X767079Y2860039D01*
X777240Y2862071D01*
X787145Y2862579D01*
X940054Y2862579D01*
X949959Y2862071D01*
X960120Y2860039D01*
X969772Y2856992D01*
X978915Y2852420D01*
X987552Y2847086D01*
X995425Y2840481D01*
X1002538Y2833115D01*
X1008379Y2824987D01*
X1013459Y2815844D01*
X1017015Y2806445D01*
X1019556Y2796539D01*
X1020825Y2786379D01*
X1020825Y2776220D01*
X1019556Y2766060D01*
X1017015Y2756154D01*
X1013459Y2746755D01*
X1008379Y2737865D01*
X1002538Y2729484D01*
X995425Y2722118D01*
X987552Y2715513D01*
X978915Y2710179D01*
X969772Y2705607D01*
X960120Y2702560D01*
X949959Y2700781D01*
X940054Y2700020D01*
G37*
G36*
X787145Y2446020D02*
G01*
X777240Y2446781D01*
X767079Y2448560D01*
X757427Y2451607D01*
X748284Y2456179D01*
X739647Y2461513D01*
X731774Y2468118D01*
X724661Y2475484D01*
X718820Y2483865D01*
X713740Y2492755D01*
X710184Y2502154D01*
X707643Y2512060D01*
X706374Y2522220D01*
X706374Y2532379D01*
X707643Y2542539D01*
X710184Y2552445D01*
X713740Y2561844D01*
X718820Y2570987D01*
X724661Y2579115D01*
X731774Y2586481D01*
X739647Y2593086D01*
X748284Y2598420D01*
X757427Y2602992D01*
X767079Y2606039D01*
X777240Y2608071D01*
X787145Y2608579D01*
X940054Y2608579D01*
X949959Y2608071D01*
X960120Y2606039D01*
X969772Y2602992D01*
X978915Y2598420D01*
X987552Y2593086D01*
X995425Y2586481D01*
X1002538Y2579115D01*
X1008379Y2570987D01*
X1013459Y2561844D01*
X1017015Y2552445D01*
X1019556Y2542539D01*
X1020825Y2532379D01*
X1020825Y2522220D01*
X1019556Y2512060D01*
X1017015Y2502154D01*
X1013459Y2492755D01*
X1008379Y2483865D01*
X1002538Y2475484D01*
X995425Y2468118D01*
X987552Y2461513D01*
X978915Y2456179D01*
X969772Y2451607D01*
X960120Y2448560D01*
X949959Y2446781D01*
X940054Y2446020D01*
G37*
G36*
X2463545Y3716020D02*
G01*
X2453640Y3716781D01*
X2443479Y3718560D01*
X2433827Y3721607D01*
X2424684Y3726179D01*
X2416047Y3731513D01*
X2408174Y3738118D01*
X2401061Y3745484D01*
X2395220Y3753865D01*
X2390140Y3762755D01*
X2386584Y3772154D01*
X2384043Y3782060D01*
X2382774Y3792220D01*
X2382774Y3802379D01*
X2384043Y3812539D01*
X2386584Y3822445D01*
X2390140Y3831844D01*
X2395220Y3840987D01*
X2401061Y3849115D01*
X2408174Y3856481D01*
X2416047Y3863086D01*
X2424684Y3868420D01*
X2433827Y3872992D01*
X2443479Y3876039D01*
X2453640Y3878071D01*
X2463545Y3878579D01*
X2616454Y3878579D01*
X2626359Y3878071D01*
X2636520Y3876039D01*
X2646172Y3872992D01*
X2655315Y3868420D01*
X2663952Y3863086D01*
X2671825Y3856481D01*
X2678938Y3849115D01*
X2684779Y3840987D01*
X2689859Y3831844D01*
X2693415Y3822445D01*
X2695956Y3812539D01*
X2697225Y3802379D01*
X2697225Y3792220D01*
X2695956Y3782060D01*
X2693415Y3772154D01*
X2689859Y3762755D01*
X2684779Y3753865D01*
X2678938Y3745484D01*
X2671825Y3738118D01*
X2663952Y3731513D01*
X2655315Y3726179D01*
X2646172Y3721607D01*
X2636520Y3718560D01*
X2626359Y3716781D01*
X2616454Y3716020D01*
G37*
G36*
X799845Y2192020D02*
G01*
X789940Y2192781D01*
X779779Y2194560D01*
X770127Y2197607D01*
X760984Y2202179D01*
X752347Y2207513D01*
X744474Y2214118D01*
X737361Y2221484D01*
X731520Y2229865D01*
X726440Y2238755D01*
X722884Y2248154D01*
X720343Y2258060D01*
X719074Y2268220D01*
X719074Y2278379D01*
X720343Y2288539D01*
X722884Y2298445D01*
X726440Y2307844D01*
X731520Y2316987D01*
X737361Y2325115D01*
X744474Y2332481D01*
X752347Y2339086D01*
X760984Y2344420D01*
X770127Y2348992D01*
X779779Y2352039D01*
X789940Y2354071D01*
X799845Y2354579D01*
X952754Y2354579D01*
X962659Y2354071D01*
X972820Y2352039D01*
X982472Y2348992D01*
X991615Y2344420D01*
X1000252Y2339086D01*
X1008125Y2332481D01*
X1015238Y2325115D01*
X1021079Y2316987D01*
X1026159Y2307844D01*
X1029715Y2298445D01*
X1032256Y2288539D01*
X1033525Y2278379D01*
X1033525Y2268220D01*
X1032256Y2258060D01*
X1029715Y2248154D01*
X1026159Y2238755D01*
X1021079Y2229865D01*
X1015238Y2221484D01*
X1008125Y2214118D01*
X1000252Y2207513D01*
X991615Y2202179D01*
X982472Y2197607D01*
X972820Y2194560D01*
X962659Y2192781D01*
X952754Y2192020D01*
G37*
G36*
X7357872Y3571239D02*
G01*
X7357872Y3667760D01*
X7448550Y3667760D01*
X7448550Y3571239D01*
G37*
G36*
X7207250Y3571239D02*
G01*
X7207250Y3667760D01*
X7297927Y3667760D01*
X7297927Y3571239D01*
G37*
G36*
X6165850Y2999739D02*
G01*
X6165850Y3096260D01*
X6256527Y3096260D01*
X6256527Y2999739D01*
G37*
G36*
X6316472Y2999739D02*
G01*
X6316472Y3096260D01*
X6407150Y3096260D01*
X6407150Y2999739D01*
G37*
G36*
X-3028950Y2631439D02*
G01*
X-3028950Y2727960D01*
X-2938272Y2727960D01*
X-2938272Y2631439D01*
G37*
G36*
X-2878327Y2631439D02*
G01*
X-2878327Y2727960D01*
X-2787650Y2727960D01*
X-2787650Y2631439D01*
G37*
G36*
X-3945128Y3317239D02*
G01*
X-3945128Y3413760D01*
X-3854450Y3413760D01*
X-3854450Y3317239D01*
G37*
G36*
X-4095750Y3317239D02*
G01*
X-4095750Y3413760D01*
X-4005071Y3413760D01*
X-4005071Y3317239D01*
G37*
G36*
X-3932428Y5400039D02*
G01*
X-3932428Y5496560D01*
X-3841750Y5496560D01*
X-3841750Y5400039D01*
G37*
G36*
X-4083050Y5400039D02*
G01*
X-4083050Y5496560D01*
X-3992371Y5496560D01*
X-3992371Y5400039D01*
G37*
G36*
X-2101850Y3393439D02*
G01*
X-2101850Y3489960D01*
X-2011172Y3489960D01*
X-2011172Y3393439D01*
G37*
G36*
X-1951227Y3393439D02*
G01*
X-1951227Y3489960D01*
X-1860550Y3489960D01*
X-1860550Y3393439D01*
G37*
G36*
X7091172Y4790439D02*
G01*
X7091172Y4886960D01*
X7181850Y4886960D01*
X7181850Y4790439D01*
G37*
G36*
X6940550Y4790439D02*
G01*
X6940550Y4886960D01*
X7031227Y4886960D01*
X7031227Y4790439D01*
G37*
G36*
X1045972Y-797560D02*
G01*
X1045972Y-701039D01*
X1136650Y-701039D01*
X1136650Y-797560D01*
G37*
G36*
X895350Y-797560D02*
G01*
X895350Y-701039D01*
X986027Y-701039D01*
X986027Y-797560D01*
G37*
G36*
X2620772Y-772160D02*
G01*
X2620772Y-675639D01*
X2711450Y-675639D01*
X2711450Y-772160D01*
G37*
G36*
X2470150Y-772160D02*
G01*
X2470150Y-675639D01*
X2560827Y-675639D01*
X2560827Y-772160D01*
G37*
G36*
X-3043427Y4180839D02*
G01*
X-3043427Y4277360D01*
X-2952750Y4277360D01*
X-2952750Y4180839D01*
G37*
G36*
X-3194050Y4180839D02*
G01*
X-3194050Y4277360D01*
X-3103372Y4277360D01*
X-3103372Y4180839D01*
G37*
G36*
X6545072Y4244339D02*
G01*
X6545072Y4340860D01*
X6635750Y4340860D01*
X6635750Y4244339D01*
G37*
G36*
X6394450Y4244339D02*
G01*
X6394450Y4340860D01*
X6485127Y4340860D01*
X6485127Y4244339D01*
G37*
G36*
X5567172Y3583939D02*
G01*
X5567172Y3680460D01*
X5657850Y3680460D01*
X5657850Y3583939D01*
G37*
G36*
X5416550Y3583939D02*
G01*
X5416550Y3680460D01*
X5507227Y3680460D01*
X5507227Y3583939D01*
G37*
D32*
G01*
X-2873806Y5693206D03*
G01*
X-3323793Y5693206D03*
D33*
G01*
X-2748813Y5443194D03*
G01*
X-3448786Y5443194D03*
D32*
G01*
X6638493Y5680506D03*
G01*
X6188506Y5680506D03*
D33*
G01*
X6763486Y5430494D03*
G01*
X6063513Y5430494D03*
D34*
G01*
X762000Y-1524000D03*
G01*
X2044700Y-1536700D03*
M02*
