G04 Layer: TopSilkscreenLayer*
G04 EasyEDA v6.5.5, 2022-05-16 22:10:27*
G04 b8c07eb695134d75bee5dc6a5e37684e,a4ea12fd96744f7d9b8618c9b4952ea7,10*
G04 Gerber Generator version 0.2*
G04 Scale: 100 percent, Rotated: No, Reflected: No *
G04 Dimensions in millimeters *
G04 leading zeros omitted , absolute positions ,4 integer and 5 decimal *
%FSLAX45Y45*%
%MOMM*%

%ADD21C,0.2540*%
%ADD22C,0.1524*%
%ADD23C,0.2032*%
%ADD24C,0.1001*%
%ADD25C,0.2000*%

%LPD*%
D25*
X304800Y-1258062D02*
G01*
X304800Y-1353565D01*
X304800Y-1258062D02*
G01*
X345693Y-1258062D01*
X359409Y-1262634D01*
X363981Y-1267205D01*
X368554Y-1276095D01*
X368554Y-1285239D01*
X363981Y-1294384D01*
X359409Y-1298955D01*
X345693Y-1303528D01*
X304800Y-1303528D02*
G01*
X345693Y-1303528D01*
X359409Y-1308100D01*
X363981Y-1312418D01*
X368554Y-1321562D01*
X368554Y-1335278D01*
X363981Y-1344421D01*
X359409Y-1348994D01*
X345693Y-1353565D01*
X304800Y-1353565D01*
X452881Y-1289812D02*
G01*
X452881Y-1353565D01*
X452881Y-1303528D02*
G01*
X443991Y-1294384D01*
X434847Y-1289812D01*
X421131Y-1289812D01*
X411988Y-1294384D01*
X403097Y-1303528D01*
X398525Y-1316989D01*
X398525Y-1326134D01*
X403097Y-1339850D01*
X411988Y-1348994D01*
X421131Y-1353565D01*
X434847Y-1353565D01*
X443991Y-1348994D01*
X452881Y-1339850D01*
X496570Y-1258062D02*
G01*
X496570Y-1335278D01*
X501141Y-1348994D01*
X510286Y-1353565D01*
X519429Y-1353565D01*
X483108Y-1289812D02*
G01*
X514858Y-1289812D01*
X562863Y-1258062D02*
G01*
X562863Y-1335278D01*
X567436Y-1348994D01*
X576579Y-1353565D01*
X585724Y-1353565D01*
X549402Y-1289812D02*
G01*
X581152Y-1289812D01*
X615695Y-1316989D02*
G01*
X670306Y-1316989D01*
X670306Y-1308100D01*
X665734Y-1298955D01*
X661161Y-1294384D01*
X652018Y-1289812D01*
X638556Y-1289812D01*
X629411Y-1294384D01*
X620268Y-1303528D01*
X615695Y-1316989D01*
X615695Y-1326134D01*
X620268Y-1339850D01*
X629411Y-1348994D01*
X638556Y-1353565D01*
X652018Y-1353565D01*
X661161Y-1348994D01*
X670306Y-1339850D01*
X700277Y-1289812D02*
G01*
X700277Y-1353565D01*
X700277Y-1316989D02*
G01*
X704850Y-1303528D01*
X713993Y-1294384D01*
X722884Y-1289812D01*
X736600Y-1289812D01*
X771143Y-1289812D02*
G01*
X798322Y-1353565D01*
X825754Y-1289812D02*
G01*
X798322Y-1353565D01*
X789431Y-1371600D01*
X780288Y-1380744D01*
X771143Y-1385315D01*
X766572Y-1385315D01*
X966724Y-1271523D02*
G01*
X966724Y-1353565D01*
X925829Y-1312418D02*
G01*
X1007618Y-1312418D01*
X1037590Y-1258062D02*
G01*
X1073911Y-1353565D01*
X1110234Y-1258062D02*
G01*
X1073911Y-1353565D01*
X1140206Y-1258062D02*
G01*
X1140206Y-1353565D01*
X1140206Y-1258062D02*
G01*
X1199388Y-1258062D01*
X1140206Y-1303528D02*
G01*
X1176527Y-1303528D01*
X1140206Y-1353565D02*
G01*
X1199388Y-1353565D01*
D23*
X1625600Y-1270762D02*
G01*
X1625600Y-1366265D01*
X1625600Y-1270762D02*
G01*
X1666493Y-1270762D01*
X1680209Y-1275334D01*
X1684781Y-1279905D01*
X1689354Y-1288795D01*
X1689354Y-1297939D01*
X1684781Y-1307084D01*
X1680209Y-1311655D01*
X1666493Y-1316228D01*
X1625600Y-1316228D02*
G01*
X1666493Y-1316228D01*
X1680209Y-1320800D01*
X1684781Y-1325118D01*
X1689354Y-1334262D01*
X1689354Y-1347978D01*
X1684781Y-1357121D01*
X1680209Y-1361694D01*
X1666493Y-1366265D01*
X1625600Y-1366265D01*
X1773681Y-1302512D02*
G01*
X1773681Y-1366265D01*
X1773681Y-1316228D02*
G01*
X1764791Y-1307084D01*
X1755647Y-1302512D01*
X1741931Y-1302512D01*
X1732788Y-1307084D01*
X1723897Y-1316228D01*
X1719325Y-1329689D01*
X1719325Y-1338834D01*
X1723897Y-1352550D01*
X1732788Y-1361694D01*
X1741931Y-1366265D01*
X1755647Y-1366265D01*
X1764791Y-1361694D01*
X1773681Y-1352550D01*
X1817370Y-1270762D02*
G01*
X1817370Y-1347978D01*
X1821941Y-1361694D01*
X1831086Y-1366265D01*
X1840229Y-1366265D01*
X1803908Y-1302512D02*
G01*
X1835658Y-1302512D01*
X1883663Y-1270762D02*
G01*
X1883663Y-1347978D01*
X1888236Y-1361694D01*
X1897379Y-1366265D01*
X1906524Y-1366265D01*
X1870202Y-1302512D02*
G01*
X1901952Y-1302512D01*
X1936495Y-1329689D02*
G01*
X1991106Y-1329689D01*
X1991106Y-1320800D01*
X1986534Y-1311655D01*
X1981961Y-1307084D01*
X1972818Y-1302512D01*
X1959356Y-1302512D01*
X1950211Y-1307084D01*
X1941068Y-1316228D01*
X1936495Y-1329689D01*
X1936495Y-1338834D01*
X1941068Y-1352550D01*
X1950211Y-1361694D01*
X1959356Y-1366265D01*
X1972818Y-1366265D01*
X1981961Y-1361694D01*
X1991106Y-1352550D01*
X2021077Y-1302512D02*
G01*
X2021077Y-1366265D01*
X2021077Y-1329689D02*
G01*
X2025650Y-1316228D01*
X2034793Y-1307084D01*
X2043684Y-1302512D01*
X2057400Y-1302512D01*
X2091943Y-1302512D02*
G01*
X2119122Y-1366265D01*
X2146554Y-1302512D02*
G01*
X2119122Y-1366265D01*
X2110231Y-1384300D01*
X2101088Y-1393444D01*
X2091943Y-1398015D01*
X2087372Y-1398015D01*
X2246629Y-1325118D02*
G01*
X2328418Y-1325118D01*
X2358390Y-1270762D02*
G01*
X2394711Y-1366265D01*
X2431034Y-1270762D02*
G01*
X2394711Y-1366265D01*
X2461006Y-1270762D02*
G01*
X2461006Y-1366265D01*
X2461006Y-1270762D02*
G01*
X2520188Y-1270762D01*
X2461006Y-1316228D02*
G01*
X2497327Y-1316228D01*
X2461006Y-1366265D02*
G01*
X2520188Y-1366265D01*
D22*
X6899656Y3506215D02*
G01*
X6858000Y3397250D01*
X6899656Y3506215D02*
G01*
X6941058Y3397250D01*
X6873493Y3433571D02*
G01*
X6925563Y3433571D01*
X6019800Y2795015D02*
G01*
X6019800Y2686050D01*
X6019800Y2795015D02*
G01*
X6066536Y2795015D01*
X6082029Y2789936D01*
X6087363Y2784602D01*
X6092443Y2774187D01*
X6092443Y2763773D01*
X6087363Y2753360D01*
X6082029Y2748279D01*
X6066536Y2743200D01*
X6019800Y2743200D02*
G01*
X6066536Y2743200D01*
X6082029Y2737865D01*
X6087363Y2732786D01*
X6092443Y2722371D01*
X6092443Y2706623D01*
X6087363Y2696210D01*
X6082029Y2691129D01*
X6066536Y2686050D01*
X6019800Y2686050D01*
X-2832100Y2579115D02*
G01*
X-2832100Y2470150D01*
X-2832100Y2579115D02*
G01*
X-2795777Y2579115D01*
X-2780029Y2574036D01*
X-2769870Y2563621D01*
X-2764536Y2553207D01*
X-2759456Y2537460D01*
X-2759456Y2511552D01*
X-2764536Y2496057D01*
X-2769870Y2485644D01*
X-2780029Y2475229D01*
X-2795777Y2470150D01*
X-2832100Y2470150D01*
X-2693924Y2579115D02*
G01*
X-2704338Y2574036D01*
X-2714752Y2563621D01*
X-2719831Y2553207D01*
X-2725165Y2537460D01*
X-2725165Y2511552D01*
X-2719831Y2496057D01*
X-2714752Y2485644D01*
X-2704338Y2475229D01*
X-2693924Y2470150D01*
X-2673095Y2470150D01*
X-2662681Y2475229D01*
X-2652268Y2485644D01*
X-2647188Y2496057D01*
X-2641854Y2511552D01*
X-2641854Y2537460D01*
X-2647188Y2553207D01*
X-2652268Y2563621D01*
X-2662681Y2574036D01*
X-2673095Y2579115D01*
X-2693924Y2579115D01*
X-2607563Y2579115D02*
G01*
X-2581656Y2470150D01*
X-2555747Y2579115D02*
G01*
X-2581656Y2470150D01*
X-2555747Y2579115D02*
G01*
X-2529840Y2470150D01*
X-2503677Y2579115D02*
G01*
X-2529840Y2470150D01*
X-2469388Y2579115D02*
G01*
X-2469388Y2470150D01*
X-2469388Y2579115D02*
G01*
X-2396743Y2470150D01*
X-2396743Y2579115D02*
G01*
X-2396743Y2470150D01*
X-3733800Y3277615D02*
G01*
X-3733800Y3168650D01*
X-3733800Y3168650D02*
G01*
X-3671570Y3168650D01*
X-3637279Y3277615D02*
G01*
X-3637279Y3168650D01*
X-3637279Y3277615D02*
G01*
X-3569715Y3277615D01*
X-3637279Y3225800D02*
G01*
X-3595623Y3225800D01*
X-3637279Y3168650D02*
G01*
X-3569715Y3168650D01*
X-3535426Y3277615D02*
G01*
X-3535426Y3168650D01*
X-3535426Y3277615D02*
G01*
X-3467862Y3277615D01*
X-3535426Y3225800D02*
G01*
X-3493770Y3225800D01*
X-3397250Y3277615D02*
G01*
X-3397250Y3168650D01*
X-3433571Y3277615D02*
G01*
X-3360673Y3277615D01*
X-1879600Y3328415D02*
G01*
X-1879600Y3219450D01*
X-1879600Y3328415D02*
G01*
X-1832863Y3328415D01*
X-1817370Y3323336D01*
X-1812036Y3318002D01*
X-1806956Y3307587D01*
X-1806956Y3297173D01*
X-1812036Y3286760D01*
X-1817370Y3281679D01*
X-1832863Y3276600D01*
X-1879600Y3276600D01*
X-1843277Y3276600D02*
G01*
X-1806956Y3219450D01*
X-1772665Y3328415D02*
G01*
X-1772665Y3219450D01*
X-1660397Y3302507D02*
G01*
X-1665477Y3312921D01*
X-1675891Y3323336D01*
X-1686306Y3328415D01*
X-1707134Y3328415D01*
X-1717547Y3323336D01*
X-1727961Y3312921D01*
X-1733041Y3302507D01*
X-1738375Y3286760D01*
X-1738375Y3260852D01*
X-1733041Y3245357D01*
X-1727961Y3234944D01*
X-1717547Y3224529D01*
X-1707134Y3219450D01*
X-1686306Y3219450D01*
X-1675891Y3224529D01*
X-1665477Y3234944D01*
X-1660397Y3245357D01*
X-1660397Y3260852D01*
X-1686306Y3260852D02*
G01*
X-1660397Y3260852D01*
X-1626108Y3328415D02*
G01*
X-1626108Y3219450D01*
X-1553209Y3328415D02*
G01*
X-1553209Y3219450D01*
X-1626108Y3276600D02*
G01*
X-1553209Y3276600D01*
X-1482597Y3328415D02*
G01*
X-1482597Y3219450D01*
X-1518920Y3328415D02*
G01*
X-1446275Y3328415D01*
X-2717800Y4204715D02*
G01*
X-2717800Y4126737D01*
X-2712720Y4111244D01*
X-2702306Y4100829D01*
X-2686558Y4095750D01*
X-2676143Y4095750D01*
X-2660650Y4100829D01*
X-2650236Y4111244D01*
X-2645156Y4126737D01*
X-2645156Y4204715D01*
X-2610865Y4204715D02*
G01*
X-2610865Y4095750D01*
X-2610865Y4204715D02*
G01*
X-2564129Y4204715D01*
X-2548381Y4199636D01*
X-2543302Y4194302D01*
X-2537968Y4183887D01*
X-2537968Y4168394D01*
X-2543302Y4157979D01*
X-2548381Y4152900D01*
X-2564129Y4147565D01*
X-2610865Y4147565D01*
X6096000Y4179315D02*
G01*
X6168643Y4070350D01*
X6168643Y4179315D02*
G01*
X6096000Y4070350D01*
X5029200Y3531615D02*
G01*
X5070856Y3479800D01*
X5070856Y3422650D01*
X5112258Y3531615D02*
G01*
X5070856Y3479800D01*
X-570229Y572515D02*
G01*
X-570229Y489457D01*
X-575563Y473710D01*
X-580643Y468629D01*
X-591058Y463550D01*
X-601472Y463550D01*
X-611886Y468629D01*
X-617220Y473710D01*
X-622300Y489457D01*
X-622300Y499871D01*
X-535940Y572515D02*
G01*
X-535940Y463550D01*
X-535940Y572515D02*
G01*
X-489204Y572515D01*
X-473709Y567436D01*
X-468629Y562102D01*
X-463295Y551687D01*
X-463295Y536194D01*
X-468629Y525779D01*
X-473709Y520700D01*
X-489204Y515365D01*
X-535940Y515365D01*
X-429006Y551687D02*
G01*
X-418591Y557021D01*
X-403097Y572515D01*
X-403097Y463550D01*
X4090670Y470915D02*
G01*
X4090670Y387857D01*
X4085336Y372110D01*
X4080256Y367029D01*
X4069841Y361950D01*
X4059427Y361950D01*
X4049013Y367029D01*
X4043679Y372110D01*
X4038600Y387857D01*
X4038600Y398271D01*
X4124959Y470915D02*
G01*
X4124959Y361950D01*
X4124959Y470915D02*
G01*
X4171695Y470915D01*
X4187190Y465836D01*
X4192270Y460502D01*
X4197604Y450087D01*
X4197604Y434594D01*
X4192270Y424179D01*
X4187190Y419100D01*
X4171695Y413765D01*
X4124959Y413765D01*
X4236974Y445007D02*
G01*
X4236974Y450087D01*
X4242308Y460502D01*
X4247388Y465836D01*
X4257802Y470915D01*
X4278629Y470915D01*
X4289043Y465836D01*
X4294124Y460502D01*
X4299458Y450087D01*
X4299458Y439673D01*
X4294124Y429260D01*
X4283709Y413765D01*
X4231893Y361950D01*
X4304538Y361950D01*
X529843Y201424D02*
G01*
X519429Y211838D01*
X503936Y216918D01*
X483108Y216918D01*
X467613Y211838D01*
X457200Y201424D01*
X457200Y191010D01*
X462279Y180596D01*
X467613Y175262D01*
X478027Y170182D01*
X509270Y159768D01*
X519429Y154688D01*
X524763Y149354D01*
X529843Y138940D01*
X529843Y123446D01*
X519429Y113032D01*
X503936Y107952D01*
X483108Y107952D01*
X467613Y113032D01*
X457200Y123446D01*
X564134Y216918D02*
G01*
X564134Y107952D01*
X564134Y216918D02*
G01*
X631697Y216918D01*
X564134Y165102D02*
G01*
X605790Y165102D01*
X564134Y107952D02*
G01*
X631697Y107952D01*
X665988Y216918D02*
G01*
X665988Y107952D01*
X665988Y107952D02*
G01*
X728472Y107952D01*
X762761Y216918D02*
G01*
X762761Y107952D01*
X762761Y216918D02*
G01*
X830325Y216918D01*
X762761Y165102D02*
G01*
X804163Y165102D01*
X762761Y107952D02*
G01*
X830325Y107952D01*
X942340Y191010D02*
G01*
X937259Y201424D01*
X926845Y211838D01*
X916431Y216918D01*
X895604Y216918D01*
X885190Y211838D01*
X875029Y201424D01*
X869695Y191010D01*
X864615Y175262D01*
X864615Y149354D01*
X869695Y133860D01*
X875029Y123446D01*
X885190Y113032D01*
X895604Y107952D01*
X916431Y107952D01*
X926845Y113032D01*
X937259Y123446D01*
X942340Y133860D01*
X1013206Y216918D02*
G01*
X1013206Y107952D01*
X976629Y216918D02*
G01*
X1049527Y216918D01*
X2003043Y201424D02*
G01*
X1992629Y211838D01*
X1977136Y216918D01*
X1956308Y216918D01*
X1940813Y211838D01*
X1930400Y201424D01*
X1930400Y191010D01*
X1935479Y180596D01*
X1940813Y175262D01*
X1951227Y170182D01*
X1982470Y159768D01*
X1992629Y154688D01*
X1997963Y149354D01*
X2003043Y138940D01*
X2003043Y123446D01*
X1992629Y113032D01*
X1977136Y107952D01*
X1956308Y107952D01*
X1940813Y113032D01*
X1930400Y123446D01*
X2073909Y216918D02*
G01*
X2073909Y107952D01*
X2037334Y216918D02*
G01*
X2110231Y216918D01*
X2185924Y216918D02*
G01*
X2144522Y107952D01*
X2185924Y216918D02*
G01*
X2227579Y107952D01*
X2160015Y144274D02*
G01*
X2212086Y144274D01*
X2261870Y216918D02*
G01*
X2261870Y107952D01*
X2261870Y216918D02*
G01*
X2308606Y216918D01*
X2324100Y211838D01*
X2329434Y206504D01*
X2334513Y196090D01*
X2334513Y185676D01*
X2329434Y175262D01*
X2324100Y170182D01*
X2308606Y165102D01*
X2261870Y165102D01*
X2298191Y165102D02*
G01*
X2334513Y107952D01*
X2405379Y216918D02*
G01*
X2405379Y107952D01*
X2368804Y216918D02*
G01*
X2441702Y216918D01*
X-3594100Y1232915D02*
G01*
X-3594100Y1154937D01*
X-3589020Y1139444D01*
X-3578605Y1129029D01*
X-3562857Y1123950D01*
X-3552444Y1123950D01*
X-3536950Y1129029D01*
X-3526536Y1139444D01*
X-3521455Y1154937D01*
X-3521455Y1232915D01*
X-3487165Y1212087D02*
G01*
X-3476752Y1217421D01*
X-3461004Y1232915D01*
X-3461004Y1123950D01*
X6159500Y1372615D02*
G01*
X6159500Y1294637D01*
X6164579Y1279144D01*
X6174993Y1268729D01*
X6190741Y1263650D01*
X6201156Y1263650D01*
X6216650Y1268729D01*
X6227063Y1279144D01*
X6232143Y1294637D01*
X6232143Y1372615D01*
X6271768Y1346707D02*
G01*
X6271768Y1351787D01*
X6276847Y1362202D01*
X6282181Y1367536D01*
X6292595Y1372615D01*
X6313170Y1372615D01*
X6323584Y1367536D01*
X6328918Y1362202D01*
X6333997Y1351787D01*
X6333997Y1341373D01*
X6328918Y1330960D01*
X6318504Y1315465D01*
X6266434Y1263650D01*
X6339331Y1263650D01*
X-1765300Y5957315D02*
G01*
X-1765300Y5848350D01*
X-1765300Y5848350D02*
G01*
X-1703070Y5848350D01*
X-1663445Y5931407D02*
G01*
X-1663445Y5936487D01*
X-1658365Y5946902D01*
X-1653031Y5952236D01*
X-1642618Y5957315D01*
X-1621790Y5957315D01*
X-1611629Y5952236D01*
X-1606295Y5946902D01*
X-1601215Y5936487D01*
X-1601215Y5926073D01*
X-1606295Y5915660D01*
X-1616709Y5900165D01*
X-1668779Y5848350D01*
X-1595881Y5848350D01*
X-1561591Y5811773D02*
G01*
X-1468120Y5811773D01*
X-1433829Y5957315D02*
G01*
X-1433829Y5848350D01*
X-1433829Y5957315D02*
G01*
X-1366265Y5957315D01*
X-1433829Y5905500D02*
G01*
X-1392174Y5905500D01*
X-1259331Y5941821D02*
G01*
X-1269745Y5952236D01*
X-1285240Y5957315D01*
X-1306068Y5957315D01*
X-1321561Y5952236D01*
X-1331975Y5941821D01*
X-1331975Y5931407D01*
X-1326895Y5920994D01*
X-1321561Y5915660D01*
X-1311147Y5910579D01*
X-1280159Y5900165D01*
X-1269745Y5895086D01*
X-1264411Y5889752D01*
X-1259331Y5879337D01*
X-1259331Y5863844D01*
X-1269745Y5853429D01*
X-1285240Y5848350D01*
X-1306068Y5848350D01*
X-1321561Y5853429D01*
X-1331975Y5863844D01*
X-1225041Y5957315D02*
G01*
X-1225041Y5848350D01*
X-1225041Y5957315D02*
G01*
X-1178306Y5957315D01*
X-1162558Y5952236D01*
X-1157477Y5946902D01*
X-1152143Y5936487D01*
X-1152143Y5926073D01*
X-1157477Y5915660D01*
X-1162558Y5910579D01*
X-1178306Y5905500D01*
X-1225041Y5905500D01*
X-1188720Y5905500D02*
G01*
X-1152143Y5848350D01*
X-800100Y5589015D02*
G01*
X-800100Y5480050D01*
X-800100Y5480050D02*
G01*
X-737870Y5480050D01*
X-698245Y5563107D02*
G01*
X-698245Y5568187D01*
X-693165Y5578602D01*
X-687831Y5583936D01*
X-677418Y5589015D01*
X-656590Y5589015D01*
X-646429Y5583936D01*
X-641095Y5578602D01*
X-636015Y5568187D01*
X-636015Y5557773D01*
X-641095Y5547360D01*
X-651509Y5531865D01*
X-703579Y5480050D01*
X-630681Y5480050D01*
X-596391Y5443473D02*
G01*
X-502920Y5443473D01*
X-468629Y5589015D02*
G01*
X-468629Y5480050D01*
X-468629Y5589015D02*
G01*
X-421893Y5589015D01*
X-406400Y5583936D01*
X-401065Y5578602D01*
X-395986Y5568187D01*
X-395986Y5557773D01*
X-401065Y5547360D01*
X-406400Y5542279D01*
X-421893Y5537200D01*
X-468629Y5537200D01*
X-432308Y5537200D02*
G01*
X-395986Y5480050D01*
X-361695Y5589015D02*
G01*
X-361695Y5480050D01*
X-361695Y5589015D02*
G01*
X-294131Y5589015D01*
X-361695Y5537200D02*
G01*
X-320040Y5537200D01*
X-361695Y5480050D02*
G01*
X-294131Y5480050D01*
X-186943Y5573521D02*
G01*
X-197358Y5583936D01*
X-213106Y5589015D01*
X-233679Y5589015D01*
X-249427Y5583936D01*
X-259841Y5573521D01*
X-259841Y5563107D01*
X-254508Y5552694D01*
X-249427Y5547360D01*
X-239013Y5542279D01*
X-207772Y5531865D01*
X-197358Y5526786D01*
X-192277Y5521452D01*
X-186943Y5511037D01*
X-186943Y5495544D01*
X-197358Y5485129D01*
X-213106Y5480050D01*
X-233679Y5480050D01*
X-249427Y5485129D01*
X-259841Y5495544D01*
X5181600Y5792215D02*
G01*
X5181600Y5683250D01*
X5181600Y5792215D02*
G01*
X5228336Y5792215D01*
X5243829Y5787136D01*
X5249163Y5781802D01*
X5254243Y5771387D01*
X5254243Y5760973D01*
X5249163Y5750560D01*
X5243829Y5745479D01*
X5228336Y5740400D01*
X5181600Y5740400D01*
X5217922Y5740400D02*
G01*
X5254243Y5683250D01*
X5293868Y5766307D02*
G01*
X5293868Y5771387D01*
X5298947Y5781802D01*
X5304281Y5787136D01*
X5314695Y5792215D01*
X5335270Y5792215D01*
X5345684Y5787136D01*
X5351018Y5781802D01*
X5356097Y5771387D01*
X5356097Y5760973D01*
X5351018Y5750560D01*
X5340604Y5735065D01*
X5288534Y5683250D01*
X5361431Y5683250D01*
X5395722Y5646673D02*
G01*
X5489193Y5646673D01*
X5523484Y5792215D02*
G01*
X5523484Y5683250D01*
X5523484Y5792215D02*
G01*
X5591047Y5792215D01*
X5523484Y5740400D02*
G01*
X5565140Y5740400D01*
X5697981Y5776721D02*
G01*
X5687568Y5787136D01*
X5672074Y5792215D01*
X5651245Y5792215D01*
X5635752Y5787136D01*
X5625338Y5776721D01*
X5625338Y5766307D01*
X5630418Y5755894D01*
X5635752Y5750560D01*
X5646165Y5745479D01*
X5677154Y5735065D01*
X5687568Y5729986D01*
X5692902Y5724652D01*
X5697981Y5714237D01*
X5697981Y5698744D01*
X5687568Y5688329D01*
X5672074Y5683250D01*
X5651245Y5683250D01*
X5635752Y5688329D01*
X5625338Y5698744D01*
X5732272Y5792215D02*
G01*
X5732272Y5683250D01*
X5732272Y5792215D02*
G01*
X5779008Y5792215D01*
X5794756Y5787136D01*
X5799836Y5781802D01*
X5805170Y5771387D01*
X5805170Y5760973D01*
X5799836Y5750560D01*
X5794756Y5745479D01*
X5779008Y5740400D01*
X5732272Y5740400D01*
X5768593Y5740400D02*
G01*
X5805170Y5683250D01*
X5156200Y5449315D02*
G01*
X5156200Y5340350D01*
X5156200Y5449315D02*
G01*
X5202936Y5449315D01*
X5218429Y5444236D01*
X5223763Y5438902D01*
X5228843Y5428487D01*
X5228843Y5418073D01*
X5223763Y5407660D01*
X5218429Y5402579D01*
X5202936Y5397500D01*
X5156200Y5397500D01*
X5192522Y5397500D02*
G01*
X5228843Y5340350D01*
X5268468Y5423407D02*
G01*
X5268468Y5428487D01*
X5273547Y5438902D01*
X5278881Y5444236D01*
X5289295Y5449315D01*
X5309870Y5449315D01*
X5320284Y5444236D01*
X5325618Y5438902D01*
X5330697Y5428487D01*
X5330697Y5418073D01*
X5325618Y5407660D01*
X5315204Y5392165D01*
X5263134Y5340350D01*
X5336031Y5340350D01*
X5370322Y5303773D02*
G01*
X5463793Y5303773D01*
X5498084Y5449315D02*
G01*
X5498084Y5340350D01*
X5498084Y5449315D02*
G01*
X5544820Y5449315D01*
X5560313Y5444236D01*
X5565647Y5438902D01*
X5570727Y5428487D01*
X5570727Y5418073D01*
X5565647Y5407660D01*
X5560313Y5402579D01*
X5544820Y5397500D01*
X5498084Y5397500D01*
X5534406Y5397500D02*
G01*
X5570727Y5340350D01*
X5605018Y5449315D02*
G01*
X5605018Y5340350D01*
X5605018Y5449315D02*
G01*
X5672581Y5449315D01*
X5605018Y5397500D02*
G01*
X5646674Y5397500D01*
X5605018Y5340350D02*
G01*
X5672581Y5340350D01*
X5779770Y5433821D02*
G01*
X5769356Y5444236D01*
X5753608Y5449315D01*
X5732779Y5449315D01*
X5717286Y5444236D01*
X5706872Y5433821D01*
X5706872Y5423407D01*
X5712206Y5412994D01*
X5717286Y5407660D01*
X5727700Y5402579D01*
X5758941Y5392165D01*
X5769356Y5387086D01*
X5774436Y5381752D01*
X5779770Y5371337D01*
X5779770Y5355844D01*
X5769356Y5345429D01*
X5753608Y5340350D01*
X5732779Y5340350D01*
X5717286Y5345429D01*
X5706872Y5355844D01*
X1612900Y6071615D02*
G01*
X1612900Y5993637D01*
X1617979Y5978144D01*
X1628393Y5967729D01*
X1644141Y5962650D01*
X1654556Y5962650D01*
X1670050Y5967729D01*
X1680463Y5978144D01*
X1685543Y5993637D01*
X1685543Y6071615D01*
X1730247Y6071615D02*
G01*
X1787397Y6071615D01*
X1756409Y6029960D01*
X1771904Y6029960D01*
X1782318Y6024879D01*
X1787397Y6019800D01*
X1792731Y6004052D01*
X1792731Y5993637D01*
X1787397Y5978144D01*
X1776984Y5967729D01*
X1761490Y5962650D01*
X1745995Y5962650D01*
X1730247Y5967729D01*
X1725168Y5972810D01*
X1719834Y5983223D01*
X7369556Y3836415D02*
G01*
X7327900Y3727450D01*
X7369556Y3836415D02*
G01*
X7411211Y3727450D01*
X7343647Y3763771D02*
G01*
X7395463Y3763771D01*
X7445502Y3690873D02*
G01*
X7538974Y3690873D01*
X7573263Y3836415D02*
G01*
X7573263Y3727450D01*
X7573263Y3836415D02*
G01*
X7620000Y3836415D01*
X7635493Y3831336D01*
X7640827Y3826002D01*
X7645908Y3815587D01*
X7645908Y3805173D01*
X7640827Y3794760D01*
X7635493Y3789679D01*
X7620000Y3784600D01*
X7573263Y3784600D01*
X7609586Y3784600D02*
G01*
X7645908Y3727450D01*
X7680197Y3836415D02*
G01*
X7680197Y3727450D01*
X7680197Y3836415D02*
G01*
X7747761Y3836415D01*
X7680197Y3784600D02*
G01*
X7721854Y3784600D01*
X7680197Y3727450D02*
G01*
X7747761Y3727450D01*
X7854695Y3820921D02*
G01*
X7844281Y3831336D01*
X7828788Y3836415D01*
X7807959Y3836415D01*
X7792465Y3831336D01*
X7782052Y3820921D01*
X7782052Y3810507D01*
X7787131Y3800094D01*
X7792465Y3794760D01*
X7802879Y3789679D01*
X7834122Y3779265D01*
X7844281Y3774186D01*
X7849615Y3768852D01*
X7854695Y3758437D01*
X7854695Y3742944D01*
X7844281Y3732529D01*
X7828788Y3727450D01*
X7807959Y3727450D01*
X7792465Y3732529D01*
X7782052Y3742944D01*
X5740400Y3290315D02*
G01*
X5740400Y3181350D01*
X5740400Y3290315D02*
G01*
X5787136Y3290315D01*
X5802629Y3285236D01*
X5807963Y3279902D01*
X5813043Y3269487D01*
X5813043Y3259073D01*
X5807963Y3248660D01*
X5802629Y3243579D01*
X5787136Y3238500D01*
X5740400Y3238500D02*
G01*
X5787136Y3238500D01*
X5802629Y3233165D01*
X5807963Y3228086D01*
X5813043Y3217671D01*
X5813043Y3201923D01*
X5807963Y3191510D01*
X5802629Y3186429D01*
X5787136Y3181350D01*
X5740400Y3181350D01*
X5847334Y3144773D02*
G01*
X5941059Y3144773D01*
X5975350Y3290315D02*
G01*
X5975350Y3181350D01*
X5975350Y3290315D02*
G01*
X6022086Y3290315D01*
X6037579Y3285236D01*
X6042659Y3279902D01*
X6047993Y3269487D01*
X6047993Y3259073D01*
X6042659Y3248660D01*
X6037579Y3243579D01*
X6022086Y3238500D01*
X5975350Y3238500D01*
X6011672Y3238500D02*
G01*
X6047993Y3181350D01*
X6082284Y3290315D02*
G01*
X6082284Y3181350D01*
X6082284Y3290315D02*
G01*
X6149847Y3290315D01*
X6082284Y3238500D02*
G01*
X6123940Y3238500D01*
X6082284Y3181350D02*
G01*
X6149847Y3181350D01*
X6256781Y3274821D02*
G01*
X6246368Y3285236D01*
X6230874Y3290315D01*
X6210045Y3290315D01*
X6194552Y3285236D01*
X6184138Y3274821D01*
X6184138Y3264407D01*
X6189218Y3253994D01*
X6194552Y3248660D01*
X6204965Y3243579D01*
X6235954Y3233165D01*
X6246368Y3228086D01*
X6251702Y3222752D01*
X6256781Y3212337D01*
X6256781Y3196844D01*
X6246368Y3186429D01*
X6230874Y3181350D01*
X6210045Y3181350D01*
X6194552Y3186429D01*
X6184138Y3196844D01*
X-3175000Y2883915D02*
G01*
X-3175000Y2774950D01*
X-3175000Y2883915D02*
G01*
X-3138678Y2883915D01*
X-3122929Y2878836D01*
X-3112770Y2868421D01*
X-3107436Y2858007D01*
X-3102356Y2842260D01*
X-3102356Y2816352D01*
X-3107436Y2800857D01*
X-3112770Y2790444D01*
X-3122929Y2780029D01*
X-3138678Y2774950D01*
X-3175000Y2774950D01*
X-3036824Y2883915D02*
G01*
X-3047238Y2878836D01*
X-3057652Y2868421D01*
X-3062731Y2858007D01*
X-3068065Y2842260D01*
X-3068065Y2816352D01*
X-3062731Y2800857D01*
X-3057652Y2790444D01*
X-3047238Y2780029D01*
X-3036824Y2774950D01*
X-3015995Y2774950D01*
X-3005581Y2780029D01*
X-2995168Y2790444D01*
X-2990088Y2800857D01*
X-2984754Y2816352D01*
X-2984754Y2842260D01*
X-2990088Y2858007D01*
X-2995168Y2868421D01*
X-3005581Y2878836D01*
X-3015995Y2883915D01*
X-3036824Y2883915D01*
X-2950463Y2883915D02*
G01*
X-2924556Y2774950D01*
X-2898647Y2883915D02*
G01*
X-2924556Y2774950D01*
X-2898647Y2883915D02*
G01*
X-2872740Y2774950D01*
X-2846577Y2883915D02*
G01*
X-2872740Y2774950D01*
X-2812288Y2883915D02*
G01*
X-2812288Y2774950D01*
X-2812288Y2883915D02*
G01*
X-2739643Y2774950D01*
X-2739643Y2883915D02*
G01*
X-2739643Y2774950D01*
X-2705354Y2738373D02*
G01*
X-2611881Y2738373D01*
X-2577591Y2883915D02*
G01*
X-2577591Y2774950D01*
X-2577591Y2883915D02*
G01*
X-2530856Y2883915D01*
X-2515108Y2878836D01*
X-2510027Y2873502D01*
X-2504693Y2863087D01*
X-2504693Y2852673D01*
X-2510027Y2842260D01*
X-2515108Y2837179D01*
X-2530856Y2832100D01*
X-2577591Y2832100D01*
X-2541270Y2832100D02*
G01*
X-2504693Y2774950D01*
X-2470404Y2883915D02*
G01*
X-2470404Y2774950D01*
X-2470404Y2883915D02*
G01*
X-2402840Y2883915D01*
X-2470404Y2832100D02*
G01*
X-2429002Y2832100D01*
X-2470404Y2774950D02*
G01*
X-2402840Y2774950D01*
X-2295906Y2868421D02*
G01*
X-2306320Y2878836D01*
X-2321813Y2883915D01*
X-2342641Y2883915D01*
X-2358390Y2878836D01*
X-2368550Y2868421D01*
X-2368550Y2858007D01*
X-2363470Y2847594D01*
X-2358390Y2842260D01*
X-2347975Y2837179D01*
X-2316734Y2826765D01*
X-2306320Y2821686D01*
X-2301240Y2816352D01*
X-2295906Y2805937D01*
X-2295906Y2790444D01*
X-2306320Y2780029D01*
X-2321813Y2774950D01*
X-2342641Y2774950D01*
X-2358390Y2780029D01*
X-2368550Y2790444D01*
X-4114876Y3595115D02*
G01*
X-4114876Y3486150D01*
X-4114876Y3486150D02*
G01*
X-4052392Y3486150D01*
X-4018102Y3595115D02*
G01*
X-4018102Y3486150D01*
X-4018102Y3595115D02*
G01*
X-3950538Y3595115D01*
X-4018102Y3543300D02*
G01*
X-3976700Y3543300D01*
X-4018102Y3486150D02*
G01*
X-3950538Y3486150D01*
X-3916248Y3595115D02*
G01*
X-3916248Y3486150D01*
X-3916248Y3595115D02*
G01*
X-3848684Y3595115D01*
X-3916248Y3543300D02*
G01*
X-3874846Y3543300D01*
X-3778072Y3595115D02*
G01*
X-3778072Y3486150D01*
X-3814394Y3595115D02*
G01*
X-3741750Y3595115D01*
X-3707460Y3449573D02*
G01*
X-3613988Y3449573D01*
X-3579698Y3595115D02*
G01*
X-3579698Y3486150D01*
X-3579698Y3595115D02*
G01*
X-3532962Y3595115D01*
X-3517214Y3590036D01*
X-3512134Y3584702D01*
X-3507054Y3574287D01*
X-3507054Y3563873D01*
X-3512134Y3553460D01*
X-3517214Y3548379D01*
X-3532962Y3543300D01*
X-3579698Y3543300D01*
X-3543376Y3543300D02*
G01*
X-3507054Y3486150D01*
X-3472764Y3595115D02*
G01*
X-3472764Y3486150D01*
X-3472764Y3595115D02*
G01*
X-3405200Y3595115D01*
X-3472764Y3543300D02*
G01*
X-3431108Y3543300D01*
X-3472764Y3486150D02*
G01*
X-3405200Y3486150D01*
X-3298012Y3579621D02*
G01*
X-3308426Y3590036D01*
X-3324174Y3595115D01*
X-3344748Y3595115D01*
X-3360496Y3590036D01*
X-3370910Y3579621D01*
X-3370910Y3569207D01*
X-3365576Y3558794D01*
X-3360496Y3553460D01*
X-3350082Y3548379D01*
X-3318840Y3537965D01*
X-3308426Y3532886D01*
X-3303346Y3527552D01*
X-3298012Y3517137D01*
X-3298012Y3501644D01*
X-3308426Y3491229D01*
X-3324174Y3486150D01*
X-3344748Y3486150D01*
X-3360496Y3491229D01*
X-3370910Y3501644D01*
X-4254500Y5309615D02*
G01*
X-4254500Y5200650D01*
X-4254500Y5200650D02*
G01*
X-4192270Y5200650D01*
X-4157979Y5164073D02*
G01*
X-4064254Y5164073D01*
X-4029963Y5309615D02*
G01*
X-4029963Y5200650D01*
X-4029963Y5309615D02*
G01*
X-3983228Y5309615D01*
X-3967734Y5304536D01*
X-3962400Y5299202D01*
X-3957320Y5288787D01*
X-3957320Y5278373D01*
X-3962400Y5267960D01*
X-3967734Y5262879D01*
X-3983228Y5257800D01*
X-4029963Y5257800D01*
X-3993642Y5257800D02*
G01*
X-3957320Y5200650D01*
X-3923029Y5309615D02*
G01*
X-3923029Y5200650D01*
X-3923029Y5309615D02*
G01*
X-3855465Y5309615D01*
X-3923029Y5257800D02*
G01*
X-3881373Y5257800D01*
X-3923029Y5200650D02*
G01*
X-3855465Y5200650D01*
X-3748531Y5294121D02*
G01*
X-3758945Y5304536D01*
X-3774439Y5309615D01*
X-3795268Y5309615D01*
X-3810762Y5304536D01*
X-3821176Y5294121D01*
X-3821176Y5283707D01*
X-3816095Y5273294D01*
X-3810762Y5267960D01*
X-3800347Y5262879D01*
X-3769360Y5252465D01*
X-3758945Y5247386D01*
X-3753612Y5242052D01*
X-3748531Y5231637D01*
X-3748531Y5216144D01*
X-3758945Y5205729D01*
X-3774439Y5200650D01*
X-3795268Y5200650D01*
X-3810762Y5205729D01*
X-3821176Y5216144D01*
X-2209800Y3696715D02*
G01*
X-2209800Y3587750D01*
X-2209800Y3696715D02*
G01*
X-2163063Y3696715D01*
X-2147570Y3691636D01*
X-2142236Y3686302D01*
X-2137156Y3675887D01*
X-2137156Y3665473D01*
X-2142236Y3655060D01*
X-2147570Y3649979D01*
X-2163063Y3644900D01*
X-2209800Y3644900D01*
X-2173477Y3644900D02*
G01*
X-2137156Y3587750D01*
X-2102865Y3696715D02*
G01*
X-2102865Y3587750D01*
X-1990597Y3670807D02*
G01*
X-1995677Y3681221D01*
X-2006091Y3691636D01*
X-2016506Y3696715D01*
X-2037334Y3696715D01*
X-2047747Y3691636D01*
X-2058161Y3681221D01*
X-2063241Y3670807D01*
X-2068575Y3655060D01*
X-2068575Y3629152D01*
X-2063241Y3613657D01*
X-2058161Y3603244D01*
X-2047747Y3592829D01*
X-2037334Y3587750D01*
X-2016506Y3587750D01*
X-2006091Y3592829D01*
X-1995677Y3603244D01*
X-1990597Y3613657D01*
X-1990597Y3629152D01*
X-2016506Y3629152D02*
G01*
X-1990597Y3629152D01*
X-1956308Y3696715D02*
G01*
X-1956308Y3587750D01*
X-1883409Y3696715D02*
G01*
X-1883409Y3587750D01*
X-1956308Y3644900D02*
G01*
X-1883409Y3644900D01*
X-1812797Y3696715D02*
G01*
X-1812797Y3587750D01*
X-1849120Y3696715D02*
G01*
X-1776475Y3696715D01*
X-1742186Y3551173D02*
G01*
X-1648713Y3551173D01*
X-1614424Y3696715D02*
G01*
X-1614424Y3587750D01*
X-1614424Y3696715D02*
G01*
X-1567688Y3696715D01*
X-1551940Y3691636D01*
X-1546859Y3686302D01*
X-1541779Y3675887D01*
X-1541779Y3665473D01*
X-1546859Y3655060D01*
X-1551940Y3649979D01*
X-1567688Y3644900D01*
X-1614424Y3644900D01*
X-1578102Y3644900D02*
G01*
X-1541779Y3587750D01*
X-1507490Y3696715D02*
G01*
X-1507490Y3587750D01*
X-1507490Y3696715D02*
G01*
X-1439925Y3696715D01*
X-1507490Y3644900D02*
G01*
X-1465834Y3644900D01*
X-1507490Y3587750D02*
G01*
X-1439925Y3587750D01*
X-1332738Y3681221D02*
G01*
X-1343152Y3691636D01*
X-1358900Y3696715D01*
X-1379474Y3696715D01*
X-1395222Y3691636D01*
X-1405636Y3681221D01*
X-1405636Y3670807D01*
X-1400302Y3660394D01*
X-1395222Y3655060D01*
X-1384808Y3649979D01*
X-1353565Y3639565D01*
X-1343152Y3634486D01*
X-1338072Y3629152D01*
X-1332738Y3618737D01*
X-1332738Y3603244D01*
X-1343152Y3592829D01*
X-1358900Y3587750D01*
X-1379474Y3587750D01*
X-1395222Y3592829D01*
X-1405636Y3603244D01*
X7048423Y5131815D02*
G01*
X7048423Y5022850D01*
X7048423Y5131815D02*
G01*
X7095159Y5131815D01*
X7110907Y5126736D01*
X7115987Y5121402D01*
X7121321Y5110987D01*
X7121321Y5100573D01*
X7115987Y5090160D01*
X7110907Y5085079D01*
X7095159Y5080000D01*
X7048423Y5080000D01*
X7084745Y5080000D02*
G01*
X7121321Y5022850D01*
X7155611Y4986273D02*
G01*
X7249083Y4986273D01*
X7283373Y5131815D02*
G01*
X7283373Y5022850D01*
X7283373Y5131815D02*
G01*
X7330109Y5131815D01*
X7345603Y5126736D01*
X7350937Y5121402D01*
X7356017Y5110987D01*
X7356017Y5100573D01*
X7350937Y5090160D01*
X7345603Y5085079D01*
X7330109Y5080000D01*
X7283373Y5080000D01*
X7319695Y5080000D02*
G01*
X7356017Y5022850D01*
X7390307Y5131815D02*
G01*
X7390307Y5022850D01*
X7390307Y5131815D02*
G01*
X7457871Y5131815D01*
X7390307Y5080000D02*
G01*
X7431963Y5080000D01*
X7390307Y5022850D02*
G01*
X7457871Y5022850D01*
X7564805Y5116321D02*
G01*
X7554645Y5126736D01*
X7538897Y5131815D01*
X7518069Y5131815D01*
X7502575Y5126736D01*
X7492161Y5116321D01*
X7492161Y5105907D01*
X7497495Y5095494D01*
X7502575Y5090160D01*
X7512989Y5085079D01*
X7544231Y5074665D01*
X7554645Y5069586D01*
X7559725Y5064252D01*
X7564805Y5053837D01*
X7564805Y5038344D01*
X7554645Y5027929D01*
X7538897Y5022850D01*
X7518069Y5022850D01*
X7502575Y5027929D01*
X7492161Y5038344D01*
X1088897Y-547878D02*
G01*
X1078484Y-537463D01*
X1062736Y-532384D01*
X1042161Y-532384D01*
X1026413Y-537463D01*
X1016000Y-547878D01*
X1016000Y-558292D01*
X1021334Y-568705D01*
X1026413Y-574039D01*
X1036827Y-579120D01*
X1068070Y-589534D01*
X1078484Y-594613D01*
X1083563Y-599947D01*
X1088897Y-610362D01*
X1088897Y-625855D01*
X1078484Y-636270D01*
X1062736Y-641350D01*
X1042161Y-641350D01*
X1026413Y-636270D01*
X1016000Y-625855D01*
X1123188Y-532384D02*
G01*
X1123188Y-641350D01*
X1123188Y-532384D02*
G01*
X1190752Y-532384D01*
X1123188Y-584200D02*
G01*
X1164590Y-584200D01*
X1123188Y-641350D02*
G01*
X1190752Y-641350D01*
X1225041Y-532384D02*
G01*
X1225041Y-641350D01*
X1225041Y-641350D02*
G01*
X1287272Y-641350D01*
X1321561Y-532384D02*
G01*
X1321561Y-641350D01*
X1321561Y-532384D02*
G01*
X1389125Y-532384D01*
X1321561Y-584200D02*
G01*
X1363218Y-584200D01*
X1321561Y-641350D02*
G01*
X1389125Y-641350D01*
X1501393Y-558292D02*
G01*
X1496059Y-547878D01*
X1485645Y-537463D01*
X1475231Y-532384D01*
X1454658Y-532384D01*
X1444243Y-537463D01*
X1433829Y-547878D01*
X1428495Y-558292D01*
X1423415Y-574039D01*
X1423415Y-599947D01*
X1428495Y-615442D01*
X1433829Y-625855D01*
X1444243Y-636270D01*
X1454658Y-641350D01*
X1475231Y-641350D01*
X1485645Y-636270D01*
X1496059Y-625855D01*
X1501393Y-615442D01*
X1572006Y-532384D02*
G01*
X1572006Y-641350D01*
X1535684Y-532384D02*
G01*
X1608327Y-532384D01*
X1642618Y-677926D02*
G01*
X1736090Y-677926D01*
X1770379Y-532384D02*
G01*
X1770379Y-641350D01*
X1770379Y-532384D02*
G01*
X1817115Y-532384D01*
X1832863Y-537463D01*
X1837943Y-542797D01*
X1843277Y-553212D01*
X1843277Y-563626D01*
X1837943Y-574039D01*
X1832863Y-579120D01*
X1817115Y-584200D01*
X1770379Y-584200D01*
X1806702Y-584200D02*
G01*
X1843277Y-641350D01*
X2663697Y-522478D02*
G01*
X2653284Y-512063D01*
X2637536Y-506984D01*
X2616961Y-506984D01*
X2601213Y-512063D01*
X2590800Y-522478D01*
X2590800Y-532892D01*
X2596134Y-543305D01*
X2601213Y-548639D01*
X2611627Y-553720D01*
X2642870Y-564134D01*
X2653284Y-569213D01*
X2658363Y-574547D01*
X2663697Y-584962D01*
X2663697Y-600455D01*
X2653284Y-610870D01*
X2637536Y-615950D01*
X2616961Y-615950D01*
X2601213Y-610870D01*
X2590800Y-600455D01*
X2734309Y-506984D02*
G01*
X2734309Y-615950D01*
X2697988Y-506984D02*
G01*
X2770631Y-506984D01*
X2846577Y-506984D02*
G01*
X2804922Y-615950D01*
X2846577Y-506984D02*
G01*
X2887979Y-615950D01*
X2820415Y-579628D02*
G01*
X2872486Y-579628D01*
X2922270Y-506984D02*
G01*
X2922270Y-615950D01*
X2922270Y-506984D02*
G01*
X2969006Y-506984D01*
X2984754Y-512063D01*
X2989834Y-517397D01*
X2995168Y-527812D01*
X2995168Y-538226D01*
X2989834Y-548639D01*
X2984754Y-553720D01*
X2969006Y-558800D01*
X2922270Y-558800D01*
X2958591Y-558800D02*
G01*
X2995168Y-615950D01*
X3065779Y-506984D02*
G01*
X3065779Y-615950D01*
X3029458Y-506984D02*
G01*
X3102102Y-506984D01*
X3136391Y-652526D02*
G01*
X3229863Y-652526D01*
X3264154Y-506984D02*
G01*
X3264154Y-615950D01*
X3264154Y-506984D02*
G01*
X3310890Y-506984D01*
X3326638Y-512063D01*
X3331718Y-517397D01*
X3337052Y-527812D01*
X3337052Y-538226D01*
X3331718Y-548639D01*
X3326638Y-553720D01*
X3310890Y-558800D01*
X3264154Y-558800D01*
X3300475Y-558800D02*
G01*
X3337052Y-615950D01*
X-3416376Y4509515D02*
G01*
X-3416376Y4431537D01*
X-3411042Y4416044D01*
X-3400628Y4405629D01*
X-3385134Y4400550D01*
X-3374720Y4400550D01*
X-3359226Y4405629D01*
X-3348812Y4416044D01*
X-3343478Y4431537D01*
X-3343478Y4509515D01*
X-3309188Y4509515D02*
G01*
X-3309188Y4400550D01*
X-3309188Y4509515D02*
G01*
X-3262452Y4509515D01*
X-3246958Y4504436D01*
X-3241624Y4499102D01*
X-3236544Y4488687D01*
X-3236544Y4473194D01*
X-3241624Y4462779D01*
X-3246958Y4457700D01*
X-3262452Y4452365D01*
X-3309188Y4452365D01*
X-3202254Y4363973D02*
G01*
X-3108782Y4363973D01*
X-3074492Y4509515D02*
G01*
X-3074492Y4400550D01*
X-3074492Y4509515D02*
G01*
X-3027756Y4509515D01*
X-3012008Y4504436D01*
X-3006928Y4499102D01*
X-3001594Y4488687D01*
X-3001594Y4478273D01*
X-3006928Y4467860D01*
X-3012008Y4462779D01*
X-3027756Y4457700D01*
X-3074492Y4457700D01*
X-3038170Y4457700D02*
G01*
X-3001594Y4400550D01*
X-2967304Y4509515D02*
G01*
X-2967304Y4400550D01*
X-2967304Y4509515D02*
G01*
X-2899994Y4509515D01*
X-2967304Y4457700D02*
G01*
X-2925902Y4457700D01*
X-2967304Y4400550D02*
G01*
X-2899994Y4400550D01*
X-2792806Y4494021D02*
G01*
X-2803220Y4504436D01*
X-2818714Y4509515D01*
X-2839542Y4509515D01*
X-2855290Y4504436D01*
X-2865704Y4494021D01*
X-2865704Y4483607D01*
X-2860370Y4473194D01*
X-2855290Y4467860D01*
X-2844876Y4462779D01*
X-2813634Y4452365D01*
X-2803220Y4447286D01*
X-2798140Y4441952D01*
X-2792806Y4431537D01*
X-2792806Y4416044D01*
X-2803220Y4405629D01*
X-2818714Y4400550D01*
X-2839542Y4400550D01*
X-2855290Y4405629D01*
X-2865704Y4416044D01*
X6515100Y4509515D02*
G01*
X6587997Y4400550D01*
X6587997Y4509515D02*
G01*
X6515100Y4400550D01*
X6622288Y4363973D02*
G01*
X6715759Y4363973D01*
X6750050Y4509515D02*
G01*
X6750050Y4400550D01*
X6750050Y4509515D02*
G01*
X6796786Y4509515D01*
X6812279Y4504436D01*
X6817613Y4499102D01*
X6822693Y4488687D01*
X6822693Y4478273D01*
X6817613Y4467860D01*
X6812279Y4462779D01*
X6796786Y4457700D01*
X6750050Y4457700D01*
X6786372Y4457700D02*
G01*
X6822693Y4400550D01*
X6856984Y4509515D02*
G01*
X6856984Y4400550D01*
X6856984Y4509515D02*
G01*
X6924547Y4509515D01*
X6856984Y4457700D02*
G01*
X6898640Y4457700D01*
X6856984Y4400550D02*
G01*
X6924547Y4400550D01*
X7031481Y4494021D02*
G01*
X7021322Y4504436D01*
X7005574Y4509515D01*
X6984745Y4509515D01*
X6969252Y4504436D01*
X6958838Y4494021D01*
X6958838Y4483607D01*
X6964172Y4473194D01*
X6969252Y4467860D01*
X6979665Y4462779D01*
X7010908Y4452365D01*
X7021322Y4447286D01*
X7026402Y4441952D01*
X7031481Y4431537D01*
X7031481Y4416044D01*
X7021322Y4405629D01*
X7005574Y4400550D01*
X6984745Y4400550D01*
X6969252Y4405629D01*
X6958838Y4416044D01*
X4978400Y3938015D02*
G01*
X5020056Y3886200D01*
X5020056Y3829050D01*
X5061458Y3938015D02*
G01*
X5020056Y3886200D01*
X5095747Y3792473D02*
G01*
X5189220Y3792473D01*
X5223509Y3938015D02*
G01*
X5223509Y3829050D01*
X5223509Y3938015D02*
G01*
X5270500Y3938015D01*
X5285993Y3932936D01*
X5291074Y3927602D01*
X5296408Y3917187D01*
X5296408Y3906773D01*
X5291074Y3896360D01*
X5285993Y3891279D01*
X5270500Y3886200D01*
X5223509Y3886200D01*
X5260086Y3886200D02*
G01*
X5296408Y3829050D01*
X5330697Y3938015D02*
G01*
X5330697Y3829050D01*
X5330697Y3938015D02*
G01*
X5398261Y3938015D01*
X5330697Y3886200D02*
G01*
X5372100Y3886200D01*
X5330697Y3829050D02*
G01*
X5398261Y3829050D01*
X5505195Y3922521D02*
G01*
X5494781Y3932936D01*
X5479288Y3938015D01*
X5458459Y3938015D01*
X5442965Y3932936D01*
X5432552Y3922521D01*
X5432552Y3912107D01*
X5437631Y3901694D01*
X5442965Y3896360D01*
X5453379Y3891279D01*
X5484368Y3880865D01*
X5494781Y3875786D01*
X5500115Y3870452D01*
X5505195Y3860037D01*
X5505195Y3844544D01*
X5494781Y3834129D01*
X5479288Y3829050D01*
X5458459Y3829050D01*
X5442965Y3834129D01*
X5432552Y3844544D01*
X-3098800Y5144515D02*
G01*
X-3098800Y5035550D01*
X-3098800Y5035550D02*
G01*
X-3036570Y5035550D01*
X6388100Y5144515D02*
G01*
X6388100Y5035550D01*
X6388100Y5144515D02*
G01*
X6434836Y5144515D01*
X6450329Y5139436D01*
X6455663Y5134102D01*
X6460743Y5123687D01*
X6460743Y5113273D01*
X6455663Y5102860D01*
X6450329Y5097779D01*
X6434836Y5092700D01*
X6388100Y5092700D01*
X6424422Y5092700D02*
G01*
X6460743Y5035550D01*
D21*
X7172078Y3307206D02*
G01*
X6670921Y3307206D01*
X6611493Y3110146D02*
G01*
X6611493Y2884253D01*
X6670921Y2687193D02*
G01*
X7172078Y2687193D01*
X7231506Y2884253D02*
G01*
X7231506Y3110146D01*
X6308478Y2608706D02*
G01*
X5807321Y2608706D01*
X5747893Y2411646D02*
G01*
X5747893Y2185753D01*
X5807321Y1988693D02*
G01*
X6308478Y1988693D01*
X6367906Y2185753D02*
G01*
X6367906Y2411646D01*
X-2403721Y2367406D02*
G01*
X-2904878Y2367406D01*
X-2964306Y2170346D02*
G01*
X-2964306Y1944453D01*
X-2904878Y1747393D02*
G01*
X-2403721Y1747393D01*
X-2344293Y1944453D02*
G01*
X-2344293Y2170346D01*
X-3330821Y3078606D02*
G01*
X-3831978Y3078606D01*
X-3891406Y2881546D02*
G01*
X-3891406Y2655653D01*
X-3831978Y2458593D02*
G01*
X-3330821Y2458593D01*
X-3271393Y2655653D02*
G01*
X-3271393Y2881546D01*
X-1489321Y3167506D02*
G01*
X-1990478Y3167506D01*
X-2049906Y2970446D02*
G01*
X-2049906Y2744553D01*
X-1990478Y2547493D02*
G01*
X-1489321Y2547493D01*
X-1429893Y2744553D02*
G01*
X-1429893Y2970446D01*
X-2416421Y3993006D02*
G01*
X-2917578Y3993006D01*
X-2977006Y3795946D02*
G01*
X-2977006Y3570053D01*
X-2917578Y3372993D02*
G01*
X-2416421Y3372993D01*
X-2356993Y3570053D02*
G01*
X-2356993Y3795946D01*
X6371978Y4031106D02*
G01*
X5870821Y4031106D01*
X5811393Y3834046D02*
G01*
X5811393Y3608153D01*
X5870821Y3411093D02*
G01*
X6371978Y3411093D01*
X6431406Y3608153D02*
G01*
X6431406Y3834046D01*
X5381378Y3358006D02*
G01*
X4880221Y3358006D01*
X4820793Y3160946D02*
G01*
X4820793Y2935053D01*
X4880221Y2737993D02*
G01*
X5381378Y2737993D01*
X5440806Y2935053D02*
G01*
X5440806Y3160946D01*
D22*
X-419100Y-114300D02*
G01*
X-355600Y-177800D01*
X-355600Y-304800D01*
X-419100Y-368300D01*
X-355600Y-431800D01*
X-355600Y-558800D01*
X-419100Y-622300D01*
X-355600Y-685800D01*
X-355600Y-812800D01*
X-419100Y-876300D01*
X-546100Y-876300D01*
X-609600Y-812800D01*
X-609600Y-685800D01*
X-546100Y-622300D01*
X-609600Y-558800D01*
X-609600Y-431800D01*
X-546100Y-368300D01*
X-609600Y-304800D01*
X-609600Y-177800D01*
X-546100Y-114300D01*
X-609600Y-50800D01*
X-609600Y76200D01*
X-546100Y139700D01*
X-419100Y139700D01*
X-355600Y76200D01*
X-355600Y-50800D01*
X-419100Y-114300D01*
X-546100Y-114300D01*
X-546100Y-622300D02*
G01*
X-419100Y-622300D01*
X-546100Y-368300D02*
G01*
X-419100Y-368300D01*
X-546100Y139700D02*
G01*
X-609600Y203200D01*
X-609600Y330200D01*
X-546100Y393700D01*
X-419100Y393700D01*
X-355600Y330200D01*
X-355600Y203200D01*
X-419100Y139700D01*
X4254500Y-215900D02*
G01*
X4318000Y-279400D01*
X4318000Y-406400D01*
X4254500Y-469900D01*
X4318000Y-533400D01*
X4318000Y-660400D01*
X4254500Y-723900D01*
X4318000Y-787400D01*
X4318000Y-914400D01*
X4254500Y-977900D01*
X4127500Y-977900D01*
X4064000Y-914400D01*
X4064000Y-787400D01*
X4127500Y-723900D01*
X4064000Y-660400D01*
X4064000Y-533400D01*
X4127500Y-469900D01*
X4064000Y-406400D01*
X4064000Y-279400D01*
X4127500Y-215900D01*
X4064000Y-152400D01*
X4064000Y-25400D01*
X4127500Y38100D01*
X4254500Y38100D01*
X4318000Y-25400D01*
X4318000Y-152400D01*
X4254500Y-215900D01*
X4127500Y-215900D01*
X4127500Y-723900D02*
G01*
X4254500Y-723900D01*
X4127500Y-469900D02*
G01*
X4254500Y-469900D01*
X4127500Y38100D02*
G01*
X4064000Y101600D01*
X4064000Y228600D01*
X4127500Y292100D01*
X4254500Y292100D01*
X4318000Y228600D01*
X4318000Y101600D01*
X4254500Y38100D01*
D21*
X274198Y-35900D02*
G01*
X894191Y-35900D01*
X894191Y-395904D02*
G01*
X274198Y-395904D01*
X279394Y-342902D02*
G01*
X330194Y-393702D01*
X279394Y-88902D02*
G01*
X330194Y-38102D01*
X838194Y-38102D02*
G01*
X888994Y-88902D01*
X838194Y-393702D02*
G01*
X888994Y-342902D01*
X894191Y-35900D02*
G01*
X894191Y-117787D01*
X894191Y-314015D02*
G01*
X894191Y-395904D01*
X274198Y-35900D02*
G01*
X274198Y-117787D01*
X274198Y-314015D02*
G01*
X274198Y-395904D01*
X1785498Y-74000D02*
G01*
X2405491Y-74000D01*
X2405491Y-434004D02*
G01*
X1785498Y-434004D01*
X1790694Y-381002D02*
G01*
X1841494Y-431802D01*
X1790694Y-127002D02*
G01*
X1841494Y-76202D01*
X2349494Y-76202D02*
G01*
X2400294Y-127002D01*
X2349494Y-431802D02*
G01*
X2400294Y-381002D01*
X2405491Y-74000D02*
G01*
X2405491Y-155887D01*
X2405491Y-352115D02*
G01*
X2405491Y-434004D01*
X1785498Y-74000D02*
G01*
X1785498Y-155887D01*
X1785498Y-352115D02*
G01*
X1785498Y-434004D01*
D23*
X-3505200Y-711200D02*
G01*
X-3505200Y-990600D01*
X-3022600Y-990600D01*
X-3022600Y-1181100D01*
X-2209800Y-1181100D01*
X-2209800Y-990600D01*
X-1917700Y-990600D01*
X-1917700Y-787400D01*
X-1193800Y-787400D01*
X-1193800Y330200D01*
X-1917700Y330200D01*
X-1917700Y533400D01*
X-2133600Y533400D01*
X-2133600Y889000D01*
X-3098800Y889000D01*
X-3098800Y533400D01*
X-3505200Y533400D01*
X-3505200Y254000D01*
X-3759200Y254000D01*
X-3759200Y-711200D01*
X-3505200Y-711200D01*
X5410200Y-825500D02*
G01*
X5410200Y-1104900D01*
X5892800Y-1104900D01*
X5892800Y-1295400D01*
X6705600Y-1295400D01*
X6705600Y-1104900D01*
X6997700Y-1104900D01*
X6997700Y-901700D01*
X7721600Y-901700D01*
X7721600Y215900D01*
X6997700Y215900D01*
X6997700Y419100D01*
X6781800Y419100D01*
X6781800Y774700D01*
X5816600Y774700D01*
X5816600Y419100D01*
X5410200Y419100D01*
X5410200Y139700D01*
X5156200Y139700D01*
X5156200Y-825500D01*
X5410200Y-825500D01*
D22*
X-922578Y5839439D02*
G01*
X-826691Y5839439D01*
X-826691Y5971560D01*
X-922578Y5971560D01*
X-1007821Y5839439D02*
G01*
X-1103708Y5839439D01*
X-1103708Y5971560D01*
X-1007821Y5971560D01*
X-757478Y5306039D02*
G01*
X-661591Y5306039D01*
X-661591Y5438160D01*
X-757478Y5438160D01*
X-842721Y5306039D02*
G01*
X-938608Y5306039D01*
X-938608Y5438160D01*
X-842721Y5438160D01*
X5046421Y5814039D02*
G01*
X5142308Y5814039D01*
X5142308Y5946160D01*
X5046421Y5946160D01*
X4961178Y5814039D02*
G01*
X4865291Y5814039D01*
X4865291Y5946160D01*
X4961178Y5946160D01*
X5198821Y5166339D02*
G01*
X5294708Y5166339D01*
X5294708Y5298460D01*
X5198821Y5298460D01*
X5113578Y5166339D02*
G01*
X5017691Y5166339D01*
X5017691Y5298460D01*
X5113578Y5298460D01*
X2400294Y5448300D02*
G01*
X2336794Y5511800D01*
X2336794Y5638800D01*
X2400294Y5702300D01*
X2527294Y5702300D01*
X2590794Y5638800D01*
X2590794Y5511800D01*
X2527294Y5448300D01*
X2527294Y5194300D02*
G01*
X2590794Y5130800D01*
X2590794Y5003800D01*
X2527294Y4940300D01*
X2590794Y4876800D01*
X2590794Y4749800D01*
X2527294Y4686300D01*
X2590794Y4622800D01*
X2590794Y4495800D01*
X2527294Y4432300D01*
X2590794Y4368800D01*
X2590794Y4241800D01*
X2527294Y4178300D01*
X2590794Y4114800D01*
X2590794Y3987800D01*
X2527294Y3924300D01*
X2590794Y3860800D01*
X2590794Y3733800D01*
X2527294Y3670300D01*
X2590794Y3606800D01*
X2590794Y3479800D01*
X2527294Y3416300D01*
X2590794Y3352800D01*
X2590794Y3225800D01*
X2527294Y3162300D01*
X2590794Y3098800D01*
X2590794Y2971800D01*
X2527294Y2908300D01*
X2590794Y2844800D01*
X2590794Y2717800D01*
X2527294Y2654300D01*
X2590794Y2590800D01*
X2590794Y2463800D01*
X2527294Y2400300D01*
X2590794Y2336800D01*
X2590794Y2209800D01*
X2527294Y2146300D01*
X2400294Y2146300D01*
X2336794Y2209800D01*
X2336794Y2336800D01*
X2400294Y2400300D01*
X2336794Y2463800D01*
X2336794Y2590800D01*
X2400294Y2654300D01*
X2336794Y2717800D01*
X2336794Y2844800D01*
X2400294Y2908300D01*
X2336794Y2971800D01*
X2336794Y3098800D01*
X2400294Y3162300D01*
X2336794Y3225800D01*
X2336794Y3352800D01*
X2400294Y3416300D01*
X2336794Y3479800D01*
X2336794Y3606800D01*
X2400294Y3670300D01*
X2336794Y3733800D01*
X2336794Y3860800D01*
X2400294Y3924300D01*
X2336794Y3987800D01*
X2336794Y4114800D01*
X2400294Y4178300D01*
X2336794Y4241800D01*
X2336794Y4368800D01*
X2400294Y4432300D01*
X2336794Y4495800D01*
X2336794Y4622800D01*
X2400294Y4686300D01*
X2336794Y4749800D01*
X2336794Y4876800D01*
X2400294Y4940300D01*
X2336794Y5003800D01*
X2336794Y5130800D01*
X2400294Y5194300D01*
X2336794Y5257800D01*
X2336794Y5384800D01*
X2400294Y5448300D01*
X2527294Y5448300D01*
X2590794Y5384800D01*
X2590794Y5257800D01*
X2527294Y5194300D01*
X2400294Y5194300D01*
X1003294Y2654300D02*
G01*
X1066794Y2590800D01*
X1066794Y2463800D01*
X1003294Y2400300D01*
X876294Y2400300D01*
X812794Y2463800D01*
X812794Y2590800D01*
X876294Y2654300D01*
X1003294Y2400300D02*
G01*
X1066794Y2336800D01*
X1066794Y2209800D01*
X1003294Y2146300D01*
X876294Y2146300D01*
X812794Y2209800D01*
X812794Y2336800D01*
X876294Y2400300D01*
X1003294Y5448300D02*
G01*
X876294Y5448300D01*
X1003294Y5702300D02*
G01*
X876294Y5702300D01*
X1003294Y5194300D02*
G01*
X876294Y5194300D01*
X1003294Y4686300D02*
G01*
X876294Y4686300D01*
X1003294Y4940300D02*
G01*
X876294Y4940300D01*
X1003294Y4432300D02*
G01*
X876294Y4432300D01*
X1003294Y3924300D02*
G01*
X876294Y3924300D01*
X1003294Y4178300D02*
G01*
X876294Y4178300D01*
X1003294Y3670300D02*
G01*
X876294Y3670300D01*
X1003294Y3162300D02*
G01*
X876294Y3162300D01*
X1003294Y3416300D02*
G01*
X876294Y3416300D01*
X876294Y2908300D02*
G01*
X812794Y2971800D01*
X812794Y3098800D01*
X876294Y3162300D01*
X812794Y3225800D01*
X812794Y3352800D01*
X876294Y3416300D01*
X812794Y3479800D01*
X812794Y3606800D01*
X876294Y3670300D01*
X812794Y3733800D01*
X812794Y3860800D01*
X876294Y3924300D01*
X812794Y3987800D01*
X812794Y4114800D01*
X876294Y4178300D01*
X812794Y4241800D01*
X812794Y4368800D01*
X876294Y4432300D01*
X812794Y4495800D01*
X812794Y4622800D01*
X876294Y4686300D01*
X812794Y4749800D01*
X812794Y4876800D01*
X876294Y4940300D01*
X812794Y5003800D01*
X812794Y5130800D01*
X876294Y5194300D01*
X812794Y5257800D01*
X812794Y5384800D01*
X876294Y5448300D01*
X812794Y5511800D01*
X812794Y5638800D01*
X876294Y5702300D01*
X812794Y5765800D01*
X812794Y5892800D01*
X876294Y5956300D01*
X1003294Y5956300D01*
X1066794Y5892800D01*
X1066794Y5765800D01*
X1003294Y5702300D01*
X1066794Y5638800D01*
X1066794Y5511800D01*
X1003294Y5448300D01*
X1066794Y5384800D01*
X1066794Y5257800D01*
X1003294Y5194300D01*
X1066794Y5130800D01*
X1066794Y5003800D01*
X1003294Y4940300D01*
X1066794Y4876800D01*
X1066794Y4749800D01*
X1003294Y4686300D01*
X1066794Y4622800D01*
X1066794Y4495800D01*
X1003294Y4432300D01*
X1066794Y4368800D01*
X1066794Y4241800D01*
X1003294Y4178300D01*
X1066794Y4114800D01*
X1066794Y3987800D01*
X1003294Y3924300D01*
X1066794Y3860800D01*
X1066794Y3733800D01*
X1003294Y3670300D01*
X1066794Y3606800D01*
X1066794Y3479800D01*
X1003294Y3416300D01*
X1066794Y3352800D01*
X1066794Y3225800D01*
X1003294Y3162300D01*
X1066794Y3098800D01*
X1066794Y2971800D01*
X1003294Y2908300D01*
X1066794Y2844800D01*
X1066794Y2717800D01*
X1003294Y2654300D01*
X876294Y2654300D01*
X812794Y2717800D01*
X812794Y2844800D01*
X876294Y2908300D01*
X1003294Y2908300D01*
X2400294Y5702300D02*
G01*
X2336794Y5765800D01*
X2336794Y5892800D01*
X2400294Y5956300D01*
X2527294Y5956300D01*
X2590794Y5892800D01*
X2590794Y5765800D01*
X2527294Y5702300D01*
X2400294Y2654300D02*
G01*
X2527294Y2654300D01*
X2400294Y2400300D02*
G01*
X2527294Y2400300D01*
X2400294Y2908300D02*
G01*
X2527294Y2908300D01*
X2400294Y3416300D02*
G01*
X2527294Y3416300D01*
X2400294Y3162300D02*
G01*
X2527294Y3162300D01*
X2400294Y3670300D02*
G01*
X2527294Y3670300D01*
X2400294Y4178300D02*
G01*
X2527294Y4178300D01*
X2400294Y3924300D02*
G01*
X2527294Y3924300D01*
X2400294Y4432300D02*
G01*
X2527294Y4432300D01*
X2400294Y4940300D02*
G01*
X2527294Y4940300D01*
X2400294Y4686300D02*
G01*
X2527294Y4686300D01*
X7370521Y3553439D02*
G01*
X7466408Y3553439D01*
X7466408Y3685560D01*
X7370521Y3685560D01*
X7285278Y3553439D02*
G01*
X7189391Y3553439D01*
X7189391Y3685560D01*
X7285278Y3685560D01*
X6243878Y3114060D02*
G01*
X6147991Y3114060D01*
X6147991Y2981939D01*
X6243878Y2981939D01*
X6329121Y3114060D02*
G01*
X6425008Y3114060D01*
X6425008Y2981939D01*
X6329121Y2981939D01*
X-2950921Y2745760D02*
G01*
X-3046808Y2745760D01*
X-3046808Y2613639D01*
X-2950921Y2613639D01*
X-2865678Y2745760D02*
G01*
X-2769791Y2745760D01*
X-2769791Y2613639D01*
X-2865678Y2613639D01*
X-3932478Y3299439D02*
G01*
X-3836591Y3299439D01*
X-3836591Y3431560D01*
X-3932478Y3431560D01*
X-4017721Y3299439D02*
G01*
X-4113608Y3299439D01*
X-4113608Y3431560D01*
X-4017721Y3431560D01*
X-3919778Y5382239D02*
G01*
X-3823891Y5382239D01*
X-3823891Y5514360D01*
X-3919778Y5514360D01*
X-4005021Y5382239D02*
G01*
X-4100908Y5382239D01*
X-4100908Y5514360D01*
X-4005021Y5514360D01*
X-2023821Y3507760D02*
G01*
X-2119708Y3507760D01*
X-2119708Y3375639D01*
X-2023821Y3375639D01*
X-1938578Y3507760D02*
G01*
X-1842691Y3507760D01*
X-1842691Y3375639D01*
X-1938578Y3375639D01*
X7103821Y4772639D02*
G01*
X7199708Y4772639D01*
X7199708Y4904760D01*
X7103821Y4904760D01*
X7018578Y4772639D02*
G01*
X6922691Y4772639D01*
X6922691Y4904760D01*
X7018578Y4904760D01*
X1058621Y-815360D02*
G01*
X1154508Y-815360D01*
X1154508Y-683239D01*
X1058621Y-683239D01*
X973378Y-815360D02*
G01*
X877491Y-815360D01*
X877491Y-683239D01*
X973378Y-683239D01*
X2633421Y-789960D02*
G01*
X2729308Y-789960D01*
X2729308Y-657839D01*
X2633421Y-657839D01*
X2548178Y-789960D02*
G01*
X2452291Y-789960D01*
X2452291Y-657839D01*
X2548178Y-657839D01*
X-3030778Y4163039D02*
G01*
X-2934891Y4163039D01*
X-2934891Y4295160D01*
X-3030778Y4295160D01*
X-3116021Y4163039D02*
G01*
X-3211908Y4163039D01*
X-3211908Y4295160D01*
X-3116021Y4295160D01*
X6557721Y4226539D02*
G01*
X6653608Y4226539D01*
X6653608Y4358660D01*
X6557721Y4358660D01*
X6472478Y4226539D02*
G01*
X6376591Y4226539D01*
X6376591Y4358660D01*
X6472478Y4358660D01*
X5579821Y3566139D02*
G01*
X5675708Y3566139D01*
X5675708Y3698260D01*
X5579821Y3698260D01*
X5494578Y3566139D02*
G01*
X5398691Y3566139D01*
X5398691Y3698260D01*
X5494578Y3698260D01*
D24*
X-2733802Y5618200D02*
G01*
X-2733802Y5918200D01*
X-3463797Y5918200D01*
X-3463797Y5618200D01*
X-2844800Y5918200D02*
G01*
X-2844800Y6008192D01*
X-3352800Y6008192D01*
X-3352800Y5918200D01*
X-2733802Y5293207D02*
G01*
X-3448786Y5293207D01*
X6778497Y5605500D02*
G01*
X6778497Y5905500D01*
X6048502Y5905500D01*
X6048502Y5605500D01*
X6667500Y5905500D02*
G01*
X6667500Y5995492D01*
X6159500Y5995492D01*
X6159500Y5905500D01*
X6778497Y5280507D02*
G01*
X6063513Y5280507D01*
D23*
G75*
G01*
X-2616200Y-292100D02*
G03*
X-2616886Y-292100I-343J63499D01*
G75*
G01*
X6299200Y-406400D02*
G03*
X6298514Y-406400I-343J63499D01*
D21*
G75*
G01
X7035800Y2997200D02*
G03X7035800Y2997200I-114300J0D01*
G75*
G01
X7071614Y2997200D02*
G03X7071614Y2997200I-150114J0D01*
G75*
G01
X6773697Y2819400D02*
G03X6773697Y2819400I-29997J0D01*
G75*
G01
X6773697Y3175000D02*
G03X6773697Y3175000I-29997J0D01*
G75*
G01
X7129297Y2819400D02*
G03X7129297Y2819400I-29997J0D01*
G75*
G01
X7129297Y3149600D02*
G03X7129297Y3149600I-29997J0D01*
G75*
G01
X6172200Y2298700D02*
G03X6172200Y2298700I-114300J0D01*
G75*
G01
X6208014Y2298700D02*
G03X6208014Y2298700I-150114J0D01*
G75*
G01
X5910097Y2120900D02*
G03X5910097Y2120900I-29997J0D01*
G75*
G01
X5910097Y2476500D02*
G03X5910097Y2476500I-29997J0D01*
G75*
G01
X6265697Y2120900D02*
G03X6265697Y2120900I-29997J0D01*
G75*
G01
X6265697Y2451100D02*
G03X6265697Y2451100I-29997J0D01*
G75*
G01
X-2540000Y2057400D02*
G03X-2540000Y2057400I-114300J0D01*
G75*
G01
X-2504186Y2057400D02*
G03X-2504186Y2057400I-150114J0D01*
G75*
G01
X-2802103Y1879600D02*
G03X-2802103Y1879600I-29997J0D01*
G75*
G01
X-2802103Y2235200D02*
G03X-2802103Y2235200I-29997J0D01*
G75*
G01
X-2446503Y1879600D02*
G03X-2446503Y1879600I-29997J0D01*
G75*
G01
X-2446503Y2209800D02*
G03X-2446503Y2209800I-29997J0D01*
G75*
G01
X-3467100Y2768600D02*
G03X-3467100Y2768600I-114300J0D01*
G75*
G01
X-3431286Y2768600D02*
G03X-3431286Y2768600I-150114J0D01*
G75*
G01
X-3729203Y2590800D02*
G03X-3729203Y2590800I-29997J0D01*
G75*
G01
X-3729203Y2946400D02*
G03X-3729203Y2946400I-29997J0D01*
G75*
G01
X-3373603Y2590800D02*
G03X-3373603Y2590800I-29997J0D01*
G75*
G01
X-3373603Y2921000D02*
G03X-3373603Y2921000I-29997J0D01*
G75*
G01
X-1625600Y2857500D02*
G03X-1625600Y2857500I-114300J0D01*
G75*
G01
X-1589786Y2857500D02*
G03X-1589786Y2857500I-150114J0D01*
G75*
G01
X-1887703Y2679700D02*
G03X-1887703Y2679700I-29997J0D01*
G75*
G01
X-1887703Y3035300D02*
G03X-1887703Y3035300I-29997J0D01*
G75*
G01
X-1532103Y2679700D02*
G03X-1532103Y2679700I-29997J0D01*
G75*
G01
X-1532103Y3009900D02*
G03X-1532103Y3009900I-29997J0D01*
G75*
G01
X-2552700Y3683000D02*
G03X-2552700Y3683000I-114300J0D01*
G75*
G01
X-2516886Y3683000D02*
G03X-2516886Y3683000I-150114J0D01*
G75*
G01
X-2814803Y3505200D02*
G03X-2814803Y3505200I-29997J0D01*
G75*
G01
X-2814803Y3860800D02*
G03X-2814803Y3860800I-29997J0D01*
G75*
G01
X-2459203Y3505200D02*
G03X-2459203Y3505200I-29997J0D01*
G75*
G01
X-2459203Y3835400D02*
G03X-2459203Y3835400I-29997J0D01*
G75*
G01
X6235700Y3721100D02*
G03X6235700Y3721100I-114300J0D01*
G75*
G01
X6271514Y3721100D02*
G03X6271514Y3721100I-150114J0D01*
G75*
G01
X5973597Y3543300D02*
G03X5973597Y3543300I-29997J0D01*
G75*
G01
X5973597Y3898900D02*
G03X5973597Y3898900I-29997J0D01*
G75*
G01
X6329197Y3543300D02*
G03X6329197Y3543300I-29997J0D01*
G75*
G01
X6329197Y3873500D02*
G03X6329197Y3873500I-29997J0D01*
G75*
G01
X5245100Y3048000D02*
G03X5245100Y3048000I-114300J0D01*
G75*
G01
X5280914Y3048000D02*
G03X5280914Y3048000I-150114J0D01*
G75*
G01
X4982997Y2870200D02*
G03X4982997Y2870200I-29997J0D01*
G75*
G01
X4982997Y3225800D02*
G03X4982997Y3225800I-29997J0D01*
G75*
G01
X5338597Y2870200D02*
G03X5338597Y2870200I-29997J0D01*
G75*
G01
X5338597Y3200400D02*
G03X5338597Y3200400I-29997J0D01*
G75*
G01
X640994Y-215900D02*
G03X640994Y-215900I-56794J0D01*
G75*
G01
X685800Y-215900D02*
G03X685800Y-215900I-101600J0D01*
G75*
G01
X844194Y-215900D02*
G03X844194Y-215900I-56794J0D01*
G75*
G01
X437794Y-215900D02*
G03X437794Y-215900I-56794J0D01*
G75*
G01
X2152294Y-254000D02*
G03X2152294Y-254000I-56794J0D01*
G75*
G01
X2197100Y-254000D02*
G03X2197100Y-254000I-101600J0D01*
G75*
G01
X2355494Y-254000D02*
G03X2355494Y-254000I-56794J0D01*
G75*
G01
X1949094Y-254000D02*
G03X1949094Y-254000I-56794J0D01*
M02*
