M48
METRIC,LZ,000.000
;FILE_FORMAT=3:3
;TYPE=PLATED
;Layer: PTH_Through
;EasyEDA v6.5.5, 2022-06-05 13:50:50
;bb107c5f8ef14f278ad1c4d5784ba212,a4ea12fd96744f7d9b8618c9b4952ea7,10
;Gerber Generator version 0.2
;Holesize 1 = 0.305 mm
T01C0.305
;Holesize 2 = 0.889 mm
T02C0.889
;Holesize 3 = 0.915 mm
T03C0.915
;Holesize 4 = 1.016 mm
T04C1.016
;Holesize 5 = 1.051 mm
T05C1.051
;Holesize 6 = 1.100 mm
T06C1.100
;Holesize 7 = 1.101 mm
T07C1.101
;Holesize 8 = 1.397 mm
T08C1.397
;Holesize 9 = 1.400 mm
T09C1.400
;Holesize 10 = 1.550 mm
T10C1.550
%
G05
G90
T01
X098425Y085471
X077470Y073406
X078994Y065278
X080264Y063881
X081661Y062738
X082931Y061468
X080137Y096266
X066929Y058039
X066929Y055880
X043053Y060198
X085217Y067437
X089281Y102997
X078994Y059563
X048260Y059563
X048260Y083566
X048260Y092964
X074041Y052324
X075311Y054229
X034163Y107061
X077470Y054610
X040005Y055753
X087376Y052324
X087376Y049784
X017145Y079756
X004953Y082677
X012700Y092964
X005080Y103378
X038227Y102870
X028067Y085090
X105918Y081153
X097790Y100965
X115062Y086868
X101600Y084328
X116840Y097663
X111506Y091948
X104394Y019431
X104394Y017272
X115697Y015113
X100457Y013462
X110871Y015494
X072898Y035306
X056388Y042037
X072136Y042291
X103886Y004191
T02
X009525Y049152G85X009525Y049146
X009525Y046612G85X009525Y046606
X009525Y044072G85X009525Y044066
X022225Y056772G85X022225Y056766
X019685Y056772G85X019685Y056766
X017145Y056772G85X017145Y056766
X098552Y049025G85X098552Y049019
X098552Y046485G85X098552Y046479
X098552Y043945G85X098552Y043939
X111252Y056645G85X111252Y056639
X108712Y056645G85X108712Y056639
X106172Y056645G85X106172Y056639
T03
X093703Y109601G85X093749Y109601
X096243Y109601G85X096289Y109601
X034140Y108585G85X034186Y108585
X036680Y108585G85X036726Y108585
T04
X070104Y073403G85X070104Y073409
X070104Y075943G85X070104Y075949
X070104Y078483G85X070104Y078489
X070104Y081023G85X070104Y081029
X070104Y083563G85X070104Y083569
X070104Y086103G85X070104Y086109
X070104Y091183G85X070104Y091189
X070104Y093723G85X070104Y093729
X070104Y096263G85X070104Y096269
X070104Y098803G85X070104Y098809
X070104Y101343G85X070104Y101349
X070104Y103883G85X070104Y103889
X070104Y106423G85X070104Y106429
X070104Y108963G85X070104Y108969
X054864Y108969G85X054864Y108963
X054864Y106429G85X054864Y106423
X054864Y103889G85X054864Y103883
X054864Y101349G85X054864Y101343
X054864Y098809G85X054864Y098803
X054864Y096269G85X054864Y096263
X054864Y093729G85X054864Y093723
X054864Y091189G85X054864Y091183
X054864Y088649G85X054864Y088643
X054864Y086109G85X054864Y086103
X054864Y083569G85X054864Y083563
X054864Y081029G85X054864Y081023
X054864Y078489G85X054864Y078483
X054864Y075949G85X054864Y075943
X070104Y088643G85X070104Y088649
X054991Y073409G85X054991Y073403
T05
X016603Y107732G85X016598Y107732
X012104Y107732G85X012099Y107732
X111853Y107605G85X111848Y107605
X107354Y107605G85X107349Y107605
T06
X032186Y049784G85X032186Y049784
X032186Y043434G85X032186Y043434
X027686Y049784G85X027686Y049784
X027686Y043434G85X027686Y043434
X121213Y049657G85X121213Y049657
X121213Y043307G85X121213Y043307
X116713Y049657G85X116713Y049657
X116713Y043307G85X116713Y043307
T07
X117932Y078395
X117932Y082895
X111430Y078395
X111430Y082895
X109296Y071410
X109296Y075910
X102794Y071410
X102794Y075910
X022174Y068997
X022174Y073497
X015672Y068997
X015672Y073497
X012903Y076109
X012903Y080609
X006401Y076109
X006401Y080609
X031318Y076998
X031318Y081498
X024816Y076998
X024816Y081498
X022047Y085253
X022047Y089753
X015545Y085253
X015545Y089753
X109931Y085634
X109931Y090134
X103429Y085634
X103429Y090134
X100025Y078903
X100025Y083403
X093523Y078903
X093523Y083403
T08
X026353Y054232G85X026353Y054226
X013018Y054232G85X013018Y054226
X013018Y038992G85X013018Y038986
X026353Y038992G85X026353Y038986
X115380Y054105G85X115380Y054099
X102045Y054105G85X102045Y054099
X102045Y038865G85X102045Y038859
X115380Y038865G85X115380Y038859
T09
X087628Y025752
X087628Y011332
X032768Y025752
X032768Y011332
T10
X017853Y105232G85X017848Y105232
X010854Y105232G85X010849Y105232
X113103Y105105G85X113098Y105105
X106104Y105105G85X106099Y105105
M30
