G04 Layer: TopLayer*
G04 EasyEDA v6.5.5, 2022-06-05 13:50:50*
G04 bb107c5f8ef14f278ad1c4d5784ba212,a4ea12fd96744f7d9b8618c9b4952ea7,10*
G04 Gerber Generator version 0.2*
G04 Scale: 100 percent, Rotated: No, Reflected: No *
G04 Dimensions in millimeters *
G04 leading zeros omitted , absolute positions ,4 integer and 5 decimal *
%FSLAX45Y45*%
%MOMM*%

%ADD10C,0.3000*%
%ADD11C,0.2800*%
%ADD12C,0.6150*%
%ADD15R,1.4000X1.2000*%
%ADD17R,1.4000X1.5000*%
%ADD18C,1.5240*%
%ADD19C,2.6000*%
%ADD20C,1.5751*%
%ADD21C,2.3251*%
%ADD22C,1.8000*%
%ADD23C,1.7780*%
%ADD24C,2.5400*%

%LPD*%
D10*
X3276803Y2575204D02*
G01*
X3276803Y2244999D01*
X3276803Y1133195D01*
X8762796Y2575204D02*
G01*
X9372600Y1965401D01*
X9372600Y635000D01*
X9715500Y292100D01*
X10553700Y292100D01*
X10685919Y424319D01*
X10765599Y424319D01*
X11569700Y1900301D02*
G01*
X11391900Y2057400D01*
X10053698Y3175000D01*
X9698098Y3530600D01*
X7289800Y3530600D01*
X10058400Y1849501D02*
G01*
X9817100Y1608201D01*
X9817100Y1257300D01*
X10000122Y1074277D01*
X10515612Y1074277D01*
X10660199Y1853412D02*
G01*
X10062306Y1853412D01*
X10058400Y1849498D01*
X10265605Y424345D02*
G01*
X10270840Y419100D01*
X10388600Y419100D01*
X10493735Y2324100D02*
G01*
X10660199Y2157628D01*
X10660199Y1903399D01*
X11082200Y1903399D02*
G01*
X11085301Y1900298D01*
X10156464Y2324100D02*
G01*
X10439400Y2041164D01*
X10439400Y1943100D01*
X11082200Y1853412D02*
G01*
X11278382Y1853412D01*
X11433535Y1698271D01*
X11433535Y1346200D01*
X11096264Y1346200D02*
G01*
X11252200Y1502128D01*
X11252200Y1790700D01*
X11239500Y1803400D01*
X11082200Y1803400D01*
X10058400Y1579501D02*
G01*
X10045700Y1566801D01*
X10045700Y1346200D01*
X11082200Y1753412D02*
G01*
X11087100Y1748513D01*
X11087100Y1549400D01*
X10439400Y1727200D02*
G01*
X10515600Y1803400D01*
X10660199Y1803400D01*
X11082200Y1903399D02*
G01*
X11566598Y1903399D01*
X11569700Y1900298D01*
X11569700Y1630301D02*
G01*
X11569700Y1511300D01*
X9130431Y4165600D02*
G01*
X9931400Y4165600D01*
X10401300Y4635500D01*
X11734800Y4635500D01*
X12065000Y4965700D01*
X12121281Y4965700D01*
X1968500Y5676900D02*
G01*
X2146300Y5854700D01*
X3632200Y5854700D01*
X3911600Y5575300D01*
X4000500Y5575300D01*
X4305300Y6019800D02*
G01*
X4305300Y4471261D01*
X4037731Y4203700D01*
X3218581Y4978400D02*
G01*
X3887068Y4309920D01*
X3887068Y4203700D01*
X8979768Y4165600D02*
G01*
X8979768Y4228238D01*
X7747000Y5461000D01*
X659544Y10515600D02*
G01*
X659544Y10819538D01*
X939800Y11099800D01*
X1333500Y11099800D01*
X1672790Y10760509D01*
X1210109Y10773209D02*
G01*
X4127500Y7874000D01*
X7010400Y7594600D02*
G01*
X7010400Y7480300D01*
X7035800Y7454900D01*
X9455658Y7454900D01*
X10122148Y6788404D01*
X10147300Y6781800D01*
X11074400Y6781800D01*
X11150600Y6858000D01*
X11150600Y7831838D01*
X11142985Y7839453D01*
X7747000Y7340600D02*
G01*
X7010400Y7340600D01*
X10279385Y7140953D02*
G01*
X9762230Y7658100D01*
X7607300Y7658100D01*
X7315200Y7950200D01*
X7315200Y8178800D01*
X7137400Y8356600D01*
X7010400Y8356600D01*
X9352285Y7890253D02*
G01*
X8631930Y8610600D01*
X7010400Y8610600D01*
X9842500Y8547100D02*
G01*
X9525000Y8864600D01*
X7010400Y8864600D01*
X7010400Y9626600D02*
G01*
X8013700Y9626600D01*
X5486400Y10642600D02*
G01*
X5422900Y10642600D01*
X4927600Y11137900D01*
X3581400Y11137900D01*
X3416300Y10972800D01*
X3416300Y10706100D01*
X3671168Y10439400D02*
G01*
X3671168Y9905138D01*
X4203700Y9372600D01*
X5486400Y9372600D01*
X3670300Y10858500D02*
G01*
X3671056Y10439400D01*
X9625843Y10947400D02*
G01*
X9627356Y10299700D01*
X9627468Y10299700D02*
G01*
X8928100Y10299700D01*
X4127500Y7874000D02*
G01*
X4127500Y6921500D01*
X4305300Y6743700D01*
X8521700Y6743700D01*
X7747000Y5461000D02*
G01*
X8737600Y4470400D01*
X6262115Y4813300D02*
G01*
X6262115Y4992115D01*
X6350000Y5080000D01*
X7327900Y5080000D01*
X7404100Y5156200D01*
X7404100Y5232400D01*
X4750815Y4851400D02*
G01*
X4750815Y5169915D01*
X5003800Y5422900D01*
X7531100Y5422900D01*
X5510784Y4851400D02*
G01*
X5487268Y4827884D01*
X5487268Y4318000D01*
X7062068Y4343400D02*
G01*
X7022084Y4383384D01*
X7022084Y4813300D01*
X7899400Y5956300D02*
G01*
X4826000Y5956300D01*
X4826000Y8356600D02*
G01*
X4826000Y9296400D01*
X3131814Y7699753D02*
G01*
X4303773Y6527800D01*
X7899400Y6527800D01*
X8737600Y4724400D02*
G01*
X7874000Y5588000D01*
X6692900Y5588000D01*
X8737600Y4978400D02*
G01*
X7912100Y5803900D01*
X6692900Y5803900D01*
X2217414Y6899653D02*
G01*
X2843273Y6273800D01*
X8166100Y6273800D01*
X2204714Y8525253D02*
G01*
X2324100Y8405873D01*
X2324100Y7645400D01*
X3581400Y6388100D01*
X8026400Y6388100D01*
X1548531Y9296400D02*
G01*
X1554485Y9290458D01*
X1554485Y8975346D01*
X2490068Y8509000D02*
G01*
X2481585Y8500516D01*
X2481585Y8149846D01*
X1562968Y7747000D02*
G01*
X1567185Y7742775D01*
X1567185Y7349746D01*
X646844Y8432800D02*
G01*
X640085Y8426041D01*
X640085Y8060946D01*
X10008468Y8699500D02*
G01*
X10002514Y8693558D01*
X10002514Y8340346D01*
X11793214Y8289546D02*
G01*
X11799168Y8295487D01*
X11799168Y8686800D01*
X10993114Y9013446D02*
G01*
X10999068Y9019392D01*
X10999068Y9359900D01*
X10929614Y7591046D02*
G01*
X10908431Y7612230D01*
X10908431Y8115300D01*
X9855200Y4902200D02*
G01*
X9525000Y5232400D01*
X8737600Y5232400D01*
X8737600Y4724400D02*
G01*
X8813800Y4648200D01*
X9855200Y4648200D01*
X1290314Y7610853D02*
G01*
X1290314Y6837679D01*
X2070100Y6159500D01*
X8293100Y6146800D01*
X11185090Y10747809D02*
G01*
X10807700Y11125200D01*
X9144000Y11125200D01*
X8661400Y10642600D01*
X7010400Y10642600D01*
X10735109Y10747809D02*
G01*
X11532468Y9950450D01*
X11532468Y9906000D01*
X11125200Y5664200D02*
G01*
X10363200Y4902200D01*
X9855200Y4902200D01*
X1714500Y7975600D02*
G01*
X1713631Y7747000D01*
X496168Y8432800D02*
G01*
X495300Y8267700D01*
X1270000Y9296400D02*
G01*
X1397868Y9296400D01*
X508868Y10515600D02*
G01*
X508000Y10337800D01*
X3821831Y10439400D02*
G01*
X3822700Y10287000D01*
X2640731Y8509000D02*
G01*
X2806700Y8509000D01*
X9778131Y10299700D02*
G01*
X9779000Y10298831D01*
X9779000Y10096500D01*
X11506200Y8686800D02*
G01*
X11646768Y8686800D01*
X10591800Y8115300D02*
G01*
X10757768Y8115300D01*
X10159131Y8699500D02*
G01*
X10160000Y8432800D01*
X11683131Y9906000D02*
G01*
X11684000Y9766300D01*
X11149731Y9359900D02*
G01*
X11150600Y9194800D01*
X5637936Y4318000D02*
G01*
X5638800Y4317136D01*
X5638800Y4203700D01*
X7212838Y4343400D02*
G01*
X7213600Y4229100D01*
D11*
X11015197Y1703400D02*
G01*
X11149197Y1703400D01*
X11015197Y1753412D02*
G01*
X11149197Y1753412D01*
X11015197Y1803400D02*
G01*
X11149197Y1803400D01*
X11015197Y1853412D02*
G01*
X11149197Y1853412D01*
X11015197Y1903399D02*
G01*
X11149197Y1903399D01*
X10593202Y1703400D02*
G01*
X10727202Y1703400D01*
X10593202Y1753412D02*
G01*
X10727202Y1753412D01*
X10593202Y1803400D02*
G01*
X10727202Y1803400D01*
X10593202Y1853412D02*
G01*
X10727202Y1853412D01*
X10593202Y1903399D02*
G01*
X10727202Y1903399D01*
G36*
X10315625Y339260D02*
G01*
X10215549Y339260D01*
X10215549Y509440D01*
X10315625Y509440D01*
G37*
G36*
X10565650Y989312D02*
G01*
X10465574Y989312D01*
X10465574Y1159238D01*
X10565650Y1159238D01*
G37*
G36*
X10815624Y339234D02*
G01*
X10715548Y339234D01*
X10715548Y509414D01*
X10815624Y509414D01*
G37*
G36*
X11345649Y1281399D02*
G01*
X11345649Y1411000D01*
X11521399Y1411000D01*
X11521399Y1281399D01*
G37*
G36*
X11184150Y1281399D02*
G01*
X11184150Y1411000D01*
X11008400Y1411000D01*
X11008400Y1281399D01*
G37*
G36*
X10304249Y2259299D02*
G01*
X10304249Y2388900D01*
X10479999Y2388900D01*
X10479999Y2259299D01*
G37*
G36*
X10142750Y2259299D02*
G01*
X10142750Y2388900D01*
X9967000Y2388900D01*
X9967000Y2259299D01*
G37*
D15*
G01*
X10058400Y1849501D03*
G01*
X10058400Y1579498D03*
G01*
X11569700Y1900301D03*
G01*
X11569700Y1630298D03*
G36*
X3997401Y4160499D02*
G01*
X3997401Y4246900D01*
X4078048Y4246900D01*
X4078048Y4160499D01*
G37*
G36*
X3927398Y4160499D02*
G01*
X3927398Y4246900D01*
X3846751Y4246900D01*
X3846751Y4160499D01*
G37*
G36*
X9090101Y4122399D02*
G01*
X9090101Y4208800D01*
X9170748Y4208800D01*
X9170748Y4122399D01*
G37*
G36*
X9020098Y4122399D02*
G01*
X9020098Y4208800D01*
X8939451Y4208800D01*
X8939451Y4122399D01*
G37*
D17*
G01*
X5510784Y4851400D03*
G01*
X4750815Y4851400D03*
G01*
X6262115Y4813300D03*
G01*
X7022084Y4813300D03*
G36*
X3781501Y10396199D02*
G01*
X3781501Y10482600D01*
X3862148Y10482600D01*
X3862148Y10396199D01*
G37*
G36*
X3711498Y10396199D02*
G01*
X3711498Y10482600D01*
X3630851Y10482600D01*
X3630851Y10396199D01*
G37*
G36*
X9737801Y10256499D02*
G01*
X9737801Y10342900D01*
X9818448Y10342900D01*
X9818448Y10256499D01*
G37*
G36*
X9667798Y10256499D02*
G01*
X9667798Y10342900D01*
X9587151Y10342900D01*
X9587151Y10256499D01*
G37*
G36*
X11687098Y8730000D02*
G01*
X11687098Y8643599D01*
X11606451Y8643599D01*
X11606451Y8730000D01*
G37*
G36*
X11757101Y8730000D02*
G01*
X11757101Y8643599D01*
X11837748Y8643599D01*
X11837748Y8730000D01*
G37*
G36*
X10798098Y8158500D02*
G01*
X10798098Y8072099D01*
X10717451Y8072099D01*
X10717451Y8158500D01*
G37*
G36*
X10868101Y8158500D02*
G01*
X10868101Y8072099D01*
X10948748Y8072099D01*
X10948748Y8158500D01*
G37*
G36*
X1603298Y7790200D02*
G01*
X1603298Y7703799D01*
X1522651Y7703799D01*
X1522651Y7790200D01*
G37*
G36*
X1673301Y7790200D02*
G01*
X1673301Y7703799D01*
X1753948Y7703799D01*
X1753948Y7790200D01*
G37*
G36*
X606501Y8389599D02*
G01*
X606501Y8476000D01*
X687148Y8476000D01*
X687148Y8389599D01*
G37*
G36*
X536498Y8389599D02*
G01*
X536498Y8476000D01*
X455851Y8476000D01*
X455851Y8389599D01*
G37*
G36*
X619201Y10472399D02*
G01*
X619201Y10558800D01*
X699848Y10558800D01*
X699848Y10472399D01*
G37*
G36*
X549198Y10472399D02*
G01*
X549198Y10558800D01*
X468551Y10558800D01*
X468551Y10472399D01*
G37*
G36*
X2530398Y8552200D02*
G01*
X2530398Y8465799D01*
X2449751Y8465799D01*
X2449751Y8552200D01*
G37*
G36*
X2600401Y8552200D02*
G01*
X2600401Y8465799D01*
X2681048Y8465799D01*
X2681048Y8552200D01*
G37*
G36*
X11642801Y9862799D02*
G01*
X11642801Y9949200D01*
X11723448Y9949200D01*
X11723448Y9862799D01*
G37*
G36*
X11572798Y9862799D02*
G01*
X11572798Y9949200D01*
X11492151Y9949200D01*
X11492151Y9862799D01*
G37*
G36*
X5597601Y4274799D02*
G01*
X5597601Y4361200D01*
X5678248Y4361200D01*
X5678248Y4274799D01*
G37*
G36*
X5527598Y4274799D02*
G01*
X5527598Y4361200D01*
X5446951Y4361200D01*
X5446951Y4274799D01*
G37*
G36*
X7172401Y4300199D02*
G01*
X7172401Y4386600D01*
X7253048Y4386600D01*
X7253048Y4300199D01*
G37*
G36*
X7102398Y4300199D02*
G01*
X7102398Y4386600D01*
X7021751Y4386600D01*
X7021751Y4300199D01*
G37*
G36*
X1508201Y9253199D02*
G01*
X1508201Y9339600D01*
X1588848Y9339600D01*
X1588848Y9253199D01*
G37*
G36*
X1438198Y9253199D02*
G01*
X1438198Y9339600D01*
X1357551Y9339600D01*
X1357551Y9253199D01*
G37*
G36*
X11109401Y9316699D02*
G01*
X11109401Y9403100D01*
X11190048Y9403100D01*
X11190048Y9316699D01*
G37*
G36*
X11039398Y9316699D02*
G01*
X11039398Y9403100D01*
X10958751Y9403100D01*
X10958751Y9316699D01*
G37*
G36*
X10118801Y8656299D02*
G01*
X10118801Y8742700D01*
X10199448Y8742700D01*
X10199448Y8656299D01*
G37*
G36*
X10048798Y8656299D02*
G01*
X10048798Y8742700D01*
X9968151Y8742700D01*
X9968151Y8656299D01*
G37*
D18*
G01*
X9372600Y10960100D03*
G01*
X9626600Y10960100D03*
D19*
G01*
X8762796Y2575204D03*
G01*
X8762796Y1133195D03*
G01*
X3276803Y2575204D03*
G01*
X3276803Y1133195D03*
D20*
G01*
X1660093Y10773206D03*
G01*
X1210106Y10773206D03*
D21*
G01*
X1785086Y10523194D03*
G01*
X1085113Y10523194D03*
D20*
G01*
X11185093Y10760506D03*
G01*
X10735106Y10760506D03*
D21*
G01*
X11310086Y10510494D03*
G01*
X10610113Y10510494D03*
D18*
G01*
X3416300Y10858500D03*
G01*
X3670300Y10858500D03*
D22*
G01*
X11793220Y7839455D03*
G01*
X11793220Y8289544D03*
G01*
X11142979Y7839455D03*
G01*
X11142979Y8289544D03*
G01*
X10929620Y7140955D03*
G01*
X10929620Y7591044D03*
G01*
X10279379Y7140955D03*
G01*
X10279379Y7591044D03*
G01*
X2217420Y6899655D03*
G01*
X2217420Y7349744D03*
G01*
X1567179Y6899655D03*
G01*
X1567179Y7349744D03*
G01*
X1290320Y7610855D03*
G01*
X1290320Y8060944D03*
G01*
X640079Y7610855D03*
G01*
X640079Y8060944D03*
G01*
X3131820Y7699755D03*
G01*
X3131820Y8149844D03*
G01*
X2481579Y7699755D03*
G01*
X2481579Y8149844D03*
G01*
X2204720Y8525255D03*
G01*
X2204720Y8975344D03*
G01*
X1554479Y8525255D03*
G01*
X1554479Y8975344D03*
G01*
X10993120Y8563355D03*
G01*
X10993120Y9013444D03*
G01*
X10342879Y8563355D03*
G01*
X10342879Y9013444D03*
G01*
X10002520Y7890255D03*
G01*
X10002520Y8340344D03*
G01*
X9352279Y7890255D03*
G01*
X9352279Y8340344D03*
D23*
G01*
X952500Y4914900D03*
G01*
X952500Y4660900D03*
G01*
X952500Y4406900D03*
D24*
G01*
X2635250Y5422900D03*
G01*
X1301750Y5422900D03*
G01*
X1301750Y3898900D03*
G01*
X2635250Y3898900D03*
D23*
G01*
X2222500Y5676900D03*
G01*
X1968500Y5676900D03*
G01*
X1714500Y5676900D03*
G01*
X9855200Y4902200D03*
G01*
X9855200Y4648200D03*
G01*
X9855200Y4394200D03*
D24*
G01*
X11537950Y5410200D03*
G01*
X10204450Y5410200D03*
G01*
X10204450Y3886200D03*
G01*
X11537950Y3886200D03*
D23*
G01*
X11125200Y5664200D03*
G01*
X10871200Y5664200D03*
G01*
X10617200Y5664200D03*
G36*
X7010394Y7264400D02*
G01*
X7000844Y7265009D01*
X6991446Y7266812D01*
X6982327Y7269759D01*
X6973691Y7273823D01*
X6965614Y7278954D01*
X6958223Y7285050D01*
X6951670Y7292035D01*
X6946056Y7299782D01*
X6941433Y7308164D01*
X6937928Y7317054D01*
X6935541Y7326325D01*
X6934347Y7335824D01*
X6934347Y7345400D01*
X6935541Y7354874D01*
X6937928Y7364145D01*
X6941433Y7373061D01*
X6946056Y7381443D01*
X6951670Y7389190D01*
X6958223Y7396149D01*
X6965614Y7402245D01*
X6973691Y7407376D01*
X6982327Y7411465D01*
X6991446Y7414412D01*
X7000844Y7416215D01*
X7010394Y7416800D01*
X7162794Y7416800D01*
X7172345Y7416215D01*
X7181743Y7414412D01*
X7190836Y7411465D01*
X7199497Y7407376D01*
X7207575Y7402245D01*
X7214941Y7396149D01*
X7221494Y7389190D01*
X7227133Y7381443D01*
X7231730Y7373061D01*
X7235261Y7364145D01*
X7237648Y7354874D01*
X7238842Y7345400D01*
X7238842Y7335824D01*
X7237648Y7326325D01*
X7235261Y7317054D01*
X7231730Y7308164D01*
X7227133Y7299782D01*
X7221494Y7292035D01*
X7214941Y7285050D01*
X7207575Y7278954D01*
X7199497Y7273823D01*
X7190836Y7269759D01*
X7181743Y7266812D01*
X7172345Y7265009D01*
X7162794Y7264400D01*
G37*
G36*
X7010394Y7518400D02*
G01*
X7000844Y7519009D01*
X6991446Y7520812D01*
X6982327Y7523759D01*
X6973691Y7527823D01*
X6965614Y7532954D01*
X6958223Y7539050D01*
X6951670Y7546035D01*
X6946056Y7553782D01*
X6941433Y7562164D01*
X6937928Y7571054D01*
X6935541Y7580325D01*
X6934347Y7589824D01*
X6934347Y7599400D01*
X6935541Y7608874D01*
X6937928Y7618145D01*
X6941433Y7627061D01*
X6946056Y7635443D01*
X6951670Y7643190D01*
X6958223Y7650149D01*
X6965614Y7656245D01*
X6973691Y7661376D01*
X6982327Y7665465D01*
X6991446Y7668412D01*
X7000844Y7670215D01*
X7010394Y7670800D01*
X7162794Y7670800D01*
X7172345Y7670215D01*
X7181743Y7668412D01*
X7190836Y7665465D01*
X7199497Y7661376D01*
X7207575Y7656245D01*
X7214941Y7650149D01*
X7221494Y7643190D01*
X7227133Y7635443D01*
X7231730Y7627061D01*
X7235261Y7618145D01*
X7237648Y7608874D01*
X7238842Y7599400D01*
X7238842Y7589824D01*
X7237648Y7580325D01*
X7235261Y7571054D01*
X7231730Y7562164D01*
X7227133Y7553782D01*
X7221494Y7546035D01*
X7214941Y7539050D01*
X7207575Y7532954D01*
X7199497Y7527823D01*
X7190836Y7523759D01*
X7181743Y7520812D01*
X7172345Y7519009D01*
X7162794Y7518400D01*
G37*
G36*
X7010394Y7772400D02*
G01*
X7000844Y7773009D01*
X6991446Y7774812D01*
X6982327Y7777759D01*
X6973691Y7781823D01*
X6965614Y7786954D01*
X6958223Y7793050D01*
X6951670Y7800035D01*
X6946056Y7807782D01*
X6941433Y7816164D01*
X6937928Y7825054D01*
X6935541Y7834325D01*
X6934347Y7843824D01*
X6934347Y7853400D01*
X6935541Y7862874D01*
X6937928Y7872145D01*
X6941433Y7881061D01*
X6946056Y7889443D01*
X6951670Y7897190D01*
X6958223Y7904149D01*
X6965614Y7910245D01*
X6973691Y7915376D01*
X6982327Y7919465D01*
X6991446Y7922412D01*
X7000844Y7924215D01*
X7010394Y7924800D01*
X7162794Y7924800D01*
X7172345Y7924215D01*
X7181743Y7922412D01*
X7190836Y7919465D01*
X7199497Y7915376D01*
X7207575Y7910245D01*
X7214941Y7904149D01*
X7221494Y7897190D01*
X7227133Y7889443D01*
X7231730Y7881061D01*
X7235261Y7872145D01*
X7237648Y7862874D01*
X7238842Y7853400D01*
X7238842Y7843824D01*
X7237648Y7834325D01*
X7235261Y7825054D01*
X7231730Y7816164D01*
X7227133Y7807782D01*
X7221494Y7800035D01*
X7214941Y7793050D01*
X7207575Y7786954D01*
X7199497Y7781823D01*
X7190836Y7777759D01*
X7181743Y7774812D01*
X7172345Y7773009D01*
X7162794Y7772400D01*
G37*
G36*
X7010394Y8026400D02*
G01*
X7000844Y8027009D01*
X6991446Y8028812D01*
X6982327Y8031759D01*
X6973691Y8035823D01*
X6965614Y8040954D01*
X6958223Y8047050D01*
X6951670Y8054035D01*
X6946056Y8061782D01*
X6941433Y8070164D01*
X6937928Y8079054D01*
X6935541Y8088325D01*
X6934347Y8097824D01*
X6934347Y8107400D01*
X6935541Y8116874D01*
X6937928Y8126145D01*
X6941433Y8135061D01*
X6946056Y8143443D01*
X6951670Y8151190D01*
X6958223Y8158149D01*
X6965614Y8164245D01*
X6973691Y8169376D01*
X6982327Y8173465D01*
X6991446Y8176412D01*
X7000844Y8178215D01*
X7010394Y8178800D01*
X7162794Y8178800D01*
X7172345Y8178215D01*
X7181743Y8176412D01*
X7190836Y8173465D01*
X7199497Y8169376D01*
X7207575Y8164245D01*
X7214941Y8158149D01*
X7221494Y8151190D01*
X7227133Y8143443D01*
X7231730Y8135061D01*
X7235261Y8126145D01*
X7237648Y8116874D01*
X7238842Y8107400D01*
X7238842Y8097824D01*
X7237648Y8088325D01*
X7235261Y8079054D01*
X7231730Y8070164D01*
X7227133Y8061782D01*
X7221494Y8054035D01*
X7214941Y8047050D01*
X7207575Y8040954D01*
X7199497Y8035823D01*
X7190836Y8031759D01*
X7181743Y8028812D01*
X7172345Y8027009D01*
X7162794Y8026400D01*
G37*
G36*
X7010394Y8280400D02*
G01*
X7000844Y8281009D01*
X6991446Y8282787D01*
X6982327Y8285759D01*
X6973691Y8289823D01*
X6965614Y8294954D01*
X6958223Y8301050D01*
X6951670Y8308035D01*
X6946056Y8315782D01*
X6941433Y8324164D01*
X6937928Y8333054D01*
X6935541Y8342325D01*
X6934347Y8351824D01*
X6934347Y8361400D01*
X6935541Y8370874D01*
X6937928Y8380145D01*
X6941433Y8389061D01*
X6946056Y8397443D01*
X6951670Y8405164D01*
X6958223Y8412149D01*
X6965614Y8418245D01*
X6973691Y8423376D01*
X6982327Y8427465D01*
X6991446Y8430412D01*
X7000844Y8432215D01*
X7010394Y8432800D01*
X7162794Y8432800D01*
X7172345Y8432215D01*
X7181743Y8430412D01*
X7190836Y8427465D01*
X7199497Y8423376D01*
X7207575Y8418245D01*
X7214941Y8412149D01*
X7221494Y8405164D01*
X7227133Y8397443D01*
X7231730Y8389061D01*
X7235261Y8380145D01*
X7237648Y8370874D01*
X7238842Y8361400D01*
X7238842Y8351824D01*
X7237648Y8342325D01*
X7235261Y8333054D01*
X7231730Y8324164D01*
X7227133Y8315782D01*
X7221494Y8308035D01*
X7214941Y8301050D01*
X7207575Y8294954D01*
X7199497Y8289823D01*
X7190836Y8285759D01*
X7181743Y8282787D01*
X7172345Y8281009D01*
X7162794Y8280400D01*
G37*
G36*
X7010394Y8534400D02*
G01*
X7000844Y8535009D01*
X6991446Y8536787D01*
X6982327Y8539759D01*
X6973691Y8543823D01*
X6965614Y8548954D01*
X6958223Y8555050D01*
X6951670Y8562035D01*
X6946056Y8569782D01*
X6941433Y8578164D01*
X6937928Y8587054D01*
X6935541Y8596325D01*
X6934347Y8605824D01*
X6934347Y8615400D01*
X6935541Y8624874D01*
X6937928Y8634145D01*
X6941433Y8643061D01*
X6946056Y8651443D01*
X6951670Y8659164D01*
X6958223Y8666149D01*
X6965614Y8672245D01*
X6973691Y8677376D01*
X6982327Y8681465D01*
X6991446Y8684412D01*
X7000844Y8686215D01*
X7010394Y8686800D01*
X7162794Y8686800D01*
X7172345Y8686215D01*
X7181743Y8684412D01*
X7190836Y8681465D01*
X7199497Y8677376D01*
X7207575Y8672245D01*
X7214941Y8666149D01*
X7221494Y8659164D01*
X7227133Y8651443D01*
X7231730Y8643061D01*
X7235261Y8634145D01*
X7237648Y8624874D01*
X7238842Y8615400D01*
X7238842Y8605824D01*
X7237648Y8596325D01*
X7235261Y8587054D01*
X7231730Y8578164D01*
X7227133Y8569782D01*
X7221494Y8562035D01*
X7214941Y8555050D01*
X7207575Y8548954D01*
X7199497Y8543823D01*
X7190836Y8539759D01*
X7181743Y8536787D01*
X7172345Y8535009D01*
X7162794Y8534400D01*
G37*
G36*
X7010394Y9042400D02*
G01*
X7000844Y9043009D01*
X6991446Y9044787D01*
X6982327Y9047759D01*
X6973691Y9051823D01*
X6965614Y9056954D01*
X6958223Y9063050D01*
X6951670Y9070035D01*
X6946056Y9077782D01*
X6941433Y9086164D01*
X6937928Y9095054D01*
X6935541Y9104325D01*
X6934347Y9113824D01*
X6934347Y9123400D01*
X6935541Y9132874D01*
X6937928Y9142145D01*
X6941433Y9151061D01*
X6946056Y9159443D01*
X6951670Y9167164D01*
X6958223Y9174149D01*
X6965614Y9180245D01*
X6973691Y9185376D01*
X6982327Y9189440D01*
X6991446Y9192412D01*
X7000844Y9194215D01*
X7010394Y9194800D01*
X7162794Y9194800D01*
X7172345Y9194215D01*
X7181743Y9192412D01*
X7190836Y9189440D01*
X7199497Y9185376D01*
X7207575Y9180245D01*
X7214941Y9174149D01*
X7221494Y9167164D01*
X7227133Y9159443D01*
X7231730Y9151061D01*
X7235261Y9142145D01*
X7237648Y9132874D01*
X7238842Y9123400D01*
X7238842Y9113824D01*
X7237648Y9104325D01*
X7235261Y9095054D01*
X7231730Y9086164D01*
X7227133Y9077782D01*
X7221494Y9070035D01*
X7214941Y9063050D01*
X7207575Y9056954D01*
X7199497Y9051823D01*
X7190836Y9047759D01*
X7181743Y9044787D01*
X7172345Y9043009D01*
X7162794Y9042400D01*
G37*
G36*
X7010394Y9296400D02*
G01*
X7000844Y9297009D01*
X6991446Y9298787D01*
X6982327Y9301759D01*
X6973691Y9305823D01*
X6965614Y9310954D01*
X6958223Y9317050D01*
X6951670Y9324035D01*
X6946056Y9331782D01*
X6941433Y9340164D01*
X6937928Y9349054D01*
X6935541Y9358325D01*
X6934347Y9367824D01*
X6934347Y9377400D01*
X6935541Y9386874D01*
X6937928Y9396145D01*
X6941433Y9405035D01*
X6946056Y9413443D01*
X6951670Y9421164D01*
X6958223Y9428149D01*
X6965614Y9434245D01*
X6973691Y9439376D01*
X6982327Y9443440D01*
X6991446Y9446412D01*
X7000844Y9448190D01*
X7010394Y9448800D01*
X7162794Y9448800D01*
X7172345Y9448190D01*
X7181743Y9446412D01*
X7190836Y9443440D01*
X7199497Y9439376D01*
X7207575Y9434245D01*
X7214941Y9428149D01*
X7221494Y9421164D01*
X7227133Y9413443D01*
X7231730Y9405035D01*
X7235261Y9396145D01*
X7237648Y9386874D01*
X7238842Y9377400D01*
X7238842Y9367824D01*
X7237648Y9358325D01*
X7235261Y9349054D01*
X7231730Y9340164D01*
X7227133Y9331782D01*
X7221494Y9324035D01*
X7214941Y9317050D01*
X7207575Y9310954D01*
X7199497Y9305823D01*
X7190836Y9301759D01*
X7181743Y9298787D01*
X7172345Y9297009D01*
X7162794Y9296400D01*
G37*
G36*
X7010394Y9550400D02*
G01*
X7000844Y9551009D01*
X6991446Y9552787D01*
X6982327Y9555759D01*
X6973691Y9559823D01*
X6965614Y9564954D01*
X6958223Y9571050D01*
X6951670Y9578035D01*
X6946056Y9585782D01*
X6941433Y9594164D01*
X6937928Y9603054D01*
X6935541Y9612325D01*
X6934347Y9621824D01*
X6934347Y9631400D01*
X6935541Y9640874D01*
X6937928Y9650145D01*
X6941433Y9659035D01*
X6946056Y9667443D01*
X6951670Y9675164D01*
X6958223Y9682149D01*
X6965614Y9688245D01*
X6973691Y9693376D01*
X6982327Y9697440D01*
X6991446Y9700412D01*
X7000844Y9702190D01*
X7010394Y9702800D01*
X7162794Y9702800D01*
X7172345Y9702190D01*
X7181743Y9700412D01*
X7190836Y9697440D01*
X7199497Y9693376D01*
X7207575Y9688245D01*
X7214941Y9682149D01*
X7221494Y9675164D01*
X7227133Y9667443D01*
X7231730Y9659035D01*
X7235261Y9650145D01*
X7237648Y9640874D01*
X7238842Y9631400D01*
X7238842Y9621824D01*
X7237648Y9612325D01*
X7235261Y9603054D01*
X7231730Y9594164D01*
X7227133Y9585782D01*
X7221494Y9578035D01*
X7214941Y9571050D01*
X7207575Y9564954D01*
X7199497Y9559823D01*
X7190836Y9555759D01*
X7181743Y9552787D01*
X7172345Y9551009D01*
X7162794Y9550400D01*
G37*
G36*
X7010394Y9804400D02*
G01*
X7000844Y9805009D01*
X6991446Y9806787D01*
X6982327Y9809759D01*
X6973691Y9813823D01*
X6965614Y9818954D01*
X6958223Y9825050D01*
X6951670Y9832035D01*
X6946056Y9839782D01*
X6941433Y9848164D01*
X6937928Y9857054D01*
X6935541Y9866325D01*
X6934347Y9875824D01*
X6934347Y9885375D01*
X6935541Y9894874D01*
X6937928Y9904145D01*
X6941433Y9913035D01*
X6946056Y9921443D01*
X6951670Y9929164D01*
X6958223Y9936149D01*
X6965614Y9942245D01*
X6973691Y9947376D01*
X6982327Y9951440D01*
X6991446Y9954412D01*
X7000844Y9956190D01*
X7010394Y9956800D01*
X7162794Y9956800D01*
X7172345Y9956190D01*
X7181743Y9954412D01*
X7190836Y9951440D01*
X7199497Y9947376D01*
X7207575Y9942245D01*
X7214941Y9936149D01*
X7221494Y9929164D01*
X7227133Y9921443D01*
X7231730Y9913035D01*
X7235261Y9904145D01*
X7237648Y9894874D01*
X7238842Y9885375D01*
X7238842Y9875824D01*
X7237648Y9866325D01*
X7235261Y9857054D01*
X7231730Y9848164D01*
X7227133Y9839782D01*
X7221494Y9832035D01*
X7214941Y9825050D01*
X7207575Y9818954D01*
X7199497Y9813823D01*
X7190836Y9809759D01*
X7181743Y9806787D01*
X7172345Y9805009D01*
X7162794Y9804400D01*
G37*
G36*
X7010394Y10058400D02*
G01*
X7000844Y10059009D01*
X6991446Y10060787D01*
X6982327Y10063759D01*
X6973691Y10067823D01*
X6965614Y10072954D01*
X6958223Y10079050D01*
X6951670Y10086035D01*
X6946056Y10093782D01*
X6941433Y10102164D01*
X6937928Y10111054D01*
X6935541Y10120325D01*
X6934347Y10129824D01*
X6934347Y10139375D01*
X6935541Y10148874D01*
X6937928Y10158145D01*
X6941433Y10167035D01*
X6946056Y10175443D01*
X6951670Y10183164D01*
X6958223Y10190149D01*
X6965614Y10196245D01*
X6973691Y10201376D01*
X6982327Y10205440D01*
X6991446Y10208412D01*
X7000844Y10210190D01*
X7010394Y10210800D01*
X7162794Y10210800D01*
X7172345Y10210190D01*
X7181743Y10208412D01*
X7190836Y10205440D01*
X7199497Y10201376D01*
X7207575Y10196245D01*
X7214941Y10190149D01*
X7221494Y10183164D01*
X7227133Y10175443D01*
X7231730Y10167035D01*
X7235261Y10158145D01*
X7237648Y10148874D01*
X7238842Y10139375D01*
X7238842Y10129824D01*
X7237648Y10120325D01*
X7235261Y10111054D01*
X7231730Y10102164D01*
X7227133Y10093782D01*
X7221494Y10086035D01*
X7214941Y10079050D01*
X7207575Y10072954D01*
X7199497Y10067823D01*
X7190836Y10063759D01*
X7181743Y10060787D01*
X7172345Y10059009D01*
X7162794Y10058400D01*
G37*
G36*
X7010394Y10312400D02*
G01*
X7000844Y10313009D01*
X6991446Y10314787D01*
X6982327Y10317759D01*
X6973691Y10321823D01*
X6965614Y10326954D01*
X6958223Y10333050D01*
X6951670Y10340035D01*
X6946056Y10347782D01*
X6941433Y10356164D01*
X6937928Y10365054D01*
X6935541Y10374325D01*
X6934347Y10383824D01*
X6934347Y10393375D01*
X6935541Y10402874D01*
X6937928Y10412145D01*
X6941433Y10421035D01*
X6946056Y10429443D01*
X6951670Y10437164D01*
X6958223Y10444149D01*
X6965614Y10450245D01*
X6973691Y10455376D01*
X6982327Y10459440D01*
X6991446Y10462412D01*
X7000844Y10464190D01*
X7010394Y10464800D01*
X7162794Y10464800D01*
X7172345Y10464190D01*
X7181743Y10462412D01*
X7190836Y10459440D01*
X7199497Y10455376D01*
X7207575Y10450245D01*
X7214941Y10444149D01*
X7221494Y10437164D01*
X7227133Y10429443D01*
X7231730Y10421035D01*
X7235261Y10412145D01*
X7237648Y10402874D01*
X7238842Y10393375D01*
X7238842Y10383824D01*
X7237648Y10374325D01*
X7235261Y10365054D01*
X7231730Y10356164D01*
X7227133Y10347782D01*
X7221494Y10340035D01*
X7214941Y10333050D01*
X7207575Y10326954D01*
X7199497Y10321823D01*
X7190836Y10317759D01*
X7181743Y10314787D01*
X7172345Y10313009D01*
X7162794Y10312400D01*
G37*
G36*
X7010394Y10566400D02*
G01*
X7000844Y10567009D01*
X6991446Y10568787D01*
X6982327Y10571759D01*
X6973691Y10575823D01*
X6965614Y10580954D01*
X6958223Y10587050D01*
X6951670Y10594035D01*
X6946056Y10601782D01*
X6941433Y10610164D01*
X6937928Y10619054D01*
X6935541Y10628325D01*
X6934347Y10637824D01*
X6934347Y10647375D01*
X6935541Y10656874D01*
X6937928Y10666145D01*
X6941433Y10675035D01*
X6946056Y10683443D01*
X6951670Y10691164D01*
X6958223Y10698149D01*
X6965614Y10704245D01*
X6973691Y10709376D01*
X6982327Y10713440D01*
X6991446Y10716412D01*
X7000844Y10718190D01*
X7010394Y10718800D01*
X7162794Y10718800D01*
X7172345Y10718190D01*
X7181743Y10716412D01*
X7190836Y10713440D01*
X7199497Y10709376D01*
X7207575Y10704245D01*
X7214941Y10698149D01*
X7221494Y10691164D01*
X7227133Y10683443D01*
X7231730Y10675035D01*
X7235261Y10666145D01*
X7237648Y10656874D01*
X7238842Y10647375D01*
X7238842Y10637824D01*
X7237648Y10628325D01*
X7235261Y10619054D01*
X7231730Y10610164D01*
X7227133Y10601782D01*
X7221494Y10594035D01*
X7214941Y10587050D01*
X7207575Y10580954D01*
X7199497Y10575823D01*
X7190836Y10571759D01*
X7181743Y10568787D01*
X7172345Y10567009D01*
X7162794Y10566400D01*
G37*
G36*
X7010394Y10820400D02*
G01*
X7000844Y10821009D01*
X6991446Y10822787D01*
X6982327Y10825759D01*
X6973691Y10829823D01*
X6965614Y10834954D01*
X6958223Y10841050D01*
X6951670Y10848035D01*
X6946056Y10855782D01*
X6941433Y10864164D01*
X6937928Y10873054D01*
X6935541Y10882325D01*
X6934347Y10891824D01*
X6934347Y10901375D01*
X6935541Y10910874D01*
X6937928Y10920145D01*
X6941433Y10929035D01*
X6946056Y10937443D01*
X6951670Y10945164D01*
X6958223Y10952149D01*
X6965614Y10958245D01*
X6973691Y10963376D01*
X6982327Y10967440D01*
X6991446Y10970412D01*
X7000844Y10972190D01*
X7010394Y10972800D01*
X7162794Y10972800D01*
X7172345Y10972190D01*
X7181743Y10970412D01*
X7190836Y10967440D01*
X7199497Y10963376D01*
X7207575Y10958245D01*
X7214941Y10952149D01*
X7221494Y10945164D01*
X7227133Y10937443D01*
X7231730Y10929035D01*
X7235261Y10920145D01*
X7237648Y10910874D01*
X7238842Y10901375D01*
X7238842Y10891824D01*
X7237648Y10882325D01*
X7235261Y10873054D01*
X7231730Y10864164D01*
X7227133Y10855782D01*
X7221494Y10848035D01*
X7214941Y10841050D01*
X7207575Y10834954D01*
X7199497Y10829823D01*
X7190836Y10825759D01*
X7181743Y10822787D01*
X7172345Y10821009D01*
X7162794Y10820400D01*
G37*
G36*
X5486400Y10972800D02*
G01*
X5495950Y10972190D01*
X5505348Y10970412D01*
X5514441Y10967440D01*
X5523102Y10963376D01*
X5531180Y10958245D01*
X5538571Y10952149D01*
X5545124Y10945164D01*
X5550738Y10937443D01*
X5555335Y10929035D01*
X5558866Y10920145D01*
X5561253Y10910874D01*
X5562447Y10901375D01*
X5562447Y10891824D01*
X5561253Y10882325D01*
X5558866Y10873054D01*
X5555335Y10864164D01*
X5550738Y10855782D01*
X5545124Y10848035D01*
X5538571Y10841050D01*
X5531180Y10834954D01*
X5523102Y10829823D01*
X5514441Y10825759D01*
X5505348Y10822787D01*
X5495950Y10821009D01*
X5486400Y10820400D01*
X5334000Y10820400D01*
X5324449Y10821009D01*
X5315051Y10822787D01*
X5305958Y10825759D01*
X5297297Y10829823D01*
X5289219Y10834954D01*
X5281828Y10841050D01*
X5275275Y10848035D01*
X5269661Y10855782D01*
X5265064Y10864164D01*
X5261533Y10873054D01*
X5259146Y10882325D01*
X5257952Y10891824D01*
X5257952Y10901375D01*
X5259146Y10910874D01*
X5261533Y10920145D01*
X5265064Y10929035D01*
X5269661Y10937443D01*
X5275275Y10945164D01*
X5281828Y10952149D01*
X5289219Y10958245D01*
X5297297Y10963376D01*
X5305958Y10967440D01*
X5315051Y10970412D01*
X5324449Y10972190D01*
X5334000Y10972800D01*
G37*
G36*
X5486400Y10718800D02*
G01*
X5495950Y10718190D01*
X5505348Y10716412D01*
X5514441Y10713440D01*
X5523102Y10709376D01*
X5531180Y10704245D01*
X5538571Y10698149D01*
X5545124Y10691164D01*
X5550738Y10683443D01*
X5555335Y10675035D01*
X5558866Y10666145D01*
X5561253Y10656874D01*
X5562447Y10647375D01*
X5562447Y10637824D01*
X5561253Y10628325D01*
X5558866Y10619054D01*
X5555335Y10610164D01*
X5550738Y10601782D01*
X5545124Y10594035D01*
X5538571Y10587050D01*
X5531180Y10580954D01*
X5523102Y10575823D01*
X5514441Y10571759D01*
X5505348Y10568787D01*
X5495950Y10567009D01*
X5486400Y10566400D01*
X5334000Y10566400D01*
X5324449Y10567009D01*
X5315051Y10568787D01*
X5305958Y10571759D01*
X5297297Y10575823D01*
X5289219Y10580954D01*
X5281828Y10587050D01*
X5275275Y10594035D01*
X5269661Y10601782D01*
X5265064Y10610164D01*
X5261533Y10619054D01*
X5259146Y10628325D01*
X5257952Y10637824D01*
X5257952Y10647375D01*
X5259146Y10656874D01*
X5261533Y10666145D01*
X5265064Y10675035D01*
X5269661Y10683443D01*
X5275275Y10691164D01*
X5281828Y10698149D01*
X5289219Y10704245D01*
X5297297Y10709376D01*
X5305958Y10713440D01*
X5315051Y10716412D01*
X5324449Y10718190D01*
X5334000Y10718800D01*
G37*
G36*
X5486400Y10464800D02*
G01*
X5495950Y10464190D01*
X5505348Y10462412D01*
X5514441Y10459440D01*
X5523102Y10455376D01*
X5531180Y10450245D01*
X5538571Y10444149D01*
X5545124Y10437164D01*
X5550738Y10429443D01*
X5555335Y10421035D01*
X5558866Y10412145D01*
X5561253Y10402874D01*
X5562447Y10393375D01*
X5562447Y10383824D01*
X5561253Y10374325D01*
X5558866Y10365054D01*
X5555335Y10356164D01*
X5550738Y10347782D01*
X5545124Y10340035D01*
X5538571Y10333050D01*
X5531180Y10326954D01*
X5523102Y10321823D01*
X5514441Y10317759D01*
X5505348Y10314787D01*
X5495950Y10313009D01*
X5486400Y10312400D01*
X5334000Y10312400D01*
X5324449Y10313009D01*
X5315051Y10314787D01*
X5305958Y10317759D01*
X5297297Y10321823D01*
X5289219Y10326954D01*
X5281828Y10333050D01*
X5275275Y10340035D01*
X5269661Y10347782D01*
X5265064Y10356164D01*
X5261533Y10365054D01*
X5259146Y10374325D01*
X5257952Y10383824D01*
X5257952Y10393375D01*
X5259146Y10402874D01*
X5261533Y10412145D01*
X5265064Y10421035D01*
X5269661Y10429443D01*
X5275275Y10437164D01*
X5281828Y10444149D01*
X5289219Y10450245D01*
X5297297Y10455376D01*
X5305958Y10459440D01*
X5315051Y10462412D01*
X5324449Y10464190D01*
X5334000Y10464800D01*
G37*
G36*
X5486400Y10210800D02*
G01*
X5495950Y10210190D01*
X5505348Y10208412D01*
X5514441Y10205440D01*
X5523102Y10201376D01*
X5531180Y10196245D01*
X5538571Y10190149D01*
X5545124Y10183164D01*
X5550738Y10175443D01*
X5555335Y10167035D01*
X5558866Y10158145D01*
X5561253Y10148874D01*
X5562447Y10139375D01*
X5562447Y10129824D01*
X5561253Y10120325D01*
X5558866Y10111054D01*
X5555335Y10102164D01*
X5550738Y10093782D01*
X5545124Y10086035D01*
X5538571Y10079050D01*
X5531180Y10072954D01*
X5523102Y10067823D01*
X5514441Y10063759D01*
X5505348Y10060787D01*
X5495950Y10059009D01*
X5486400Y10058400D01*
X5334000Y10058400D01*
X5324449Y10059009D01*
X5315051Y10060787D01*
X5305958Y10063759D01*
X5297297Y10067823D01*
X5289219Y10072954D01*
X5281828Y10079050D01*
X5275275Y10086035D01*
X5269661Y10093782D01*
X5265064Y10102164D01*
X5261533Y10111054D01*
X5259146Y10120325D01*
X5257952Y10129824D01*
X5257952Y10139375D01*
X5259146Y10148874D01*
X5261533Y10158145D01*
X5265064Y10167035D01*
X5269661Y10175443D01*
X5275275Y10183164D01*
X5281828Y10190149D01*
X5289219Y10196245D01*
X5297297Y10201376D01*
X5305958Y10205440D01*
X5315051Y10208412D01*
X5324449Y10210190D01*
X5334000Y10210800D01*
G37*
G36*
X5486400Y9956800D02*
G01*
X5495950Y9956190D01*
X5505348Y9954412D01*
X5514441Y9951440D01*
X5523102Y9947376D01*
X5531180Y9942245D01*
X5538571Y9936149D01*
X5545124Y9929164D01*
X5550738Y9921443D01*
X5555335Y9913035D01*
X5558866Y9904145D01*
X5561253Y9894874D01*
X5562447Y9885375D01*
X5562447Y9875824D01*
X5561253Y9866325D01*
X5558866Y9857054D01*
X5555335Y9848164D01*
X5550738Y9839782D01*
X5545124Y9832035D01*
X5538571Y9825050D01*
X5531180Y9818954D01*
X5523102Y9813823D01*
X5514441Y9809759D01*
X5505348Y9806787D01*
X5495950Y9805009D01*
X5486400Y9804400D01*
X5334000Y9804400D01*
X5324449Y9805009D01*
X5315051Y9806787D01*
X5305958Y9809759D01*
X5297297Y9813823D01*
X5289219Y9818954D01*
X5281828Y9825050D01*
X5275275Y9832035D01*
X5269661Y9839782D01*
X5265064Y9848164D01*
X5261533Y9857054D01*
X5259146Y9866325D01*
X5257952Y9875824D01*
X5257952Y9885375D01*
X5259146Y9894874D01*
X5261533Y9904145D01*
X5265064Y9913035D01*
X5269661Y9921443D01*
X5275275Y9929164D01*
X5281828Y9936149D01*
X5289219Y9942245D01*
X5297297Y9947376D01*
X5305958Y9951440D01*
X5315051Y9954412D01*
X5324449Y9956190D01*
X5334000Y9956800D01*
G37*
G36*
X5486400Y9702800D02*
G01*
X5495950Y9702190D01*
X5505348Y9700412D01*
X5514441Y9697440D01*
X5523102Y9693376D01*
X5531180Y9688245D01*
X5538571Y9682149D01*
X5545124Y9675164D01*
X5550738Y9667443D01*
X5555335Y9659035D01*
X5558866Y9650145D01*
X5561253Y9640874D01*
X5562447Y9631400D01*
X5562447Y9621824D01*
X5561253Y9612325D01*
X5558866Y9603054D01*
X5555335Y9594164D01*
X5550738Y9585782D01*
X5545124Y9578035D01*
X5538571Y9571050D01*
X5531180Y9564954D01*
X5523102Y9559823D01*
X5514441Y9555759D01*
X5505348Y9552787D01*
X5495950Y9551009D01*
X5486400Y9550400D01*
X5334000Y9550400D01*
X5324449Y9551009D01*
X5315051Y9552787D01*
X5305958Y9555759D01*
X5297297Y9559823D01*
X5289219Y9564954D01*
X5281828Y9571050D01*
X5275275Y9578035D01*
X5269661Y9585782D01*
X5265064Y9594164D01*
X5261533Y9603054D01*
X5259146Y9612325D01*
X5257952Y9621824D01*
X5257952Y9631400D01*
X5259146Y9640874D01*
X5261533Y9650145D01*
X5265064Y9659035D01*
X5269661Y9667443D01*
X5275275Y9675164D01*
X5281828Y9682149D01*
X5289219Y9688245D01*
X5297297Y9693376D01*
X5305958Y9697440D01*
X5315051Y9700412D01*
X5324449Y9702190D01*
X5334000Y9702800D01*
G37*
G36*
X5486400Y9448800D02*
G01*
X5495950Y9448190D01*
X5505348Y9446412D01*
X5514441Y9443440D01*
X5523102Y9439376D01*
X5531180Y9434245D01*
X5538571Y9428149D01*
X5545124Y9421164D01*
X5550738Y9413443D01*
X5555335Y9405035D01*
X5558866Y9396145D01*
X5561253Y9386874D01*
X5562447Y9377400D01*
X5562447Y9367824D01*
X5561253Y9358325D01*
X5558866Y9349054D01*
X5555335Y9340164D01*
X5550738Y9331782D01*
X5545124Y9324035D01*
X5538571Y9317050D01*
X5531180Y9310954D01*
X5523102Y9305823D01*
X5514441Y9301759D01*
X5505348Y9298787D01*
X5495950Y9297009D01*
X5486400Y9296400D01*
X5334000Y9296400D01*
X5324449Y9297009D01*
X5315051Y9298787D01*
X5305958Y9301759D01*
X5297297Y9305823D01*
X5289219Y9310954D01*
X5281828Y9317050D01*
X5275275Y9324035D01*
X5269661Y9331782D01*
X5265064Y9340164D01*
X5261533Y9349054D01*
X5259146Y9358325D01*
X5257952Y9367824D01*
X5257952Y9377400D01*
X5259146Y9386874D01*
X5261533Y9396145D01*
X5265064Y9405035D01*
X5269661Y9413443D01*
X5275275Y9421164D01*
X5281828Y9428149D01*
X5289219Y9434245D01*
X5297297Y9439376D01*
X5305958Y9443440D01*
X5315051Y9446412D01*
X5324449Y9448190D01*
X5334000Y9448800D01*
G37*
G36*
X5486400Y9194800D02*
G01*
X5495950Y9194215D01*
X5505348Y9192412D01*
X5514441Y9189440D01*
X5523102Y9185376D01*
X5531180Y9180245D01*
X5538571Y9174149D01*
X5545124Y9167164D01*
X5550738Y9159443D01*
X5555335Y9151061D01*
X5558866Y9142145D01*
X5561253Y9132874D01*
X5562447Y9123400D01*
X5562447Y9113824D01*
X5561253Y9104325D01*
X5558866Y9095054D01*
X5555335Y9086164D01*
X5550738Y9077782D01*
X5545124Y9070035D01*
X5538571Y9063050D01*
X5531180Y9056954D01*
X5523102Y9051823D01*
X5514441Y9047759D01*
X5505348Y9044787D01*
X5495950Y9043009D01*
X5486400Y9042400D01*
X5334000Y9042400D01*
X5324449Y9043009D01*
X5315051Y9044787D01*
X5305958Y9047759D01*
X5297297Y9051823D01*
X5289219Y9056954D01*
X5281828Y9063050D01*
X5275275Y9070035D01*
X5269661Y9077782D01*
X5265064Y9086164D01*
X5261533Y9095054D01*
X5259146Y9104325D01*
X5257952Y9113824D01*
X5257952Y9123400D01*
X5259146Y9132874D01*
X5261533Y9142145D01*
X5265064Y9151061D01*
X5269661Y9159443D01*
X5275275Y9167164D01*
X5281828Y9174149D01*
X5289219Y9180245D01*
X5297297Y9185376D01*
X5305958Y9189440D01*
X5315051Y9192412D01*
X5324449Y9194215D01*
X5334000Y9194800D01*
G37*
G36*
X5486400Y8940800D02*
G01*
X5495950Y8940215D01*
X5505348Y8938412D01*
X5514441Y8935465D01*
X5523102Y8931376D01*
X5531180Y8926245D01*
X5538571Y8920149D01*
X5545124Y8913164D01*
X5550738Y8905443D01*
X5555335Y8897061D01*
X5558866Y8888145D01*
X5561253Y8878874D01*
X5562447Y8869400D01*
X5562447Y8859824D01*
X5561253Y8850325D01*
X5558866Y8841054D01*
X5555335Y8832164D01*
X5550738Y8823782D01*
X5545124Y8816035D01*
X5538571Y8809050D01*
X5531180Y8802954D01*
X5523102Y8797823D01*
X5514441Y8793759D01*
X5505348Y8790787D01*
X5495950Y8789009D01*
X5486400Y8788400D01*
X5334000Y8788400D01*
X5324449Y8789009D01*
X5315051Y8790787D01*
X5305958Y8793759D01*
X5297297Y8797823D01*
X5289219Y8802954D01*
X5281828Y8809050D01*
X5275275Y8816035D01*
X5269661Y8823782D01*
X5265064Y8832164D01*
X5261533Y8841054D01*
X5259146Y8850325D01*
X5257952Y8859824D01*
X5257952Y8869400D01*
X5259146Y8878874D01*
X5261533Y8888145D01*
X5265064Y8897061D01*
X5269661Y8905443D01*
X5275275Y8913164D01*
X5281828Y8920149D01*
X5289219Y8926245D01*
X5297297Y8931376D01*
X5305958Y8935465D01*
X5315051Y8938412D01*
X5324449Y8940215D01*
X5334000Y8940800D01*
G37*
G36*
X5486400Y8686800D02*
G01*
X5495950Y8686215D01*
X5505348Y8684412D01*
X5514441Y8681465D01*
X5523102Y8677376D01*
X5531180Y8672245D01*
X5538571Y8666149D01*
X5545124Y8659164D01*
X5550738Y8651443D01*
X5555335Y8643061D01*
X5558866Y8634145D01*
X5561253Y8624874D01*
X5562447Y8615400D01*
X5562447Y8605824D01*
X5561253Y8596325D01*
X5558866Y8587054D01*
X5555335Y8578164D01*
X5550738Y8569782D01*
X5545124Y8562035D01*
X5538571Y8555050D01*
X5531180Y8548954D01*
X5523102Y8543823D01*
X5514441Y8539759D01*
X5505348Y8536787D01*
X5495950Y8535009D01*
X5486400Y8534400D01*
X5334000Y8534400D01*
X5324449Y8535009D01*
X5315051Y8536787D01*
X5305958Y8539759D01*
X5297297Y8543823D01*
X5289219Y8548954D01*
X5281828Y8555050D01*
X5275275Y8562035D01*
X5269661Y8569782D01*
X5265064Y8578164D01*
X5261533Y8587054D01*
X5259146Y8596325D01*
X5257952Y8605824D01*
X5257952Y8615400D01*
X5259146Y8624874D01*
X5261533Y8634145D01*
X5265064Y8643061D01*
X5269661Y8651443D01*
X5275275Y8659164D01*
X5281828Y8666149D01*
X5289219Y8672245D01*
X5297297Y8677376D01*
X5305958Y8681465D01*
X5315051Y8684412D01*
X5324449Y8686215D01*
X5334000Y8686800D01*
G37*
G36*
X5486400Y8432800D02*
G01*
X5495950Y8432215D01*
X5505348Y8430412D01*
X5514441Y8427465D01*
X5523102Y8423376D01*
X5531180Y8418245D01*
X5538571Y8412149D01*
X5545124Y8405164D01*
X5550738Y8397443D01*
X5555335Y8389061D01*
X5558866Y8380145D01*
X5561253Y8370874D01*
X5562447Y8361400D01*
X5562447Y8351824D01*
X5561253Y8342325D01*
X5558866Y8333054D01*
X5555335Y8324164D01*
X5550738Y8315782D01*
X5545124Y8308035D01*
X5538571Y8301050D01*
X5531180Y8294954D01*
X5523102Y8289823D01*
X5514441Y8285759D01*
X5505348Y8282787D01*
X5495950Y8281009D01*
X5486400Y8280400D01*
X5334000Y8280400D01*
X5324449Y8281009D01*
X5315051Y8282787D01*
X5305958Y8285759D01*
X5297297Y8289823D01*
X5289219Y8294954D01*
X5281828Y8301050D01*
X5275275Y8308035D01*
X5269661Y8315782D01*
X5265064Y8324164D01*
X5261533Y8333054D01*
X5259146Y8342325D01*
X5257952Y8351824D01*
X5257952Y8361400D01*
X5259146Y8370874D01*
X5261533Y8380145D01*
X5265064Y8389061D01*
X5269661Y8397443D01*
X5275275Y8405164D01*
X5281828Y8412149D01*
X5289219Y8418245D01*
X5297297Y8423376D01*
X5305958Y8427465D01*
X5315051Y8430412D01*
X5324449Y8432215D01*
X5334000Y8432800D01*
G37*
G36*
X5486400Y8178800D02*
G01*
X5495950Y8178215D01*
X5505348Y8176412D01*
X5514441Y8173465D01*
X5523102Y8169376D01*
X5531180Y8164245D01*
X5538571Y8158149D01*
X5545124Y8151190D01*
X5550738Y8143443D01*
X5555335Y8135061D01*
X5558866Y8126145D01*
X5561253Y8116874D01*
X5562447Y8107400D01*
X5562447Y8097824D01*
X5561253Y8088325D01*
X5558866Y8079054D01*
X5555335Y8070164D01*
X5550738Y8061782D01*
X5545124Y8054035D01*
X5538571Y8047050D01*
X5531180Y8040954D01*
X5523102Y8035823D01*
X5514441Y8031759D01*
X5505348Y8028812D01*
X5495950Y8027009D01*
X5486400Y8026400D01*
X5334000Y8026400D01*
X5324449Y8027009D01*
X5315051Y8028812D01*
X5305958Y8031759D01*
X5297297Y8035823D01*
X5289219Y8040954D01*
X5281828Y8047050D01*
X5275275Y8054035D01*
X5269661Y8061782D01*
X5265064Y8070164D01*
X5261533Y8079054D01*
X5259146Y8088325D01*
X5257952Y8097824D01*
X5257952Y8107400D01*
X5259146Y8116874D01*
X5261533Y8126145D01*
X5265064Y8135061D01*
X5269661Y8143443D01*
X5275275Y8151190D01*
X5281828Y8158149D01*
X5289219Y8164245D01*
X5297297Y8169376D01*
X5305958Y8173465D01*
X5315051Y8176412D01*
X5324449Y8178215D01*
X5334000Y8178800D01*
G37*
G36*
X5486400Y7924800D02*
G01*
X5495950Y7924215D01*
X5505348Y7922412D01*
X5514441Y7919465D01*
X5523102Y7915376D01*
X5531180Y7910245D01*
X5538571Y7904149D01*
X5545124Y7897190D01*
X5550738Y7889443D01*
X5555335Y7881061D01*
X5558866Y7872145D01*
X5561253Y7862874D01*
X5562447Y7853400D01*
X5562447Y7843824D01*
X5561253Y7834325D01*
X5558866Y7825054D01*
X5555335Y7816164D01*
X5550738Y7807782D01*
X5545124Y7800035D01*
X5538571Y7793050D01*
X5531180Y7786954D01*
X5523102Y7781823D01*
X5514441Y7777759D01*
X5505348Y7774812D01*
X5495950Y7773009D01*
X5486400Y7772400D01*
X5334000Y7772400D01*
X5324449Y7773009D01*
X5315051Y7774812D01*
X5305958Y7777759D01*
X5297297Y7781823D01*
X5289219Y7786954D01*
X5281828Y7793050D01*
X5275275Y7800035D01*
X5269661Y7807782D01*
X5265064Y7816164D01*
X5261533Y7825054D01*
X5259146Y7834325D01*
X5257952Y7843824D01*
X5257952Y7853400D01*
X5259146Y7862874D01*
X5261533Y7872145D01*
X5265064Y7881061D01*
X5269661Y7889443D01*
X5275275Y7897190D01*
X5281828Y7904149D01*
X5289219Y7910245D01*
X5297297Y7915376D01*
X5305958Y7919465D01*
X5315051Y7922412D01*
X5324449Y7924215D01*
X5334000Y7924800D01*
G37*
G36*
X5486400Y7670800D02*
G01*
X5495950Y7670215D01*
X5505348Y7668412D01*
X5514441Y7665465D01*
X5523102Y7661376D01*
X5531180Y7656245D01*
X5538571Y7650149D01*
X5545124Y7643190D01*
X5550738Y7635443D01*
X5555335Y7627061D01*
X5558866Y7618145D01*
X5561253Y7608874D01*
X5562447Y7599400D01*
X5562447Y7589824D01*
X5561253Y7580325D01*
X5558866Y7571054D01*
X5555335Y7562164D01*
X5550738Y7553782D01*
X5545124Y7546035D01*
X5538571Y7539050D01*
X5531180Y7532954D01*
X5523102Y7527823D01*
X5514441Y7523759D01*
X5505348Y7520812D01*
X5495950Y7519009D01*
X5486400Y7518400D01*
X5334000Y7518400D01*
X5324449Y7519009D01*
X5315051Y7520812D01*
X5305958Y7523759D01*
X5297297Y7527823D01*
X5289219Y7532954D01*
X5281828Y7539050D01*
X5275275Y7546035D01*
X5269661Y7553782D01*
X5265064Y7562164D01*
X5261533Y7571054D01*
X5259146Y7580325D01*
X5257952Y7589824D01*
X5257952Y7599400D01*
X5259146Y7608874D01*
X5261533Y7618145D01*
X5265064Y7627061D01*
X5269661Y7635443D01*
X5275275Y7643190D01*
X5281828Y7650149D01*
X5289219Y7656245D01*
X5297297Y7661376D01*
X5305958Y7665465D01*
X5315051Y7668412D01*
X5324449Y7670215D01*
X5334000Y7670800D01*
G37*
G36*
X7010400Y8788400D02*
G01*
X7000849Y8789009D01*
X6991451Y8790787D01*
X6982333Y8793759D01*
X6973697Y8797823D01*
X6965619Y8802954D01*
X6958228Y8809050D01*
X6951675Y8816035D01*
X6946061Y8823782D01*
X6941438Y8832164D01*
X6937933Y8841054D01*
X6935546Y8850325D01*
X6934352Y8859824D01*
X6934352Y8869400D01*
X6935546Y8878874D01*
X6937933Y8888145D01*
X6941438Y8897061D01*
X6946061Y8905443D01*
X6951675Y8913164D01*
X6958228Y8920149D01*
X6965619Y8926245D01*
X6973697Y8931376D01*
X6982333Y8935440D01*
X6991451Y8938412D01*
X7000849Y8940215D01*
X7010400Y8940800D01*
X7162800Y8940800D01*
X7172350Y8940215D01*
X7181748Y8938412D01*
X7190841Y8935440D01*
X7199502Y8931376D01*
X7207580Y8926245D01*
X7214946Y8920149D01*
X7221499Y8913164D01*
X7227138Y8905443D01*
X7231735Y8897061D01*
X7235266Y8888145D01*
X7237653Y8878874D01*
X7238847Y8869400D01*
X7238847Y8859824D01*
X7237653Y8850325D01*
X7235266Y8841054D01*
X7231735Y8832164D01*
X7227138Y8823782D01*
X7221499Y8816035D01*
X7214946Y8809050D01*
X7207580Y8802954D01*
X7199502Y8797823D01*
X7190841Y8793759D01*
X7181748Y8790787D01*
X7172350Y8789009D01*
X7162800Y8788400D01*
G37*
G36*
X5499100Y7416800D02*
G01*
X5508650Y7416215D01*
X5518048Y7414412D01*
X5527141Y7411465D01*
X5535802Y7407376D01*
X5543880Y7402245D01*
X5551271Y7396149D01*
X5557824Y7389190D01*
X5563438Y7381443D01*
X5568035Y7373061D01*
X5571566Y7364145D01*
X5573953Y7354874D01*
X5575147Y7345400D01*
X5575147Y7335824D01*
X5573953Y7326325D01*
X5571566Y7317054D01*
X5568035Y7308164D01*
X5563438Y7299782D01*
X5557824Y7292035D01*
X5551271Y7285050D01*
X5543880Y7278954D01*
X5535802Y7273823D01*
X5527141Y7269759D01*
X5518048Y7266812D01*
X5508650Y7265009D01*
X5499100Y7264400D01*
X5346700Y7264400D01*
X5337149Y7265009D01*
X5327751Y7266812D01*
X5318658Y7269759D01*
X5309997Y7273823D01*
X5301919Y7278954D01*
X5294528Y7285050D01*
X5287975Y7292035D01*
X5282361Y7299782D01*
X5277764Y7308164D01*
X5274233Y7317054D01*
X5271846Y7326325D01*
X5270652Y7335824D01*
X5270652Y7345400D01*
X5271846Y7354874D01*
X5274233Y7364145D01*
X5277764Y7373061D01*
X5282361Y7381443D01*
X5287975Y7389190D01*
X5294528Y7396149D01*
X5301919Y7402245D01*
X5309997Y7407376D01*
X5318658Y7411465D01*
X5327751Y7414412D01*
X5337149Y7416215D01*
X5346700Y7416800D01*
G37*
D12*
G01*
X9842500Y8547100D03*
G01*
X7747000Y7340600D03*
G01*
X7899400Y6527800D03*
G01*
X8026400Y6388100D03*
G01*
X8166100Y6273800D03*
G01*
X8293100Y6146800D03*
G01*
X8013700Y9626600D03*
G01*
X6692900Y5803900D03*
G01*
X6692900Y5588000D03*
G01*
X4305300Y6019800D03*
G01*
X8521700Y6743700D03*
G01*
X8928100Y10299700D03*
G01*
X7899400Y5956300D03*
G01*
X4826000Y5956300D03*
G01*
X4826000Y8356600D03*
G01*
X4826000Y9296400D03*
G01*
X7404100Y5232400D03*
G01*
X7531100Y5422900D03*
G01*
X3416300Y10706100D03*
G01*
X7747000Y5461000D03*
G01*
X4000500Y5575300D03*
G01*
X8737600Y5232400D03*
G01*
X8737600Y4978400D03*
G01*
X1714500Y7975600D03*
G01*
X495300Y8267700D03*
G01*
X1270000Y9296400D03*
G01*
X508000Y10337800D03*
G01*
X3822700Y10287000D03*
G01*
X2806700Y8509000D03*
G01*
X10591800Y8115300D03*
G01*
X9779000Y10096500D03*
G01*
X11506200Y8686800D03*
G01*
X10160000Y8432800D03*
G01*
X11684000Y9766300D03*
G01*
X11150600Y9194800D03*
G01*
X10439400Y1943100D03*
G01*
X10439400Y1727200D03*
G01*
X11569700Y1511300D03*
G01*
X10045700Y1346200D03*
G01*
X11087100Y1549400D03*
G01*
X7289800Y3530600D03*
G01*
X5638800Y4203700D03*
G01*
X7213600Y4229100D03*
G01*
X10388600Y419100D03*
D23*
X3218586Y5067300D02*
G01*
X3218586Y4889500D01*
X3218586Y4432300D02*
G01*
X3218586Y4254500D01*
X2768600Y5067300D02*
G01*
X2768600Y4889500D01*
X2768600Y4432300D02*
G01*
X2768600Y4254500D01*
X12121286Y5054600D02*
G01*
X12121286Y4876800D01*
X12121286Y4419600D02*
G01*
X12121286Y4241800D01*
X11671300Y5054600D02*
G01*
X11671300Y4876800D01*
X11671300Y4419600D02*
G01*
X11671300Y4241800D01*
M02*
