G04 Layer: TopPasteMaskLayer*
G04 EasyEDA v6.5.5, 2022-06-05 13:50:50*
G04 bb107c5f8ef14f278ad1c4d5784ba212,a4ea12fd96744f7d9b8618c9b4952ea7,10*
G04 Gerber Generator version 0.2*
G04 Scale: 100 percent, Rotated: No, Reflected: No *
G04 Dimensions in millimeters *
G04 leading zeros omitted , absolute positions ,4 integer and 5 decimal *
%FSLAX45Y45*%
%MOMM*%

%ADD11C,0.2800*%
%ADD15R,1.4000X1.2000*%
%ADD17R,1.4000X1.5000*%

%LPD*%
G36*
X4001922Y4248708D02*
G01*
X3996893Y4243679D01*
X3996893Y4220921D01*
X4033875Y4220921D01*
X4033875Y4187901D01*
X3996893Y4187901D01*
X3996893Y4163720D01*
X4001922Y4158691D01*
X4081881Y4158691D01*
X4086910Y4163720D01*
X4086910Y4243679D01*
X4081881Y4248708D01*
G37*
G36*
X3842918Y4248708D02*
G01*
X3837889Y4243679D01*
X3837889Y4163720D01*
X3842918Y4158691D01*
X3921912Y4158691D01*
X3926890Y4163720D01*
X3926890Y4187901D01*
X3888892Y4187901D01*
X3888892Y4220921D01*
X3926890Y4220921D01*
X3926890Y4243679D01*
X3921912Y4248708D01*
G37*
G36*
X9094622Y4210608D02*
G01*
X9089593Y4205579D01*
X9089593Y4182821D01*
X9126575Y4182821D01*
X9126575Y4149801D01*
X9089593Y4149801D01*
X9089593Y4125620D01*
X9094622Y4120591D01*
X9174581Y4120591D01*
X9179610Y4125620D01*
X9179610Y4205579D01*
X9174581Y4210608D01*
G37*
G36*
X8935618Y4210608D02*
G01*
X8930589Y4205579D01*
X8930589Y4125620D01*
X8935618Y4120591D01*
X9014612Y4120591D01*
X9019590Y4125620D01*
X9019590Y4149801D01*
X8981592Y4149801D01*
X8981592Y4182821D01*
X9019590Y4182821D01*
X9019590Y4205579D01*
X9014612Y4210608D01*
G37*
G36*
X3786022Y10484408D02*
G01*
X3780993Y10479379D01*
X3780993Y10456621D01*
X3817975Y10456621D01*
X3817975Y10423601D01*
X3780993Y10423601D01*
X3780993Y10399420D01*
X3786022Y10394391D01*
X3865981Y10394391D01*
X3871010Y10399420D01*
X3871010Y10479379D01*
X3865981Y10484408D01*
G37*
G36*
X3627018Y10484408D02*
G01*
X3621989Y10479379D01*
X3621989Y10399420D01*
X3627018Y10394391D01*
X3706012Y10394391D01*
X3710990Y10399420D01*
X3710990Y10423601D01*
X3672992Y10423601D01*
X3672992Y10456621D01*
X3710990Y10456621D01*
X3710990Y10479379D01*
X3706012Y10484408D01*
G37*
G36*
X9742322Y10344708D02*
G01*
X9737293Y10339679D01*
X9737293Y10316921D01*
X9774275Y10316921D01*
X9774275Y10283901D01*
X9737293Y10283901D01*
X9737293Y10259720D01*
X9742322Y10254691D01*
X9822281Y10254691D01*
X9827310Y10259720D01*
X9827310Y10339679D01*
X9822281Y10344708D01*
G37*
G36*
X9583318Y10344708D02*
G01*
X9578289Y10339679D01*
X9578289Y10259720D01*
X9583318Y10254691D01*
X9662312Y10254691D01*
X9667290Y10259720D01*
X9667290Y10283901D01*
X9629292Y10283901D01*
X9629292Y10316921D01*
X9667290Y10316921D01*
X9667290Y10339679D01*
X9662312Y10344708D01*
G37*
G36*
X11602618Y8731808D02*
G01*
X11597589Y8726779D01*
X11597589Y8646820D01*
X11602618Y8641791D01*
X11682577Y8641791D01*
X11687606Y8646820D01*
X11687606Y8669578D01*
X11650624Y8669578D01*
X11650624Y8702598D01*
X11687606Y8702598D01*
X11687606Y8726779D01*
X11682577Y8731808D01*
G37*
G36*
X11762587Y8731808D02*
G01*
X11757609Y8726779D01*
X11757609Y8702598D01*
X11795607Y8702598D01*
X11795607Y8669578D01*
X11757609Y8669578D01*
X11757609Y8646820D01*
X11762587Y8641791D01*
X11841581Y8641791D01*
X11846610Y8646820D01*
X11846610Y8726779D01*
X11841581Y8731808D01*
G37*
G36*
X10713618Y8160308D02*
G01*
X10708589Y8155279D01*
X10708589Y8075320D01*
X10713618Y8070291D01*
X10793577Y8070291D01*
X10798606Y8075320D01*
X10798606Y8098078D01*
X10761624Y8098078D01*
X10761624Y8131098D01*
X10798606Y8131098D01*
X10798606Y8155279D01*
X10793577Y8160308D01*
G37*
G36*
X10873587Y8160308D02*
G01*
X10868609Y8155279D01*
X10868609Y8131098D01*
X10906607Y8131098D01*
X10906607Y8098078D01*
X10868609Y8098078D01*
X10868609Y8075320D01*
X10873587Y8070291D01*
X10952581Y8070291D01*
X10957610Y8075320D01*
X10957610Y8155279D01*
X10952581Y8160308D01*
G37*
G36*
X1518818Y7792008D02*
G01*
X1513789Y7786979D01*
X1513789Y7707020D01*
X1518818Y7701991D01*
X1598777Y7701991D01*
X1603806Y7707020D01*
X1603806Y7729778D01*
X1566824Y7729778D01*
X1566824Y7762798D01*
X1603806Y7762798D01*
X1603806Y7786979D01*
X1598777Y7792008D01*
G37*
G36*
X1678787Y7792008D02*
G01*
X1673809Y7786979D01*
X1673809Y7762798D01*
X1711807Y7762798D01*
X1711807Y7729778D01*
X1673809Y7729778D01*
X1673809Y7707020D01*
X1678787Y7701991D01*
X1757781Y7701991D01*
X1762810Y7707020D01*
X1762810Y7786979D01*
X1757781Y7792008D01*
G37*
G36*
X611022Y8477808D02*
G01*
X605993Y8472779D01*
X605993Y8450021D01*
X642975Y8450021D01*
X642975Y8417001D01*
X605993Y8417001D01*
X605993Y8392820D01*
X611022Y8387791D01*
X690981Y8387791D01*
X696010Y8392820D01*
X696010Y8472779D01*
X690981Y8477808D01*
G37*
G36*
X452018Y8477808D02*
G01*
X446989Y8472779D01*
X446989Y8392820D01*
X452018Y8387791D01*
X531012Y8387791D01*
X535990Y8392820D01*
X535990Y8417001D01*
X497992Y8417001D01*
X497992Y8450021D01*
X535990Y8450021D01*
X535990Y8472779D01*
X531012Y8477808D01*
G37*
G36*
X623722Y10560608D02*
G01*
X618693Y10555579D01*
X618693Y10532821D01*
X655675Y10532821D01*
X655675Y10499801D01*
X618693Y10499801D01*
X618693Y10475620D01*
X623722Y10470591D01*
X703681Y10470591D01*
X708710Y10475620D01*
X708710Y10555579D01*
X703681Y10560608D01*
G37*
G36*
X464718Y10560608D02*
G01*
X459689Y10555579D01*
X459689Y10475620D01*
X464718Y10470591D01*
X543712Y10470591D01*
X548690Y10475620D01*
X548690Y10499801D01*
X510692Y10499801D01*
X510692Y10532821D01*
X548690Y10532821D01*
X548690Y10555579D01*
X543712Y10560608D01*
G37*
G36*
X2445918Y8554008D02*
G01*
X2440889Y8548979D01*
X2440889Y8469020D01*
X2445918Y8463991D01*
X2525877Y8463991D01*
X2530906Y8469020D01*
X2530906Y8491778D01*
X2493924Y8491778D01*
X2493924Y8524798D01*
X2530906Y8524798D01*
X2530906Y8548979D01*
X2525877Y8554008D01*
G37*
G36*
X2605887Y8554008D02*
G01*
X2600909Y8548979D01*
X2600909Y8524798D01*
X2638907Y8524798D01*
X2638907Y8491778D01*
X2600909Y8491778D01*
X2600909Y8469020D01*
X2605887Y8463991D01*
X2684881Y8463991D01*
X2689910Y8469020D01*
X2689910Y8548979D01*
X2684881Y8554008D01*
G37*
G36*
X11647322Y9951008D02*
G01*
X11642293Y9945979D01*
X11642293Y9923221D01*
X11679275Y9923221D01*
X11679275Y9890201D01*
X11642293Y9890201D01*
X11642293Y9866020D01*
X11647322Y9860991D01*
X11727281Y9860991D01*
X11732310Y9866020D01*
X11732310Y9945979D01*
X11727281Y9951008D01*
G37*
G36*
X11488318Y9951008D02*
G01*
X11483289Y9945979D01*
X11483289Y9866020D01*
X11488318Y9860991D01*
X11567312Y9860991D01*
X11572290Y9866020D01*
X11572290Y9890201D01*
X11534292Y9890201D01*
X11534292Y9923221D01*
X11572290Y9923221D01*
X11572290Y9945979D01*
X11567312Y9951008D01*
G37*
G36*
X5602122Y4363008D02*
G01*
X5597093Y4357979D01*
X5597093Y4335221D01*
X5634075Y4335221D01*
X5634075Y4302201D01*
X5597093Y4302201D01*
X5597093Y4278020D01*
X5602122Y4272991D01*
X5682081Y4272991D01*
X5687110Y4278020D01*
X5687110Y4357979D01*
X5682081Y4363008D01*
G37*
G36*
X5443118Y4363008D02*
G01*
X5438089Y4357979D01*
X5438089Y4278020D01*
X5443118Y4272991D01*
X5522112Y4272991D01*
X5527090Y4278020D01*
X5527090Y4302201D01*
X5489092Y4302201D01*
X5489092Y4335221D01*
X5527090Y4335221D01*
X5527090Y4357979D01*
X5522112Y4363008D01*
G37*
G36*
X7176922Y4388408D02*
G01*
X7171893Y4383379D01*
X7171893Y4360621D01*
X7208875Y4360621D01*
X7208875Y4327601D01*
X7171893Y4327601D01*
X7171893Y4303420D01*
X7176922Y4298391D01*
X7256881Y4298391D01*
X7261910Y4303420D01*
X7261910Y4383379D01*
X7256881Y4388408D01*
G37*
G36*
X7017918Y4388408D02*
G01*
X7012889Y4383379D01*
X7012889Y4303420D01*
X7017918Y4298391D01*
X7096912Y4298391D01*
X7101890Y4303420D01*
X7101890Y4327601D01*
X7063892Y4327601D01*
X7063892Y4360621D01*
X7101890Y4360621D01*
X7101890Y4383379D01*
X7096912Y4388408D01*
G37*
G36*
X1512722Y9341408D02*
G01*
X1507693Y9336379D01*
X1507693Y9313621D01*
X1544675Y9313621D01*
X1544675Y9280601D01*
X1507693Y9280601D01*
X1507693Y9256420D01*
X1512722Y9251391D01*
X1592681Y9251391D01*
X1597710Y9256420D01*
X1597710Y9336379D01*
X1592681Y9341408D01*
G37*
G36*
X1353718Y9341408D02*
G01*
X1348689Y9336379D01*
X1348689Y9256420D01*
X1353718Y9251391D01*
X1432712Y9251391D01*
X1437690Y9256420D01*
X1437690Y9280601D01*
X1399692Y9280601D01*
X1399692Y9313621D01*
X1437690Y9313621D01*
X1437690Y9336379D01*
X1432712Y9341408D01*
G37*
G36*
X11113922Y9404908D02*
G01*
X11108893Y9399879D01*
X11108893Y9377121D01*
X11145875Y9377121D01*
X11145875Y9344101D01*
X11108893Y9344101D01*
X11108893Y9319920D01*
X11113922Y9314891D01*
X11193881Y9314891D01*
X11198910Y9319920D01*
X11198910Y9399879D01*
X11193881Y9404908D01*
G37*
G36*
X10954918Y9404908D02*
G01*
X10949889Y9399879D01*
X10949889Y9319920D01*
X10954918Y9314891D01*
X11033912Y9314891D01*
X11038890Y9319920D01*
X11038890Y9344101D01*
X11000892Y9344101D01*
X11000892Y9377121D01*
X11038890Y9377121D01*
X11038890Y9399879D01*
X11033912Y9404908D01*
G37*
G36*
X10123322Y8744508D02*
G01*
X10118293Y8739479D01*
X10118293Y8716721D01*
X10155275Y8716721D01*
X10155275Y8683701D01*
X10118293Y8683701D01*
X10118293Y8659520D01*
X10123322Y8654491D01*
X10203281Y8654491D01*
X10208310Y8659520D01*
X10208310Y8739479D01*
X10203281Y8744508D01*
G37*
G36*
X9964318Y8744508D02*
G01*
X9959289Y8739479D01*
X9959289Y8659520D01*
X9964318Y8654491D01*
X10043312Y8654491D01*
X10048290Y8659520D01*
X10048290Y8683701D01*
X10010292Y8683701D01*
X10010292Y8716721D01*
X10048290Y8716721D01*
X10048290Y8739479D01*
X10043312Y8744508D01*
G37*
D11*
X11015197Y1703400D02*
G01*
X11149197Y1703400D01*
X11015197Y1753412D02*
G01*
X11149197Y1753412D01*
X11015197Y1803400D02*
G01*
X11149197Y1803400D01*
X11015197Y1853412D02*
G01*
X11149197Y1853412D01*
X11015197Y1903399D02*
G01*
X11149197Y1903399D01*
X10593202Y1703400D02*
G01*
X10727202Y1703400D01*
X10593202Y1753412D02*
G01*
X10727202Y1753412D01*
X10593202Y1803400D02*
G01*
X10727202Y1803400D01*
X10593202Y1853412D02*
G01*
X10727202Y1853412D01*
X10593202Y1903399D02*
G01*
X10727202Y1903399D01*
G36*
X10315625Y339260D02*
G01*
X10215549Y339260D01*
X10215549Y509440D01*
X10315625Y509440D01*
G37*
G36*
X10565650Y989312D02*
G01*
X10465574Y989312D01*
X10465574Y1159238D01*
X10565650Y1159238D01*
G37*
G36*
X10815624Y339234D02*
G01*
X10715548Y339234D01*
X10715548Y509414D01*
X10815624Y509414D01*
G37*
G36*
X11345649Y1281399D02*
G01*
X11345649Y1411000D01*
X11521399Y1411000D01*
X11521399Y1281399D01*
G37*
G36*
X11184150Y1281399D02*
G01*
X11184150Y1411000D01*
X11008400Y1411000D01*
X11008400Y1281399D01*
G37*
G36*
X10304249Y2259299D02*
G01*
X10304249Y2388900D01*
X10479999Y2388900D01*
X10479999Y2259299D01*
G37*
G36*
X10142750Y2259299D02*
G01*
X10142750Y2388900D01*
X9967000Y2388900D01*
X9967000Y2259299D01*
G37*
D15*
G01*
X10058400Y1849501D03*
G01*
X10058400Y1579498D03*
G01*
X11569700Y1900301D03*
G01*
X11569700Y1630298D03*
D17*
G01*
X5510784Y4851400D03*
G01*
X4750815Y4851400D03*
G01*
X6262115Y4813300D03*
G01*
X7022084Y4813300D03*
M02*
